<svg version="1.1" viewBox="0.0 0.0 960.0 540.0" fill="none" stroke="none" stroke-linecap="square" stroke-miterlimit="10" xmlns:xlink="http://www.w3.org/1999/xlink" xmlns="http://www.w3.org/2000/svg"><clipPath id="p.0"><path d="m0 0l960.0 0l0 540.0l-960.0 0l0 -540.0z" clip-rule="nonzero"/></clipPath><g clip-path="url(#p.0)"><path fill="#37474f" d="m0 0l960.0 0l0 540.0l-960.0 0z" fill-rule="evenodd"/><path fill="#ffffff" d="m474.46158 305.3221l0 0c0 -3.0624084 2.4830627 -5.544983 5.5460815 -5.544983l0 0c1.4709167 0 2.8815918 0.584198 3.9216614 1.6240845c1.0401001 1.0398865 1.6244202 2.4502869 1.6244202 3.9208984l0 0c0 3.0624084 -2.4830627 5.5450134 -5.5460815 5.5450134l0 0c-3.0630188 0 -5.5460815 -2.482605 -5.5460815 -5.5450134z" fill-rule="evenodd"/><path fill="#ffffff" d="m492.201 305.3221l0 0c0 -3.0624084 2.4830627 -5.544983 5.5460815 -5.544983l0 0c1.4709167 0 2.8815918 0.584198 3.921692 1.6240845c1.0400696 1.0398865 1.6243896 2.4502869 1.6243896 3.9208984l0 0c0 3.0624084 -2.4830627 5.5450134 -5.5460815 5.5450134l0 0c-3.0630188 0 -5.5460815 -2.482605 -5.5460815 -5.5450134z" fill-rule="evenodd"/><path fill="#ffffff" d="m456.72217 305.3221l0 0c0 -3.0624084 2.4830627 -5.544983 5.5460815 -5.544983l0 0c1.4709167 0 2.8815918 0.584198 3.9216614 1.6240845c1.0401001 1.0398865 1.6244202 2.4502869 1.6244202 3.9208984l0 0c0 3.0624084 -2.4830627 5.5450134 -5.5460815 5.5450134l0 0c-3.0630188 0 -5.5460815 -2.482605 -5.5460815 -5.5450134z" fill-rule="evenodd"/><path fill="#000000" fill-opacity="0.0" d="m70.47324 104.020996l819.0551 0l0 181.63779l-819.0551 0z" fill-rule="evenodd"/><path fill="#ffffff" d="m152.46701 179.84879q-13.25 -3.75 -20.0 -13.75l-14.749992 0q-5.75 11.25 -19.5 15.0l-2.0 -5.0q11.5 -3.0 16.25 -10.0l-15.25 0l0 -4.0l14.5 0l0 -19.0l-10.75 0l0 -4.0l10.75 0l0 -7.0l4.75 0q2.5 0.25 0.25 1.5l0 5.5l16.749992 0l0 -7.0l4.75 0q2.5 0.25 0.25 1.5l0 5.5l10.25 0l0 4.0l-10.25 0l0 19.0l14.25 0l0 4.0l-14.5 0q3.5 5.25 16.25 8.5l-2.0 5.25zm-39.749992 -1.75l0 -4.0l9.75 0l0 -5.5l4.75 0q2.4999924 0.25 0.25 1.5l0 4.0l10.249992 0l0 4.0l-10.249992 0l0 5.0l21.499992 0l0 4.75l-47.749992 0l0 -4.75l21.25 0l0 -5.0l-9.75 0zm4.0 -35.0l0 3.75l16.749992 0l0 -3.75l-16.749992 0zm0 7.75l0 3.5l16.749992 0l0 -3.5l-16.749992 0zm0 7.5l0 3.75l16.749992 0l0 -3.75l-16.749992 0zm44.999992 3.0l0 -5.5l24.75 0l0 -14.0l-20.0 0l0 -5.5l45.0 0l0 5.5l-19.25 0l0 14.0l24.25 0l0 5.5l-24.25 0l0 23.5q0 3.25 -3.25 3.25l-6.75 0l-1.25 -5.5l4.5 0q1.0 0 1.0 -1.0l0 -20.25l-24.75 0z" fill-rule="nonzero"/><path fill="#ffffff" d="m225.24826 184.09879l0 -51.84375l7.234375 0l0 24.453125l11.90625 -24.453125l6.71875 0l-10.25 22.859375l11.90625 28.984375l-7.03125 0l-9.921875 -24.3125l-3.328125 6.015625l0 18.296875l-7.234375 0zm36.414337 0.515625q-2.171875 0 -3.390625 -1.15625q-1.21875 -1.15625 -1.703125 -2.875q-0.46875 -1.734375 -0.46875 -3.53125l0 -29.9375l6.84375 0l0 27.890625q0 1.984375 0.578125 3.109375q0.578125 1.125 2.359375 1.125q1.15625 0 2.40625 -0.671875q1.25 -0.671875 2.40625 -1.640625l0 -29.8125l6.84375 0l0 36.984375l-6.84375 0l0 -3.640625q-1.796875 1.71875 -4.078125 2.9375q-2.265625 1.21875 -4.953125 1.21875zm36.097443 0q-1.984375 0 -3.5625 -0.984375q-1.5625 -1.0 -2.703125 -2.21875l0 2.6875l-6.859375 0l0 -51.84375l6.859375 0l0 17.796875q1.203125 -1.40625 2.90625 -2.421875q1.703125 -1.03125 4.0625 -1.03125q2.875 0 4.578125 1.5q1.703125 1.5 2.53125 3.78125q0.828125 2.265625 1.078125 4.609375q0.265625 2.328125 0.265625 4.0l0 8.953125q0 3.90625 -0.78125 7.390625q-0.765625 3.484375 -2.75 5.640625q-1.96875 2.140625 -5.625 2.140625zm-1.40625 -5.375q1.796875 0 2.5625 -1.3125q0.765625 -1.3125 0.953125 -3.546875q0.203125 -2.25 0.203125 -4.9375l0 -8.953125q0 -2.3125 -0.265625 -4.265625q-0.25 -1.953125 -1.09375 -3.09375q-0.828125 -1.15625 -2.609375 -1.15625q-1.34375 0 -2.53125 0.578125q-1.1875 0.578125 -2.078125 1.28125l0 23.734375q0.890625 0.703125 2.140625 1.1875q1.25 0.484375 2.71875 0.484375zm27.014221 5.375q-4.359375 0 -6.734375 -1.6875q-2.359375 -1.703125 -3.296875 -5.0q-0.921875 -3.296875 -0.921875 -8.09375l0 -8.453125q0 -4.921875 0.953125 -8.1875q0.96875 -3.265625 3.359375 -4.921875q2.40625 -1.671875 6.640625 -1.671875q4.671875 0 6.875 1.921875q2.203125 1.921875 2.90625 5.53125q0.703125 3.609375 0.703125 8.671875l0 3.0l-14.59375 0l0 7.4375q0 2.234375 0.421875 3.640625q0.421875 1.40625 1.34375 2.078125q0.921875 0.671875 2.40625 0.671875q1.53125 0 2.328125 -0.734375q0.796875 -0.734375 1.078125 -2.109375q0.296875 -1.375 0.296875 -3.234375l0 -2.234375l6.65625 0l0 1.40625q0 5.5625 -2.375 8.765625q-2.359375 3.203125 -8.046875 3.203125zm-4.109375 -22.59375l7.875 0l0 -3.328125q0 -2.3125 -0.265625 -3.875q-0.25 -1.5625 -1.046875 -2.359375q-0.796875 -0.8125 -2.53125 -0.8125q-1.65625 0 -2.53125 0.78125q-0.859375 0.765625 -1.1875 2.59375q-0.3125 1.8125 -0.3125 5.015625l0 1.984375zm20.990814 22.078125l0 -36.984375l6.859375 0l0 5.234375q2.046875 -3.390625 4.09375 -4.53125q2.046875 -1.15625 4.09375 -1.15625q0.25 0 0.46875 0q0.234375 0 0.625 0.0625l0 7.546875q-0.765625 -0.3125 -1.765625 -0.53125q-0.984375 -0.234375 -2.015625 -0.234375q-1.59375 0 -2.90625 0.734375q-1.3125 0.734375 -2.59375 2.84375l0 27.015625l-6.859375 0zm20.356476 0l0 -36.984375l6.84375 0l0 3.640625q1.859375 -1.734375 4.09375 -2.9375q2.25 -1.21875 4.9375 -1.21875q2.234375 0 3.421875 1.15625q1.1875 1.140625 1.65625 2.875q0.484375 1.71875 0.484375 3.515625l0 29.953125l-6.84375 0l0 -27.96875q0 -1.984375 -0.578125 -3.0625q-0.578125 -1.09375 -2.359375 -1.09375q-1.15625 0 -2.40625 0.671875q-1.25 0.671875 -2.40625 1.625l0 29.828125l-6.84375 0zm38.345947 0.515625q-4.359375 0 -6.734375 -1.6875q-2.359375 -1.703125 -3.296875 -5.0q-0.921875 -3.296875 -0.921875 -8.09375l0 -8.453125q0 -4.921875 0.953125 -8.1875q0.96875 -3.265625 3.359375 -4.921875q2.40625 -1.671875 6.640625 -1.671875q4.671875 0 6.875 1.921875q2.203125 1.921875 2.90625 5.53125q0.703125 3.609375 0.703125 8.671875l0 3.0l-14.59375 0l0 7.4375q0 2.234375 0.421875 3.640625q0.421875 1.40625 1.34375 2.078125q0.921875 0.671875 2.40625 0.671875q1.53125 0 2.328125 -0.734375q0.796875 -0.734375 1.078125 -2.109375q0.296875 -1.375 0.296875 -3.234375l0 -2.234375l6.65625 0l0 1.40625q0 5.5625 -2.375 8.765625q-2.359375 3.203125 -8.046875 3.203125zm-4.109375 -22.59375l7.875 0l0 -3.328125q0 -2.3125 -0.265625 -3.875q-0.25 -1.5625 -1.046875 -2.359375q-0.796875 -0.8125 -2.53125 -0.8125q-1.65625 0 -2.53125 0.78125q-0.859375 0.765625 -1.1875 2.59375q-0.3125 1.8125 -0.3125 5.015625l0 1.984375zm30.66269 22.59375q-2.875 0 -4.640625 -1.078125q-1.765625 -1.09375 -2.5625 -3.078125q-0.796875 -1.984375 -0.796875 -4.671875l0 -24.140625l-3.90625 0l0 -4.53125l3.90625 0l0 -10.828125l6.84375 0l0 10.828125l5.953125 0l0 4.53125l-5.953125 0l0 23.6875q0 2.171875 0.703125 3.109375q0.703125 0.921875 2.6875 0.921875q0.515625 0 1.1875 -0.0625q0.671875 -0.0625 1.3125 -0.125l0 5.046875q-1.28125 0.1875 -2.375 0.28125q-1.078125 0.109375 -2.359375 0.109375zm20.10257 0q-4.359375 0 -6.734375 -1.6875q-2.359375 -1.703125 -3.296875 -5.0q-0.921875 -3.296875 -0.921875 -8.09375l0 -8.453125q0 -4.921875 0.953125 -8.1875q0.96875 -3.265625 3.359375 -4.921875q2.40625 -1.671875 6.640625 -1.671875q4.671875 0 6.875 1.921875q2.203125 1.921875 2.90625 5.53125q0.703125 3.609375 0.703125 8.671875l0 3.0l-14.59375 0l0 7.4375q0 2.234375 0.421875 3.640625q0.421875 1.40625 1.34375 2.078125q0.921875 0.671875 2.40625 0.671875q1.53125 0 2.328125 -0.734375q0.796875 -0.734375 1.078125 -2.109375q0.296875 -1.375 0.296875 -3.234375l0 -2.234375l6.65625 0l0 1.40625q0 5.5625 -2.375 8.765625q-2.359375 3.203125 -8.046875 3.203125zm-4.109375 -22.59375l7.875 0l0 -3.328125q0 -2.3125 -0.265625 -3.875q-0.25 -1.5625 -1.046875 -2.359375q-0.796875 -0.8125 -2.53125 -0.8125q-1.65625 0 -2.53125 0.78125q-0.859375 0.765625 -1.1875 2.59375q-0.3125 1.8125 -0.3125 5.015625l0 1.984375zm29.38147 22.59375q-4.546875 0 -7.296875 -2.84375q-2.75 -2.859375 -3.140625 -7.53125l5.703125 -1.71875q0.515625 3.515625 1.71875 5.28125q1.21875 1.75 3.59375 1.75q1.859375 0 2.8125 -1.046875q0.96875 -1.0625 0.96875 -2.859375q0 -1.59375 -0.71875 -2.875q-0.703125 -1.28125 -2.296875 -2.625l-6.328125 -5.4375q-1.921875 -1.671875 -3.234375 -3.71875q-1.3125 -2.046875 -1.3125 -5.3125q0 -2.9375 1.171875 -4.953125q1.1875 -2.015625 3.328125 -3.0625q2.15625 -1.0625 5.03125 -1.0625q4.421875 0 6.75 2.84375q2.34375 2.84375 2.65625 6.875l-4.609375 1.734375q-0.25 -1.921875 -0.765625 -3.359375q-0.515625 -1.4375 -1.40625 -2.234375q-0.890625 -0.8125 -2.375 -0.8125q-1.65625 0 -2.65625 1.125q-0.984375 1.125 -0.984375 2.65625q0 0.953125 0.40625 1.890625q0.421875 0.921875 1.453125 1.828125l6.53125 6.015625q1.34375 1.203125 2.515625 2.625q1.1875 1.40625 1.953125 3.203125q0.765625 1.78125 0.765625 4.15625q0 3.125 -1.28125 5.25q-1.265625 2.109375 -3.578125 3.171875q-2.296875 1.046875 -5.375 1.046875z" fill-rule="nonzero"/><path fill="#ffffff" d="m530.0346 169.09879q-9.25 -4.75 -16.0 -12.75q-5.0000305 7.25 -13.0000305 12.75l29.00003 0zm-13.5 -16.5q12.25 12.5 27.5 16.0l-1.5 5.75q-7.75 -2.25 -11.25 -4.5l0 19.0l-5.0 0l0 -1.5l-23.25003 0l0 2.5l-5.0 0l0 -18.75q-5.0 3.5 -9.5 4.75l-2.25 -5.25q19.5 -7.5 26.25003 -21.75l5.25 1.75q1.0 1.0 -0.75 1.25l-0.5 0.75zm-26.75003 3.5q7.25 -2.5 14.25 -10.25l3.75 3.5q1.5 1.25 -1.0 1.25q-8.0 7.75 -14.25 10.25l-2.75 -4.75zm36.50003 26.5l0 -8.75l-23.25003 0l0 8.75l23.25003 0zm-1.0 -35.5q5.75 4.5 15.25 8.25l-2.25 5.0q-8.75 -3.25 -16.0 -9.5l3.0 -3.75zm10.5 -3.75l-42.50003 0l0 7.25l-5.0 0l0 -12.0l23.25 0l0 -6.25l5.5000305 0q2.0 0.25 0.25 1.5l0 4.75l23.5 0l0 11.5l-5.0 0l0 -6.75zm44.75 6.0q2.0 0.5 0 1.5q-0.5 2.25 -1.25 4.25l26.5 0l0 4.75l-19.0 0q8.75 6.0 21.5 8.25l-1.25 5.25q-5.0 -1.0 -7.0 -2.0l0 17.0l-5.0 0l0 -2.75l-8.75 0l0 3.5l-5.0 0l0 -20.0l13.0 0q-7.25 -3.0 -13.25 -9.25l-4.0 0q-4.0 5.75 -10.75 9.25l10.0 0l0 19.5l-5.0 0l0 -3.0l-8.5 0l0 3.75l-5.0 0l0 -16.5q-2.25 1.25 -6.75 2.25l-1.75 -5.25q13.5 -2.0 22.0 -10.0l-19.5 0l0 -4.75l22.5 0q1.5 -2.75 2.0 -6.0l4.25 0.25zm-5.0 1.25l-5.0 0l0 -1.25l-9.75 0l0 2.25l-5.0 0l0 -17.5l19.75 0l0 16.5zm6.25 -16.5l20.0 0l0 16.5l-5.0 0l0 -1.25l-10.0 0l0 2.25l-5.0 0l0 -17.5zm13.25 47.5l0 -8.5l-8.75 0l0 8.5l8.75 0zm-24.5 -36.25l0 -7.25l-9.75 0l0 7.25l9.75 0zm26.25 -7.25l-10.0 0l0 7.25l10.0 0l0 -7.25zm-25.5 43.5l0 -8.5l-8.5 0l0 8.5l8.5 0zm98.75 -1.75q-13.25 -3.75 -20.0 -13.75l-14.75 0q-5.75 11.25 -19.5 15.0l-2.0 -5.0q11.5 -3.0 16.25 -10.0l-15.25 0l0 -4.0l14.5 0l0 -19.0l-10.75 0l0 -4.0l10.75 0l0 -7.0l4.75 0q2.5 0.25 0.25 1.5l0 5.5l16.75 0l0 -7.0l4.75 0q2.5 0.25 0.25 1.5l0 5.5l10.25 0l0 4.0l-10.25 0l0 19.0l14.25 0l0 4.0l-14.5 0q3.5 5.25 16.25 8.5l-2.0 5.25zm-39.75 -1.75l0 -4.0l9.75 0l0 -5.5l4.75 0q2.5 0.25 0.25 1.5l0 4.0l10.25 0l0 4.0l-10.25 0l0 5.0l21.5 0l0 4.75l-47.75 0l0 -4.75l21.25 0l0 -5.0l-9.75 0zm4.0 -35.0l0 3.75l16.75 0l0 -3.75l-16.75 0zm0 7.75l0 3.5l16.75 0l0 -3.5l-16.75 0zm0 7.5l0 3.75l16.75 0l0 -3.75l-16.75 0z" fill-rule="nonzero"/><path fill="#ffffff" d="m710.2846 139.34879q-0.25 3.0 -0.25 7.5l0 8.25l7.5 0l0 -15.75q-0.25 -4.25 -0.5 -7.75l5.5 0q-0.5 3.5 -0.5 7.5l0 16.0l7.5 0l0 -9.5q0 -4.0 -0.25 -6.5l5.0 0q-0.25 2.5 -0.25 6.5l0 7.0q0 4.25 0.25 6.75l-12.25 0l0 24.0l8.25 -0.25l0 -10.25q0 -3.75 -0.25 -7.25l5.0 0q-0.25 3.25 -0.25 6.75l0 9.0q0 5.0 0.25 9.75l-4.75 0l0 -4.25l-25.0 1.0q0.25 -3.5 0.25 -7.75l0 -7.5q0 -4.75 -0.25 -7.0l5.0 0q-0.25 3.0 -0.25 7.0l0 11.25l7.5 -0.25l0 -24.25l-12.25 0q0.25 -4.25 0.25 -7.5l0 -4.0q0 -5.25 -0.25 -8.5l5.0 0zm-14.25 -0.75q3.0 0 6.0 -0.25l0 4.5q-1.5 -0.25 -6.0 -0.25l-2.25 0q-1.25 6.0 -3.5 12.75l10.0 0q-0.25 4.5 -0.25 7.75l0 11.75q0 4.0 0.25 9.75l-4.5 0l0 -3.5l-6.75 0l0 6.75l-4.75 0q0.5 -6.25 0.5 -10.25l0 -12.75q-1.75 2.75 -4.25 5.25q-1.0 -2.25 -3.5 -4.75q3.0 -2.5 4.75 -4.75q1.75 -2.25 3.75 -6.75q2.0 -4.5 3.25 -11.25q-4.25 0 -8.25 0.25l0 -4.5q3.0 0.25 5.75 0.25l9.75 0zm-0.25 38.5l0 -17.5l-6.75 0l0 17.5l6.75 0zm65.75 -18.25q4.0 0.25 9.0 0.25l22.5 0q-1.5 4.5 -4.125 9.875q-2.625 5.375 -7.125 10.625q8.0 5.25 18.5 5.5q-2.0 2.25 -3.0 5.25q-10.75 -2.25 -19.25 -7.75q-3.25 2.0 -7.75 4.375q-4.5 2.375 -9.75 3.875q-1.0 -2.0 -3.75 -3.75q5.5 -1.0 10.375 -3.25q4.875 -2.25 7.375 -4.5q-5.5 -5.75 -9.0 -16.25l-4.0 0l0 -4.25zm25.5 -2.5q-4.25 0 -4.5 -3.5l0 -14.0l-11.0 0q0 7.0 -1.625 11.0q-1.625 4.0 -6.875 8.25q-1.0 -1.75 -4.0 -3.0q6.25 -4.25 7.125 -9.75q0.875 -5.5 0.625 -10.5l21.0 0q-0.25 3.0 -0.25 7.5l0 6.75q0 2.0 1.375 2.375q1.375 0.375 3.875 0.25q2.5 -0.125 5.75 -0.375q-0.5 2.5 0 5.0l-11.5 0zm-31.75 -4.5q-0.25 4.5 -0.25 10.0l0 15.25q3.25 -3.0 5.5 -6.0q0.75 2.5 2.5 5.25q-3.25 3.0 -6.0 5.75q-2.75 2.75 -5.0 6.0q-1.75 -2.75 -3.75 -4.25q2.0 -2.0 2.0 -5.75l0 -22.0q-5.25 0 -8.75 0.25l0 -4.75q3.25 0.25 6.75 0.25l7.0 0zm23.0 24.25q5.0 -5.0 7.75 -13.0l-15.5 0q1.75 7.75 7.75 13.0zm-29.25 -43.75q4.0 3.25 9.75 10.25q-2.0 1.25 -4.0 3.25q-4.25 -5.75 -9.0 -10.25q1.5 -1.0 3.25 -3.25z" fill-rule="nonzero"/><path fill="#ffffff" d="m822.7846 160.34879l-5.0 0q0 18.25 -8.0 29.0l-4.0 -3.25q7.5 -9.0 7.5 -26.75l0 -11.75l-6.5 0l0 -4.75l8.25 0l0 -10.5l4.75 0q2.0 0.25 0.25 1.5l0 9.0l9.5 0l0 4.75l-12.0 0l0 8.75l9.5 0l-0.5 24.25q-0.25 8.5 -5.75 8.5l-4.0 0l-0.5 -4.75l3.5 0q2.0 0 2.5 -3.75l0.5 -20.25zm29.25 15.25l-0.5 -4.0l2.0 0q1.0 0 1.0 -1.0l0 -11.0l-6.75 2.25l0 17.0l-4.25 0l0 -15.75l-5.5 1.75l0 17.25q0 1.75 1.75 1.75l16.0 0q2.0 0 2.5 -2.5l0.75 -3.75l5.0 1.25l-1.0 5.5q-0.75 4.25 -6.0 4.25l-18.75 0q-4.5 0 -4.5 -4.5l0 -18.0l-3.25 1.0l-1.25 -4.75l4.5 -1.25l0 -9.5l4.0 0q2.0 0.25 0.25 1.5l0 6.75l5.5 -1.75l0 -10.0l4.0 0q2.0 0.25 0.25 1.5l0 7.25l7.0 -2.25l0.75 -1.0l3.75 2.5l-0.5 1.0l0 14.75q0 3.75 -2.75 3.75l-4.0 0zm-11.25 -42.25q2.0 0.75 0 1.5q-1.0 3.25 -2.0 5.75l23.0 0l0 4.75l-24.75 0q-2.75 5.5 -7.5 10.5l-3.25 -3.75q7.75 -7.75 10.0 -20.0l4.5 1.25z" fill-rule="nonzero"/><path fill="#ffffff" d="m257.48898 229.59879l3.25 0.75q1.5 -1.5 4.75 -7.5l-16.25 0l0 -4.75l18.25 0q2.0 -4.75 3.0 -9.0l5.5 2.0q1.0 1.0 -0.75 1.25q-0.5 2.25 -2.25 5.75l29.0 0l0 4.75l-31.0 0q-3.0 6.75 -8.5 14.0l0 29.5l-5.0 0l0 -24.75q-3.25 3.25 -9.25 6.75l-2.5 -5.75q7.0 -3.25 11.75 -8.5l0 -4.5zm28.25 -3.25q2.0 0.25 0.25 1.5l0 9.75l12.75 0l0 4.75l-12.75 0l0 16.5l16.5 0l0 4.75l-37.75 0l0 -4.75l16.25 0l0 -16.5l-13.75 0l0 -4.75l13.75 0l0 -11.25l4.75 0z" fill-rule="nonzero"/><path fill="#ffffff" d="m311.52023 261.0988l0 -51.84375l7.234375 0l0 22.40625l13.3125 0l0 -22.40625l7.234375 0l0 51.84375l-7.234375 0l0 -24.25l-13.3125 0l0 24.25l-7.234375 0zm45.575806 0.515625q-4.359375 0 -6.734375 -1.6875q-2.359375 -1.703125 -3.296875 -5.0q-0.921875 -3.296875 -0.921875 -8.09375l0 -8.453125q0 -4.921875 0.953125 -8.1875q0.96875 -3.265625 3.359375 -4.921875q2.40625 -1.671875 6.640625 -1.671875q4.671875 0 6.875 1.921875q2.203125 1.921875 2.90625 5.53125q0.703125 3.609375 0.703125 8.671875l0 3.0l-14.59375 0l0 7.4375q0 2.234375 0.421875 3.640625q0.421875 1.40625 1.34375 2.078125q0.921875 0.671875 2.40625 0.671875q1.53125 0 2.328125 -0.734375q0.796875 -0.734375 1.078125 -2.109375q0.296875 -1.375 0.296875 -3.234375l0 -2.234375l6.65625 0l0 1.40625q0 5.5625 -2.375 8.765625q-2.359375 3.203125 -8.046875 3.203125zm-4.109375 -22.59375l7.875 0l0 -3.328125q0 -2.3125 -0.265625 -3.875q-0.25 -1.5625 -1.046875 -2.359375q-0.796875 -0.8125 -2.53125 -0.8125q-1.65625 0 -2.53125 0.78125q-0.859375 0.765625 -1.1875 2.59375q-0.3125 1.8125 -0.3125 5.015625l0 1.984375zm21.44397 22.078125l0 -51.84375l6.84375 0l0 51.84375l-6.84375 0zm14.655975 0l0 -51.84375l6.84375 0l0 51.84375l-6.84375 0zm24.187225 0.515625q-4.09375 0 -6.46875 -1.65625q-2.359375 -1.671875 -3.359375 -4.734375q-0.984375 -3.078125 -0.984375 -7.25l0 -10.75q0 -4.15625 0.984375 -7.21875q1.0 -3.078125 3.359375 -4.734375q2.375 -1.671875 6.46875 -1.671875q4.109375 0 6.4375 1.671875q2.34375 1.65625 3.328125 4.734375q1.0 3.0625 1.0 7.21875l0 10.75q0 4.171875 -1.0 7.25q-0.984375 3.0625 -3.328125 4.734375q-2.328125 1.65625 -6.4375 1.65625zm0 -5.0625q1.984375 0 2.78125 -1.140625q0.8125 -1.15625 0.96875 -3.046875q0.15625 -1.890625 0.15625 -3.9375l0 -11.578125q0 -2.125 -0.15625 -3.96875q-0.15625 -1.859375 -0.96875 -3.046875q-0.796875 -1.1875 -2.78125 -1.1875q-1.984375 0 -2.8125 1.1875q-0.828125 1.1875 -1.0 3.046875q-0.15625 1.84375 -0.15625 3.96875l0 11.578125q0 2.046875 0.15625 3.9375q0.171875 1.890625 1.0 3.046875q0.828125 1.140625 2.8125 1.140625zm30.278076 5.0625q-1.984375 0 -3.5625 -0.984375q-1.5625 -1.0 -2.703125 -2.21875l0 2.6875l-6.859375 0l0 -51.84375l6.859375 0l0 17.796875q1.203125 -1.40625 2.90625 -2.421875q1.703125 -1.03125 4.0625 -1.03125q2.875 0 4.578125 1.5q1.703125 1.5 2.53125 3.78125q0.828125 2.265625 1.078125 4.609375q0.265625 2.328125 0.265625 4.0l0 8.953125q0 3.90625 -0.78125 7.390625q-0.765625 3.484375 -2.75 5.640625q-1.96875 2.140625 -5.625 2.140625zm-1.40625 -5.375q1.796875 0 2.5625 -1.3125q0.765625 -1.3125 0.953125 -3.546875q0.203125 -2.25 0.203125 -4.9375l0 -8.953125q0 -2.3125 -0.265625 -4.265625q-0.25 -1.953125 -1.09375 -3.09375q-0.828125 -1.15625 -2.609375 -1.15625q-1.34375 0 -2.53125 0.578125q-1.1875 0.578125 -2.078125 1.28125l0 23.734375q0.890625 0.703125 2.140625 1.1875q1.25 0.484375 2.71875 0.484375zm17.217346 4.859375l0 -36.984375l6.84375 0l0 36.984375l-6.84375 0zm0 -42.5l0 -7.15625l6.84375 0l0 7.15625l-6.84375 0zm14.32782 42.4375l0 -51.84375l6.859375 0l0 30.921875l9.984375 -16.0l7.15625 0l-8.703125 14.453125l8.453125 22.53125l-6.84375 0l-6.921875 -18.9375l-3.125 4.734375l0 14.140625l-6.859375 0zm37.580963 0.578125q-4.359375 0 -6.734375 -1.6875q-2.359375 -1.703125 -3.296875 -5.0q-0.921875 -3.296875 -0.921875 -8.09375l0 -8.453125q0 -4.921875 0.953125 -8.1875q0.96875 -3.265625 3.359375 -4.921875q2.40625 -1.671875 6.640625 -1.671875q4.671875 0 6.875 1.921875q2.203125 1.921875 2.90625 5.53125q0.703125 3.609375 0.703125 8.671875l0 3.0l-14.59375 0l0 7.4375q0 2.234375 0.421875 3.640625q0.421875 1.40625 1.34375 2.078125q0.921875 0.671875 2.40625 0.671875q1.53125 0 2.328125 -0.734375q0.796875 -0.734375 1.078125 -2.109375q0.296875 -1.375 0.296875 -3.234375l0 -2.234375l6.65625 0l0 1.40625q0 5.5625 -2.375 8.765625q-2.359375 3.203125 -8.046875 3.203125zm-4.109375 -22.59375l7.875 0l0 -3.328125q0 -2.3125 -0.265625 -3.875q-0.25 -1.5625 -1.046875 -2.359375q-0.796875 -0.8125 -2.53125 -0.8125q-1.65625 0 -2.53125 0.78125q-0.859375 0.765625 -1.1875 2.59375q-0.3125 1.8125 -0.3125 5.015625l0 1.984375z" fill-rule="nonzero"/><path fill="#ffffff" d="m563.76263 225.59879q-2.5 7.0 -8.0 13.25l-3.75 -4.5q8.5 -8.5 10.75 -24.25l5.25 1.75q2.25 1.0 -0.25 1.5q-0.75 3.5 -2.0 7.5l18.0 0l-1.25 34.0q-0.25 10.0 -8.0 10.0l-7.0 0l-0.75 -4.75l6.5 0q3.5 0 3.75 -4.5l1.25 -30.0l-14.5 0zm3.0 23.25q-3.5 -5.0 -7.75 -9.0l4.25 -4.5q5.0 4.5 8.0 8.75l-4.5 4.75zm-29.5 -28.0q1.5 -4.75 2.75 -11.0l6.0 2.25q1.0 1.0 -0.75 1.25q-0.75 3.25 -2.75 7.5l9.25 0l0 41.25l-5.0 0l0 -3.0l-11.0 0l0 5.0l-5.0 0l0 -43.25l6.5 0zm9.5 4.75l-11.0 0l0 11.0l11.0 0l0 -11.0zm0 15.75l-11.0 0l0 13.0l11.0 0l0 -13.0z" fill-rule="nonzero"/><path fill="#ffffff" d="m623.76263 208.34879q1.75 4.5 3.25 8.75l9.0 0q5.25 0 11.0 -0.25l0 4.5q-5.75 -0.25 -11.0 -0.25l-32.75 0q0 14.75 -0.5 21.0q-0.5 6.25 -1.875 12.75q-1.375 6.5 -4.875 12.5q-1.75 -2.25 -4.5 -3.75q3.25 -4.25 5.0 -11.875q1.75 -7.625 2.0 -16.375q0.25 -8.75 0 -18.25l22.5 0q-0.75 -3.5 -2.5 -7.0q2.5 -0.5 5.25 -1.75zm21.0 21.5q-2.5 5.5 -4.375 10.75q-1.875 5.25 -7.375 18.25l7.0 0q3.5 0 7.75 -0.25l0 5.25q-4.25 -0.25 -7.75 -0.25l-26.75 0q-4.25 0 -10.25 0.25l0 -5.25q5.75 0.25 10.25 0.25l14.75 0q3.75 -7.75 6.625 -16.25q2.875 -8.5 4.125 -15.0q3.25 1.75 6.0 2.25zm-35.25 2.75q6.5 10.25 9.75 18.0q-1.75 1.0 -4.25 2.5q-5.0 -11.25 -9.5 -17.75q2.25 -1.75 4.0 -2.75zm12.0 -5.75q5.0 8.75 8.75 17.25q-2.25 1.25 -4.75 2.5q-3.0 -8.5 -8.0 -17.5q2.0 -0.75 4.0 -2.25z" fill-rule="nonzero"/><path fill="#ffffff" d="m704.26263 245.59879l-16.25 0l0 19.0l-5.0 0l0 -19.0l-15.0 0q-0.5 13.0 -7.75 20.75l-4.0 -4.0q6.75 -7.5 6.75 -17.5l0 -32.0l46.25 0l0 47.75q0 4.0 -4.0 4.0l-7.0 0l-1.25 -5.5l6.25 0q1.0 0 1.0 -1.0l0 -12.5zm-36.25 -14.0l0 9.25l15.0 0l0 -9.25l-15.0 0zm0 -14.0l0 9.25l15.0 0l0 -9.25l-15.0 0zm20.0 14.0l0 9.25l16.25 0l0 -9.25l-16.25 0zm0 -14.0l0 9.25l16.25 0l0 -9.25l-16.25 0z" fill-rule="nonzero"/><path fill="#000000" fill-opacity="0.0" d="m70.47244 333.32028l819.0552 0l0 83.212616l-819.0552 0z" fill-rule="evenodd"/><path fill="#cacaca" d="m385.7095 350.0128l4.984375 0q3.25 0 5.796875 1.265625q2.828125 1.453125 3.921875 4.265625q0.609375 1.53125 0.609375 3.4375q0 4.5 -2.78125 7.359375q-2.765625 2.859375 -8.015625 2.859375l-4.515625 0q-2.1875 0 -3.953125 0.078125l-0.078125 -0.8125q1.421875 -0.28125 1.921875 -0.5q0.515625 -0.21875 0.5625 -0.703125q0.234375 -1.640625 0.234375 -5.984375q0 -7.03125 -0.171875 -8.765625l-0.0625 -0.5625q-0.046875 -0.5 -0.5 -0.703125q-0.4375 -0.21875 -1.78125 -0.5l0.078125 -0.8125q1.765625 0.078125 3.75 0.078125zm1.515625 17.5q1.515625 0.34375 3.21875 0.34375q1.703125 0 3.234375 -0.6875q1.546875 -0.6875 2.359375 -1.625q0.8125 -0.9375 1.296875 -2.21875q0.75 -1.90625 0.75 -3.921875q0 -8.203125 -9.125 -8.203125q-1.015625 0 -1.34375 0.109375q-0.3125 0.109375 -0.390625 0.46875q-0.3125 1.828125 -0.3125 6.171875q0 6.734375 0.21875 8.921875l0.09375 0.640625zm24.64148 -7.265625q0 -1.296875 -0.734375 -1.921875q-0.71875 -0.640625 -1.625 -0.640625q-1.3125 0 -2.265625 1.046875q-0.953125 1.03125 -1.265625 2.546875l5.796875 -0.21875q0.09375 -0.421875 0.09375 -0.8125zm-2.4375 9.203125q-2.96875 0 -4.484375 -1.6875q-1.515625 -1.703125 -1.515625 -4.515625q0 -2.8125 1.671875 -4.859375q1.671875 -2.0625 5.03125 -2.0625q1.703125 0 2.96875 1.203125q1.28125 1.203125 1.28125 3.578125l-0.953125 1.15625q-0.171875 -0.03125 -2.65625 -0.03125q-2.46875 0 -4.953125 0.1875l0 0.25q0 2.5625 1.0625 3.84375q1.0625 1.265625 2.90625 1.265625q1.84375 0 3.890625 -0.90625l0.34375 0.84375q-2.15625 1.734375 -4.59375 1.734375zm13.102051 -0.171875q-1.34375 -0.078125 -3.328125 -0.078125q-1.96875 0 -3.3125 0.078125l0.09375 -0.8125q0.546875 -0.046875 1.203125 -0.21875q0.671875 -0.1875 0.6875 -0.390625q0.234375 0 0.234375 -10.03125l-1.9375 0.03125l-0.078125 -0.296875l0.640625 -1.09375q0.390625 0.046875 1.34375 0.109375q0 -1.828125 0.625 -3.28125q0.640625 -1.453125 1.515625 -2.265625q0.890625 -0.8125 1.921875 -1.375q1.671875 -0.890625 2.6875 -0.890625q0.21875 0 0.734375 0.65625q0.53125 0.65625 0.6875 1.296875l-0.421875 0.53125q-1.203125 -0.53125 -2.40625 -0.53125q-3.21875 0 -3.21875 5.828125l3.640625 -0.03125l0.140625 0.34375l-0.859375 1.09375q-0.953125 -0.09375 -2.921875 -0.125q0 7.796875 0.28125 10.03125q0.03125 0.203125 0.796875 0.40625q0.765625 0.1875 1.328125 0.203125l-0.078125 0.8125zm10.475525 -9.03125q0 -1.296875 -0.734375 -1.921875q-0.71875 -0.640625 -1.625 -0.640625q-1.3125 0 -2.265625 1.046875q-0.953125 1.03125 -1.265625 2.546875l5.796875 -0.21875q0.09375 -0.421875 0.09375 -0.8125zm-2.4375 9.203125q-2.96875 0 -4.484375 -1.6875q-1.515625 -1.703125 -1.515625 -4.515625q0 -2.8125 1.671875 -4.859375q1.671875 -2.0625 5.03125 -2.0625q1.703125 0 2.96875 1.203125q1.28125 1.203125 1.28125 3.578125l-0.953125 1.15625q-0.171875 -0.03125 -2.65625 -0.03125q-2.46875 0 -4.953125 0.1875l0 0.25q0 2.5625 1.0625 3.84375q1.0625 1.265625 2.90625 1.265625q1.84375 0 3.890625 -0.90625l0.34375 0.84375q-2.15625 1.734375 -4.59375 1.734375zm10.664551 -10.53125l-0.03125 3.875q0 3.609375 0.234375 4.703125l0.046875 0.359375q0.03125 0.203125 0.625 0.390625q0.609375 0.171875 1.171875 0.21875l-0.09375 0.8125q-1.34375 -0.078125 -3.078125 -0.078125q-1.734375 0 -3.078125 0.078125l0.09375 -0.8125q0.53125 -0.046875 1.125 -0.21875q0.609375 -0.1875 0.625 -0.390625q0.234375 -0.984375 0.234375 -3.921875q0 -4.765625 -0.234375 -5.828125l-1.78125 -0.53125l-0.0625 -0.71875q1.796875 0 3.703125 -0.515625l0.53125 0.265625l0 1.34375q3.109375 -1.625 5.40625 -1.625q1.390625 0 2.109375 0.5625q0.734375 0.546875 0.734375 2.09375l0 3.8125q0 3.609375 0.203125 4.703125l0.078125 0.359375q0.03125 0.203125 0.625 0.390625q0.609375 0.171875 1.171875 0.21875l-0.078125 0.8125q-1.34375 -0.078125 -3.09375 -0.078125q-1.734375 0 -3.078125 0.078125l0.09375 -0.8125q0.53125 -0.046875 1.125 -0.21875q0.609375 -0.1875 0.640625 -0.390625q0.21875 -0.984375 0.21875 -5.0625l0 -2.71875q0 -1.09375 -0.640625 -1.515625q-0.640625 -0.421875 -2.1875 -0.421875q-1.546875 0 -3.359375 0.78125zm19.523804 -2.09375l0.390625 0.1875q0 1.828125 0.15625 2.78125l-0.71875 0.25q-0.375 -1.421875 -1.03125 -1.984375q-0.65625 -0.5625 -1.671875 -0.5625q-1.0 0 -1.59375 0.53125q-0.578125 0.53125 -0.578125 1.265625q0 1.25 1.453125 2.0625l2.859375 1.578125q1.84375 1.03125 1.84375 2.984375q0 1.4375 -1.140625 2.484375q-1.125 1.046875 -3.234375 1.046875q-2.09375 0 -4.296875 -0.703125q0.328125 -1.953125 0.328125 -3.21875l0.734375 -0.25q0.25 1.015625 0.375 1.375q0.125 0.359375 0.4375 0.890625q0.328125 0.53125 0.828125 0.703125q0.515625 0.171875 1.484375 0.171875q0.984375 0 1.625 -0.5625q0.65625 -0.5625 0.65625 -1.34375q0 -1.171875 -1.328125 -1.90625l-3.015625 -1.671875q-1.84375 -0.984375 -1.84375 -3.0q0 -1.4375 1.078125 -2.515625q1.09375 -1.09375 3.046875 -1.09375q1.96875 0 3.15625 0.5zm9.477295 0.859375q-1.140625 0 -1.984375 0.578125q-0.84375 0.578125 -1.234375 1.453125q-0.75 1.59375 -0.75 3.046875q0 2.296875 0.921875 3.828125q0.921875 1.515625 2.921875 1.515625q1.0625 0 1.875 -0.484375q0.8125 -0.5 1.21875 -1.28125q0.8125 -1.453125 0.875 -2.90625q0 -5.75 -3.84375 -5.75zm0.140625 -1.359375q3.203125 0 4.65625 1.625q1.453125 1.625 1.453125 4.515625q0 2.890625 -1.671875 4.9375q-1.65625 2.046875 -4.859375 2.046875q-3.1875 0 -4.640625 -1.609375q-1.453125 -1.609375 -1.453125 -4.484375q0 -2.890625 1.65625 -4.953125q1.671875 -2.078125 4.859375 -2.078125zm16.140198 -0.171875q0.21875 0 0.734375 0.65625q0.515625 0.65625 0.6875 1.296875l-0.421875 0.53125q-1.0 -0.390625 -2.09375 -0.390625q-1.09375 0 -2.0 0.921875q-0.890625 0.90625 -0.890625 2.921875q0.03125 4.921875 0.25 5.734375q0.03125 0.234375 0.796875 0.421875q0.78125 0.171875 1.609375 0.21875l-0.078125 0.8125q-1.34375 -0.078125 -3.40625 -0.078125q-2.046875 0 -3.390625 0.078125l0.078125 -0.8125q0.5625 -0.046875 1.171875 -0.21875q0.625 -0.1875 0.640625 -0.390625q0.234375 -0.984375 0.234375 -3.921875q0 -4.765625 -0.234375 -5.828125l-1.78125 -0.53125l-0.0625 -0.71875q1.796875 0 3.703125 -0.515625l0.53125 0.265625q-0.0625 0.40625 -0.0625 2.296875q0.8125 -1.34375 2.0625 -2.046875q1.25 -0.703125 1.921875 -0.703125z" fill-rule="nonzero"/><path fill="#cacaca" d="m508.80612 359.79404q-4.59375 6.125 -11.921875 10.0625q-0.65625 0.109375 -0.328125 -0.4375q7.328125 -4.8125 10.9375 -10.390625l-9.953125 0l0 -0.65625l11.265625 0l0 -5.796875l-6.125 0q-1.09375 2.625 -3.390625 4.921875q-0.546875 0.109375 -0.328125 -0.4375q2.515625 -3.390625 3.71875 -9.40625l1.640625 0.65625q1.203125 0.546875 -0.328125 0.875q-0.546875 1.53125 -1.09375 2.734375l5.90625 0l0 -5.578125l1.859375 0.328125q0.875 0.21875 -0.4375 0.765625l0 4.484375l5.6874695 0l1.421875 -1.421875l1.75 1.3125q0.65625 0.546875 0 0.765625l-8.8593445 0l0 5.796875l7.9843445 0l1.640625 -1.640625l2.078125 1.53125q0.65625 0.546875 0 0.765625l-11.3749695 0q4.0468445 6.015625 11.8124695 8.859375q-1.421875 0.65625 -1.96875 1.421875q-6.453125 -3.5 -10.1718445 -9.734375l0 11.375q-1.421875 1.3125 -1.421875 0.109375l0 -11.265625zm35.21872 4.59375q2.515625 3.0625 5.578125 4.8125q-1.09375 0.109375 -1.640625 1.09375q-2.296875 -1.640625 -4.59375 -4.921875q-3.5 4.484375 -8.3125 6.125q-0.765625 0 -0.21875 -0.4375q5.140625 -2.296875 7.875 -6.5625q-1.96875 -3.828125 -2.734375 -10.828125q-1.421875 2.734375 -2.84375 4.375q-0.546875 0.328125 -0.328125 -0.21875q3.390625 -5.359375 4.265625 -11.375l2.078125 0.65625q0.875 0.65625 -0.765625 0.875q-0.765625 2.734375 -1.96875 4.8125l5.796875 0l1.421875 -1.421875l1.75 1.3125q0.65625 0.546875 0 0.765625l-2.734375 0q-0.546875 7.328125 -2.625 10.9375zm-9.515625 -3.9375l-2.625 0l-0.4375 5.6875l2.734375 0l0.328125 -5.6875zm0 -0.65625l0 -4.484375l-2.296875 0l-0.328125 4.484375l2.625 0zm1.859375 -4.921875q0.65625 0.546875 -0.4375 0.765625l0 4.15625l1.09375 0l1.203125 -1.203125l1.53125 1.09375q0.65625 0.546875 0 0.765625l-3.828125 0l-0.328125 5.6875l0.765625 0l1.203125 -1.203125l1.53125 1.09375q0.65625 0.546875 0 0.765625l-3.609375 0q-0.328125 2.40625 -0.765625 3.0625q-0.328125 0.765625 -1.09375 1.203125q-0.4375 0.21875 -1.203125 0.328125q-0.4375 0 -0.4375 -0.4375q0.109375 -0.4375 -0.4375 -0.65625l-1.75 -0.65625q-0.328125 -0.328125 0.109375 -0.328125l1.96875 0.328125q0.65625 0.109375 1.421875 -0.21875q0.546875 -0.65625 0.765625 -2.625l-6.671875 0l-0.21875 1.75q-1.640625 1.09375 -1.421875 0l0.875 -8.09375l-2.515625 0l0 -0.65625l2.625 0l0.4375 -6.125l1.53125 0.984375l5.578125 0l0.65625 -0.765625l1.421875 0.984375zm-6.234375 -7.765625q0.875 0.4375 -0.875 0.875q-0.65625 1.53125 -1.421875 2.734375l6.78125 0l1.421875 -1.421875l1.75 1.3125q0.65625 0.546875 0 0.765625l-10.28125 0q-1.859375 3.0625 -3.5 4.59375q-0.4375 0.328125 -0.328125 -0.21875q3.0625 -4.265625 4.703125 -9.296875l1.75 0.65625zm13.125 16.296875q1.53125 -3.28125 1.96875 -9.953125l-4.59375 0q0.65625 5.90625 2.625 9.953125zm-14.765625 -8.09375l-0.328125 4.484375l2.40625 0l0.328125 -4.484375l-2.40625 0zm-0.4375 5.140625l-0.546875 5.6875l2.625 0l0.4375 -5.6875l-2.515625 0zm37.40625 3.390625q0.765625 0.65625 -1.09375 0.4375q-0.328125 0.65625 -1.09375 1.859375q1.75 2.078125 4.375 2.84375l0 -7.546875l-5.359375 0l0 -0.65625l5.359375 0l0 -3.0625l-7.65625 0l0 -0.65625l7.65625 0l0 -2.40625l-5.03125 0l0 -0.65625l5.03125 0l0 -2.734375l-7.109375 0l0 -0.65625l7.109375 0l0 -4.375l1.96875 0.328125q1.203125 0.4375 -0.546875 0.875l0 3.171875l5.03125 0l1.421875 -1.421875l1.75 1.3125q0.65625 0.546875 0 0.765625l-8.203125 0l0 2.734375l3.28125 0l0.65625 -0.875l1.53125 1.09375q0.65625 0.546875 -0.4375 0.765625l0 2.078125l1.3125 0l1.203125 -1.203125l1.53125 1.09375q0.65625 0.546875 0 0.765625l-4.046875 0l0 4.265625q-1.421875 1.3125 -1.421875 0.109375l0 -0.65625l-3.609375 0l0 3.71875l4.046875 0l1.421875 -1.421875l1.75 1.3125q0.65625 0.546875 0 0.765625l-7.21875 0l0 3.5q1.203125 0.328125 2.296875 0.328125l6.671875 0q-0.765625 0.546875 -0.984375 1.3125l-5.140625 0q-5.578125 0 -8.96875 -4.265625q-1.96875 3.0625 -4.59375 4.8125q-0.4375 0 -0.21875 -0.328125q3.5 -3.5 5.140625 -8.421875l2.1875 1.09375zm3.609375 -3.0625l3.609375 0l0 -3.0625l-3.609375 0l0 3.0625zm0 -3.71875l3.609375 0l0 -2.40625l-3.609375 0l0 2.40625zm-13.015625 -2.515625l-4.046875 0l0 -0.65625l4.046875 0l0 -7.21875l1.96875 0.328125q1.203125 0.4375 -0.546875 0.875l0 6.015625l0.875 0l1.203125 -1.203125l1.53125 1.09375q0.65625 0.546875 0 0.765625l-3.609375 0l0 5.359375l3.828125 -1.421875q0.765625 0 0.21875 0.4375l-4.046875 1.96875l0 8.53125q0 1.203125 -0.765625 1.859375q-0.4375 0.4375 -1.09375 0.4375q-0.4375 0 -0.4375 -0.65625q0 -0.546875 -0.65625 -0.65625l-1.421875 -0.21875q-0.4375 -0.21875 0 -0.4375l2.1875 0q0.765625 0 0.765625 -0.765625l0 -7.4375l-2.078125 1.09375q-0.328125 1.640625 -0.984375 0.765625l-1.09375 -1.640625l4.15625 -1.3125l0 -5.90625z" fill-rule="nonzero"/></g></svg>