<svg version="1.1" viewBox="0.0 0.0 960.0 540.0" fill="none" stroke="none" stroke-linecap="square" stroke-miterlimit="10" xmlns:xlink="http://www.w3.org/1999/xlink" xmlns="http://www.w3.org/2000/svg"><clipPath id="g5cf35b70de_0_279.0"><path d="m0 0l960.0 0l0 540.0l-960.0 0l0 -540.0z" clip-rule="nonzero"/></clipPath><g clip-path="url(#g5cf35b70de_0_279.0)"><path fill="#37474f" d="m0 0l960.0 0l0 540.0l-960.0 0z" fill-rule="evenodd"/><path fill="#000000" fill-opacity="0.0" d="m32.72441 84.16798l894.55115 0l0 60.125984l-894.55115 0z" fill-rule="evenodd"/><path fill="#ffffff" d="m76.25566 120.47423q-0.15625 2.65625 -0.15625 5.15625l0 5.9375q2.1875 0 4.21875 -0.3125l0 3.28125q-3.75 -0.3125 -8.125 -0.3125l-21.5625 0q-4.375 0 -7.5 0.3125l0 -3.28125q2.34375 0.3125 4.375 0.3125l0 -5.9375q0 -2.5 -0.15625 -5.15625l28.90625 0zm-5.78125 -20.3125q-1.09375 1.40625 -1.640625 2.890625q-0.546875 1.484375 -1.015625 2.734375l7.03125 0q2.65625 0 5.3125 -0.15625l0 2.96875q-2.5 -0.3125 -5.46875 -0.3125l-7.65625 0q-1.5625 3.75 -4.21875 8.125q-1.25 -0.9375 -2.96875 -1.5625q1.25 -1.5625 2.578125 -4.296875q1.328125 -2.734375 2.421875 -6.015625q1.09375 -3.28125 1.71875 -5.78125q2.03125 0.78125 3.90625 1.40625zm-11.5625 -1.09375q-0.3125 1.5625 -0.3125 4.53125l0 8.90625q0 2.8125 0.15625 6.09375l-3.28125 0q0.15625 -3.28125 0.15625 -6.09375l0 -8.59375q0 -2.1875 -0.15625 -4.84375l3.4375 0zm-8.125 1.875q-0.3125 2.03125 -0.3125 4.84375l0 5.78125q0 2.34375 0.15625 5.46875l-3.28125 0q0.15625 -3.125 0.15625 -5.46875l0 -6.25q0 -2.1875 -0.15625 -4.375l3.4375 0zm22.34375 30.78125l0 -8.4375l-5.625 0l0 8.4375l5.625 0zm-17.03125 0l0 -8.4375l-5.625 0l0 8.4375l5.625 0zm8.4375 0l0 -8.4375l-5.46875 0l0 8.4375l5.46875 0zm5.78125 -22.03125q1.71875 1.25 3.28125 2.890625q1.5625 1.640625 3.28125 3.515625q-1.09375 0.9375 -2.5 2.1875l-3.125 -3.4375q-1.5625 -1.71875 -2.96875 -2.96875q0.9375 -1.25 2.03125 -2.1875z" fill-rule="nonzero"/><path fill="#ffffff" d="m105.31816 108.44298q1.25 0.15625 0.15625 0.9375l-0.3125 2.34375q-0.78125 5.46875 -8.125 7.1875l-0.9375 -3.28125q5.625 -0.78125 6.09375 -4.6875l0.3125 -2.8125l2.8125 0.3125zm8.75 6.40625q1.09375 0 1.25 -1.09375l0.3125 -2.03125l3.125 0.78125l-0.46875 2.8125q-0.46875 2.5 -2.65625 2.5l-4.0625 0q-3.125 0 -3.125 -2.8125l0 -7.03125l2.96875 0q1.25 0.15625 0.15625 0.9375l0 4.6875q0 1.25 1.09375 1.25l1.40625 0zm-27.96875 20.0l-0.46875 -2.96875l2.34375 0q0.625 0 0.625 -0.625l0 -10.0l-3.125 1.09375q-0.46875 1.5625 -0.9375 0.15625l-1.09375 -3.125l5.15625 -1.25l0 -7.96875l-4.21875 0l0 -2.96875l4.21875 0l0 -7.96875l2.96875 0q1.25 0.15625 0.15625 0.9375l0 7.03125l3.125 0l0 2.96875l-3.125 0l0 7.1875l3.125 -0.9375l0.46875 2.65625l-3.59375 1.25l0 12.1875q0 2.34375 -2.1875 2.34375l-3.4375 0zm11.5625 -11.25l0 -2.96875l19.21875 0l0 2.96875l-8.125 0l0 7.03125l11.09375 0l0 2.96875l-25.15625 0l0 -2.96875l10.9375 0l0 -7.03125l-7.96875 0zm11.09375 -20.0l10.625 0l0 7.1875l-3.125 0l0 -4.21875l-17.34375 0l0 5.3125l-3.125 0l0 -8.28125l9.84375 0l0 -4.53125l2.96875 0q1.25 0.15625 0.15625 0.9375l0 3.59375z" fill-rule="nonzero"/><path fill="#000000" fill-opacity="0.0" d="m17.976377 61.01837l475.59055 -1.4803123" fill-rule="evenodd"/><path stroke="#9e9e9e" stroke-width="1.0" stroke-linejoin="round" stroke-linecap="butt" d="m17.976377 61.01837l475.59055 -1.4803123" fill-rule="evenodd"/><path fill="#000000" fill-opacity="0.0" d="m32.72441 10.687664l517.76373 0l0 50.330708l-517.76373 0z" fill-rule="evenodd"/><path fill="#b7b7b7" d="m56.052536 39.310787q-0.96875 0.890625 -0.96875 0.078125l0 -4.3125l-3.640625 0l0 -0.4375l3.640625 0l0 -2.375l-2.078125 0q-0.515625 1.109375 -1.109375 1.703125q-0.375 0.296875 -0.21875 -0.078125q0.890625 -2.0 1.40625 -4.375l1.1875 0.453125q0.375 0.4375 -0.453125 0.359375q-0.296875 0.75 -0.65625 1.484375l1.921875 0l0 -2.59375l1.34375 0.21875q0.8125 0.296875 -0.375 0.59375l0 1.78125l1.265625 0l0.8125 -0.8125l1.03125 0.75q0.453125 0.359375 0 0.515625l-3.109375 0l0 2.375l1.921875 0l0.828125 -0.8125l1.03125 0.734375q0.453125 0.375 0 0.515625l-3.78125 0l0 4.234375zm-8.390625 -16.625q0.296875 0.375 -0.59375 0.453125q-0.21875 0.4375 -0.515625 0.890625l1.921875 0l0.75 -0.59375l0.890625 0.890625q0.375 0.4375 -0.75 0.359375l-1.484375 2.234375l1.484375 0l0.453125 -0.59375l1.03125 0.734375q0.453125 0.375 -0.296875 0.53125l0 9.9375q0 0.828125 -0.515625 1.265625q-0.296875 0.296875 -0.734375 0.296875q-0.296875 0 -0.296875 -0.296875q0 -0.375 -0.453125 -0.515625l-0.96875 -0.21875q-0.296875 -0.15625 0 -0.296875l1.484375 0q0.53125 0 0.53125 -0.53125l0 -3.5625l-4.3125 0q-0.4375 3.421875 -2.59375 5.203125q-0.296875 0.21875 -0.21875 -0.15625q1.84375 -2.515625 1.84375 -6.375l0 -4.90625q-1.03125 1.109375 -1.84375 1.78125q-0.53125 0.21875 -0.234375 -0.296875q2.375 -2.375 4.015625 -6.90625l1.40625 0.671875zm-1.328125 1.78125q-0.671875 1.046875 -1.34375 2.078125l0.453125 0.375l2.078125 0l0.953125 -2.453125l-2.140625 0zm7.421875 3.34375q-1.046875 1.1875 -2.375 2.0q-0.375 0.15625 -0.15625 -0.21875q1.40625 -1.1875 2.0 -2.296875q0.59375 -1.125 0.828125 -2.828125l-2.3125 0l0 -0.4375l6.390625 0l0.4375 -0.59375l0.96875 0.65625q0.59375 0.453125 -0.515625 0.671875q-0.296875 2.828125 -1.046875 3.484375q-0.59375 0.53125 -1.25 0.53125q-0.234375 0 -0.234375 -0.234375q0 -0.296875 -0.359375 -0.4375l-0.828125 -0.296875q-0.359375 -0.296875 0.15625 -0.296875q0.734375 0.078125 1.328125 0.078125q0.53125 0 0.890625 -0.828125q0.234375 -0.515625 0.453125 -2.296875l-3.046875 0q-0.296875 2.15625 -1.328125 3.34375zm-4.15625 2.078125l0 -2.53125l-1.71875 0l0 2.53125l1.71875 0zm0 3.34375l0 -2.90625l-1.71875 0l0 2.90625l1.71875 0zm-2.671875 -2.90625l-1.640625 0l0 2.90625l1.640625 0l0 -2.90625zm-1.640625 -2.96875l0 2.53125l1.640625 0l0 -2.53125l-1.640625 0zm26.125 4.015625q-0.59375 3.859375 -2.96875 5.78125q-1.625 1.34375 -3.859375 2.09375q-0.4375 0.140625 -0.21875 -0.296875q2.96875 -1.421875 4.296875 -3.125q1.421875 -1.859375 1.71875 -4.453125l-4.015625 0l0 -0.453125l4.078125 0q0.078125 -1.25 0.078125 -2.375l0 -1.921875l-3.34375 0l0 -0.453125l3.34375 0l0 -3.265625l0.890625 0.15625q1.484375 0.21875 0.078125 0.734375l0 2.375l2.890625 0l0.59375 -0.65625l0.890625 0.734375q0.671875 0.453125 -0.375 0.59375l0 4.078125l0.671875 0l1.109375 -1.109375l1.421875 1.046875q0.4375 0.359375 0 0.515625l-6.46875 0q0.671875 2.21875 2.234375 3.9375q1.703125 1.78125 3.9375 2.671875q-0.75 0.375 -1.1875 1.03125q-2.15625 -1.40625 -3.71875 -3.484375q-1.265625 -1.9375 -1.703125 -4.15625l-0.375 0zm-10.015625 1.78125l0 -0.296875l1.859375 0l3.328125 -5.796875q0.296875 -0.21875 0.296875 0.15625l-2.59375 5.265625q-0.375 0.75 -0.140625 1.9375q0.140625 0.953125 0.21875 1.625q0.140625 1.34375 -0.59375 1.40625q-0.8125 0 -0.75 -1.328125q0.078125 -0.59375 0.15625 -1.40625q0.078125 -0.96875 -0.515625 -1.265625l-1.265625 -0.296875zm10.09375 -4.015625q0 1.125 -0.078125 1.78125l3.125 0l0 -4.296875l-3.046875 0l0 2.515625zm-8.828125 -4.59375q-0.234375 -0.21875 0.140625 -0.21875q1.265625 0.359375 1.9375 1.03125q0.59375 0.8125 0.4375 1.484375q-0.515625 0.890625 -1.03125 0q-0.15625 -0.515625 -0.375 -1.109375q-0.375 -0.59375 -1.109375 -1.1875zm18.765625 13.21875q-0.4375 0 -0.4375 -0.53125q0 -0.4375 0.296875 -0.8125q1.265625 -1.34375 1.40625 -2.96875q0.15625 -0.375 0.296875 0q0.21875 2.453125 -0.4375 3.5625q-0.453125 0.75 -1.125 0.75zm12.765625 -6.765625l-9.71875 0l0 0.8125q-0.96875 0.890625 -0.96875 0.078125l0 -9.5l1.125 0.75l9.34375 0l0.515625 -0.671875l1.1875 0.8125q0.59375 0.453125 -0.515625 0.59375l0 7.5q-0.96875 0.890625 -0.96875 0.078125l0 -0.453125zm-4.375 -0.4375l4.375 0l0 -3.125l-4.375 0l0 3.125zm0 -3.5625l4.375 0l0 -3.421875l-4.375 0l0 3.421875zm-5.34375 0l4.375 0l0 -3.421875l-4.375 0l0 3.421875zm4.375 3.5625l0 -3.125l-4.375 0l0 3.125l4.375 0zm7.71875 3.703125q1.34375 0.890625 1.34375 1.9375q0 0.59375 -0.375 0.59375q-0.515625 0 -1.109375 -1.1875q-0.8125 -1.265625 -2.078125 -1.9375q-0.296875 -0.296875 0.078125 -0.296875q1.1875 0.296875 2.140625 0.890625zm-7.9375 -2.21875q2.671875 0.8125 2.671875 2.4375q0 0.59375 -0.59375 0.59375q-0.375 0 -0.515625 -0.59375q-0.296875 -1.25 -1.640625 -2.21875q-0.21875 -0.21875 0.078125 -0.21875zm-2.0 6.671875q-0.890625 0 -0.890625 -0.890625l0 -5.265625l1.328125 0.21875q0.828125 0.296875 -0.359375 0.59375l0 4.15625q0 0.296875 0.296875 0.296875l5.640625 0q0.734375 0 0.8125 -0.515625l0.4375 -2.296875q0.15625 -0.15625 0.234375 0l0 2.296875q0 0.375 0.296875 0.515625q0.515625 0.234375 0 0.671875q-0.234375 0.21875 -1.34375 0.21875l-6.453125 0zm25.53125 -9.796875q2.375 2.0 4.828125 2.53125q-0.828125 0.359375 -0.96875 1.03125q-2.59375 -1.265625 -4.375 -3.046875q-2.234375 2.375 -5.125 3.796875q-0.453125 0.0625 -0.15625 -0.296875q2.53125 -1.640625 4.75 -4.09375q-0.890625 -1.03125 -1.78125 -2.8125q-0.890625 1.484375 -2.4375 2.96875q-0.53125 0.296875 -0.296875 -0.15625q2.671875 -3.484375 3.484375 -6.671875l0.8125 0.375q1.109375 0.515625 -0.078125 0.65625q-0.296875 0.59375 -0.59375 1.125l3.5 0l0.59375 -0.59375l0.65625 0.4375q1.34375 0.890625 0 0.890625q-1.1875 1.9375 -2.8125 3.859375zm-2.15625 -4.15625q-0.21875 0.453125 -0.4375 0.890625q0.953125 1.703125 1.921875 2.671875q1.40625 -1.625 2.453125 -3.5625l-3.9375 0zm-8.90625 12.46875l0 -6.3125l0.8125 0.15625q1.265625 0.21875 0.15625 0.59375l0 5.34375l1.328125 -0.375l0 -8.015625l-1.703125 0l0 0.75q-0.96875 0.890625 -0.96875 0.0625l0 -6.078125l1.125 0.59375l2.96875 0l0.4375 -0.59375l1.046875 0.734375q0.515625 0.375 -0.296875 0.53125l0 4.453125q-0.96875 0.890625 -0.96875 0.0625l0 -0.515625l-0.671875 0l0 2.828125l0.96875 0l0.8125 -0.828125l1.109375 0.75q0.453125 0.375 0 0.515625l-2.890625 0l0 4.453125l2.671875 -0.734375q0.59375 0.140625 0.078125 0.359375l-5.9375 2.15625q-0.21875 1.1875 -0.8125 0.296875l-0.59375 -0.890625l1.328125 -0.296875zm12.6875 -4.078125l0.453125 -0.59375l1.03125 0.734375q0.53125 0.375 -0.296875 0.53125l0 4.53125q-0.953125 0.890625 -0.953125 0.0625l0 -0.734375l-4.609375 0l0 1.03125q-0.96875 0.890625 -0.96875 0.078125l0 -6.09375l1.125 0.453125l4.21875 0zm-4.375 4.078125l4.609375 0l0 -3.640625l-4.609375 0l0 3.640625zm-7.71875 -9.046875l3.34375 0l0 -3.796875l-3.34375 0l0 3.796875zm21.53125 0.59375q0.296875 0.296875 0.296875 0.734375q0 0.453125 -0.296875 0.75q-0.296875 0.296875 -0.75 0.296875q-0.4375 0 -0.734375 -0.296875q-0.296875 -0.296875 -0.296875 -0.75q0 -0.4375 0.296875 -0.734375q0.296875 -0.296875 0.734375 -0.296875q0.453125 0 0.75 0.296875zm0 6.96875q0.296875 0.296875 0.296875 0.75q0 0.4375 -0.296875 0.734375q-0.296875 0.296875 -0.75 0.296875q-0.4375 0 -0.734375 -0.296875q-0.296875 -0.296875 -0.296875 -0.734375q0 -0.453125 0.296875 -0.75q0.296875 -0.296875 0.734375 -0.296875q0.453125 0 0.75 0.296875zm19.0 -7.046875l-3.5 0l0 2.75l3.5 0l0 -2.75zm-0.234375 -0.453125l0.453125 -0.59375l1.03125 0.75q0.453125 0.375 -0.296875 0.515625l0 3.5625q-0.953125 0.890625 -0.953125 0.078125l0 -0.671875l-3.5625 0q-0.078125 1.78125 -1.125 3.5625q2.75 1.9375 8.015625 2.234375q-1.03125 0.4375 -1.40625 1.265625q-4.375 -0.828125 -6.96875 -2.90625q-1.9375 2.15625 -5.28125 2.96875q-0.296875 -0.0625 -0.0625 -0.296875q3.265625 -1.1875 4.671875 -3.1875q-0.890625 -0.890625 -1.5625 -2.375l0.375 -0.21875q0.671875 1.328125 1.5625 2.078125q0.8125 -1.265625 0.8125 -3.125l-3.1875 0l0 0.8125q-0.96875 0.890625 -0.96875 0.078125l0 -5.265625l1.109375 0.734375l3.125 0l0 -2.296875l-4.828125 0l0 -0.4375l4.828125 0l0 -3.203125l1.328125 0.234375q0.8125 0.296875 -0.375 0.59375l0 2.375l3.9375 0l1.109375 -1.125l1.421875 1.046875q0.4375 0.375 0 0.515625l-6.46875 0l0 2.296875l3.265625 0zm-7.484375 3.203125l3.265625 0l0 -2.75l-3.265625 0l0 2.75zm-2.078125 -7.953125q-0.828125 2.234375 -1.484375 3.796875l0.734375 0.21875q0.671875 0.296875 -0.375 0.671875l0 10.46875q-0.953125 0.890625 -0.953125 0.0625l0 -9.9375q-1.265625 2.0 -2.453125 3.1875q-0.453125 0.296875 -0.21875 -0.21875q2.890625 -4.234375 3.78125 -9.4375l1.40625 0.59375q0.96875 0.453125 -0.4375 0.59375zm14.984375 15.453125q-0.4375 0.21875 -0.21875 -0.234375q2.8125 -3.40625 2.8125 -7.265625l0 -8.84375l1.125 0.671875l10.09375 0l0.4375 -0.59375l1.046875 0.75q0.4375 0.359375 -0.296875 0.515625l0 12.984375q0 0.890625 -0.53125 1.34375q-0.4375 0.375 -0.890625 0.4375q-0.4375 0.078125 -0.4375 -0.359375q0 -0.375 -0.375 -0.53125l-1.328125 -0.296875q-0.375 -0.140625 0 -0.296875l1.921875 0q0.671875 0 0.671875 -0.671875l0 -4.375l-4.96875 0l0 6.09375q-0.96875 0.890625 -0.96875 0.078125l0 -6.171875l-4.53125 0q-0.21875 3.71875 -3.5625 6.765625zm14.03125 -11.4375l0 -3.78125l-4.96875 0l0 3.78125l4.96875 0zm-10.46875 0l4.53125 0l0 -3.78125l-4.53125 0l0 3.78125zm4.53125 4.234375l0 -3.796875l-4.53125 0l0 3.796875l4.53125 0zm0.96875 -3.796875l0 3.796875l4.96875 0l0 -3.796875l-4.96875 0z" fill-rule="nonzero"/><path fill="#b7b7b7" d="m175.5916 37.670162q-1.171875 -0.0625 -2.5625 -0.0625q-1.375 0 -2.546875 0.0625l-0.046875 -0.546875q0.953125 -0.1875 1.28125 -0.328125q0.34375 -0.15625 0.375 -0.46875q0.140625 -1.109375 0.140625 -4.0q0 -4.6875 -0.109375 -5.84375l-0.03125 -0.375q-0.03125 -0.328125 -0.34375 -0.46875q-0.296875 -0.140625 -1.1875 -0.328125l0.0625 -0.53125q1.171875 0.046875 2.453125 0.046875q1.296875 0 2.46875 -0.046875l0.046875 0.53125q-0.890625 0.1875 -1.1875 0.328125q-0.296875 0.140625 -0.34375 0.46875q-0.140625 1.046875 -0.140625 4.6875l4.921875 -4.71875q0.078125 -0.046875 0.078125 -0.125q0 -0.359375 -1.375 -0.640625l0.046875 -0.53125q1.171875 0.046875 2.296875 0.046875q1.140625 0 2.3125 -0.046875l0.0625 0.53125q-1.5 0.296875 -2.125 0.890625l-4.015625 3.8125l5.1875 6.796875q0.421875 0.21875 1.546875 0.3125l-0.0625 0.546875l-3.109375 0.109375l-4.78125 -6.625l-0.984375 0.9375q0 2.921875 0.109375 3.90625l0.03125 0.328125q0.046875 0.328125 0.359375 0.46875q0.3125 0.140625 1.234375 0.328125l-0.0625 0.546875zm10.766006 0.109375q-1.90625 0 -1.90625 -1.9375l0 -2.5q0 -2.5 -0.125 -3.125l-1.09375 -0.359375l-0.046875 -0.484375q1.109375 0 2.375 -0.328125l0.359375 0.171875q-0.0625 3.328125 -0.0625 6.0625q0 1.25 1.515625 1.25q0.625 0 1.34375 -0.21875q0.734375 -0.21875 1.171875 -0.46875q0.078125 -1.015625 0.078125 -2.375q0 -2.53125 -0.15625 -3.25l-1.171875 -0.359375l-0.03125 -0.484375q1.1875 0 2.453125 -0.328125l0.359375 0.171875q-0.0625 1.390625 -0.0625 4.625l0.0625 2.1875q0 0.3125 0.25 0.484375q0.25 0.171875 0.484375 0.21875q0.25 0.046875 0.6875 0.078125l-0.0625 0.53125q-0.671875 0.0625 -2.03125 0.34375q-0.5625 -0.25 -0.765625 -1.125q-1.796875 1.21875 -3.625 1.21875zm11.448441 -0.859375q1.328125 0 2.109375 -1.09375q0.796875 -1.09375 0.796875 -2.453125q0 -1.375 -0.671875 -2.28125q-0.671875 -0.921875 -1.890625 -0.921875q-0.90625 0 -2.09375 0.59375q0 4.5 0.171875 5.84375q0.828125 0.3125 1.578125 0.3125zm-1.75 -6.8125q1.5625 -1.0625 3.0 -1.0625q1.453125 0 2.375 1.265625q0.9375 1.25 0.9375 3.03125q0 1.765625 -1.21875 3.109375q-1.203125 1.34375 -3.53125 1.34375q-1.5625 0 -3.109375 -0.65625q0.15625 -1.640625 0.15625 -5.09375q0 -5.609375 -0.109375 -6.5625l-0.046875 -0.3125l-1.1875 -0.359375l-0.03125 -0.484375q1.1875 0 2.453125 -0.34375l0.359375 0.171875q-0.046875 2.078125 -0.046875 5.953125zm13.390381 1.53125q0 -0.859375 -0.5 -1.28125q-0.484375 -0.421875 -1.078125 -0.421875q-0.875 0 -1.515625 0.703125q-0.625 0.6875 -0.828125 1.6875l3.859375 -0.140625q0.0625 -0.28125 0.0625 -0.546875zm-1.625 6.140625q-1.984375 0 -3.0 -1.125q-1.0 -1.140625 -1.0 -3.015625q0 -1.875 1.109375 -3.234375q1.109375 -1.375 3.359375 -1.375q1.125 0 1.96875 0.796875q0.859375 0.796875 0.859375 2.390625l-0.640625 0.765625q-0.109375 -0.015625 -1.765625 -0.015625q-1.640625 0 -3.296875 0.125l0 0.171875q0 1.6875 0.703125 2.546875q0.703125 0.84375 1.9375 0.84375q1.234375 0 2.59375 -0.59375l0.234375 0.5625q-1.4375 1.15625 -3.0625 1.15625zm9.828842 -8.859375q0.140625 0 0.484375 0.4375q0.359375 0.4375 0.46875 0.859375l-0.28125 0.359375q-0.671875 -0.265625 -1.40625 -0.265625q-0.71875 0 -1.328125 0.609375q-0.59375 0.609375 -0.59375 1.953125q0.03125 3.28125 0.171875 3.8125q0.015625 0.15625 0.53125 0.28125q0.515625 0.125 1.078125 0.15625l-0.0625 0.546875q-0.890625 -0.0625 -2.265625 -0.0625q-1.375 0 -2.265625 0.0625l0.0625 -0.546875q0.375 -0.03125 0.78125 -0.15625q0.40625 -0.125 0.421875 -0.25q0.15625 -0.65625 0.15625 -2.609375q0 -3.171875 -0.15625 -3.890625l-1.1875 -0.359375l-0.046875 -0.484375q1.203125 0 2.46875 -0.328125l0.359375 0.171875q-0.046875 0.28125 -0.046875 1.53125q0.546875 -0.90625 1.375 -1.359375q0.828125 -0.46875 1.28125 -0.46875zm4.3146515 1.84375l-0.03125 2.578125q0 2.40625 0.15625 3.125l0.03125 0.25q0.03125 0.125 0.421875 0.25q0.40625 0.125 0.78125 0.15625l-0.0625 0.546875q-0.890625 -0.0625 -2.046875 -0.0625q-1.15625 0 -2.0625 0.0625l0.0625 -0.546875q0.359375 -0.03125 0.75 -0.15625q0.40625 -0.125 0.421875 -0.25q0.15625 -0.65625 0.15625 -2.609375q0 -3.171875 -0.15625 -3.890625l-1.1875 -0.359375l-0.046875 -0.484375q1.203125 0 2.46875 -0.328125l0.359375 0.171875l0 0.890625q2.0625 -1.078125 3.59375 -1.078125q0.9375 0 1.421875 0.375q0.484375 0.375 0.484375 1.390625l0 2.546875q0 2.40625 0.125 3.125l0.0625 0.25q0.015625 0.125 0.40625 0.25q0.40625 0.125 0.78125 0.15625l-0.046875 0.546875q-0.90625 -0.0625 -2.0625 -0.0625q-1.15625 0 -2.046875 0.0625l0.0625 -0.546875q0.34375 -0.03125 0.75 -0.15625q0.40625 -0.125 0.421875 -0.25q0.140625 -0.65625 0.140625 -3.375l0 -1.8125q0 -0.734375 -0.421875 -1.015625q-0.421875 -0.28125 -1.453125 -0.28125q-1.03125 0 -2.234375 0.53125zm13.525635 0.875q0 -0.859375 -0.5 -1.28125q-0.484375 -0.421875 -1.078125 -0.421875q-0.875 0 -1.515625 0.703125q-0.625 0.6875 -0.828125 1.6875l3.859375 -0.140625q0.0625 -0.28125 0.0625 -0.546875zm-1.625 6.140625q-1.984375 0 -3.0 -1.125q-1.0 -1.140625 -1.0 -3.015625q0 -1.875 1.109375 -3.234375q1.109375 -1.375 3.359375 -1.375q1.125 0 1.96875 0.796875q0.859375 0.796875 0.859375 2.390625l-0.640625 0.765625q-0.109375 -0.015625 -1.765625 -0.015625q-1.640625 0 -3.296875 0.125l0 0.171875q0 1.6875 0.703125 2.546875q0.703125 0.84375 1.9375 0.84375q1.234375 0 2.59375 -0.59375l0.234375 0.5625q-1.4375 1.15625 -3.0625 1.15625zm7.516342 0q-1.9375 0 -1.9375 -1.875q0.015625 -1.640625 0.015625 -3.0q0 -1.375 -0.046875 -2.875l-1.1875 0.015625l-0.0625 -0.203125l0.4375 -0.71875q0.265625 0.046875 0.78125 0.078125l-0.078125 -1.71875l1.234375 -1.109375l0.359375 0.171875q-0.046875 1.375 -0.046875 2.625l2.75 -0.015625l0.09375 0.21875l-0.671875 0.75q-0.640625 -0.078125 -2.171875 -0.09375l0 2.5q0 2.328125 0.0625 3.34375q0.0625 0.84375 0.984375 0.84375q0.75 0 1.640625 -0.4375l0.234375 0.625q-1.328125 0.875 -2.390625 0.875zm8.772476 -6.140625q0 -0.859375 -0.5 -1.28125q-0.484375 -0.421875 -1.078125 -0.421875q-0.875 0 -1.515625 0.703125q-0.625 0.6875 -0.828125 1.6875l3.859375 -0.140625q0.0625 -0.28125 0.0625 -0.546875zm-1.625 6.140625q-1.984375 0 -3.0 -1.125q-1.0 -1.140625 -1.0 -3.015625q0 -1.875 1.109375 -3.234375q1.109375 -1.375 3.359375 -1.375q1.125 0 1.96875 0.796875q0.859375 0.796875 0.859375 2.390625l-0.640625 0.765625q-0.109375 -0.015625 -1.765625 -0.015625q-1.640625 0 -3.296875 0.125l0 0.171875q0 1.6875 0.703125 2.546875q0.703125 0.84375 1.9375 0.84375q1.234375 0 2.59375 -0.59375l0.234375 0.5625q-1.4375 1.15625 -3.0625 1.15625zm9.656967 -8.421875l0.265625 0.140625q0 1.203125 0.109375 1.84375l-0.484375 0.171875q-0.25 -0.953125 -0.6875 -1.328125q-0.4375 -0.375 -1.109375 -0.375q-0.671875 0 -1.0625 0.359375q-0.390625 0.34375 -0.390625 0.828125q0 0.84375 0.96875 1.390625l1.90625 1.046875q1.234375 0.6875 1.234375 1.984375q0 0.953125 -0.765625 1.65625q-0.75 0.703125 -2.15625 0.703125q-1.390625 0 -2.859375 -0.46875q0.21875 -1.3125 0.21875 -2.140625l0.484375 -0.171875q0.171875 0.671875 0.25 0.921875q0.09375 0.234375 0.296875 0.59375q0.21875 0.34375 0.546875 0.46875q0.34375 0.109375 1.0 0.109375q0.65625 0 1.078125 -0.375q0.4375 -0.375 0.4375 -0.90625q0 -0.78125 -0.890625 -1.265625l-2.0 -1.109375q-1.234375 -0.65625 -1.234375 -2.0q0 -0.953125 0.71875 -1.671875q0.734375 -0.734375 2.03125 -0.734375q1.3125 0 2.09375 0.328125z" fill-rule="nonzero"/><path fill="#b7b7b7" d="m278.52396 39.310787q-0.96875 0.890625 -0.96875 0.078125l0 -4.3125l-3.640625 0l0 -0.4375l3.640625 0l0 -2.375l-2.078125 0q-0.515625 1.109375 -1.109375 1.703125q-0.375 0.296875 -0.21875 -0.078125q0.890625 -2.0 1.40625 -4.375l1.1875 0.453125q0.375 0.4375 -0.453125 0.359375q-0.296875 0.75 -0.65625 1.484375l1.921875 0l0 -2.59375l1.34375 0.21875q0.8125 0.296875 -0.375 0.59375l0 1.78125l1.265625 0l0.8125 -0.8125l1.03125 0.75q0.453125 0.359375 0 0.515625l-3.109375 0l0 2.375l1.921875 0l0.828125 -0.8125l1.03125 0.734375q0.453125 0.375 0 0.515625l-3.78125 0l0 4.234375zm-8.390625 -16.625q0.296875 0.375 -0.59375 0.453125q-0.21875 0.4375 -0.515625 0.890625l1.921875 0l0.75 -0.59375l0.890625 0.890625q0.375 0.4375 -0.75 0.359375l-1.484375 2.234375l1.484375 0l0.453125 -0.59375l1.03125 0.734375q0.453125 0.375 -0.296875 0.53125l0 9.9375q0 0.828125 -0.515625 1.265625q-0.296875 0.296875 -0.734375 0.296875q-0.296875 0 -0.296875 -0.296875q0 -0.375 -0.453125 -0.515625l-0.96875 -0.21875q-0.296875 -0.15625 0 -0.296875l1.484375 0q0.53125 0 0.53125 -0.53125l0 -3.5625l-4.3125 0q-0.4375 3.421875 -2.59375 5.203125q-0.296875 0.21875 -0.21875 -0.15625q1.84375 -2.515625 1.84375 -6.375l0 -4.90625q-1.03125 1.109375 -1.84375 1.78125q-0.53125 0.21875 -0.234375 -0.296875q2.375 -2.375 4.015625 -6.90625l1.40625 0.671875zm-1.328125 1.78125q-0.671875 1.046875 -1.34375 2.078125l0.453125 0.375l2.078125 0l0.953125 -2.453125l-2.140625 0zm7.421875 3.34375q-1.046875 1.1875 -2.375 2.0q-0.375 0.15625 -0.15625 -0.21875q1.40625 -1.1875 2.0 -2.296875q0.59375 -1.125 0.828125 -2.828125l-2.3125 0l0 -0.4375l6.390625 0l0.4375 -0.59375l0.96875 0.65625q0.59375 0.453125 -0.515625 0.671875q-0.296875 2.828125 -1.046875 3.484375q-0.59375 0.53125 -1.25 0.53125q-0.234375 0 -0.234375 -0.234375q0 -0.296875 -0.359375 -0.4375l-0.828125 -0.296875q-0.359375 -0.296875 0.15625 -0.296875q0.734375 0.078125 1.328125 0.078125q0.53125 0 0.890625 -0.828125q0.234375 -0.515625 0.453125 -2.296875l-3.046875 0q-0.296875 2.15625 -1.328125 3.34375zm-4.15625 2.078125l0 -2.53125l-1.71875 0l0 2.53125l1.71875 0zm0 3.34375l0 -2.90625l-1.71875 0l0 2.90625l1.71875 0zm-2.671875 -2.90625l-1.640625 0l0 2.90625l1.640625 0l0 -2.90625zm-1.640625 -2.96875l0 2.53125l1.640625 0l0 -2.53125l-1.640625 0zm26.125 4.015625q-0.59375 3.859375 -2.96875 5.78125q-1.625 1.34375 -3.859375 2.09375q-0.4375 0.140625 -0.21875 -0.296875q2.96875 -1.421875 4.296875 -3.125q1.421875 -1.859375 1.71875 -4.453125l-4.015625 0l0 -0.453125l4.078125 0q0.078125 -1.25 0.078125 -2.375l0 -1.921875l-3.34375 0l0 -0.453125l3.34375 0l0 -3.265625l0.890625 0.15625q1.484375 0.21875 0.078125 0.734375l0 2.375l2.890625 0l0.59375 -0.65625l0.890625 0.734375q0.671875 0.453125 -0.375 0.59375l0 4.078125l0.671875 0l1.109375 -1.109375l1.421875 1.046875q0.4375 0.359375 0 0.515625l-6.46875 0q0.671875 2.21875 2.234375 3.9375q1.703125 1.78125 3.9375 2.671875q-0.75 0.375 -1.1875 1.03125q-2.15625 -1.40625 -3.71875 -3.484375q-1.265625 -1.9375 -1.703125 -4.15625l-0.375 0zm-10.015625 1.78125l0 -0.296875l1.859375 0l3.328125 -5.796875q0.296875 -0.21875 0.296875 0.15625l-2.59375 5.265625q-0.375 0.75 -0.140625 1.9375q0.140625 0.953125 0.21875 1.625q0.140625 1.34375 -0.59375 1.40625q-0.8125 0 -0.75 -1.328125q0.078125 -0.59375 0.15625 -1.40625q0.078125 -0.96875 -0.515625 -1.265625l-1.265625 -0.296875zm10.09375 -4.015625q0 1.125 -0.078125 1.78125l3.125 0l0 -4.296875l-3.046875 0l0 2.515625zm-8.828125 -4.59375q-0.234375 -0.21875 0.140625 -0.21875q1.265625 0.359375 1.9375 1.03125q0.59375 0.8125 0.4375 1.484375q-0.515625 0.890625 -1.03125 0q-0.15625 -0.515625 -0.375 -1.109375q-0.375 -0.59375 -1.109375 -1.1875z" fill-rule="nonzero"/><path fill="#b7b7b7" d="m311.88333 22.748287l0.15625 -0.15625q1.59375 0.8125 1.953125 1.25q0.375 0.421875 0.21875 0.90625q-0.140625 0.46875 -0.5 0.796875q-0.359375 0.328125 -0.578125 -0.546875q-0.21875 -0.875 -1.25 -2.25zm-3.5 3.5625l8.828125 0l1.09375 -1.171875l1.3125 1.609375l-3.140625 0q-0.65625 2.625 -1.890625 4.8125q1.890625 1.453125 2.6875 2.265625q0.8125 0.796875 0.625 1.5625q-0.1875 0.765625 -0.40625 0.84375q-0.21875 0.0625 -0.625 -0.625q-0.390625 -0.703125 -1.296875 -1.71875q-0.90625 -1.015625 -1.5625 -1.59375q-2.34375 2.609375 -5.46875 3.859375l-0.15625 -0.21875q3.4375 -2.1875 4.890625 -4.296875q-1.75 -1.6875 -3.578125 -3.0l0.15625 -0.21875q2.625 1.53125 3.9375 2.5625q1.15625 -2.1875 1.53125 -4.234375l-4.890625 0q-0.578125 0 -1.390625 0.21875l-0.65625 -0.65625zm-3.859375 -3.5625l0.15625 -0.15625q1.3125 0.734375 1.84375 1.25q0.546875 0.5 0.46875 1.09375q-0.0625 0.578125 -0.53125 0.984375q-0.46875 0.390625 -0.6875 -0.625q-0.21875 -1.03125 -1.25 -2.546875zm2.484375 12.453125q0.65625 0.734375 1.8125 1.390625q1.171875 0.65625 3.421875 0.765625q2.265625 0.109375 4.234375 0.03125q1.96875 -0.078125 3.578125 -0.21875l0 0.296875q-1.53125 0.359375 -1.53125 1.234375q-3.203125 0 -5.28125 -0.15625q-2.078125 -0.140625 -3.46875 -0.6875q-1.390625 -0.546875 -2.15625 -1.3125q-0.75 -0.765625 -1.125 -0.875q-0.359375 -0.109375 -1.234375 0.734375q-0.875 0.84375 -1.171875 1.421875l-1.09375 -1.09375q1.390625 -0.953125 3.0625 -1.609375l0 -6.046875l-0.65625 0q-0.9375 0 -1.75 0.21875l-0.65625 -0.65625l2.921875 0l0.515625 -0.796875l1.234375 0.953125l-0.65625 0.578125l0 5.828125z" fill-rule="nonzero"/><path fill="#b7b7b7" d="m332.21146 30.998287q0 0.296875 0.296875 0.296875l4.0 0q0.75 0 0.890625 -0.671875l0.53125 -2.21875q0.140625 -0.15625 0.21875 0l0 2.296875q0 0.375 0.296875 0.59375q0.4375 0.375 -0.078125 0.671875q-0.375 0.21875 -1.109375 0.21875l-5.125 0q-0.890625 0 -0.890625 -0.890625l0 -8.6875l1.265625 0.234375q0.59375 0.359375 -0.296875 0.515625l0 4.234375l4.375 -3.046875l1.109375 0.734375q0.59375 0.59375 -0.8125 0.375l-4.671875 2.296875l0 3.046875zm-4.828125 -4.375l1.640625 0l0.734375 -0.75l1.046875 0.828125q0.21875 0.296875 -0.15625 0.359375l-3.265625 0l0 3.34375l2.828125 -0.59375q0.515625 0 0.21875 0.296875l-7.796875 2.15625q-0.296875 0.8125 -0.59375 0.375l-0.8125 -1.1875l2.15625 -0.296875l0 -6.90625l1.25 0.21875q0.59375 0.375 -0.296875 0.515625l0 6.015625l2.078125 -0.375l0 -7.9375l1.265625 0.21875q0.59375 0.375 -0.296875 0.53125l0 3.1875zm-3.1875 7.9375l0 -0.4375l9.796875 0l0.8125 -0.828125l1.046875 0.75q0.4375 0.375 0 0.515625l-11.65625 0zm-2.234375 3.5l0 -0.453125l14.1875 0l0.953125 -0.96875l1.265625 0.890625q0.453125 0.375 0 0.53125l-16.40625 0z" fill-rule="nonzero"/><path fill="#b7b7b7" d="m342.69583 25.654537l1.828125 1.015625l-0.65625 0.4375l0 11.59375l-1.171875 0.515625q0.078125 -3.140625 0.078125 -7.4375q0 -4.296875 -0.078125 -6.125zm8.671875 11.4375q1.609375 0.15625 2.40625 0.234375q0.796875 0.0625 0.796875 -0.59375l0 -11.875l-4.0 0q-0.953125 0 -1.75 0.21875l-0.65625 -0.65625l6.328125 0l0.59375 -0.875l1.234375 1.015625l-0.65625 0.578125l0 11.8125q0.078125 1.890625 -1.8125 2.265625q0 -1.3125 -2.484375 -1.828125l0 -0.296875zm-7.28125 -14.5625q1.453125 0.796875 2.0625 1.484375q0.625 0.6875 0.03125 1.609375q-0.578125 0.90625 -0.90625 -0.1875q-0.328125 -1.09375 -1.40625 -2.765625l0.21875 -0.140625zm3.125 6.765625l0 4.296875l4.015625 0l0 -4.296875l-4.015625 0zm5.03125 3.5q0 0.734375 0.078125 1.890625l-1.09375 0.4375l0 -1.09375l-4.015625 0l0 0.953125l-1.09375 0.4375q0.078125 -2.1875 0.078125 -3.890625q0 -1.71875 -0.078125 -3.390625l1.09375 0.71875l3.9375 0l0.515625 -0.796875l1.15625 0.875l-0.578125 0.515625l0 3.34375zm10.203125 -8.75l0 2.125l3.421875 0l0 -2.125l-3.421875 0zm0 2.5625l0 2.03125l3.421875 0l0 -2.03125l-3.421875 0zm4.375 -2.40625q0 3.34375 0.0625 5.03125l-1.015625 0.5l0 -0.65625l-3.421875 0l0 0.4375l-1.015625 0.375q0.0625 -1.6875 0.0625 -3.5q0 -1.828125 -0.0625 -3.359375l1.015625 0.578125l3.28125 0l0.5 -0.71875l1.09375 0.875l-0.5 0.4375zm-5.109375 10.640625q0.8125 1.015625 2.046875 1.8125l0 -5.53125l-1.53125 0q-0.953125 0 -1.75 0.21875l-0.65625 -0.65625l6.40625 0l0.875 -0.875l1.171875 1.3125l-3.578125 0l0 2.546875l1.390625 0l0.796875 -0.796875l1.09375 1.234375l-3.28125 0l0 2.84375q1.46875 0.65625 5.0 0.6875q3.53125 0.046875 6.515625 -0.328125l0 0.296875q-1.375 0.515625 -1.375 1.171875q-6.203125 0.0625 -8.0625 -0.296875q-1.859375 -0.359375 -2.953125 -0.984375q-1.078125 -0.625 -2.25 -2.21875q-0.875 2.625 -2.109375 4.0l-0.21875 -0.140625q0.875 -1.53125 1.34375 -3.609375q0.46875 -2.078125 0.546875 -3.671875l1.453125 0.71875q-0.578125 0.21875 -0.875 2.265625zm13.125 -4.515625q0 0.578125 0.0625 2.25l-1.015625 0.515625l0 -6.421875l-4.21875 0l0 6.0625l-1.03125 0.578125q0.078125 -1.53125 0.078125 -3.75q0 -2.234375 -0.078125 -3.90625l1.03125 0.578125l0.9375 0q0.296875 -1.09375 0.375 -2.109375l-0.875 0q-0.953125 0 -1.75 0.21875l-0.65625 -0.65625l6.328125 0l0.875 -0.875l1.171875 1.3125l-3.859375 0q-0.296875 0.4375 -1.234375 2.109375l2.765625 0l0.5 -0.65625l1.09375 0.8125l-0.5 0.4375l0 3.5zm-3.71875 -2.5625l1.59375 0.8125l-0.578125 0.5q0 3.0625 -0.359375 4.265625q-0.359375 1.203125 -1.421875 2.234375q-1.0625 1.015625 -3.09375 1.734375l-0.15625 -0.21875q2.1875 -1.15625 3.03125 -2.390625q0.84375 -1.25 0.953125 -3.03125q0.109375 -1.78125 0.03125 -3.90625zm0.875 5.6875l0.140625 -0.21875q2.84375 1.3125 3.171875 1.859375q0.328125 0.546875 0.03125 1.3125q-0.28125 0.765625 -0.828125 -0.28125q-0.546875 -1.0625 -2.515625 -2.671875z" fill-rule="nonzero"/><path fill="#b7b7b7" d="m389.25833 32.560787q-0.4375 -1.265625 -1.703125 -2.453125q-0.21875 -0.296875 0.15625 -0.21875q2.59375 1.109375 2.59375 2.671875q0 0.671875 -0.515625 0.671875q-0.296875 0 -0.53125 -0.671875zm-3.703125 -2.15625q2.078125 -3.265625 3.046875 -8.234375l1.40625 0.4375q1.03125 0.296875 -0.296875 0.671875l-1.265625 3.046875l4.828125 0l0.4375 -0.59375l1.046875 0.734375q0.4375 0.375 -0.296875 0.53125l0 5.78125q0 3.5625 -1.046875 4.828125q-0.59375 0.75 -1.703125 1.1875q-1.03125 0.453125 -1.03125 -0.140625q0 -0.59375 -0.375 -0.671875l-1.34375 -0.375q-0.359375 -0.21875 0.078125 -0.296875l1.78125 0.140625q0.75 0.078125 1.484375 -0.359375q1.1875 -0.828125 1.1875 -4.453125l0 -5.875l-5.265625 0q-1.109375 2.375 -2.375 3.796875q-0.375 0.21875 -0.296875 -0.15625zm-0.453125 6.453125q-0.953125 0.90625 -0.953125 0.078125l0 -1.109375l-4.3125 0l0 1.78125q-0.96875 0.890625 -0.96875 0.078125l0 -11.953125l1.125 0.59375l1.03125 0l0.75 -4.15625l1.109375 0.296875q1.328125 0.296875 -0.21875 0.890625l-1.1875 2.96875l2.4375 0l0.453125 -0.59375l1.03125 0.734375q0.453125 0.375 -0.296875 0.53125l0 9.859375zm-0.953125 -10.09375l-4.3125 0l0 3.859375l4.3125 0l0 -3.859375zm-4.3125 4.3125l0 4.296875l4.3125 0l0 -4.296875l-4.3125 0z" fill-rule="nonzero"/><path fill="#b7b7b7" d="m401.85208 27.045162q1.8125 0.65625 2.28125 1.234375q0.484375 0.578125 0.046875 1.453125q-0.4375 0.875 -0.921875 -0.25q-0.46875 -1.125 -1.5625 -2.21875l0.15625 -0.21875zm4.734375 6.703125q-0.21875 0.65625 -0.4375 1.15625q3.578125 1.09375 4.84375 1.75q1.28125 0.65625 1.234375 1.9375q-0.03125 1.28125 -1.3125 -0.109375q-1.265625 -1.390625 -4.90625 -3.203125q-1.03125 1.8125 -3.140625 2.765625q-2.109375 0.953125 -5.46875 1.390625l0 -0.296875q3.0625 -0.578125 5.171875 -1.8125q2.125 -1.25 2.921875 -3.578125l-5.75 0q-0.953125 0 -1.75 0.21875l-0.65625 -0.65625l8.234375 0q0.28125 -1.390625 0.421875 -3.203125q0.15625 -1.828125 0.15625 -3.28125l1.828125 0.875l-0.59375 0.5q-0.28125 2.703125 -0.65625 5.109375l4.515625 0l1.09375 -1.09375l1.53125 1.53125l-7.28125 0zm-6.703125 -4.015625q2.03125 0.8125 2.5 1.4375q0.484375 0.609375 0.046875 1.453125q-0.4375 0.828125 -0.921875 -0.265625q-0.46875 -1.09375 -1.765625 -2.40625l0.140625 -0.21875zm4.296875 -7.359375l0.21875 -0.140625q1.171875 0.515625 1.9375 1.203125q0.765625 0.6875 0.0625 1.609375q-0.6875 0.90625 -0.953125 -0.21875q-0.25 -1.140625 -1.265625 -2.453125zm6.484375 5.828125l1.09375 -2.03125l-12.171875 0q0.15625 1.15625 -0.140625 1.8125q-0.296875 0.65625 -1.203125 0.59375q-0.90625 -0.078125 -0.078125 -1.09375q0.84375 -1.03125 1.0625 -2.625l0.296875 0l0.0625 0.875l12.03125 0l0.796875 -0.8125l1.390625 1.609375q-1.25 -0.078125 -2.921875 1.828125l-0.21875 -0.15625zm12.3125 5.6875q0.078125 -1.3125 0.078125 -5.359375q0 -4.046875 -0.078125 -5.421875l1.03125 0.65625l5.390625 0l0.5 -0.734375l1.09375 0.875l-0.5 0.4375q0 7.21875 0.0625 8.390625l-1.015625 0.5l0 -9.03125l-5.53125 0l0 9.25l-1.03125 0.4375zm3.0625 -7.71875l1.75 0.71875l-0.65625 0.59375q-0.0625 5.75 -1.59375 8.015625q-1.53125 2.25 -5.765625 3.9375l-0.140625 -0.21875q3.9375 -2.125 5.203125 -4.484375q1.28125 -2.375 1.203125 -8.5625zm1.25 5.46875l1.453125 0.71875l-0.515625 0.515625l0 4.21875q0 0.953125 0.796875 0.875l1.6875 0q0.4375 0 0.578125 -0.984375q0.140625 -0.984375 0.296875 -2.65625l0.28125 0q0 0.953125 0.078125 2.1875q0.078125 1.234375 0.796875 1.390625q-0.578125 1.015625 -1.53125 0.9375l-2.6875 0q-1.171875 0 -1.234375 -1.375l0 -5.828125zm-11.59375 -7.296875l4.515625 0l0.953125 -0.875l1.15625 1.3125l-2.984375 0l0 4.59375l0.875 0l0.796875 -0.796875l1.171875 1.234375l-2.84375 0l0 4.875l2.765625 -1.015625l0.078125 0.296875q-4.8125 2.25 -5.609375 3.28125l-0.875 -1.390625q1.609375 -0.4375 2.703125 -0.875l0 -5.171875q-0.953125 0 -1.75 0.21875l-0.65625 -0.65625l2.40625 0l0 -4.59375l-0.296875 0q-0.953125 0 -1.75 0.21875l-0.65625 -0.65625zm20.484375 8.3125q2.765625 -0.359375 4.734375 -0.734375l0 0.296875q-4.078125 1.015625 -5.171875 1.96875l-0.953125 -1.671875q0.515625 -0.078125 1.234375 -0.734375q0.734375 -0.65625 2.484375 -3.203125q-0.953125 0.21875 -1.90625 0.515625q-0.9375 0.28125 -1.515625 0.796875l-0.8125 -1.46875q0.8125 -0.21875 1.859375 -2.21875q1.0625 -2.0 1.5 -3.671875l1.453125 0.875q-0.578125 0.28125 -1.421875 1.671875q-0.828125 1.375 -2.21875 3.421875l3.28125 -0.296875q0.578125 -0.9375 1.3125 -2.6875l1.234375 1.015625q-0.65625 0.4375 -1.75 1.96875q-1.09375 1.53125 -3.34375 4.15625zm-1.828125 4.0q2.84375 -0.4375 6.40625 -1.375l0.078125 0.28125q-2.328125 0.8125 -3.859375 1.46875q-1.53125 0.65625 -1.75 1.09375l-0.875 -1.46875zm8.234375 -11.359375l0 5.46875l2.84375 0l0 -5.46875l-2.84375 0zm3.859375 0l0 5.46875l2.84375 0l0 -5.46875l-2.84375 0zm-4.875 -1.171875l1.015625 0.734375l6.625 0l0.59375 -0.8125l1.15625 0.953125l-0.65625 0.515625l0 11.875q0 0.578125 0.078125 1.234375l-1.09375 0.515625l0 -1.75l-6.703125 0l0 1.390625l-1.015625 0.4375q0.0625 -2.40625 0.0625 -8.09375q0 -5.6875 -0.0625 -7.0zm4.875 7.078125l0 5.75l2.84375 0l0 -5.75l-2.84375 0zm-3.859375 0l0 5.75l2.84375 0l0 -5.75l-2.84375 0zm20.265625 3.703125q2.25 0.296875 2.765625 0.296875q0.515625 0 0.515625 -0.578125l0 -5.03125l-5.109375 0l0 6.78125q0 1.3125 0.078125 2.40625l-1.171875 0.65625q0.078125 -1.6875 0.078125 -3.21875l0 -6.625l-3.203125 0q-0.953125 0 -1.75 0.21875l-0.65625 -0.65625l11.515625 0l0.796875 -0.796875l1.09375 1.015625l-0.59375 0.515625l0 5.015625q0 0.734375 -0.296875 1.171875q-0.28125 0.4375 -1.21875 0.875q-0.515625 -1.234375 -2.84375 -1.671875l0 -0.375zm0.875 -9.390625q0 -1.609375 -0.078125 -2.921875l1.75 0.875l-0.65625 0.4375l0 1.609375l2.25 0l1.3125 -1.171875l1.53125 1.609375l-5.09375 0q0 1.015625 0.078125 1.8125l-1.09375 0.515625l0 -2.328125l-4.15625 0l0 1.96875l-1.09375 0.578125q0.0625 -1.3125 0.0625 -2.546875l-3.265625 0q-0.953125 0 -1.75 0.21875l-0.65625 -0.65625l5.671875 0q0 -1.6875 -0.0625 -2.84375l1.671875 0.796875l-0.578125 0.515625l0 1.53125l4.15625 0z" fill-rule="nonzero"/><path fill="#000000" fill-opacity="0.0" d="m32.72441 214.27559l894.55115 0l0 156.53545l-894.55115 0z" fill-rule="evenodd"/><path fill="#cacaca" d="m58.478317 234.3781q1.296875 0 2.53125 0.671875q1.25 0.671875 1.9375 1.921875q0.6875 1.234375 0.6875 2.5625q0 2.15625 -1.515625 3.671875q-1.5 1.5 -3.640625 1.5q-2.140625 0 -3.65625 -1.5q-1.5 -1.515625 -1.5 -3.671875q0 -1.34375 0.6875 -2.578125q0.6875 -1.234375 1.921875 -1.90625q1.25 -0.671875 2.546875 -0.671875z" fill-rule="nonzero"/><path fill="#cacaca" d="m97.97441 247.6281q-1.21875 1.125 -1.21875 0.09375l0 -6.65625q-2.90625 2.25 -5.90625 3.46875q-0.46875 0.09375 -0.28125 -0.28125q7.125 -3.9375 10.40625 -10.40625l1.78125 0.375q0.9375 0.375 -0.28125 0.84375q3.9375 5.0625 10.21875 5.90625q-1.40625 0.46875 -1.96875 1.40625q-4.78125 -1.5 -9.0 -7.125q-1.78125 2.8125 -4.21875 5.15625l0.65625 0.5625l7.3125 0l0.5625 -0.75l1.3125 0.9375q0.5625 0.46875 -0.375 0.65625l0 5.8125q-1.21875 1.125 -1.21875 0.09375l0 -1.125l-7.78125 0l0 1.03125zm-5.15625 -9.46875q-0.5625 0.1875 -0.375 -0.28125q3.84375 -2.625 5.625 -6.09375l1.5 0.9375q0.65625 0.5625 -0.84375 0.46875q-2.53125 3.1875 -5.90625 4.96875zm8.0625 -8.15625l0 -3.0l1.59375 0.28125q0.75 0.46875 -0.375 0.65625l0 2.0625l7.59375 0l0.75 -0.75l1.5 1.5q1.21875 1.125 -0.5625 0.84375q-0.65625 -0.09375 -0.9375 0.1875l-1.21875 1.21875q-0.375 0.28125 -0.375 -0.09375l0.9375 -2.34375l-15.65625 0q-0.1875 3.28125 -2.0625 3.28125q-0.65625 0 -0.65625 -0.65625q0 -0.375 0.5625 -0.84375q1.59375 -1.03125 1.5 -3.46875q0.09375 -0.375 0.28125 -0.09375q0.1875 0.5625 0.28125 1.21875l6.84375 0zm8.25 4.875q0.84375 0.84375 0.84375 1.5q0 0.75 -0.5625 0.75q-0.46875 0 -0.9375 -0.65625q-1.5 -2.34375 -4.40625 -3.75q-0.28125 -0.375 0.1875 -0.28125q3.1875 0.75 4.875 2.4375zm-3.375 11.15625l0 -4.5l-7.78125 0l0 4.5l7.78125 0zm18.46875 -8.8125q-2.53125 2.71875 -5.0625 3.9375l3.65625 0l0.5625 -0.75l1.3125 0.9375q0.5625 0.46875 -0.375 0.65625l0 5.25q-1.21875 1.125 -1.21875 0.09375l0 -0.84375l-4.125 0l0 1.3125q-1.21875 1.125 -1.21875 0.09375l0 -6.0q-2.0625 0.9375 -3.46875 1.125q-0.46875 0 -0.1875 -0.375q5.4375 -2.0625 8.53125 -5.4375l-7.59375 0l0 -0.5625l8.0625 0q1.03125 -1.21875 1.875 -3.0l1.59375 0.75q0.5625 0.46875 -0.75 0.5625q-0.46875 0.75 -1.21875 1.6875l9.0 0l1.40625 -1.40625l1.78125 1.3125q0.5625 0.46875 0 0.65625l-7.3125 0q2.4375 3.46875 7.78125 4.3125q-1.03125 0.46875 -1.3125 1.3125q-1.5 -0.46875 -2.34375 -1.03125l0 5.34375q-1.21875 1.125 -1.21875 0.09375l0 -0.75l-4.125 0l0 0.9375q-1.21875 1.125 -1.21875 0.09375l0 -7.125l1.40625 0.75l3.9375 0q-1.96875 -1.3125 -3.65625 -3.9375l-4.5 0zm8.15625 4.5l-4.125 0l0 4.21875l4.125 0l0 -4.21875zm0.65625 -13.03125l-4.59375 0l0 4.3125l4.59375 0l0 -4.3125zm-10.5 4.3125l0 -4.3125l-4.03125 0l0 4.3125l4.03125 0zm5.90625 0.5625l0 0.375q-1.21875 1.125 -1.21875 0.09375l0 -6.5625l1.40625 0.65625l4.125 0l0.5625 -0.75l1.3125 0.9375q0.5625 0.46875 -0.375 0.65625l0 4.875q-1.21875 1.125 -1.21875 0.09375l0 -0.375l-4.59375 0zm-9.9375 0l0 0.75q-1.21875 1.125 -1.21875 0.09375l0 -6.9375l1.40625 0.65625l3.5625 0l0.5625 -0.75l1.3125 0.9375q0.5625 0.46875 -0.375 0.65625l0 4.96875q-1.21875 1.125 -1.21875 0.09375l0 -0.46875l-4.03125 0zm0.46875 12.375l4.125 0l0 -4.21875l-4.125 0l0 4.21875zm24.09375 -14.0625q-2.0625 2.15625 -4.59375 3.9375q-0.5625 0.1875 -0.1875 -0.375q4.21875 -3.65625 6.84375 -8.625l1.40625 0.75q0.75 0.5625 -0.65625 0.75q-0.65625 0.84375 -1.40625 1.6875l0.1875 0.1875l4.78125 0l0.75 -3.46875l1.6875 0.5625q0.75 0.5625 -0.65625 0.75l-1.125 2.15625l5.4375 0l1.21875 -1.21875l1.5 1.125q0.5625 0.46875 0 0.65625l-7.6875 0l0 2.34375l4.125 0l1.03125 -1.03125l1.3125 0.9375q0.5625 0.46875 0 0.65625l-6.46875 0l0 2.34375l4.59375 0l1.03125 -1.03125l1.3125 0.9375q0.5625 0.46875 0 0.65625l-6.9375 0l0 2.53125l5.25 0l1.21875 -1.21875l1.5 1.125q0.5625 0.46875 0 0.65625l-8.34375 0l0 2.25l7.21875 0l1.21875 -1.21875l1.5 1.125q0.5625 0.46875 0 0.65625l-9.46875 0q3.84375 3.1875 10.125 4.03125q-0.84375 0.5625 -1.6875 1.5q-5.8125 -1.6875 -8.90625 -5.34375l0 5.625q-1.21875 1.125 -1.21875 0.09375l0 -5.8125q-5.0625 4.21875 -10.21875 5.8125q-0.65625 0 -0.09375 -0.375q4.3125 -1.875 8.625 -5.53125l-8.53125 0l0 -0.5625l10.21875 0l0 -2.25l-4.6875 0l0 0.75q-1.21875 1.125 -1.21875 0.09375l0 -8.625zm6.28125 4.6875l-5.0625 0l0 2.53125l5.0625 0l0 -2.53125zm0 -2.90625l-5.0625 0l0 2.34375l5.0625 0l0 -2.34375zm0 -2.90625l-5.0625 0l0 2.34375l5.0625 0l0 -2.34375zm27.5625 -1.5q0.375 0.75 0.375 1.78125q0 0.75 -0.65625 0.75q-0.5625 0 -0.65625 -0.84375q-0.1875 -1.875 -1.78125 -3.65625q-0.28125 -0.46875 0.28125 -0.28125q1.875 1.125 2.4375 2.25zm-14.25 15.28125q2.4375 -3.84375 3.1875 -7.5l-2.4375 0l0 -0.5625l2.53125 0q0.28125 -1.125 0.46875 -3.1875l-3.46875 0l0 -0.5625l3.46875 0q0.09375 -1.40625 0.09375 -3.1875l-2.90625 0l0 -0.5625l6.5625 0l0.75 -0.75l1.03125 1.03125q0.5625 0.46875 -0.375 0.65625l0 2.8125l0.84375 0l1.21875 -1.21875l1.5 1.21875l3.46875 0l2.34375 -5.90625l1.59375 1.03125q0.5625 0.75 -0.65625 0.46875l-2.71875 4.40625l2.34375 0l1.21875 -1.21875l1.5 1.125q0.5625 0.46875 0 0.65625l-5.4375 0l0 4.03125l1.875 0l1.21875 -1.21875l1.5 1.125q0.5625 0.46875 0 0.65625l-4.59375 0l0 4.3125l2.8125 0l1.21875 -1.21875l1.5 1.125q0.5625 0.46875 0 0.65625l-5.53125 0l0 5.0625q-1.21875 1.125 -1.21875 0.09375l0 -5.15625l-4.40625 0l0 -0.5625l4.40625 0l0 -4.3125l-3.65625 0l0 -0.5625l3.65625 0l0 -4.03125l-6.0 0l0 4.5q-1.21875 1.125 -1.21875 0.09375l0 -0.84375l-3.28125 0q-0.28125 1.3125 -0.5625 2.15625l0.46875 0.46875l3.46875 0l0.5625 -0.75l1.3125 0.9375q0.5625 0.46875 -0.375 0.65625l0 5.90625q-1.21875 1.125 -1.21875 0.09375l0 -0.75l-3.65625 0l0 1.59375q-1.21875 1.125 -1.21875 0.09375l0 -7.125q-0.9375 2.53125 -2.90625 4.40625q-0.5625 0.375 -0.28125 -0.1875zm5.0625 -15.0q0 1.78125 -0.09375 3.1875l2.71875 0l0 -3.1875l-2.625 0zm-0.65625 15.65625l3.65625 0l0 -4.96875l-3.65625 0l0 4.96875zm3.28125 -8.71875l0 -3.1875l-2.71875 0q-0.1875 2.0625 -0.46875 3.1875l3.1875 0zm27.65625 11.15625q-1.40625 1.21875 -1.40625 0.09375l0 -17.71875l-8.71875 0l0 -0.5625l17.25 0l1.40625 -1.40625l1.78125 1.3125q0.5625 0.46875 0 0.65625l-10.3125 0l0 4.3125q3.1875 0.5625 5.625 1.96875q1.59375 0.9375 1.59375 1.96875q0 0.65625 -0.5625 0.65625q-0.5625 0 -1.5 -1.21875q-1.21875 -1.59375 -5.15625 -2.90625l0 12.84375zm28.21875 -3.46875q-3.09375 2.71875 -7.21875 4.3125q-0.65625 0.09375 -0.1875 -0.375q4.03125 -2.0625 6.75 -4.78125q-1.5 -1.96875 -2.625 -5.71875l-1.3125 0q-0.1875 6.375 -4.96875 10.59375q-0.375 0.1875 -0.28125 -0.28125q4.03125 -4.78125 4.03125 -10.5l0 -7.5l1.40625 0.84375l3.09375 0l0 -4.125l1.59375 0.28125q0.75 0.46875 -0.375 0.65625l0 3.1875l4.125 0l0.84375 -0.84375l1.875 1.40625q0.65625 0.65625 -0.375 0.65625q-0.75 0 -1.21875 0.28125l-2.0625 2.25q-0.46875 0.28125 -0.375 -0.1875l1.5 -3.0l-4.3125 0l0 5.71875l3.09375 0l0.84375 -0.84375l1.3125 1.03125q0.9375 0.75 -0.75 0.75q-1.78125 3.46875 -3.65625 5.34375q2.71875 2.625 6.09375 3.65625q-0.84375 0.1875 -1.59375 1.125q-2.90625 -1.40625 -5.25 -3.9375zm-0.09375 -1.59375q1.875 -2.25 3.09375 -4.96875l-5.625 0q1.21875 3.375 2.53125 4.96875zm-7.03125 -6.09375q0.9375 0.65625 -0.65625 0.5625l-2.34375 1.875q2.71875 1.125 2.71875 2.34375q0 0.75 -0.5625 0.75q-0.46875 0 -0.84375 -0.9375q-0.84375 -1.5 -2.15625 -2.0625l0 9.09375q-1.21875 1.125 -1.21875 0.09375l0 -10.5q-1.78125 2.15625 -3.375 3.375q-0.46875 0.09375 -0.28125 -0.28125q4.03125 -4.21875 6.375 -8.8125l-5.8125 0l0 -0.5625l3.09375 0l0 -4.59375l1.59375 0.28125q0.75 0.46875 -0.375 0.65625l0 3.65625l1.59375 0l0.5625 -0.9375l1.5 0.9375q0.84375 0.75 -0.5625 0.5625q-1.21875 1.96875 -3.09375 4.3125l0 2.4375l0.5625 0.09375l2.0625 -3.28125l1.21875 0.9375zm2.53125 0.5625l3.28125 0l0 -5.71875l-3.28125 0l0 5.71875z" fill-rule="nonzero"/><path fill="#cacaca" d="m248.25566 240.59685l0 6.1875l3.375 0l0 -6.1875l-3.375 0zm-10.5 6.1875q0 -5.25 -0.09375 -7.6875l1.40625 0.9375l12.375 0l0.9375 -0.9375l1.3125 1.3125l-0.84375 0.65625l0 5.71875l0.9375 0l1.21875 -1.21875l1.6874847 1.78125l-18.843735 0q-1.21875 0 -2.25 0.28125l-0.84375 -0.84375l3.0 0zm1.21875 -6.1875l0 6.1875l3.46875 0l0 -6.1875l-3.46875 0zm4.6875 0l0 6.1875l3.375 0l0 -6.1875l-3.375 0zm-4.96875 -10.6875q0 5.4375 0.09375 7.40625l-1.40625 0.65625q0.09375 -3.46875 0.09375 -5.390625q0 -1.921875 -0.09375 -4.359375l1.96875 0.9375l-0.65625 0.75zm4.40625 -1.3125q0 8.0625 0.09375 10.125l-1.40625 0.65625q0.09375 -3.09375 0.09375 -6.234375q0 -3.140625 -0.09375 -6.234375l2.0625 0.9375l-0.75 0.75zm5.90625 0.1875q-0.46875 1.5 -0.75 2.15625l4.40625 0l1.21875 -1.21875l1.6875 1.78125l-7.5 0q-1.78125 3.9375 -3.65625 6.0l-0.28125 -0.1875q1.59375 -2.90625 2.390625 -5.34375q0.796875 -2.4375 1.265625 -5.0625l2.15625 1.21875l-0.9375 0.65625zm0.375 3.9375q2.625 1.78125 3.375 2.953125q0.75 1.171875 0.09375 2.0625q-0.65625 0.890625 -1.21875 -0.609375q-0.5625 -1.5 -1.171875 -2.390625q-0.609375 -0.890625 -1.265625 -1.734375l0.1875 -0.28125z" fill-rule="nonzero"/><path fill="#cacaca" d="m270.4744 230.7531l-2.15625 0q0.09375 3.1875 -1.40625 3.1875q-0.5625 0 -0.5625 -0.5625q0 -0.375 0.28125 -0.65625q1.03125 -1.21875 0.9375 -3.46875q0.09375 -0.375 0.375 0l0.28125 0.9375l4.3125 0l0 -3.0l1.59375 0.28125q0.75 0.46875 -0.375 0.65625l0 2.0625l4.59375 0l0.65625 -0.65625l1.59375 1.3125q0.5625 0.65625 -0.65625 0.5625q-0.46875 -0.09375 -0.84375 0.375l-1.21875 1.5q-0.375 0.28125 -0.375 -0.09375l0.84375 -2.4375l-3.0 0l0 5.34375q0 0.375 0.375 0.375l3.1875 0q0.46875 0 0.65625 -0.75l0.46875 -1.875q0.1875 -0.1875 0.28125 0l0 2.0625q0 0.375 0.375 0.65625q0.375 0.28125 0 0.65625q-0.375 0.375 -1.03125 0.375l-4.40625 0q-1.125 0 -1.125 -1.125l0 -5.71875l-2.4375 0l0 0.84375q0 5.34375 -5.8125 8.34375q-0.46875 0 -0.1875 -0.375q4.78125 -3.09375 4.78125 -7.40625l0 -1.40625zm-7.21875 8.34375l0 7.21875q0 1.03125 -0.65625 1.59375q-0.375 0.375 -0.9375 0.375q-0.375 0 -0.375 -0.375q0 -0.46875 -0.5625 -0.65625l-1.21875 -0.28125q-0.375 -0.1875 0 -0.375l1.875 0q0.65625 0 0.65625 -0.65625l0 -6.375l-1.78125 0.9375q0.1875 1.5 -0.75 0.46875l-0.84375 -1.21875l3.375 -1.125l0 -5.71875l-3.1875 0l0 -0.5625l3.1875 0l0 -5.15625l1.59375 0.28125q0.75 0.46875 -0.375 0.65625l0 4.21875l0.46875 0l0.9375 -0.9375l1.3125 1.03125q0.28125 0.375 -0.1875 0.46875l-2.53125 0l0 5.34375l3.84375 -1.5q0.46875 0 0.1875 0.375l-4.03125 1.96875zm2.53125 7.78125l0 -0.5625l6.28125 0l0 -5.4375l-4.96875 0l0 -0.5625l9.75 0l1.21875 -1.21875l1.5 1.125q0.5625 0.46875 0 0.65625l-6.28125 0l0 5.4375l4.40625 0l1.21875 -1.21875l1.5 1.125q0.5625 0.46875 0 0.65625l-14.625 0zm31.21875 -6.9375q-0.5625 -1.59375 -2.15625 -3.09375q-0.28125 -0.375 0.1875 -0.28125q3.28125 1.40625 3.28125 3.375q0 0.84375 -0.65625 0.84375q-0.375 0 -0.65625 -0.84375zm-4.6875 -2.71875q2.625 -4.125 3.84375 -10.40625l1.78125 0.5625q1.3125 0.375 -0.375 0.84375l-1.59375 3.84375l6.09375 0l0.5625 -0.75l1.3125 0.9375q0.5625 0.46875 -0.375 0.65625l0 7.3125q0 4.5 -1.3125 6.09375q-0.75 0.9375 -2.15625 1.5q-1.3125 0.5625 -1.3125 -0.1875q0 -0.75 -0.46875 -0.84375l-1.6875 -0.46875q-0.46875 -0.28125 0.09375 -0.375l2.25 0.1875q0.9375 0.09375 1.875 -0.46875q1.5 -1.03125 1.5 -5.625l0 -7.40625l-6.65625 0q-1.40625 3.0 -3.0 4.78125q-0.46875 0.28125 -0.375 -0.1875zm-0.5625 8.15625q-1.21875 1.125 -1.21875 0.09375l0 -1.40625l-5.4375 0l0 2.25q-1.21875 1.125 -1.21875 0.09375l0 -15.09375l1.40625 0.75l1.3125 0l0.9375 -5.25l1.40625 0.375q1.6875 0.375 -0.28125 1.125l-1.5 3.75l3.09375 0l0.5625 -0.75l1.3125 0.9375q0.5625 0.46875 -0.375 0.65625l0 12.46875zm-1.21875 -12.75l-5.4375 0l0 4.875l5.4375 0l0 -4.875zm-5.4375 5.4375l0 5.4375l5.4375 0l0 -5.4375l-5.4375 0z" fill-rule="nonzero"/><path fill="#cacaca" d="m307.2244 230.3781l7.40625 0l0.75 -0.9375l1.59375 1.3125l-0.9375 0.75q-1.3125 4.125 -2.53125 6.9375q1.875 2.71875 2.25 3.890625q0.375 1.171875 0.328125 1.96875q-0.046875 0.796875 -0.5625 1.3125q-0.515625 0.515625 -0.9375 -1.40625q-0.421875 -1.921875 -1.640625 -4.640625q-0.9375 1.6875 -2.4375 3.46875q-1.5 1.78125 -3.84375 3.65625l-0.09375 -0.46875q1.6875 -1.59375 3.234375 -3.796875q1.546875 -2.203125 2.390625 -3.984375q-2.71875 -3.84375 -3.9375 -5.4375l0.28125 -0.28125q2.0625 2.25 4.125 4.59375q0.9375 -2.4375 1.96875 -6.375l-4.3125 0q-1.21875 0 -2.25 0.28125l-0.84375 -0.84375zm12.0 15.46875q2.90625 0.46875 3.515625 0.375q0.609375 -0.09375 0.609375 -0.75l0 -11.71875l-4.40625 0q-1.21875 0 -2.25 0.28125l-0.84375 -0.84375l7.5 0l0 -3.1875q0 -1.6875 -0.09375 -2.90625l2.25 1.125l-0.84375 0.75l0 4.21875l1.03125 0l1.21875 -1.21875l1.78125 1.78125l-4.03125 0l0 12.375q0 1.59375 -2.0625 2.4375q0 -1.125 -3.375 -2.25l0 -0.46875zm-1.875 -9.9375l0.28125 -0.1875q1.96875 1.59375 2.578125 2.8125q0.609375 1.21875 -0.234375 2.34375q-0.84375 1.125 -1.078125 -0.703125q-0.234375 -1.828125 -1.546875 -4.265625z" fill-rule="nonzero"/><path fill="#cacaca" d="m331.50565 246.22185q7.3125 -1.875 11.625 -5.53125q-0.09375 -0.84375 -0.65625 -1.5q-3.75 3.375 -10.3125 4.96875q-0.5625 -0.09375 -0.1875 -0.375q6.375 -2.0625 9.75 -5.34375q-0.28125 -0.28125 -1.03125 -0.65625q-4.03125 2.71875 -9.375 3.65625q-0.375 -0.1875 0.09375 -0.46875q5.15625 -1.40625 9.375 -4.59375l-4.875 0l0 0.9375q-1.21875 1.125 -1.21875 0.09375l0 -4.59375q-1.875 1.5 -3.65625 2.34375q-0.75 0.09375 -0.1875 -0.375q4.5 -3.09375 7.6875 -8.25l1.6875 0.75q1.03125 0.5625 -0.84375 0.65625q-0.375 0.5625 -0.84375 1.125l5.25 0l0.9375 -0.9375l1.5 1.125q0.65625 0.375 -1.21875 0.75l-2.0625 2.34375l5.4375 0l0.65625 -0.84375l1.5 1.03125q0.75 0.5625 -0.65625 0.75l0 3.75q-1.21875 1.125 -1.21875 0.09375l0 -0.75l-5.625 0q1.03125 0.84375 -0.84375 0.5625q-0.46875 0.28125 -1.03125 0.5625q0.9375 0.375 1.875 1.3125q1.03125 1.125 1.96875 2.15625l5.53125 -3.65625l1.21875 1.21875q0.65625 0.5625 -1.3125 0.375l-5.15625 2.34375q2.53125 2.8125 7.5 4.5q-1.40625 0.75 -1.6875 1.3125q-3.9375 -2.25 -6.84375 -6.0q0.1875 0.9375 0.1875 2.15625q0 2.15625 -0.65625 3.375q-0.5625 1.03125 -1.59375 1.5q-1.3125 0.5625 -1.40625 0q-0.09375 -0.65625 -0.75 -0.9375l-1.125 -0.46875q-0.5625 -0.46875 0.09375 -0.46875l1.59375 0.46875q1.3125 0.375 1.875 -0.375q0.9375 -1.21875 0.9375 -3.46875q0 -0.375 0 -0.84375q-6.0 3.84375 -11.8125 4.59375q-0.46875 -0.1875 -0.09375 -0.375zm6.65625 -16.59375q-1.125 1.21875 -2.34375 2.34375l0.375 0.375l6.1875 0l1.5 -2.71875l-5.71875 0zm-2.25 3.28125l0 2.90625l5.8125 0l0 -2.90625l-5.8125 0zm7.03125 2.90625l5.71875 0l0 -2.90625l-5.71875 0l0 2.90625zm24.375 0.09375q3.28125 0.9375 5.90625 2.71875q2.53125 1.6875 2.53125 2.625q0 0.75 -0.65625 0.75q-0.5625 0 -1.59375 -1.3125q-1.875 -2.34375 -6.28125 -4.40625q-0.46875 -0.375 0.09375 -0.375zm-2.53125 -2.0625q-4.40625 5.15625 -9.375 8.0625q-0.5625 0.1875 -0.28125 -0.28125q7.03125 -5.34375 10.78125 -11.53125l-10.125 0l0 -0.5625l16.875 0l1.40625 -1.40625l1.78125 1.3125q0.5625 0.46875 0 0.65625l-9.09375 0l0.84375 0.5625q0.75 0.46875 -0.65625 0.5625q-0.84375 1.125 -1.6875 2.0625l1.125 0.375q0.75 0.46875 -0.375 0.65625l0 13.125q-1.21875 1.125 -1.21875 0.09375l0 -13.6875zm24.28125 0.375l0 -4.125l1.59375 0.28125q0.75 0.46875 -0.375 0.65625l0 3.1875l3.65625 0l1.21875 -1.21875l1.5 1.125q0.5625 0.46875 0 0.65625l-6.375 0l0 3.46875l3.0 0l0.5625 -0.75l1.3125 0.9375q0.5625 0.46875 -0.375 0.65625l0 4.96875q-1.21875 1.125 -1.21875 0.09375l0 -1.21875l-7.3125 0l0 1.875q-1.21875 1.125 -1.21875 0.09375l0 -7.5l1.40625 0.84375l2.625 0l0 -3.46875l-5.90625 0l0 -0.5625l5.90625 0zm4.5 8.15625l0 -3.5625l-7.3125 0l0 3.5625l7.3125 0zm-11.71875 3.75l15.84375 0l0 -16.78125l-15.84375 0l0 16.78125zm0 0.5625l0 1.40625q-1.21875 1.125 -1.21875 0.09375l0 -20.15625l1.40625 0.75l15.375 0l0.5625 -0.75l1.3125 0.9375q0.5625 0.46875 -0.375 0.65625l0 18.0q-1.21875 1.125 -1.21875 0.09375l0 -1.03125l-15.84375 0zm40.21875 -15.65625l-15.84375 0q0 3.0 -1.6875 3.0q-0.65625 0 -0.65625 -0.65625q0 -0.375 0.375 -0.75q1.21875 -0.9375 1.3125 -3.0q0.09375 -0.5625 0.375 -0.09375q0.09375 0.28125 0.1875 0.9375l7.125 0l0 -3.65625l1.6875 0.28125q1.03125 0.1875 -0.46875 0.75l0 2.625l7.125 0l0.75 -1.03125l2.4375 1.78125q0.75 0.65625 -0.46875 0.65625q-1.125 -0.09375 -1.6875 0.46875l-1.03125 1.03125q-0.5625 0.46875 -0.375 -0.1875l0.84375 -2.15625zm-1.21875 3.28125q0.5625 0.46875 0 0.65625l-6.375 0l0 4.59375l4.59375 0l1.21875 -1.21875l1.5 1.125q0.5625 0.46875 0 0.65625l-7.3125 0l0 5.90625q0.65625 0.1875 2.4375 0.1875l7.40625 0q-0.5625 0.1875 -1.125 1.125l-7.125 0q-5.4375 0 -8.0625 -5.25q-1.21875 3.46875 -4.21875 5.90625q-0.46875 0.09375 -0.28125 -0.28125q3.5625 -3.46875 4.21875 -10.96875l1.96875 0.65625q0.84375 0.375 -0.75 0.75q-0.28125 1.78125 -0.75 3.28125q2.0625 3.5625 5.0625 4.40625l0 -10.875l-6.1875 0l0 -0.5625l11.0625 0l1.21875 -1.21875l1.5 1.125z" fill-rule="nonzero"/><path fill="#cacaca" d="m58.478317 277.37808q1.296875 0 2.53125 0.671875q1.25 0.671875 1.9375 1.921875q0.6875 1.234375 0.6875 2.5625q0 2.15625 -1.515625 3.671875q-1.5 1.5 -3.640625 1.5q-2.140625 0 -3.65625 -1.5q-1.5 -1.515625 -1.5 -3.671875q0 -1.34375 0.6875 -2.578125q0.6875 -1.234375 1.921875 -1.90625q1.25 -0.671875 2.546875 -0.671875z" fill-rule="nonzero"/><path fill="#cacaca" d="m102.84941 285.75308q0.1875 0.84375 -0.46875 1.03125q-0.46875 0.09375 -0.84375 -0.65625q-0.84375 -1.5 -1.96875 -2.15625q-0.46875 -0.28125 0.09375 -0.28125q2.8125 0.5625 3.1875 2.0625zm0 -5.4375q0.1875 0.84375 -0.46875 1.03125q-0.5625 0.1875 -0.9375 -0.84375q-0.65625 -1.125 -1.59375 -1.78125q-0.375 -0.1875 0.09375 -0.28125q2.34375 0.5625 2.90625 1.875zm5.15625 2.15625q-0.1875 2.90625 -0.46875 4.875l1.5 0l1.21875 -1.21875l1.59375 1.125q0.5625 0.46875 0 0.65625l-4.40625 0q-0.09375 0.9375 -0.28125 1.5q-0.1875 0.75 -0.84375 1.40625q-0.5625 0.46875 -1.125 0.46875q-0.375 0 -0.375 -0.375q0 -0.375 -0.5625 -0.65625l-1.21875 -0.46875q-0.375 -0.375 0.1875 -0.375l1.5 0.28125q1.03125 0.1875 1.3125 -0.9375l0.1875 -0.84375l-10.78125 0l-0.375 2.34375q-1.21875 0.9375 -1.21875 0.09375l1.125 -7.875l-3.5625 0l0 -0.5625l3.65625 0l0.65625 -5.53125l1.21875 0.9375l9.84375 0l0.46875 -0.75l1.6875 1.125q0.5625 0.65625 -0.75 0.65625l-0.1875 3.5625l1.40625 0l1.3125 -1.3125l1.6875 1.21875q0.5625 0.46875 0 0.65625l-4.40625 0zm-1.6875 4.875q0.28125 -1.875 0.46875 -4.875l-10.59375 0l-0.65625 4.875l10.78125 0zm-10.03125 -5.4375l10.5 0l0.1875 -4.03125l-10.21875 0l-0.46875 4.03125zm0 -7.6875q-2.15625 2.90625 -4.59375 4.875q-0.65625 0.1875 -0.28125 -0.375q3.28125 -3.46875 5.53125 -8.71875l1.875 0.9375q0.46875 0.46875 -0.9375 0.5625q-0.65625 1.125 -1.3125 2.15625l11.34375 0l1.3125 -1.3125l1.6875 1.21875q0.5625 0.46875 0 0.65625l-14.625 0zm28.21875 0.09375q-3.9375 5.34375 -9.0 8.0625q-0.65625 0.1875 -0.1875 -0.375q5.90625 -3.84375 9.65625 -11.4375l1.5 0.46875q1.40625 0.46875 -0.1875 0.75q2.71875 5.25 10.40625 8.71875q-1.21875 0.375 -1.6875 1.21875q-6.1875 -3.65625 -9.0 -9.5625q-0.75 1.03125 -1.5 2.15625zm1.96875 4.03125q1.6875 0.28125 -0.28125 1.03125l0 11.90625q-1.21875 1.125 -1.21875 0.09375l0 -13.3125l1.5 0.28125z" fill-rule="nonzero"/><path fill="#cacaca" d="m139.22441 273.37808l7.40625 0l0.75 -0.9375l1.59375 1.3125l-0.9375 0.75q-1.3125 4.125 -2.53125 6.9375q1.875 2.71875 2.25 3.890625q0.375 1.171875 0.328125 1.96875q-0.046875 0.796875 -0.5625 1.3125q-0.515625 0.515625 -0.9375 -1.40625q-0.421875 -1.921875 -1.640625 -4.640625q-0.9375 1.6875 -2.4375 3.46875q-1.5 1.78125 -3.84375 3.65625l-0.09375 -0.46875q1.6875 -1.59375 3.234375 -3.796875q1.546875 -2.203125 2.390625 -3.984375q-2.71875 -3.84375 -3.9375 -5.4375l0.28125 -0.28125q2.0625 2.25 4.125 4.59375q0.9375 -2.4375 1.96875 -6.375l-4.3125 0q-1.21875 0 -2.25 0.28125l-0.84375 -0.84375zm12.0 15.46875q2.90625 0.46875 3.515625 0.375q0.609375 -0.09375 0.609375 -0.75l0 -11.71875l-4.40625 0q-1.21875 0 -2.25 0.28125l-0.84375 -0.84375l7.5 0l0 -3.1875q0 -1.6875 -0.09375 -2.90625l2.25 1.125l-0.84375 0.75l0 4.21875l1.03125 0l1.21875 -1.21875l1.78125 1.78125l-4.03125 0l0 12.375q0 1.59375 -2.0625 2.4375q0 -1.125 -3.375 -2.25l0 -0.46875zm-1.875 -9.9375l0.28125 -0.1875q1.96875 1.59375 2.578125 2.8125q0.609375 1.21875 -0.234375 2.34375q-0.84375 1.125 -1.078125 -0.703125q-0.234375 -1.828125 -1.546875 -4.265625z" fill-rule="nonzero"/><path fill="#cacaca" d="m163.50566 289.22183q7.3125 -1.875 11.625 -5.53125q-0.09375 -0.84375 -0.65625 -1.5q-3.75 3.375 -10.3125 4.96875q-0.5625 -0.09375 -0.1875 -0.375q6.375 -2.0625 9.75 -5.34375q-0.28125 -0.28125 -1.03125 -0.65625q-4.03125 2.71875 -9.375 3.65625q-0.375 -0.1875 0.09375 -0.46875q5.15625 -1.40625 9.375 -4.59375l-4.875 0l0 0.9375q-1.21875 1.125 -1.21875 0.09375l0 -4.59375q-1.875 1.5 -3.65625 2.34375q-0.75 0.09375 -0.1875 -0.375q4.5 -3.09375 7.6875 -8.25l1.6875 0.75q1.03125 0.5625 -0.84375 0.65625q-0.375 0.5625 -0.84375 1.125l5.25 0l0.9375 -0.9375l1.5 1.125q0.65625 0.375 -1.21875 0.75l-2.0625 2.34375l5.4375 0l0.65625 -0.84375l1.5 1.03125q0.75 0.5625 -0.65625 0.75l0 3.75q-1.21875 1.125 -1.21875 0.09375l0 -0.75l-5.625 0q1.03125 0.84375 -0.84375 0.5625q-0.46875 0.28125 -1.03125 0.5625q0.9375 0.375 1.875 1.3125q1.03125 1.125 1.96875 2.15625l5.53125 -3.65625l1.21875 1.21875q0.65625 0.5625 -1.3125 0.375l-5.15625 2.34375q2.53125 2.8125 7.5 4.5q-1.40625 0.75 -1.6875 1.3125q-3.9375 -2.25 -6.84375 -6.0q0.1875 0.9375 0.1875 2.15625q0 2.15625 -0.65625 3.375q-0.5625 1.03125 -1.59375 1.5q-1.3125 0.5625 -1.40625 0q-0.09375 -0.65625 -0.75 -0.9375l-1.125 -0.46875q-0.5625 -0.46875 0.09375 -0.46875l1.59375 0.46875q1.3125 0.375 1.875 -0.375q0.9375 -1.21875 0.9375 -3.46875q0 -0.375 0 -0.84375q-6.0 3.84375 -11.8125 4.59375q-0.46875 -0.1875 -0.09375 -0.375zm6.65625 -16.59375q-1.125 1.21875 -2.34375 2.34375l0.375 0.375l6.1875 0l1.5 -2.71875l-5.71875 0zm-2.25 3.28125l0 2.90625l5.8125 0l0 -2.90625l-5.8125 0zm7.03125 2.90625l5.71875 0l0 -2.90625l-5.71875 0l0 2.90625zm26.0625 4.125q-0.5625 -1.59375 -2.15625 -3.09375q-0.28125 -0.375 0.1875 -0.28125q3.28125 1.40625 3.28125 3.375q0 0.84375 -0.65625 0.84375q-0.375 0 -0.65625 -0.84375zm-4.6875 -2.71875q2.625 -4.125 3.84375 -10.40625l1.78125 0.5625q1.3125 0.375 -0.375 0.84375l-1.59375 3.84375l6.09375 0l0.5625 -0.75l1.3125 0.9375q0.5625 0.46875 -0.375 0.65625l0 7.3125q0 4.5 -1.3125 6.09375q-0.75 0.9375 -2.15625 1.5q-1.3125 0.5625 -1.3125 -0.1875q0 -0.75 -0.46875 -0.84375l-1.6875 -0.46875q-0.46875 -0.28125 0.09375 -0.375l2.25 0.1875q0.9375 0.09375 1.875 -0.46875q1.5 -1.03125 1.5 -5.625l0 -7.40625l-6.65625 0q-1.40625 3.0 -3.0 4.78125q-0.46875 0.28125 -0.375 -0.1875zm-0.5625 8.15625q-1.21875 1.125 -1.21875 0.09375l0 -1.40625l-5.4375 0l0 2.25q-1.21875 1.125 -1.21875 0.09375l0 -15.09375l1.40625 0.75l1.3125 0l0.9375 -5.25l1.40625 0.375q1.6875 0.375 -0.28125 1.125l-1.5 3.75l3.09375 0l0.5625 -0.75l1.3125 0.9375q0.5625 0.46875 -0.375 0.65625l0 12.46875zm-1.21875 -12.75l-5.4375 0l0 4.875l5.4375 0l0 -4.875zm-5.4375 5.4375l0 5.4375l5.4375 0l0 -5.4375l-5.4375 0z" fill-rule="nonzero"/><path fill="#cacaca" d="m224.25566 283.59683l0 6.1875l3.375 0l0 -6.1875l-3.375 0zm-10.5 6.1875q0 -5.25 -0.09375 -7.6875l1.40625 0.9375l12.375 0l0.9375 -0.9375l1.3125 1.3125l-0.84375 0.65625l0 5.71875l0.9375 0l1.21875 -1.21875l1.6875 1.78125l-18.84375 0q-1.21875 0 -2.25 0.28125l-0.84375 -0.84375l3.0 0zm1.21875 -6.1875l0 6.1875l3.46875 0l0 -6.1875l-3.46875 0zm4.6875 0l0 6.1875l3.375 0l0 -6.1875l-3.375 0zm-4.96875 -10.6875q0 5.4375 0.09375 7.40625l-1.40625 0.65625q0.09375 -3.46875 0.09375 -5.390625q0 -1.921875 -0.09375 -4.359375l1.96875 0.9375l-0.65625 0.75zm4.40625 -1.3125q0 8.0625 0.09375 10.125l-1.40625 0.65625q0.09375 -3.09375 0.09375 -6.234375q0 -3.140625 -0.09375 -6.234375l2.0625 0.9375l-0.75 0.75zm5.90625 0.1875q-0.46875 1.5 -0.75 2.15625l4.40625 0l1.21875 -1.21875l1.6875 1.78125l-7.5 0q-1.78125 3.9375 -3.65625 6.0l-0.28125 -0.1875q1.59375 -2.90625 2.390625 -5.34375q0.796875 -2.4375 1.265625 -5.0625l2.15625 1.21875l-0.9375 0.65625zm0.375 3.9375q2.625 1.78125 3.375 2.953125q0.75 1.171875 0.09375 2.0625q-0.65625 0.890625 -1.21875 -0.609375q-0.5625 -1.5 -1.171875 -2.390625q-0.609375 -0.890625 -1.265625 -1.734375l0.1875 -0.28125z" fill-rule="nonzero"/><path fill="#cacaca" d="m246.47441 273.75308l-2.15625 0q0.09375 3.1875 -1.40625 3.1875q-0.5625 0 -0.5625 -0.5625q0 -0.375 0.28125 -0.65625q1.03125 -1.21875 0.9375 -3.46875q0.09375 -0.375 0.375 0l0.28125 0.9375l4.3125 0l0 -3.0l1.59375 0.28125q0.75 0.46875 -0.375 0.65625l0 2.0625l4.59375 0l0.65625 -0.65625l1.5937347 1.3125q0.5625 0.65625 -0.65623474 0.5625q-0.46875 -0.09375 -0.84375 0.375l-1.21875 1.5q-0.375 0.28125 -0.375 -0.09375l0.84375 -2.4375l-3.0 0l0 5.34375q0 0.375 0.375 0.375l3.1875 0q0.46875 0 0.65625 -0.75l0.46873474 -1.875q0.1875 -0.1875 0.28125 0l0 2.0625q0 0.375 0.375 0.65625q0.375 0.28125 0 0.65625q-0.375 0.375 -1.0312347 0.375l-4.40625 0q-1.125 0 -1.125 -1.125l0 -5.71875l-2.4375 0l0 0.84375q0 5.34375 -5.8125 8.34375q-0.46875 0 -0.1875 -0.375q4.78125 -3.09375 4.78125 -7.40625l0 -1.40625zm-7.21875 8.34375l0 7.21875q0 1.03125 -0.65625 1.59375q-0.375 0.375 -0.9375 0.375q-0.375 0 -0.375 -0.375q0 -0.46875 -0.5625 -0.65625l-1.21875 -0.28125q-0.375 -0.1875 0 -0.375l1.875 0q0.65625 0 0.65625 -0.65625l0 -6.375l-1.78125 0.9375q0.1875 1.5 -0.75 0.46875l-0.84375 -1.21875l3.375 -1.125l0 -5.71875l-3.1875 0l0 -0.5625l3.1875 0l0 -5.15625l1.59375 0.28125q0.75 0.46875 -0.375 0.65625l0 4.21875l0.46875 0l0.9375 -0.9375l1.3125 1.03125q0.28125 0.375 -0.1875 0.46875l-2.53125 0l0 5.34375l3.84375 -1.5q0.46875 0 0.1875 0.375l-4.03125 1.96875zm2.53125 7.78125l0 -0.5625l6.28125 0l0 -5.4375l-4.96875 0l0 -0.5625l9.75 0l1.21875 -1.21875l1.5 1.125q0.56248474 0.46875 0 0.65625l-6.28125 0l0 5.4375l4.40625 0l1.21875 -1.21875l1.4999847 1.125q0.5625 0.46875 0 0.65625l-14.624985 0z" fill-rule="nonzero"/><path fill="#cacaca" d="m264.0994 284.06558l3.75 -1.21875l0.1875 0.375q-5.8125 2.53125 -6.75 3.140625q-0.9375 0.609375 -1.125 1.078125l-1.125 -1.875q1.03125 -0.1875 3.84375 -1.125l0 -10.5l-0.75 0q-1.21875 0 -2.25 0.28125l-0.84375 -0.84375l6.28125 0l1.21875 -1.125l1.5 1.6875l-3.9375 0l0 10.125zm4.5 2.15625q0.09375 -2.4375 0.09375 -5.671875q0 -3.234375 -0.09375 -6.046875l1.3125 0.75l2.15625 0q0.375 -2.625 0.46875 -3.65625l-2.625 0q-1.21875 0 -2.25 0.28125l-0.84375 -0.84375l10.5 0l1.3125 -1.21875l1.59375 1.78125l-6.0 0q-0.5625 0.9375 -1.6875 3.65625l4.59375 0l0.84375 -0.9375l1.5 1.21875l-0.84375 0.5625l0 5.71875q0 1.59375 0.09375 3.28125l-1.3125 0.75l0 -10.03125l-7.5 0l0 9.5625l-1.3125 0.84375zm6.46875 -7.78125l-0.75 0.75q0 5.0625 -0.796875 6.984375q-0.796875 1.921875 -2.578125 3.234375q-1.78125 1.3125 -5.15625 2.25l-0.1875 -0.28125q4.40625 -1.96875 5.625 -3.65625q1.21875 -1.6875 1.546875 -4.171875q0.328125 -2.484375 0.140625 -6.140625l2.15625 1.03125zm-0.65625 7.03125q3.9375 2.0625 4.828125 2.8125q0.890625 0.75 0.515625 2.109375q-0.375 1.359375 -1.078125 0.234375q-0.703125 -1.125 -1.640625 -2.203125q-0.9375 -1.078125 -2.8125 -2.671875l0.1875 -0.28125z" fill-rule="nonzero"/><path fill="#cacaca" d="m295.31815 278.90933q3.28125 0.9375 5.90625 2.71875q2.53125 1.6875 2.53125 2.625q0 0.75 -0.65625 0.75q-0.5625 0 -1.59375 -1.3125q-1.875 -2.34375 -6.28125 -4.40625q-0.46875 -0.375 0.09375 -0.375zm-2.53125 -2.0625q-4.40625 5.15625 -9.375 8.0625q-0.5625 0.1875 -0.28125 -0.28125q7.03125 -5.34375 10.78125 -11.53125l-10.125 0l0 -0.5625l16.875 0l1.40625 -1.40625l1.78125 1.3125q0.5625 0.46875 0 0.65625l-9.09375 0l0.84375 0.5625q0.75 0.46875 -0.65625 0.5625q-0.84375 1.125 -1.6875 2.0625l1.125 0.375q0.75 0.46875 -0.375 0.65625l0 13.125q-1.21875 1.125 -1.21875 0.09375l0 -13.6875zm24.28125 0.375l0 -4.125l1.59375 0.28125q0.75 0.46875 -0.375 0.65625l0 3.1875l3.65625 0l1.21875 -1.21875l1.5 1.125q0.5625 0.46875 0 0.65625l-6.375 0l0 3.46875l3.0 0l0.5625 -0.75l1.3125 0.9375q0.5625 0.46875 -0.375 0.65625l0 4.96875q-1.21875 1.125 -1.21875 0.09375l0 -1.21875l-7.3125 0l0 1.875q-1.21875 1.125 -1.21875 0.09375l0 -7.5l1.40625 0.84375l2.625 0l0 -3.46875l-5.90625 0l0 -0.5625l5.90625 0zm4.5 8.15625l0 -3.5625l-7.3125 0l0 3.5625l7.3125 0zm-11.71875 3.75l15.84375 0l0 -16.78125l-15.84375 0l0 16.78125zm0 0.5625l0 1.40625q-1.21875 1.125 -1.21875 0.09375l0 -20.15625l1.40625 0.75l15.375 0l0.5625 -0.75l1.3125 0.9375q0.5625 0.46875 -0.375 0.65625l0 18.0q-1.21875 1.125 -1.21875 0.09375l0 -1.03125l-15.84375 0zm40.21875 -15.65625l-15.84375 0q0 3.0 -1.6875 3.0q-0.65625 0 -0.65625 -0.65625q0 -0.375 0.375 -0.75q1.21875 -0.9375 1.3125 -3.0q0.09375 -0.5625 0.375 -0.09375q0.09375 0.28125 0.1875 0.9375l7.125 0l0 -3.65625l1.6875 0.28125q1.03125 0.1875 -0.46875 0.75l0 2.625l7.125 0l0.75 -1.03125l2.4375 1.78125q0.75 0.65625 -0.46875 0.65625q-1.125 -0.09375 -1.6875 0.46875l-1.03125 1.03125q-0.5625 0.46875 -0.375 -0.1875l0.84375 -2.15625zm-1.21875 3.28125q0.5625 0.46875 0 0.65625l-6.375 0l0 4.59375l4.59375 0l1.21875 -1.21875l1.5 1.125q0.5625 0.46875 0 0.65625l-7.3125 0l0 5.90625q0.65625 0.1875 2.4375 0.1875l7.40625 0q-0.5625 0.1875 -1.125 1.125l-7.125 0q-5.4375 0 -8.0625 -5.25q-1.21875 3.46875 -4.21875 5.90625q-0.46875 0.09375 -0.28125 -0.28125q3.5625 -3.46875 4.21875 -10.96875l1.96875 0.65625q0.84375 0.375 -0.75 0.75q-0.28125 1.78125 -0.75 3.28125q2.0625 3.5625 5.0625 4.40625l0 -10.875l-6.1875 0l0 -0.5625l11.0625 0l1.21875 -1.21875l1.5 1.125z" fill-rule="nonzero"/></g></svg>