<svg version="1.1" viewBox="0.0 0.0 960.0 540.0" fill="none" stroke="none" stroke-linecap="square" stroke-miterlimit="10" xmlns:xlink="http://www.w3.org/1999/xlink" xmlns="http://www.w3.org/2000/svg"><clipPath id="g5cf35b70de_0_109.0"><path d="m0 0l960.0 0l0 540.0l-960.0 0l0 -540.0z" clip-rule="nonzero"/></clipPath><g clip-path="url(#g5cf35b70de_0_109.0)"><path fill="#37474f" d="m0 0l960.0 0l0 540.0l-960.0 0z" fill-rule="evenodd"/><path fill="#000000" fill-opacity="0.0" d="m32.72441 46.721786l894.55115 0l0 60.125984l-894.55115 0z" fill-rule="evenodd"/><path fill="#ffffff" d="m44.22441 93.34053q14.375 -5.0 15.15625 -19.21875l-14.0625 0l0 -3.4375l14.375 0l0 -8.281246l3.4375 0q1.5625 0.3125 0.15625 1.25l0 7.031246l15.0 0l0 3.4375l-14.6875 0q3.28125 12.96875 15.9375 18.4375l-2.03125 3.75q-10.9375 -5.0 -15.46875 -16.875q-2.65625 12.8125 -16.40625 17.65625l-1.40625 -3.75z" fill-rule="nonzero"/><path fill="#ffffff" d="m118.91191 93.34053q0 2.96875 -1.5625 3.59375q-1.5625 0.625 -4.375 1.09375q-0.3125 -1.71875 -1.25 -3.59375q2.5 0 3.359375 -0.390625q0.859375 -0.390625 0.859375 -1.953125l0 -25.78125l-13.59375 0l0 31.5625l-2.96875 0q0.15625 -3.4375 0.15625 -5.3125l0 -23.28125q0 -2.5 -0.15625 -5.312496l19.6875 0q-0.15625 2.3437462 -0.15625 4.687496l0 24.6875zm-25.625 -28.90625q-1.09375 0.9375 -2.578125 3.59375q-1.484375 2.65625 -3.984375 6.875q2.8125 0 5.46875 -0.15625q1.5625 -2.65625 2.65625 -5.625q1.5625 1.09375 3.59375 1.71875q-1.875 2.1875 -3.671875 5.15625q-1.796875 2.96875 -5.234375 7.5q5.15625 -0.78125 8.28125 -1.5625q-0.46875 1.875 -0.46875 3.28125q-1.71875 0.3125 -5.3125 0.859375q-3.59375 0.546875 -5.9375 1.328125q-0.46875 -1.71875 -1.25 -3.59375q1.5625 -0.46875 2.734375 -2.109375q1.171875 -1.640625 3.046875 -4.453125q-1.09375 0 -2.734375 0.15625q-1.640625 0.15625 -3.671875 0.78125q-0.46875 -1.71875 -1.09375 -3.4375q1.25 -0.46875 3.125 -4.0625q1.875 -3.59375 3.28125 -8.437496q1.71875 1.25 3.75 2.1874962zm12.5 6.25q1.25 2.34375 3.59375 6.5625q1.71875 -4.0625 2.1875 -7.34375q1.71875 0.78125 3.59375 1.5625q-1.25 1.875 -2.109375 3.984375q-0.859375 2.109375 -1.953125 4.609375q2.03125 2.8125 2.890625 4.375q0.859375 1.5625 1.796875 3.125q-1.875 0.625 -2.65625 1.71875q-2.03125 -4.21875 -3.4375 -6.5625q-1.09375 2.03125 -2.265625 3.984375q-1.171875 1.953125 -2.109375 3.359375q-1.25 -1.25 -2.65625 -2.1875q1.875 -2.03125 3.125 -3.984375q1.25 -1.953125 2.03125 -3.828125q-0.9375 -1.71875 -2.1875 -3.75q-1.25 -2.03125 -2.5 -3.4375q1.09375 -0.78125 2.65625 -2.1875zm-8.125 21.71875q-8.28125 2.34375 -9.921875 2.96875q-1.640625 0.625 -3.203125 1.40625q-0.78125 -2.1875 -1.5625 -3.90625q3.28125 -0.46875 5.78125 -1.171875q2.5 -0.703125 9.0625 -2.578125q-0.15625 1.40625 -0.15625 3.28125z" fill-rule="nonzero"/><path fill="#000000" fill-opacity="0.0" d="m32.72441 231.09448l894.55115 0l0 186.83466l-894.55115 0z" fill-rule="evenodd"/><path fill="#d9d9d9" d="m58.478317 251.19699q1.296875 0 2.53125 0.671875q1.25 0.671875 1.9375 1.921875q0.6875 1.234375 0.6875 2.5625q0 2.15625 -1.515625 3.671875q-1.5 1.5 -3.640625 1.5q-2.140625 0 -3.65625 -1.5q-1.5 -1.515625 -1.5 -3.671875q0 -1.34375 0.6875 -2.578125q0.6875 -1.234375 1.921875 -1.90625q1.25 -0.671875 2.546875 -0.671875z" fill-rule="nonzero"/><path fill="#d9d9d9" d="m98.53691 249.63449q0.28125 -1.5 0.515625 -3.140625q0.234375 -1.640625 0.328125 -3.046875l1.96875 0.84375l-0.65625 0.65625q-0.65625 3.75 -0.84375 4.6875l9.375 0l1.3125 -1.3125l1.78125 1.875l-12.5625 0q-0.28125 1.78125 -0.75 3.46875l8.0625 0l0.65625 -1.03125l1.59375 1.40625l-0.84375 0.65625q-1.6875 3.09375 -3.84375 5.53125q3.09375 2.53125 8.0625 3.46875l0 0.28125q-1.40625 0.28125 -1.78125 1.3125q-4.40625 -1.59375 -7.03125 -4.125q-3.65625 3.09375 -9.28125 4.3125l-0.09375 -0.28125q5.8125 -1.96875 8.53125 -4.96875q-2.0625 -2.71875 -3.28125 -6.0l-0.84375 0q-1.03125 3.09375 -2.859375 5.859375q-1.828125 2.765625 -4.828125 4.734375l-0.1875 -0.28125q1.5 -1.3125 2.953125 -3.28125q1.453125 -1.96875 2.53125 -4.453125q1.078125 -2.484375 1.921875 -6.609375l-4.3125 0l-0.75 0.84375l-1.21875 -1.3125l0.75 -0.46875q1.3125 -3.0 1.59375 -4.59375l1.875 1.03125l-0.75 0.5625q-0.9375 2.34375 -1.40625 3.375l4.3125 0zm1.6875 4.59375q1.5 3.0 3.5625 5.15625q1.78125 -2.0625 3.28125 -5.15625l-6.84375 0zm3.9375 -10.3125q2.71875 1.125 3.703125 1.921875q0.984375 0.796875 0.515625 2.015625q-0.46875 1.21875 -1.265625 -0.1875q-0.796875 -1.40625 -3.140625 -3.46875l0.1875 -0.28125zm20.0625 14.4375q0.09375 -1.6875 0.09375 -6.890625q0 -5.203125 -0.09375 -6.984375l1.3125 0.84375l6.9375 0l0.65625 -0.9375l1.40625 1.125l-0.65625 0.5625q0 9.28125 0.09375 10.78125l-1.3125 0.65625l0 -11.625l-7.125 0l0 11.90625l-1.3125 0.5625zm3.9375 -9.9375l2.25 0.9375l-0.84375 0.75q-0.09375 7.40625 -2.0625 10.3125q-1.96875 2.90625 -7.40625 5.0625l-0.1875 -0.28125q5.0625 -2.71875 6.703125 -5.765625q1.640625 -3.046875 1.546875 -11.015625zm1.59375 7.03125l1.875 0.9375l-0.65625 0.65625l0 5.4375q0 1.21875 1.03125 1.125l2.15625 0q0.5625 0 0.75 -1.265625q0.1875 -1.265625 0.375 -3.421875l0.375 0q0 1.21875 0.09375 2.8125q0.09375 1.59375 1.03125 1.78125q-0.75 1.3125 -1.96875 1.21875l-3.46875 0q-1.5 0 -1.59375 -1.78125l0 -7.5zm-14.90625 -9.375l5.8125 0l1.21875 -1.125l1.5 1.6875l-3.84375 0l0 5.90625l1.125 0l1.03125 -1.03125l1.5 1.59375l-3.65625 0l0 6.28125l3.5625 -1.3125l0.09375 0.375q-6.1875 2.90625 -7.21875 4.21875l-1.125 -1.78125q2.0625 -0.5625 3.46875 -1.125l0 -6.65625q-1.21875 0 -2.25 0.28125l-0.84375 -0.84375l3.09375 0l0 -5.90625l-0.375 0q-1.21875 0 -2.25 0.28125l-0.84375 -0.84375zm26.53125 1.6875l2.34375 1.3125l-0.84375 0.5625l0 14.90625l-1.5 0.65625q0.09375 -4.03125 0.09375 -9.5625q0 -5.53125 -0.09375 -7.875zm11.15625 14.71875q2.0625 0.1875 3.09375 0.28125q1.03125 0.09375 1.03125 -0.75l0 -15.28125l-5.15625 0q-1.21875 0 -2.25 0.28125l-0.84375 -0.84375l8.15625 0l0.75 -1.125l1.59375 1.3125l-0.84375 0.75l0 15.1875q0.09375 2.4375 -2.34375 2.90625q0 -1.6875 -3.1875 -2.34375l0 -0.375zm-9.375 -18.75q1.875 1.03125 2.671875 1.921875q0.796875 0.890625 0.046875 2.0625q-0.75 1.171875 -1.171875 -0.234375q-0.421875 -1.40625 -1.828125 -3.5625l0.28125 -0.1875zm4.03125 8.71875l0 5.53125l5.15625 0l0 -5.53125l-5.15625 0zm6.46875 4.5q0 0.9375 0.09375 2.4375l-1.40625 0.5625l0 -1.40625l-5.15625 0l0 1.21875l-1.40625 0.5625q0.09375 -2.8125 0.09375 -5.015625q0 -2.203125 -0.09375 -4.359375l1.40625 0.9375l5.0625 0l0.65625 -1.03125l1.5 1.125l-0.75 0.65625l0 4.3125zm13.125 -11.25l0 2.71875l4.40625 0l0 -2.71875l-4.40625 0zm0 3.28125l0 2.625l4.40625 0l0 -2.625l-4.40625 0zm5.625 -3.09375q0 4.3125 0.09375 6.46875l-1.3125 0.65625l0 -0.84375l-4.40625 0l0 0.5625l-1.3125 0.46875q0.09375 -2.15625 0.09375 -4.5q0 -2.34375 -0.09375 -4.3125l1.3125 0.75l4.21875 0l0.65625 -0.9375l1.40625 1.125l-0.65625 0.5625zm-6.5625 13.6875q1.03125 1.3125 2.625 2.34375l0 -7.125l-1.96875 0q-1.21875 0 -2.25 0.28125l-0.84375 -0.84375l8.25 0l1.125 -1.125l1.5 1.6875l-4.59375 0l0 3.28125l1.78125 0l1.03125 -1.03125l1.40625 1.59375l-4.21875 0l0 3.65625q1.875 0.84375 6.421875 0.890625q4.546875 0.046875 8.390625 -0.421875l0 0.375q-1.78125 0.65625 -1.78125 1.5q-7.96875 0.09375 -10.359375 -0.375q-2.390625 -0.46875 -3.796875 -1.265625q-1.40625 -0.796875 -2.90625 -2.859375q-1.125 3.375 -2.71875 5.15625l-0.28125 -0.1875q1.125 -1.96875 1.734375 -4.640625q0.609375 -2.671875 0.703125 -4.734375l1.875 0.9375q-0.75 0.28125 -1.125 2.90625zm16.875 -5.8125q0 0.75 0.09375 2.90625l-1.3125 0.65625l0 -8.25l-5.4375 0l0 7.78125l-1.3125 0.75q0.09375 -1.96875 0.09375 -4.828125q0 -2.859375 -0.09375 -5.015625l1.3125 0.75l1.21875 0q0.375 -1.40625 0.46875 -2.71875l-1.125 0q-1.21875 0 -2.25 0.28125l-0.84375 -0.84375l8.15625 0l1.125 -1.125l1.5 1.6875l-4.96875 0q-0.375 0.5625 -1.59375 2.71875l3.5625 0l0.65625 -0.84375l1.40625 1.03125l-0.65625 0.5625l0 4.5zm-4.78125 -3.28125l2.0625 1.03125l-0.75 0.65625q0 3.9375 -0.46875 5.484375q-0.46875 1.546875 -1.828125 2.859375q-1.359375 1.3125 -3.984375 2.25l-0.1875 -0.28125q2.8125 -1.5 3.890625 -3.09375q1.078125 -1.59375 1.21875 -3.890625q0.140625 -2.296875 0.046875 -5.015625zm1.125 7.3125l0.1875 -0.28125q3.65625 1.6875 4.078125 2.390625q0.421875 0.703125 0.046875 1.6875q-0.375 0.984375 -1.078125 -0.375q-0.703125 -1.359375 -3.234375 -3.421875z" fill-rule="nonzero"/><path fill="#d9d9d9" d="m192.66191 251.97824q0.375 0.375 0.375 0.9375q0 0.5625 -0.375 0.9375q-0.375 0.375 -0.9375 0.375q-0.5625 0 -0.9375 -0.375q-0.375 -0.375 -0.375 -0.9375q0 -0.5625 0.375 -0.9375q0.375 -0.375 0.9375 -0.375q0.5625 0 0.9375 0.375zm0 8.8125q0.375 0.375 0.375 0.9375q0 0.5625 -0.375 0.9375q-0.375 0.375 -0.9375 0.375q-0.5625 0 -0.9375 -0.375q-0.375 -0.375 -0.375 -0.9375q0 -0.5625 0.375 -0.9375q0.375 -0.375 0.9375 -0.375q0.5625 0 0.9375 0.375z" fill-rule="nonzero"/><path fill="#d9d9d9" d="m204.66191 251.04074q3.0 4.125 3.46875 5.390625q0.46875 1.265625 0.234375 2.109375q-0.234375 0.84375 -0.75 1.125q-0.515625 0.28125 -0.9375 -2.015625q-0.421875 -2.296875 -2.296875 -6.421875l0.28125 -0.1875zm4.6875 -0.75q2.0625 2.8125 2.859375 4.265625q0.796875 1.453125 0.65625 2.4375q-0.140625 0.984375 -0.796875 1.5q-0.65625 0.515625 -0.984375 -1.828125q-0.328125 -2.34375 -2.109375 -6.1875l0.375 -0.1875zm-7.21875 12.5625l10.875 0q1.96875 -4.96875 2.71875 -7.546875q0.75 -2.578125 1.21875 -5.109375l2.15625 1.3125q-0.65625 0.28125 -2.109375 3.75q-1.453125 3.46875 -3.328125 7.59375l3.28125 0l1.59375 -1.59375l2.15625 2.15625l-15.46875 0q-1.21875 0 -2.25 0.28125l-0.84375 -0.84375zm-0.75 -16.5l1.40625 0.9375l13.96875 0l1.5 -1.5l2.0625 2.0625l-17.53125 0q0 3.28125 -0.046875 6.328125q-0.046875 3.046875 -0.890625 5.765625q-0.84375 2.71875 -2.90625 5.34375l-0.28125 -0.1875q1.875 -3.375 2.34375 -6.5625q0.46875 -3.1875 0.46875 -6.09375q0 -2.90625 -0.09375 -6.09375zm8.25 -2.8125q2.0625 1.125 2.390625 1.6875q0.328125 0.5625 0 1.171875q-0.328125 0.609375 -0.75 0.796875q-0.421875 0.1875 -0.609375 -0.75q-0.1875 -0.9375 -1.3125 -2.71875l0.28125 -0.1875z" fill-rule="nonzero"/><path fill="#d9d9d9" d="m223.22441 264.822q-0.5625 0.28125 -0.28125 -0.28125q3.5625 -4.3125 3.5625 -9.1875l0 -11.15625l1.40625 0.84375l12.75 0l0.5625 -0.75l1.3125 0.9375q0.5625 0.46875 -0.375 0.65625l0 16.40625q0 1.125 -0.65625 1.6875q-0.5625 0.46875 -1.125 0.5625q-0.5625 0.09375 -0.5625 -0.46875q0 -0.46875 -0.46875 -0.65625l-1.6875 -0.375q-0.46875 -0.1875 0 -0.375l2.4375 0q0.84375 0 0.84375 -0.84375l0 -5.53125l-6.28125 0l0 7.6875q-1.21875 1.125 -1.21875 0.09375l0 -7.78125l-5.71875 0q-0.28125 4.6875 -4.5 8.53125zm17.71875 -14.4375l0 -4.78125l-6.28125 0l0 4.78125l6.28125 0zm-13.21875 0l5.71875 0l0 -4.78125l-5.71875 0l0 4.78125zm5.71875 5.34375l0 -4.78125l-5.71875 0l0 4.78125l5.71875 0zm1.21875 -4.78125l0 4.78125l6.28125 0l0 -4.78125l-6.28125 0z" fill-rule="nonzero"/><path fill="#d9d9d9" d="m254.53691 249.63449q0.28125 -1.5 0.515625 -3.140625q0.234375 -1.640625 0.328125 -3.046875l1.9687347 0.84375l-0.65625 0.65625q-0.65625 3.75 -0.84373474 4.6875l9.374985 0l1.3125 -1.3125l1.78125 1.875l-12.562485 0q-0.28125 1.78125 -0.75 3.46875l8.062485 0l0.65625 -1.03125l1.59375 1.40625l-0.84375 0.65625q-1.6875 3.09375 -3.84375 5.53125q3.09375 2.53125 8.0625 3.46875l0 0.28125q-1.40625 0.28125 -1.78125 1.3125q-4.40625 -1.59375 -7.03125 -4.125q-3.65625 3.09375 -9.281235 4.3125l-0.09375 -0.28125q5.8124847 -1.96875 8.531235 -4.96875q-2.0625 -2.71875 -3.2812347 -6.0l-0.84375 0q-1.03125 3.09375 -2.859375 5.859375q-1.828125 2.765625 -4.828125 4.734375l-0.1875 -0.28125q1.5 -1.3125 2.953125 -3.28125q1.453125 -1.96875 2.53125 -4.453125q1.078125 -2.484375 1.921875 -6.609375l-4.3125 0l-0.75 0.84375l-1.21875 -1.3125l0.75 -0.46875q1.3125 -3.0 1.59375 -4.59375l1.875 1.03125l-0.75 0.5625q-0.9375 2.34375 -1.40625 3.375l4.3125 0zm1.6874847 4.59375q1.5 3.0 3.5625 5.15625q1.78125 -2.0625 3.28125 -5.15625l-6.84375 0zm3.9375 -10.3125q2.71875 1.125 3.703125 1.921875q0.984375 0.796875 0.515625 2.015625q-0.46875 1.21875 -1.265625 -0.1875q-0.796875 -1.40625 -3.140625 -3.46875l0.1875 -0.28125z" fill-rule="nonzero"/><path fill="#d9d9d9" d="m270.4744 259.47824q-0.46875 0 -0.1875 -0.375q5.25 -3.84375 8.15625 -10.3125l-7.59375 0l0 -0.5625l7.78125 0q0.9375 -2.0625 1.5 -4.40625l1.6875 0.75q0.84375 0.375 -0.65625 0.84375q-0.5625 1.5 -1.21875 2.8125l9.0 0l1.40625 -1.40625l1.6875 1.3125q0.5625 0.46875 0 0.65625l-12.375 0q-0.84375 1.875 -2.0625 3.65625l0.46875 0.65625l4.21875 0l0 -3.28125l1.59375 0.28125q0.75 0.46875 -0.375 0.65625l0 2.34375l4.78125 0l0.5625 -0.75l1.3125 0.9375q0.5625 0.46875 -0.375 0.65625l0 7.3125q0 1.03125 -0.65625 1.59375q-0.375 0.375 -0.9375 0.375q-0.375 0 -0.375 -0.375q0 -0.46875 -0.5625 -0.65625l-1.21875 -0.28125q-0.375 -0.1875 0 -0.375l1.875 0q0.65625 0 0.65625 -0.65625l0 -7.21875l-5.0625 0l0 10.6875q-1.21875 1.125 -1.21875 0.09375l0 -10.78125l-4.40625 0l0 9.46875q-1.21875 1.125 -1.21875 0.09375l0 -9.28125q-2.625 3.375 -6.1875 5.53125zm27.84375 3.28125q-0.5625 -0.9375 -2.25 -2.4375q-0.46875 -0.375 0.09375 -0.375q2.25 0.65625 4.21875 2.625q0.84375 0.84375 0.84375 1.6875q0 0.5625 -0.375 0.9375q-0.28125 0.28125 -0.5625 0.28125q-0.46875 0 -0.75 -0.5625q-0.46875 -0.84375 -1.21875 -2.15625zm33.75 -3.5625q0 1.96875 -1.21875 3.0q-0.9375 0.65625 -1.5 0.65625q-0.65625 0 -0.65625 -0.65625q0 -0.375 -0.5625 -0.5625l-1.125 -0.375q-0.28125 -0.1875 0 -0.28125l0.9375 0.09375q0.9375 0.1875 1.6875 0.09375q0.5625 -0.09375 0.84375 -0.5625q0.28125 -0.75 0.28125 -1.875q0 -2.8125 -2.8125 -5.8125l1.78125 -6.09375l-3.84375 0l0 17.90625q-1.21875 1.125 -1.21875 0.09375l0 -19.21875l1.40625 0.65625l3.65625 0l0.46875 -0.65625l1.59375 1.125q0.5625 0.65625 -0.65625 0.5625l-2.625 5.625q3.5625 3.1875 3.5625 6.28125zm-12.5625 -1.59375l-5.25 0l0 4.21875l5.25 0l0 -4.21875zm-5.25 4.78125l0 2.0625q-1.21875 1.125 -1.21875 0.09375l0 -8.25l1.40625 0.75l4.875 0l0.5625 -0.65625l1.21875 0.84375q0.5625 0.46875 -0.375 0.65625l0 5.34375q-1.21875 1.125 -1.21875 0.09375l0 -0.9375l-5.25 0zm3.28125 -14.8125l3.0 0l1.21875 -1.21875l1.40625 1.125q0.5625 0.46875 0 0.65625l-12.09375 0l0 -0.5625l5.25 0l0 -3.75l1.59375 0.28125q0.75 0.46875 -0.375 0.65625l0 2.8125zm-4.5 1.125q2.25 1.6875 2.25 3.5625q0 1.03125 -0.65625 1.03125q-0.46875 0 -0.5625 -0.9375q-0.1875 -2.15625 -1.21875 -3.375q-0.28125 -0.375 0.1875 -0.28125zm-2.15625 5.25l7.125 0l1.59375 -5.15625l1.6875 0.46875q0.75 0.5625 -0.65625 0.75l-2.15625 3.9375l2.53125 0l1.21875 -1.21875l1.5 1.125q0.5625 0.46875 0 0.65625l-12.84375 0l0 -0.5625zm41.625 -2.625q-2.8125 2.34375 -4.125 3.28125l5.34375 0l1.21875 -1.21875l1.5 1.125q0.5625 0.46875 0 0.65625l-8.90625 0q-1.6875 1.21875 -3.9375 2.4375l7.3125 0l0.5625 -0.65625l1.21875 0.84375q0.65625 0.46875 -0.375 0.65625l0 6.1875q-1.21875 1.125 -1.21875 0.09375l0 -0.375l-8.53125 0l0 0.5625q-1.21875 1.125 -1.21875 0.09375l0 -6.28125q-2.8125 1.6875 -6.09375 2.53125q-0.65625 0 -0.09375 -0.375q3.09375 -1.03125 6.1875 -3.0l0 -1.125l1.21875 0.5625q2.0625 -1.21875 3.46875 -2.15625l-11.0625 0l0 -0.5625l8.34375 0l0 -2.25l-6.0 0l0 -0.5625l6.0 0l0 -2.25l1.03125 0.1875q1.59375 0.28125 0.1875 0.75l0 1.3125l2.625 0l1.125 -1.125l1.6875 1.3125q1.03125 -0.9375 1.96875 -1.96875l1.3125 0.84375q0.75 0.46875 -0.75 0.46875zm-7.96875 3.28125l2.25 0q0.84375 -0.5625 2.90625 -2.25l-5.15625 0l0 2.25zm-1.96875 3.5625l0 2.4375l8.53125 0l0 -2.4375l-8.53125 0zm0 3.0l0 2.625l8.53125 0l0 -2.625l-8.53125 0zm9.46875 -16.6875l0.5625 -0.65625l1.21875 0.84375q0.65625 0.46875 -0.375 0.65625l0 3.46875q-1.21875 1.125 -1.21875 0.09375l0 -0.375l-13.875 0l0 0.84375q-1.21875 1.125 -1.21875 0.09375l0 -5.71875l1.40625 0.75l13.5 0zm-3.75 0.5625l0 2.90625l3.9375 0l0 -2.90625l-3.9375 0zm-4.78125 0l0 2.90625l3.5625 0l0 -2.90625l-3.5625 0zm-5.15625 0l0 2.90625l3.9375 0l0 -2.90625l-3.9375 0zm23.90625 17.71875q-0.5625 -0.9375 -2.25 -2.4375q-0.46875 -0.375 0.09375 -0.375q2.25 0.65625 4.21875 2.625q0.84375 0.84375 0.84375 1.6875q0 0.5625 -0.375 0.9375q-0.28125 0.28125 -0.5625 0.28125q-0.46875 0 -0.75 -0.5625q-0.46875 -0.84375 -1.21875 -2.15625zm16.3125 -10.125q-0.46875 0 -0.75 -0.5625q-0.65625 -1.5 -2.34375 -2.15625q-0.375 -0.1875 0.09375 -0.28125q1.59375 0.09375 3.0 1.125q0.5625 0.5625 0.5625 1.21875q0 0.65625 -0.5625 0.65625zm-3.46875 10.40625l3.65625 -1.78125l0 -5.15625l-3.84375 0l0 -0.5625l3.65625 0l0.65625 -0.65625l1.21875 0.84375q0.5625 0.5625 -0.46875 0.75l0 4.6875q2.4375 1.875 8.15625 1.875l8.4375 0q-0.5625 0.1875 -1.03125 1.125l-7.3125 0q-6.09375 0 -8.8125 -2.8125l-2.53125 2.34375q0.09375 1.3125 -0.5625 0.5625l-1.21875 -1.21875zm4.96875 -15.28125q-0.46875 0 -0.9375 -0.75q-0.84375 -1.40625 -2.34375 -2.0625q-0.46875 -0.28125 0.09375 -0.28125q1.59375 0.1875 2.90625 1.03125q0.84375 0.5625 0.84375 1.3125q0 0.75 -0.5625 0.75zm10.78125 6.9375q4.40625 3.0 4.40625 6.0q0 0.84375 -0.5625 0.9375q-0.5625 0.09375 -0.84375 -1.03125q-0.28125 -0.75 -0.46875 -1.40625l-10.5 1.3125q-0.375 1.59375 -0.9375 0.28125l-0.84375 -1.40625l3.09375 -0.09375l2.0625 -7.6875l-4.96875 0l0 -0.5625l11.0625 0l1.40625 -1.40625l1.78125 1.3125q0.5625 0.46875 0 0.65625l-7.875 0l0.65625 0.375q0.46875 0.5625 -0.84375 0.5625l-2.71875 6.65625l8.4375 -0.46875q-1.125 -2.4375 -2.53125 -3.75q-0.28125 -0.46875 0.1875 -0.28125zm-8.0625 -8.8125l7.96875 0l1.40625 -1.40625l1.78125 1.3125q0.5625 0.46875 0 0.65625l-11.15625 0l0 -0.5625z" fill-rule="nonzero"/><path fill="#d9d9d9" d="m401.3494 257.322q3.09375 -0.5625 5.71875 -1.125l0.09375 0.375q-2.15625 0.5625 -4.125 1.40625q-1.96875 0.84375 -2.53125 1.5l-1.3125 -1.875q0.65625 -0.09375 1.828125 -1.3125q1.171875 -1.21875 2.765625 -3.9375q-0.84375 0.1875 -1.875 0.46875q-1.03125 0.28125 -1.78125 1.03125l-1.21875 -1.6875q0.9375 -0.1875 2.25 -3.234375q1.3125 -3.046875 1.78125 -5.015625l2.0625 1.125l-0.84375 0.375q-1.3125 2.34375 -3.84375 6.75l3.75 -0.375q1.21875 -2.4375 1.6875 -4.03125l1.6875 1.3125l-0.65625 0.375q-2.625 4.6875 -5.4375 7.875zm-1.96875 4.875q0.75 -0.1875 2.53125 -0.75q1.78125 -0.5625 5.4375 -1.78125l0.09375 0.375q-2.53125 1.125 -4.359375 2.0625q-1.828125 0.9375 -2.390625 1.78125l-1.3125 -1.6875zm10.3125 -8.4375l0 3.9375l3.9375 0l0 -3.9375l-3.9375 0zm0 4.5l0 4.3125l3.9375 0l0 -4.3125l-3.9375 0zm3.28125 -14.15625q2.71875 1.3125 2.859375 2.015625q0.140625 0.703125 -0.46875 1.453125q-0.609375 0.75 -0.9375 -0.46875q-0.328125 -1.21875 -1.640625 -2.8125l0.1875 -0.1875zm-4.59375 21.375q0.09375 -2.4375 0.09375 -14.34375q-0.75 1.5 -2.4375 3.84375l-0.28125 -0.1875q1.5 -2.71875 2.53125 -5.71875q1.03125 -3.0 1.5 -5.625l2.15625 1.21875l-0.75 0.46875q-0.46875 1.125 -1.5 3.5625l7.5 0l1.3125 -1.3125l1.59375 1.875l-5.25 0l0 3.9375l1.96875 0l1.3125 -1.3125l1.5 1.875l-4.78125 0l0 3.9375l1.875 0l1.3125 -1.21875l1.59375 1.78125l-4.78125 0l0 4.3125l2.8125 0l1.3125 -1.3125l1.59375 1.875l-10.875 0l0 1.6875l-1.3125 0.65625zm5.25 -16.21875l-3.9375 0l0 3.9375l3.9375 0l0 -3.9375z" fill-rule="nonzero"/><path fill="#d9d9d9" d="m434.63065 244.29074q1.03125 0.375 -0.46875 0.75l0 3.375l6.5625 0l0.65625 -0.84375l1.5 1.03125q0.75 0.5625 -0.65625 0.75l0 7.78125q-1.21875 1.125 -1.21875 0.09375l0 -0.9375l-6.84375 0l0 8.4375q-1.21875 1.125 -1.21875 0.09375l0 -8.53125l-6.5625 0l0 1.03125q-1.21875 1.125 -1.21875 0.09375l0 -9.84375l1.40625 0.84375l6.375 0l0 -4.40625l1.6875 0.28125zm-1.6875 4.6875l-6.5625 0l0 6.75l6.5625 0l0 -6.75zm8.0625 6.75l0 -6.75l-6.84375 0l0 6.75l6.84375 0zm19.875 1.03125q-0.5625 -1.59375 -2.15625 -3.09375q-0.28125 -0.375 0.1875 -0.28125q3.28125 1.40625 3.28125 3.375q0 0.84375 -0.65625 0.84375q-0.375 0 -0.65625 -0.84375zm-4.6875 -2.71875q2.625 -4.125 3.84375 -10.40625l1.78125 0.5625q1.3125 0.375 -0.375 0.84375l-1.59375 3.84375l6.09375 0l0.5625 -0.75l1.3125 0.9375q0.5625 0.46875 -0.375 0.65625l0 7.3125q0 4.5 -1.3125 6.09375q-0.75 0.9375 -2.15625 1.5q-1.3125 0.5625 -1.3125 -0.1875q0 -0.75 -0.46875 -0.84375l-1.6875 -0.46875q-0.46875 -0.28125 0.09375 -0.375l2.25 0.1875q0.9375 0.09375 1.875 -0.46875q1.5 -1.03125 1.5 -5.625l0 -7.40625l-6.65625 0q-1.40625 3.0 -3.0 4.78125q-0.46875 0.28125 -0.375 -0.1875zm-0.5625 8.15625q-1.21875 1.125 -1.21875 0.09375l0 -1.40625l-5.4375 0l0 2.25q-1.21875 1.125 -1.21875 0.09375l0 -15.09375l1.40625 0.75l1.3125 0l0.9375 -5.25l1.40625 0.375q1.6875 0.375 -0.28125 1.125l-1.5 3.75l3.09375 0l0.5625 -0.75l1.3125 0.9375q0.5625 0.46875 -0.375 0.65625l0 12.46875zm-1.21875 -12.75l-5.4375 0l0 4.875l5.4375 0l0 -4.875zm-5.4375 5.4375l0 5.4375l5.4375 0l0 -5.4375l-5.4375 0zm26.90625 -7.78125l0 8.25q0 6.0 -4.3125 9.375q-0.375 0.09375 -0.28125 -0.1875q3.375 -3.75 3.375 -9.09375l0 -1.03125l-2.8125 2.34375q0.09375 0.9375 -0.46875 0.46875l-0.84375 -1.59375l4.125 -1.6875l0 -8.15625l1.5 0.75l6.09375 0l0 -3.09375l1.6875 0.28125q1.03125 0.375 -0.46875 0.75l0 2.0625l5.53125 0l1.40625 -1.40625l1.78125 1.3125q0.5625 0.46875 0 0.65625l-16.3125 0zm5.4375 3.75q1.6875 0.28125 2.8125 1.125q1.5 -1.3125 2.4375 -2.34375l-9.0 0l0 -0.5625l9.0 0l0.9375 -0.75l1.40625 1.40625q0.46875 0.5625 -1.125 0.46875q-1.78125 1.125 -3.375 2.0625q0.46875 0.65625 -0.09375 1.03125l4.3125 0l0.5625 -0.75l1.3125 0.9375q0.5625 0.46875 -0.375 0.65625l0 8.8125q0 1.03125 -0.65625 1.59375q-0.375 0.375 -0.9375 0.375q-0.375 0 -0.375 -0.46875q0 -0.46875 -0.5625 -0.65625l-1.21875 -0.1875q-0.375 -0.1875 0 -0.375l1.875 0q0.65625 0 0.65625 -0.65625l0 -2.71875l-4.21875 0l0 4.40625q-1.21875 1.125 -1.21875 0.09375l0 -4.5l-4.03125 0l0 4.59375q-1.21875 1.125 -1.21875 0.09375l0 -12.1875l1.40625 0.9375l3.9375 0q-0.28125 -0.1875 -0.5625 -0.65625q-0.46875 -0.84375 -1.875 -1.5q-0.28125 -0.28125 0.1875 -0.28125zm-9.09375 -0.46875q-0.375 -1.96875 -1.40625 -3.09375q-0.1875 -0.375 0.28125 -0.1875q2.4375 1.59375 2.4375 3.1875q0 0.84375 -0.65625 0.84375q-0.5625 0 -0.65625 -0.75zm7.21875 5.8125l4.03125 0l0 -2.34375l-4.03125 0l0 2.34375zm9.46875 3.09375l0 -2.53125l-4.21875 0l0 2.53125l4.21875 0zm0 -3.09375l0 -2.34375l-4.21875 0l0 2.34375l4.21875 0zm-5.4375 0.5625l-4.03125 0l0 2.53125l4.03125 0l0 -2.53125zm19.21875 2.25q1.21875 2.25 1.21875 4.3125q0 1.3125 -1.03125 1.3125q-0.28125 0 -0.46875 -0.28125q-0.1875 -0.375 0 -1.03125q0.46875 -1.5 -0.09375 -4.125q0 -0.65625 0.375 -0.1875zm12.5625305 4.875q-0.375 0 -0.65625 -0.65625q-1.40625 -2.53125 -3.2812805 -3.84375q-0.375 -0.375 0.09375 -0.375q4.5937805 1.96875 4.5937805 4.03125q0 0.84375 -0.75 0.84375zm-6.8437805 -0.375q-0.375 -2.34375 -1.6875 -4.21875q-0.1875 -0.46875 0.28125 -0.28125q2.8125 2.625 2.8125 4.40625q0 1.03125 -0.75 1.03125q-0.5625 0 -0.65625 -0.9375zm-12.46875 -1.125q1.6875 -1.21875 1.875 -3.84375q0.28125 -0.5625 0.46875 0.09375q0.1875 3.09375 -0.75 4.5q-0.75 0.9375 -1.5 0.9375q-0.65625 0 -0.65625 -0.65625q0 -0.5625 0.5625 -1.03125zm9.28125 -15.1875l6.65625 0l1.2187805 -1.21875l1.5 1.125q0.5625 0.46875 0 0.65625l-9.3750305 0l0 3.5625l5.4375 0l0.5625 -0.75l1.3125305 0.9375q0.5625 0.46875 -0.375 0.65625l0 5.4375q-1.2187805 1.125 -1.2187805 0.09375l0 -0.5625l-10.21875 0l0 0.9375q-1.21875 1.125 -1.21875 0.09375l0 -7.6875l1.40625 0.84375l3.09375 0l0 -7.59375l1.59375 0.28125q0.75 0.46875 -0.375 0.65625l0 2.53125zm5.71875 4.6875l-10.21875 0l0 4.6875l10.21875 0l0 -4.6875z" fill-rule="nonzero"/><path fill="#cacaca" d="m58.478317 294.197q1.296875 0 2.53125 0.671875q1.25 0.671875 1.9375 1.921875q0.6875 1.234375 0.6875 2.5625q0 2.15625 -1.515625 3.671875q-1.5 1.5 -3.640625 1.5q-2.140625 0 -3.65625 -1.5q-1.5 -1.515625 -1.5 -3.671875q0 -1.34375 0.6875 -2.578125q0.6875 -1.234375 1.921875 -1.90625q1.25 -0.671875 2.546875 -0.671875z" fill-rule="nonzero"/><path fill="#cacaca" d="m107.81816 308.29074q-1.21875 1.125 -1.21875 0.09375l0 -5.4375l-4.59375 0l0 -0.5625l4.59375 0l0 -3.0l-2.625 0q-0.65625 1.40625 -1.40625 2.15625q-0.46875 0.375 -0.28125 -0.09375q1.125 -2.53125 1.78125 -5.53125l1.5 0.5625q0.46875 0.5625 -0.5625 0.46875q-0.375 0.9375 -0.84375 1.875l2.4375 0l0 -3.28125l1.6875 0.28125q1.03125 0.375 -0.46875 0.75l0 2.25l1.59375 0l1.03125 -1.03125l1.3125 0.9375q0.5625 0.46875 0 0.65625l-3.9375 0l0 3.0l2.4375 0l1.03125 -1.03125l1.3125 0.9375q0.5625 0.46875 0 0.65625l-4.78125 0l0 5.34375zm-10.59375 -21.0q0.375 0.46875 -0.75 0.5625q-0.28125 0.5625 -0.65625 1.125l2.4375 0l0.9375 -0.75l1.125 1.125q0.46875 0.5625 -0.9375 0.46875l-1.875 2.8125l1.875 0l0.5625 -0.75l1.3125 0.9375q0.5625 0.46875 -0.375 0.65625l0 12.5625q0 1.03125 -0.65625 1.59375q-0.375 0.375 -0.9375 0.375q-0.375 0 -0.375 -0.375q0 -0.46875 -0.5625 -0.65625l-1.21875 -0.28125q-0.375 -0.1875 0 -0.375l1.875 0q0.65625 0 0.65625 -0.65625l0 -4.5l-5.4375 0q-0.5625 4.3125 -3.28125 6.5625q-0.375 0.28125 -0.28125 -0.1875q2.34375 -3.1875 2.34375 -8.0625l0 -6.1875q-1.3125 1.40625 -2.34375 2.25q-0.65625 0.28125 -0.28125 -0.375q3.0 -3.0 5.0625 -8.71875l1.78125 0.84375zm-1.6875 2.25q-0.84375 1.3125 -1.6875 2.625l0.5625 0.46875l2.625 0l1.21875 -3.09375l-2.71875 0zm9.375 4.21875q-1.3125 1.5 -3.0 2.53125q-0.46875 0.1875 -0.1875 -0.28125q1.78125 -1.5 2.53125 -2.90625q0.75 -1.40625 1.03125 -3.5625l-2.90625 0l0 -0.5625l8.0625 0l0.5625 -0.75l1.21875 0.84375q0.75 0.5625 -0.65625 0.84375q-0.375 3.5625 -1.3125 4.40625q-0.75 0.65625 -1.59375 0.65625q-0.28125 0 -0.28125 -0.28125q0 -0.375 -0.46875 -0.5625l-1.03125 -0.375q-0.46875 -0.375 0.1875 -0.375q0.9375 0.09375 1.6875 0.09375q0.65625 0 1.125 -1.03125q0.28125 -0.65625 0.5625 -2.90625l-3.84375 0q-0.375 2.71875 -1.6875 4.21875zm-5.25 2.625l0 -3.1875l-2.15625 0l0 3.1875l2.15625 0zm0 4.21875l0 -3.65625l-2.15625 0l0 3.65625l2.15625 0zm-3.375 -3.65625l-2.0625 0l0 3.65625l2.0625 0l0 -3.65625zm-2.0625 -3.75l0 3.1875l2.0625 0l0 -3.1875l-2.0625 0zm33.0 5.0625q-0.75 4.875 -3.75 7.3125q-2.0625 1.6875 -4.875 2.625q-0.5625 0.1875 -0.28125 -0.375q3.75 -1.78125 5.4375 -3.9375q1.78125 -2.34375 2.15625 -5.625l-5.0625 0l0 -0.5625l5.15625 0q0.09375 -1.59375 0.09375 -3.0l0 -2.4375l-4.21875 0l0 -0.5625l4.21875 0l0 -4.125l1.125 0.1875q1.875 0.28125 0.09375 0.9375l0 3.0l3.65625 0l0.75 -0.84375l1.125 0.9375q0.84375 0.5625 -0.46875 0.75l0 5.15625l0.84375 0l1.40625 -1.40625l1.78125 1.3125q0.5625 0.46875 0 0.65625l-8.15625 0q0.84375 2.8125 2.8125 4.96875q2.15625 2.25 4.96875 3.375q-0.9375 0.46875 -1.5 1.3125q-2.71875 -1.78125 -4.6875 -4.40625q-1.59375 -2.4375 -2.15625 -5.25l-0.46875 0zm-12.65625 2.25l0 -0.375l2.34375 0l4.21875 -7.3125q0.375 -0.28125 0.375 0.1875l-3.28125 6.65625q-0.46875 0.9375 -0.1875 2.4375q0.1875 1.21875 0.28125 2.0625q0.1875 1.6875 -0.75 1.78125q-1.03125 0 -0.9375 -1.6875q0.09375 -0.75 0.1875 -1.78125q0.09375 -1.21875 -0.65625 -1.59375l-1.59375 -0.375zm12.75 -5.0625q0 1.40625 -0.09375 2.25l3.9375 0l0 -5.4375l-3.84375 0l0 3.1875zm-11.15625 -5.8125q-0.28125 -0.28125 0.1875 -0.28125q1.59375 0.46875 2.4375 1.3125q0.75 1.03125 0.5625 1.875q-0.65625 1.125 -1.3125 0q-0.1875 -0.65625 -0.46875 -1.40625q-0.46875 -0.75 -1.40625 -1.5zm23.71875 16.6875q-0.5625 0 -0.5625 -0.65625q0 -0.5625 0.375 -1.03125q1.59375 -1.6875 1.78125 -3.75q0.1875 -0.46875 0.375 0q0.28125 3.09375 -0.5625 4.5q-0.5625 0.9375 -1.40625 0.9375zm16.125 -8.53125l-12.28125 0l0 1.03125q-1.21875 1.125 -1.21875 0.09375l0 -12.0l1.40625 0.9375l11.8125 0l0.65625 -0.84375l1.5 1.03125q0.75 0.5625 -0.65625 0.75l0 9.46875q-1.21875 1.125 -1.21875 0.09375l0 -0.5625zm-5.53125 -0.5625l5.53125 0l0 -3.9375l-5.53125 0l0 3.9375zm0 -4.5l5.53125 0l0 -4.3125l-5.53125 0l0 4.3125zm-6.75 0l5.53125 0l0 -4.3125l-5.53125 0l0 4.3125zm5.53125 4.5l0 -3.9375l-5.53125 0l0 3.9375l5.53125 0zm9.75 4.6875q1.6875 1.125 1.6875 2.4375q0 0.75 -0.46875 0.75q-0.65625 0 -1.40625 -1.5q-1.03125 -1.59375 -2.625 -2.4375q-0.375 -0.375 0.09375 -0.375q1.5 0.375 2.71875 1.125zm-10.03125 -2.8125q3.375 1.03125 3.375 3.09375q0 0.75 -0.75 0.75q-0.46875 0 -0.65625 -0.75q-0.375 -1.59375 -2.0625 -2.8125q-0.28125 -0.28125 0.09375 -0.28125zm-2.53125 8.4375q-1.125 0 -1.125 -1.125l0 -6.65625l1.6875 0.28125q1.03125 0.375 -0.46875 0.75l0 5.25q0 0.375 0.375 0.375l7.125 0q0.9375 0 1.03125 -0.65625l0.5625 -2.90625q0.1875 -0.1875 0.28125 0l0 2.90625q0 0.46875 0.375 0.65625q0.65625 0.28125 0 0.84375q-0.28125 0.28125 -1.6875 0.28125l-8.15625 0zm32.25 -12.375q3.0 2.53125 6.09375 3.1875q-1.03125 0.46875 -1.21875 1.3125q-3.28125 -1.59375 -5.53125 -3.84375q-2.8125 3.0 -6.46875 4.78125q-0.5625 0.09375 -0.1875 -0.375q3.1875 -2.0625 6.0 -5.15625q-1.125 -1.3125 -2.25 -3.5625q-1.125 1.875 -3.09375 3.75q-0.65625 0.375 -0.375 -0.1875q3.375 -4.40625 4.40625 -8.4375l1.03125 0.46875q1.40625 0.65625 -0.09375 0.84375q-0.375 0.75 -0.75 1.40625l4.40625 0l0.75 -0.75l0.84375 0.5625q1.6875 1.125 0 1.125q-1.5 2.4375 -3.5625 4.875zm-2.71875 -5.25q-0.28125 0.5625 -0.5625 1.125q1.21875 2.15625 2.4375 3.375q1.78125 -2.0625 3.09375 -4.5l-4.96875 0zm-11.25 15.75l0 -7.96875l1.03125 0.1875q1.59375 0.28125 0.1875 0.75l0 6.75l1.6875 -0.46875l0 -10.125l-2.15625 0l0 0.9375q-1.21875 1.125 -1.21875 0.09375l0 -7.6875l1.40625 0.75l3.75 0l0.5625 -0.75l1.3125 0.9375q0.65625 0.46875 -0.375 0.65625l0 5.625q-1.21875 1.125 -1.21875 0.09375l0 -0.65625l-0.84375 0l0 3.5625l1.21875 0l1.03125 -1.03125l1.40625 0.9375q0.5625 0.46875 0 0.65625l-3.65625 0l0 5.625l3.375 -0.9375q0.75 0.1875 0.09375 0.46875l-7.5 2.71875q-0.28125 1.5 -1.03125 0.375l-0.75 -1.125l1.6875 -0.375zm16.03125 -5.15625l0.5625 -0.75l1.3125 0.9375q0.65625 0.46875 -0.375 0.65625l0 5.71875q-1.21875 1.125 -1.21875 0.09375l0 -0.9375l-5.8125 0l0 1.3125q-1.21875 1.125 -1.21875 0.09375l0 -7.6875l1.40625 0.5625l5.34375 0zm-5.53125 5.15625l5.8125 0l0 -4.59375l-5.8125 0l0 4.59375zm-9.75 -11.4375l4.21875 0l0 -4.78125l-4.21875 0l0 4.78125zm27.1875 0.75q0.375 0.375 0.375 0.9375q0 0.5625 -0.375 0.9375q-0.375 0.375 -0.9375 0.375q-0.5625 0 -0.9375 -0.375q-0.375 -0.375 -0.375 -0.9375q0 -0.5625 0.375 -0.9375q0.375 -0.375 0.9375 -0.375q0.5625 0 0.9375 0.375zm0 8.8125q0.375 0.375 0.375 0.9375q0 0.5625 -0.375 0.9375q-0.375 0.375 -0.9375 0.375q-0.5625 0 -0.9375 -0.375q-0.375 -0.375 -0.375 -0.9375q0 -0.5625 0.375 -0.9375q0.375 -0.375 0.9375 -0.375q0.5625 0 0.9375 0.375zm24.0 -8.90625l-4.40625 0l0 3.46875l4.40625 0l0 -3.46875zm-0.28125 -0.5625l0.5625 -0.75l1.3125 0.9375q0.5625 0.46875 -0.375 0.65625l0 4.5q-1.21875 1.125 -1.21875 0.09375l0 -0.84375l-4.5 0q-0.09375 2.25 -1.40625 4.5q3.46875 2.4375 10.125 2.8125q-1.3125 0.5625 -1.78125 1.59375q-5.53125 -1.03125 -8.8125 -3.65625q-2.4375 2.71875 -6.65625 3.75q-0.375 -0.09375 -0.09375 -0.375q4.125 -1.5 5.90625 -4.03125q-1.125 -1.125 -1.96875 -3.0l0.46875 -0.28125q0.84375 1.6875 1.96875 2.625q1.03125 -1.59375 1.03125 -3.9375l-4.03125 0l0 1.03125q-1.21875 1.125 -1.21875 0.09375l0 -6.65625l1.40625 0.9375l3.9375 0l0 -2.90625l-6.09375 0l0 -0.5625l6.09375 0l0 -4.03125l1.6875 0.28125q1.03125 0.375 -0.46875 0.75l0 3.0l4.96875 0l1.40625 -1.40625l1.78125 1.3125q0.5625 0.46875 0 0.65625l-8.15625 0l0 2.90625l4.125 0zm-9.46875 4.03125l4.125 0l0 -3.46875l-4.125 0l0 3.46875zm-2.625 -10.03125q-1.03125 2.8125 -1.875 4.78125l0.9375 0.28125q0.84375 0.375 -0.46875 0.84375l0 13.21875q-1.21875 1.125 -1.21875 0.09375l0 -12.5625q-1.59375 2.53125 -3.09375 4.03125q-0.5625 0.375 -0.28125 -0.28125q3.65625 -5.34375 4.78125 -11.90625l1.78125 0.75q1.21875 0.5625 -0.5625 0.75zm18.9375 19.5q-0.5625 0.28125 -0.28125 -0.28125q3.5625 -4.3125 3.5625 -9.1875l0 -11.15625l1.40625 0.84375l12.75 0l0.5625 -0.75l1.3125 0.9375q0.5625 0.46875 -0.375 0.65625l0 16.40625q0 1.125 -0.65625 1.6875q-0.5625 0.46875 -1.125 0.5625q-0.5625 0.09375 -0.5625 -0.46875q0 -0.46875 -0.46875 -0.65625l-1.6875 -0.375q-0.46875 -0.1875 0 -0.375l2.4375 0q0.84375 0 0.84375 -0.84375l0 -5.53125l-6.28125 0l0 7.6875q-1.21875 1.125 -1.21875 0.09375l0 -7.78125l-5.71875 0q-0.28125 4.6875 -4.5 8.53125zm17.71875 -14.4375l0 -4.78125l-6.28125 0l0 4.78125l6.28125 0zm-13.21875 0l5.71875 0l0 -4.78125l-5.71875 0l0 4.78125zm5.71875 5.34375l0 -4.78125l-5.71875 0l0 4.78125l5.71875 0zm1.21875 -4.78125l0 4.78125l6.28125 0l0 -4.78125l-6.28125 0z" fill-rule="nonzero"/><path fill="#cacaca" d="m259.06815 306.21262q-1.515625 -0.078125 -3.296875 -0.078125q-1.765625 0 -3.28125 0.078125l-0.0625 -0.703125q1.21875 -0.234375 1.640625 -0.421875q0.4375 -0.203125 0.484375 -0.609375q0.203125 -1.421875 0.203125 -5.140625q0 -6.015625 -0.15625 -7.5l-0.046875 -0.484375q-0.046875 -0.4375 -0.4375 -0.609375q-0.375 -0.1875 -1.53125 -0.421875l0.078125 -0.703125q1.515625 0.078125 3.171875 0.078125q1.65625 0 3.15625 -0.078125l0.078125 0.703125q-1.15625 0.234375 -1.546875 0.421875q-0.375 0.171875 -0.421875 0.609375q-0.1875 1.34375 -0.1875 6.015625l6.328125 -6.0625q0.09375 -0.078125 0.09375 -0.171875q0 -0.453125 -1.765625 -0.8125l0.0625 -0.703125q1.515625 0.078125 2.96875 0.078125q1.453125 0 2.96875 -0.078125l0.0625 0.703125q-1.921875 0.375 -2.734375 1.15625l-5.15625 4.890625l6.671875 8.734375q0.546875 0.28125 2.0 0.40625l-0.078125 0.703125l-4.015625 0.140625l-6.140625 -8.515625l-1.265625 1.1875q0 3.765625 0.140625 5.046875l0.046875 0.40625q0.046875 0.4375 0.453125 0.625q0.40625 0.171875 1.59375 0.40625l-0.078125 0.703125zm13.844574 0.140625q-2.4375 0 -2.4375 -2.5l0 -3.21875q0 -3.21875 -0.171875 -4.0l-1.421875 -0.453125l-0.046875 -0.625q1.421875 0 3.046875 -0.4375l0.453125 0.21875q-0.0625 4.296875 -0.0625 7.796875q0 1.609375 1.9375 1.609375q0.8125 0 1.75 -0.265625q0.9375 -0.28125 1.5 -0.625q0.09375 -1.296875 0.09375 -3.046875q0 -3.265625 -0.203125 -4.171875l-1.5 -0.453125l-0.046875 -0.625q1.53125 0 3.15625 -0.4375l0.453125 0.21875q-0.0625 1.796875 -0.0625 5.953125l0.0625 2.796875q0 0.421875 0.328125 0.65625q0.328125 0.21875 0.640625 0.28125q0.3125 0.046875 0.859375 0.078125l-0.0625 0.6875q-0.875 0.078125 -2.625 0.4375q-0.71875 -0.3125 -0.984375 -1.4375q-2.296875 1.5625 -4.65625 1.5625zm14.715576 -1.109375q1.734375 0 2.734375 -1.40625q1.015625 -1.40625 1.015625 -3.15625q0 -1.765625 -0.875 -2.9375q-0.859375 -1.1875 -2.421875 -1.1875q-1.171875 0 -2.6875 0.765625q0 5.78125 0.21875 7.515625q1.0625 0.40625 2.015625 0.40625zm-2.234375 -8.75q2.0 -1.375 3.859375 -1.375q1.859375 0 3.046875 1.625q1.203125 1.609375 1.203125 3.890625q0 2.28125 -1.5625 4.015625q-1.546875 1.71875 -4.546875 1.71875q-2.0 0 -3.984375 -0.828125q0.1875 -2.125 0.1875 -6.5625q0 -7.21875 -0.140625 -8.4375l-0.046875 -0.421875l-1.546875 -0.453125l-0.046875 -0.625q1.546875 0 3.171875 -0.421875l0.453125 0.21875q-0.046875 2.65625 -0.046875 7.65625zm17.207733 1.953125q0 -1.09375 -0.625 -1.625q-0.625 -0.546875 -1.390625 -0.546875q-1.125 0 -1.9375 0.890625q-0.8125 0.875 -1.078125 2.171875l4.96875 -0.1875q0.0625 -0.359375 0.0625 -0.703125zm-2.078125 7.90625q-2.546875 0 -3.84375 -1.453125q-1.296875 -1.453125 -1.296875 -3.859375q0 -2.421875 1.421875 -4.1875q1.4375 -1.765625 4.3125 -1.765625q1.46875 0 2.546875 1.046875q1.09375 1.03125 1.09375 3.0625l-0.8125 0.984375q-0.140625 -0.015625 -2.265625 -0.015625q-2.125 0 -4.265625 0.15625l0 0.21875q0 2.1875 0.90625 3.28125q0.921875 1.09375 2.5 1.09375q1.59375 0 3.34375 -0.765625l0.28125 0.71875q-1.84375 1.484375 -3.921875 1.484375zm12.64093 -11.40625q0.1875 0 0.625 0.5625q0.453125 0.5625 0.59375 1.125l-0.359375 0.453125q-0.859375 -0.34375 -1.796875 -0.34375q-0.9375 0 -1.703125 0.78125q-0.765625 0.78125 -0.765625 2.515625q0.015625 4.21875 0.21875 4.921875q0.015625 0.1875 0.671875 0.34375q0.671875 0.15625 1.390625 0.203125l-0.078125 0.703125q-1.15625 -0.078125 -2.921875 -0.078125q-1.75 0 -2.90625 0.078125l0.078125 -0.703125q0.46875 -0.046875 1.0 -0.203125q0.53125 -0.15625 0.546875 -0.328125q0.203125 -0.828125 0.203125 -3.359375q0 -4.078125 -0.203125 -4.984375l-1.53125 -0.453125l-0.046875 -0.625q1.53125 0 3.171875 -0.4375l0.453125 0.21875q-0.046875 0.359375 -0.046875 1.96875q0.6875 -1.15625 1.75 -1.75q1.078125 -0.609375 1.65625 -0.609375zm5.5479736 2.375l-0.03125 3.3125q0 3.09375 0.1875 4.03125l0.0625 0.3125q0.015625 0.171875 0.53125 0.328125q0.515625 0.15625 1.0 0.203125l-0.078125 0.703125q-1.140625 -0.078125 -2.640625 -0.078125q-1.484375 0 -2.640625 0.078125l0.078125 -0.703125q0.453125 -0.046875 0.96875 -0.203125q0.515625 -0.15625 0.546875 -0.328125q0.1875 -0.828125 0.1875 -3.359375q0 -4.078125 -0.1875 -4.984375l-1.546875 -0.453125l-0.046875 -0.625q1.546875 0 3.171875 -0.4375l0.453125 0.21875l0 1.15625q2.671875 -1.40625 4.640625 -1.40625q1.203125 0 1.8125 0.484375q0.625 0.484375 0.625 1.796875l0 3.265625q0 3.09375 0.171875 4.03125l0.078125 0.3125q0.015625 0.171875 0.53125 0.328125q0.515625 0.15625 1.0 0.203125l-0.078125 0.703125q-1.140625 -0.078125 -2.640625 -0.078125q-1.484375 0 -2.625 0.078125l0.0625 -0.703125q0.453125 -0.046875 0.96875 -0.203125q0.515625 -0.15625 0.546875 -0.328125q0.1875 -0.828125 0.1875 -4.34375l0 -2.328125q0 -0.9375 -0.546875 -1.296875q-0.546875 -0.359375 -1.875 -0.359375q-1.3125 0 -2.875 0.671875zm17.393097 1.125q0 -1.09375 -0.625 -1.625q-0.625 -0.546875 -1.390625 -0.546875q-1.125 0 -1.9375 0.890625q-0.8125 0.875 -1.078125 2.171875l4.96875 -0.1875q0.0625 -0.359375 0.0625 -0.703125zm-2.078125 7.90625q-2.546875 0 -3.84375 -1.453125q-1.296875 -1.453125 -1.296875 -3.859375q0 -2.421875 1.421875 -4.1875q1.4375 -1.765625 4.3125 -1.765625q1.46875 0 2.546875 1.046875q1.09375 1.03125 1.09375 3.0625l-0.8125 0.984375q-0.140625 -0.015625 -2.265625 -0.015625q-2.125 0 -4.265625 0.15625l0 0.21875q0 2.1875 0.90625 3.28125q0.921875 1.09375 2.5 1.09375q1.59375 0 3.34375 -0.765625l0.28125 0.71875q-1.84375 1.484375 -3.921875 1.484375zm9.672211 0q-2.5 0 -2.5 -2.40625q0.015625 -2.109375 0.015625 -3.875q0 -1.765625 -0.046875 -3.6875l-1.53125 0.03125l-0.078125 -0.265625l0.5625 -0.9375q0.328125 0.078125 1.0 0.09375l-0.09375 -2.203125l1.578125 -1.421875l0.46875 0.21875q-0.046875 1.78125 -0.046875 3.390625l3.515625 -0.03125l0.125 0.296875l-0.859375 0.953125q-0.828125 -0.09375 -2.78125 -0.125l0 3.21875q0 3.0 0.0625 4.296875q0.078125 1.078125 1.28125 1.078125q0.953125 0 2.109375 -0.546875l0.28125 0.796875q-1.703125 1.125 -3.0625 1.125zm11.269836 -7.90625q0 -1.09375 -0.625 -1.625q-0.625 -0.546875 -1.390625 -0.546875q-1.125 0 -1.9375 0.890625q-0.8125 0.875 -1.078125 2.171875l4.96875 -0.1875q0.0625 -0.359375 0.0625 -0.703125zm-2.078125 7.90625q-2.546875 0 -3.84375 -1.453125q-1.296875 -1.453125 -1.296875 -3.859375q0 -2.421875 1.421875 -4.1875q1.4375 -1.765625 4.3125 -1.765625q1.46875 0 2.546875 1.046875q1.09375 1.03125 1.09375 3.0625l-0.8125 0.984375q-0.140625 -0.015625 -2.265625 -0.015625q-2.125 0 -4.265625 0.15625l0 0.21875q0 2.1875 0.90625 3.28125q0.921875 1.09375 2.5 1.09375q1.59375 0 3.34375 -0.765625l0.28125 0.71875q-1.84375 1.484375 -3.921875 1.484375zm12.422241 -10.828125l0.34375 0.171875q0 1.5625 0.140625 2.375l-0.625 0.21875q-0.3125 -1.234375 -0.875 -1.703125q-0.5625 -0.484375 -1.4375 -0.484375q-0.859375 0 -1.359375 0.453125q-0.5 0.453125 -0.5 1.078125q0 1.078125 1.25 1.78125l2.4375 1.34375q1.59375 0.890625 1.59375 2.5625q0 1.234375 -0.984375 2.140625q-0.96875 0.890625 -2.765625 0.890625q-1.796875 0 -3.703125 -0.609375q0.296875 -1.671875 0.296875 -2.75l0.625 -0.21875q0.21875 0.859375 0.3125 1.171875q0.109375 0.3125 0.390625 0.78125q0.28125 0.453125 0.703125 0.59375q0.4375 0.140625 1.28125 0.140625q0.84375 0 1.390625 -0.46875q0.546875 -0.484375 0.546875 -1.15625q0 -1.015625 -1.125 -1.640625l-2.59375 -1.4375q-1.578125 -0.84375 -1.578125 -2.5625q0 -1.234375 0.9375 -2.171875q0.9375 -0.9375 2.609375 -0.9375q1.6875 0 2.6875 0.4375z" fill-rule="nonzero"/><path fill="#cacaca" d="m391.13776 308.29074q-1.21875 1.125 -1.21875 0.09375l0 -5.4375l-4.59375 0l0 -0.5625l4.59375 0l0 -3.0l-2.625 0q-0.65625 1.40625 -1.40625 2.15625q-0.46875 0.375 -0.28125 -0.09375q1.125 -2.53125 1.78125 -5.53125l1.5 0.5625q0.46875 0.5625 -0.5625 0.46875q-0.375 0.9375 -0.84375 1.875l2.4375 0l0 -3.28125l1.6875 0.28125q1.03125 0.375 -0.46875 0.75l0 2.25l1.59375 0l1.03125 -1.03125l1.3125 0.9375q0.5625 0.46875 0 0.65625l-3.9375 0l0 3.0l2.4375 0l1.03125 -1.03125l1.3125 0.9375q0.5625 0.46875 0 0.65625l-4.78125 0l0 5.34375zm-10.59375 -21.0q0.375 0.46875 -0.75 0.5625q-0.28125 0.5625 -0.65625 1.125l2.4375 0l0.9375 -0.75l1.125 1.125q0.46875 0.5625 -0.9375 0.46875l-1.875 2.8125l1.875 0l0.5625 -0.75l1.3125 0.9375q0.5625 0.46875 -0.375 0.65625l0 12.5625q0 1.03125 -0.65625 1.59375q-0.375 0.375 -0.9375 0.375q-0.375 0 -0.375 -0.375q0 -0.46875 -0.5625 -0.65625l-1.21875 -0.28125q-0.375 -0.1875 0 -0.375l1.875 0q0.65625 0 0.65625 -0.65625l0 -4.5l-5.4375 0q-0.5625 4.3125 -3.28125 6.5625q-0.375 0.28125 -0.28125 -0.1875q2.34375 -3.1875 2.34375 -8.0625l0 -6.1875q-1.3125 1.40625 -2.34375 2.25q-0.65625 0.28125 -0.28125 -0.375q3.0 -3.0 5.0625 -8.71875l1.78125 0.84375zm-1.6875 2.25q-0.84375 1.3125 -1.6875 2.625l0.5625 0.46875l2.625 0l1.21875 -3.09375l-2.71875 0zm9.375 4.21875q-1.3125 1.5 -3.0 2.53125q-0.46875 0.1875 -0.1875 -0.28125q1.78125 -1.5 2.53125 -2.90625q0.75 -1.40625 1.03125 -3.5625l-2.90625 0l0 -0.5625l8.0625 0l0.5625 -0.75l1.21875 0.84375q0.75 0.5625 -0.65625 0.84375q-0.375 3.5625 -1.3125 4.40625q-0.75 0.65625 -1.59375 0.65625q-0.28125 0 -0.28125 -0.28125q0 -0.375 -0.46875 -0.5625l-1.03125 -0.375q-0.46875 -0.375 0.1875 -0.375q0.9375 0.09375 1.6875 0.09375q0.65625 0 1.125 -1.03125q0.28125 -0.65625 0.5625 -2.90625l-3.84375 0q-0.375 2.71875 -1.6875 4.21875zm-5.25 2.625l0 -3.1875l-2.15625 0l0 3.1875l2.15625 0zm0 4.21875l0 -3.65625l-2.15625 0l0 3.65625l2.15625 0zm-3.375 -3.65625l-2.0625 0l0 3.65625l2.0625 0l0 -3.65625zm-2.0625 -3.75l0 3.1875l2.0625 0l0 -3.1875l-2.0625 0zm33.0 5.0625q-0.75 4.875 -3.75 7.3125q-2.0625 1.6875 -4.875 2.625q-0.5625 0.1875 -0.28125 -0.375q3.75 -1.78125 5.4375 -3.9375q1.78125 -2.34375 2.15625 -5.625l-5.0625 0l0 -0.5625l5.15625 0q0.09375 -1.59375 0.09375 -3.0l0 -2.4375l-4.21875 0l0 -0.5625l4.21875 0l0 -4.125l1.125 0.1875q1.875 0.28125 0.09375 0.9375l0 3.0l3.65625 0l0.75 -0.84375l1.125 0.9375q0.84375 0.5625 -0.46875 0.75l0 5.15625l0.84375 0l1.40625 -1.40625l1.78125 1.3125q0.5625 0.46875 0 0.65625l-8.15625 0q0.84375 2.8125 2.8125 4.96875q2.15625 2.25 4.96875 3.375q-0.9375 0.46875 -1.5 1.3125q-2.71875 -1.78125 -4.6875 -4.40625q-1.59375 -2.4375 -2.15625 -5.25l-0.46875 0zm-12.65625 2.25l0 -0.375l2.34375 0l4.21875 -7.3125q0.375 -0.28125 0.375 0.1875l-3.28125 6.65625q-0.46875 0.9375 -0.1875 2.4375q0.1875 1.21875 0.28125 2.0625q0.1875 1.6875 -0.75 1.78125q-1.03125 0 -0.9375 -1.6875q0.09375 -0.75 0.1875 -1.78125q0.09375 -1.21875 -0.65625 -1.59375l-1.59375 -0.375zm12.75 -5.0625q0 1.40625 -0.09375 2.25l3.9375 0l0 -5.4375l-3.84375 0l0 3.1875zm-11.15625 -5.8125q-0.28125 -0.28125 0.1875 -0.28125q1.59375 0.46875 2.4375 1.3125q0.75 1.03125 0.5625 1.875q-0.65625 1.125 -1.3125 0q-0.1875 -0.65625 -0.46875 -1.40625q-0.46875 -0.75 -1.40625 -1.5z" fill-rule="nonzero"/><path fill="#cacaca" d="m433.51276 287.0095l0.1875 -0.1875q2.0625 1.03125 2.53125 1.59375q0.46875 0.5625 0.28125 1.171875q-0.1875 0.609375 -0.65625 1.03125q-0.46875 0.421875 -0.75 -0.703125q-0.28125 -1.125 -1.59375 -2.90625zm-4.5 4.59375l11.34375 0l1.40625 -1.5l1.6875 2.0625l-4.03125 0q-0.84375 3.375 -2.4375 6.1875q2.4375 1.875 3.46875 2.90625q1.03125 1.03125 0.796875 2.015625q-0.234375 0.984375 -0.515625 1.078125q-0.28125 0.09375 -0.796875 -0.796875q-0.515625 -0.890625 -1.6875 -2.203125q-1.171875 -1.3125 -2.015625 -2.0625q-3.0 3.375 -7.03125 4.96875l-0.1875 -0.28125q4.40625 -2.8125 6.28125 -5.53125q-2.25 -2.15625 -4.59375 -3.84375l0.1875 -0.28125q3.375 1.96875 5.0625 3.28125q1.5 -2.8125 1.96875 -5.4375l-6.28125 0q-0.75 0 -1.78125 0.28125l-0.84375 -0.84375zm-4.96875 -4.59375l0.1875 -0.1875q1.6875 0.9375 2.390625 1.59375q0.703125 0.65625 0.609375 1.40625q-0.09375 0.75 -0.703125 1.265625q-0.609375 0.515625 -0.890625 -0.796875q-0.28125 -1.3125 -1.59375 -3.28125zm3.1875 16.03125q0.84375 0.9375 2.34375 1.78125q1.5 0.84375 4.40625 0.984375q2.90625 0.140625 5.4375 0.046875q2.53125 -0.09375 4.59375 -0.28125l0 0.375q-1.96875 0.46875 -1.96875 1.59375q-4.125 0 -6.796875 -0.1875q-2.671875 -0.1875 -4.453125 -0.890625q-1.78125 -0.703125 -2.765625 -1.6875q-0.984375 -0.984375 -1.453125 -1.125q-0.46875 -0.140625 -1.59375 0.9375q-1.125 1.078125 -1.5 1.828125l-1.40625 -1.40625q1.78125 -1.21875 3.9375 -2.0625l0 -7.78125l-0.84375 0q-1.21875 0 -2.25 0.28125l-0.84375 -0.84375l3.75 0l0.65625 -1.03125l1.59375 1.21875l-0.84375 0.75l0 7.5z" fill-rule="nonzero"/><path fill="#cacaca" d="m459.38776 297.79074q0 0.375 0.375 0.375l5.0625 0q0.9375 0 1.125 -0.84375l0.65625 -2.8125q0.1875 -0.1875 0.28125 0l0 2.90625q0 0.46875 0.375 0.75q0.5625 0.46875 -0.09375 0.84375q-0.46875 0.28125 -1.40625 0.28125l-6.46875 0q-1.125 0 -1.125 -1.125l0 -10.96875l1.59375 0.28125q0.75 0.46875 -0.375 0.65625l0 5.34375l5.53125 -3.84375l1.40625 0.9375q0.75 0.75 -1.03125 0.46875l-5.90625 2.90625l0 3.84375zm-6.09375 -5.53125l2.0625 0l0.9375 -0.9375l1.3125 1.03125q0.28125 0.375 -0.1875 0.46875l-4.125 0l0 4.21875l3.5625 -0.75q0.65625 0 0.28125 0.375l-9.84375 2.71875q-0.375 1.03125 -0.75 0.46875l-1.03125 -1.5l2.71875 -0.375l0 -8.71875l1.59375 0.28125q0.75 0.46875 -0.375 0.65625l0 7.59375l2.625 -0.46875l0 -10.03125l1.59375 0.28125q0.75 0.46875 -0.375 0.65625l0 4.03125zm-4.03125 10.03125l0 -0.5625l12.375 0l1.03125 -1.03125l1.3125 0.9375q0.5625 0.46875 0 0.65625l-14.71875 0zm-2.8125 4.40625l0 -0.5625l17.90625 0l1.21875 -1.21875l1.59375 1.125q0.5625 0.46875 0 0.65625l-20.71875 0z" fill-rule="nonzero"/><path fill="#cacaca" d="m472.70026 290.7595l2.34375 1.3125l-0.84375 0.5625l0 14.90625l-1.5 0.65625q0.09375 -4.03125 0.09375 -9.5625q0 -5.53125 -0.09375 -7.875zm11.15625 14.71875q2.0625 0.1875 3.09375 0.28125q1.03125 0.09375 1.03125 -0.75l0 -15.28125l-5.15625 0q-1.21875 0 -2.25 0.28125l-0.84375 -0.84375l8.15625 0l0.75 -1.125l1.59375 1.3125l-0.84375 0.75l0 15.1875q0.09375 2.4375 -2.34375 2.90625q0 -1.6875 -3.1875 -2.34375l0 -0.375zm-9.375 -18.75q1.875 1.03125 2.671875 1.921875q0.796875 0.890625 0.046875 2.0625q-0.75 1.171875 -1.171875 -0.234375q-0.421875 -1.40625 -1.828125 -3.5625l0.28125 -0.1875zm4.03125 8.71875l0 5.53125l5.15625 0l0 -5.53125l-5.15625 0zm6.46875 4.5q0 0.9375 0.09375 2.4375l-1.40625 0.5625l0 -1.40625l-5.15625 0l0 1.21875l-1.40625 0.5625q0.09375 -2.8125 0.09375 -5.015625q0 -2.203125 -0.09375 -4.359375l1.40625 0.9375l5.0625 0l0.65625 -1.03125l1.5 1.125l-0.75 0.65625l0 4.3125zm13.125 -11.25l0 2.71875l4.40625 0l0 -2.71875l-4.40625 0zm0 3.28125l0 2.625l4.40625 0l0 -2.625l-4.40625 0zm5.625 -3.09375q0 4.3125 0.09375 6.46875l-1.3125 0.65625l0 -0.84375l-4.40625 0l0 0.5625l-1.3125 0.46875q0.09375 -2.15625 0.09375 -4.5q0 -2.34375 -0.09375 -4.3125l1.3125 0.75l4.21875 0l0.65625 -0.9375l1.40625 1.125l-0.65625 0.5625zm-6.5625 13.6875q1.03125 1.3125 2.625 2.34375l0 -7.125l-1.96875 0q-1.21875 0 -2.25 0.28125l-0.84375 -0.84375l8.25 0l1.125 -1.125l1.5 1.6875l-4.59375 0l0 3.28125l1.78125 0l1.03125 -1.03125l1.40625 1.59375l-4.21875 0l0 3.65625q1.875 0.84375 6.421875 0.890625q4.546875 0.046875 8.390625 -0.421875l0 0.375q-1.78125 0.65625 -1.78125 1.5q-7.96875 0.09375 -10.359375 -0.375q-2.390625 -0.46875 -3.796875 -1.265625q-1.40625 -0.796875 -2.90625 -2.859375q-1.125 3.375 -2.71875 5.15625l-0.28125 -0.1875q1.125 -1.96875 1.734375 -4.640625q0.609375 -2.671875 0.703125 -4.734375l1.875 0.9375q-0.75 0.28125 -1.125 2.90625zm16.875 -5.8125q0 0.75 0.09375 2.90625l-1.3125 0.65625l0 -8.25l-5.4375 0l0 7.78125l-1.3125 0.75q0.09375 -1.96875 0.09375 -4.828125q0 -2.859375 -0.09375 -5.015625l1.3125 0.75l1.21875 0q0.375 -1.40625 0.46875 -2.71875l-1.125 0q-1.21875 0 -2.25 0.28125l-0.84375 -0.84375l8.15625 0l1.125 -1.125l1.5 1.6875l-4.96875 0q-0.375 0.5625 -1.59375 2.71875l3.5625 0l0.65625 -0.84375l1.40625 1.03125l-0.65625 0.5625l0 4.5zm-4.78125 -3.28125l2.0625 1.03125l-0.75 0.65625q0 3.9375 -0.46875 5.484375q-0.46875 1.546875 -1.828125 2.859375q-1.359375 1.3125 -3.984375 2.25l-0.1875 -0.28125q2.8125 -1.5 3.890625 -3.09375q1.078125 -1.59375 1.21875 -3.890625q0.140625 -2.296875 0.046875 -5.015625zm1.125 7.3125l0.1875 -0.28125q3.65625 1.6875 4.078125 2.390625q0.421875 0.703125 0.046875 1.6875q-0.375 0.984375 -1.078125 -0.375q-0.703125 -1.359375 -3.234375 -3.421875z" fill-rule="nonzero"/><path fill="#cacaca" d="m532.32526 299.7595q-0.5625 -1.59375 -2.15625 -3.09375q-0.28125 -0.375 0.1875 -0.28125q3.28125 1.40625 3.28125 3.375q0 0.84375 -0.65625 0.84375q-0.375 0 -0.65625 -0.84375zm-4.6875 -2.71875q2.625 -4.125 3.84375 -10.40625l1.78125 0.5625q1.3125 0.375 -0.375 0.84375l-1.59375 3.84375l6.09375 0l0.5625 -0.75l1.3125 0.9375q0.5625 0.46875 -0.375 0.65625l0 7.3125q0 4.5 -1.3125 6.09375q-0.75 0.9375 -2.15625 1.5q-1.3125 0.5625 -1.3125 -0.1875q0 -0.75 -0.46875 -0.84375l-1.6875 -0.46875q-0.46875 -0.28125 0.09375 -0.375l2.25 0.1875q0.9375 0.09375 1.875 -0.46875q1.5 -1.03125 1.5 -5.625l0 -7.40625l-6.65625 0q-1.40625 3.0 -3.0 4.78125q-0.46875 0.28125 -0.375 -0.1875zm-0.5625 8.15625q-1.21875 1.125 -1.21875 0.09375l0 -1.40625l-5.4375 0l0 2.25q-1.21875 1.125 -1.21875 0.09375l0 -15.09375l1.40625 0.75l1.3125 0l0.9375 -5.25l1.40625 0.375q1.6875 0.375 -0.28125 1.125l-1.5 3.75l3.09375 0l0.5625 -0.75l1.3125 0.9375q0.5625 0.46875 -0.375 0.65625l0 12.46875zm-1.21875 -12.75l-5.4375 0l0 4.875l5.4375 0l0 -4.875zm-5.4375 5.4375l0 5.4375l5.4375 0l0 -5.4375l-5.4375 0z" fill-rule="nonzero"/><path fill="#cacaca" d="m548.3565 292.54074q2.34375 0.84375 2.953125 1.59375q0.609375 0.75 0.046875 1.875q-0.5625 1.125 -1.171875 -0.328125q-0.609375 -1.453125 -2.015625 -2.859375l0.1875 -0.28125zm6.09375 8.625q-0.28125 0.84375 -0.5625 1.5q4.59375 1.40625 6.234375 2.25q1.640625 0.84375 1.59375 2.484375q-0.046875 1.640625 -1.6875 -0.140625q-1.640625 -1.78125 -6.328125 -4.125q-1.3125 2.34375 -4.03125 3.5625q-2.71875 1.21875 -7.03125 1.78125l0 -0.375q3.9375 -0.75 6.65625 -2.34375q2.71875 -1.59375 3.75 -4.59375l-7.40625 0q-1.21875 0 -2.25 0.28125l-0.84375 -0.84375l10.59375 0q0.375 -1.78125 0.5625 -4.125q0.1875 -2.34375 0.1875 -4.21875l2.34375 1.125l-0.75 0.65625q-0.375 3.46875 -0.84375 6.5625l5.8125 0l1.40625 -1.40625l1.96875 1.96875l-9.375 0zm-8.625 -5.15625q2.625 1.03125 3.234375 1.828125q0.609375 0.796875 0.046875 1.875q-0.5625 1.078125 -1.171875 -0.328125q-0.609375 -1.40625 -2.296875 -3.09375l0.1875 -0.28125zm5.53125 -9.46875l0.28125 -0.1875q1.5 0.65625 2.484375 1.546875q0.984375 0.890625 0.09375 2.0625q-0.890625 1.171875 -1.21875 -0.28125q-0.328125 -1.453125 -1.640625 -3.140625zm8.34375 7.5l1.40625 -2.625l-15.65625 0q0.1875 1.5 -0.1875 2.34375q-0.375 0.84375 -1.546875 0.75q-1.171875 -0.09375 -0.09375 -1.40625q1.078125 -1.3125 1.359375 -3.375l0.375 0l0.09375 1.125l15.46875 0l1.03125 -1.03125l1.78125 2.0625q-1.59375 -0.09375 -3.75 2.34375l-0.28125 -0.1875zm15.84375 7.3125q0.09375 -1.6875 0.09375 -6.890625q0 -5.203125 -0.09375 -6.984375l1.3125 0.84375l6.9375 0l0.65625 -0.9375l1.40625 1.125l-0.65625 0.5625q0 9.28125 0.09375 10.78125l-1.3125 0.65625l0 -11.625l-7.125 0l0 11.90625l-1.3125 0.5625zm3.9375 -9.9375l2.25 0.9375l-0.84375 0.75q-0.09375 7.40625 -2.0625 10.3125q-1.96875 2.90625 -7.40625 5.0625l-0.1875 -0.28125q5.0625 -2.71875 6.703125 -5.765625q1.640625 -3.046875 1.546875 -11.015625zm1.59375 7.03125l1.875 0.9375l-0.65625 0.65625l0 5.4375q0 1.21875 1.03125 1.125l2.15625 0q0.5625 0 0.75 -1.265625q0.1875 -1.265625 0.375 -3.421875l0.375 0q0 1.21875 0.09375 2.8125q0.09375 1.59375 1.03125 1.78125q-0.75 1.3125 -1.96875 1.21875l-3.46875 0q-1.5 0 -1.59375 -1.78125l0 -7.5zm-14.90625 -9.375l5.8125 0l1.21875 -1.125l1.5 1.6875l-3.84375 0l0 5.90625l1.125 0l1.03125 -1.03125l1.5 1.59375l-3.65625 0l0 6.28125l3.5625 -1.3125l0.09375 0.375q-6.1875 2.90625 -7.21875 4.21875l-1.125 -1.78125q2.0625 -0.5625 3.46875 -1.125l0 -6.65625q-1.21875 0 -2.25 0.28125l-0.84375 -0.84375l3.09375 0l0 -5.90625l-0.375 0q-1.21875 0 -2.25 0.28125l-0.84375 -0.84375zm26.34375 10.6875q3.5625 -0.46875 6.09375 -0.9375l0 0.375q-5.25 1.3125 -6.65625 2.53125l-1.21875 -2.15625q0.65625 -0.09375 1.59375 -0.9375q0.9375 -0.84375 3.1875 -4.125q-1.21875 0.28125 -2.4375 0.65625q-1.21875 0.375 -1.96875 1.03125l-1.03125 -1.875q1.03125 -0.28125 2.390625 -2.859375q1.359375 -2.578125 1.921875 -4.734375l1.875 1.125q-0.75 0.375 -1.828125 2.15625q-1.078125 1.78125 -2.859375 4.40625l4.21875 -0.375q0.75 -1.21875 1.6875 -3.46875l1.59375 1.3125q-0.84375 0.5625 -2.25 2.53125q-1.40625 1.96875 -4.3125 5.34375zm-2.34375 5.15625q3.65625 -0.5625 8.25 -1.78125l0.09375 0.375q-3.0 1.03125 -4.96875 1.875q-1.96875 0.84375 -2.25 1.40625l-1.125 -1.875zm10.59375 -14.625l0 7.03125l3.65625 0l0 -7.03125l-3.65625 0zm4.96875 0l0 7.03125l3.65625 0l0 -7.03125l-3.65625 0zm-6.28125 -1.5l1.3125 0.9375l8.53125 0l0.75 -1.03125l1.5 1.21875l-0.84375 0.65625l0 15.28125q0 0.75 0.09375 1.59375l-1.40625 0.65625l0 -2.25l-8.625 0l0 1.78125l-1.3125 0.5625q0.09375 -3.09375 0.09375 -10.40625q0 -7.3125 -0.09375 -9.0zm6.28125 9.09375l0 7.40625l3.65625 0l0 -7.40625l-3.65625 0zm-4.96875 0l0 7.40625l3.65625 0l0 -7.40625l-3.65625 0zm26.0625 4.78125q2.90625 0.375 3.5625 0.375q0.65625 0 0.65625 -0.75l0 -6.46875l-6.5625 0l0 8.71875q0 1.6875 0.09375 3.09375l-1.5 0.84375q0.09375 -2.15625 0.09375 -4.125l0 -8.53125l-4.125 0q-1.21875 0 -2.25 0.28125l-0.84375 -0.84375l14.8125 0l1.03125 -1.03125l1.40625 1.3125l-0.75 0.65625l0 6.46875q0 0.9375 -0.375 1.5q-0.375 0.5625 -1.59375 1.125q-0.65625 -1.59375 -3.65625 -2.15625l0 -0.46875zm1.125 -12.09375q0 -2.0625 -0.09375 -3.75l2.25 1.125l-0.84375 0.5625l0 2.0625l2.90625 0l1.6875 -1.5l1.96875 2.0625l-6.5625 0q0 1.3125 0.09375 2.34375l-1.40625 0.65625l0 -3.0l-5.34375 0l0 2.53125l-1.40625 0.75q0.09375 -1.6875 0.09375 -3.28125l-4.21875 0q-1.21875 0 -2.25 0.28125l-0.84375 -0.84375l7.3125 0q0 -2.15625 -0.09375 -3.65625l2.15625 1.03125l-0.75 0.65625l0 1.96875l5.34375 0z" fill-rule="nonzero"/><path fill="#ffff00" d="m58.478317 337.197q1.296875 0 2.53125 0.671875q1.25 0.671875 1.9375 1.921875q0.6875 1.234375 0.6875 2.5625q0 2.15625 -1.515625 3.671875q-1.5 1.5 -3.640625 1.5q-2.140625 0 -3.65625 -1.5q-1.5 -1.515625 -1.5 -3.671875q0 -1.34375 0.6875 -2.578125q0.6875 -1.234375 1.921875 -1.90625q1.25 -0.671875 2.546875 -0.671875z" fill-rule="nonzero"/><path fill="#ffff00" d="m104.88066 339.04074q0.96875 -1.109375 1.53125 -2.09375l-3.59375 0l-0.015625 0.015625q0.90625 1.1875 2.078125 2.078125zm-8.71875 5.765625q4.75 -1.578125 7.5 -4.484375q-0.6875 -0.625 -1.640625 -1.90625q-0.90625 1.734375 -3.671875 4.0q-1.609375 0.640625 -0.953125 -1.0q3.0625 -3.25 4.28125 -8.046875l2.0625 0.65625q1.9375 1.203125 -0.25 1.5625l0.109375 -0.203125l3.484375 0l0.796875 -0.796875l1.78125 1.1875q1.09375 1.09375 -0.671875 1.40625q-1.3125 2.015625 -2.359375 3.078125q2.09375 1.71875 8.46875 2.78125q-2.375 1.265625 -2.859375 2.25q-3.96875 -1.078125 -7.078125 -3.578125q-2.953125 2.96875 -8.5 4.421875q-2.140625 0 -0.5 -1.328125zm-4.9375 0.421875l0 -1.3125l2.71875 0l3.75 -8.0625q1.640625 -1.375 1.359375 0.625l-3.296875 8.03125q-0.25 0.65625 -0.25 1.375q0.171875 1.421875 0.359375 1.953125q0.3125 1.296875 -0.03125 2.234375q-0.453125 0.75 -1.203125 0.75q-0.9375 0 -1.234375 -1.015625q-0.21875 -0.765625 -0.015625 -1.984375q0.09375 -0.90625 0.09375 -1.71875q0 -0.53125 -0.4375 -0.625l-1.8125 -0.25zm3.609375 -8.484375q-0.5 -1.078125 -1.828125 -1.875q-1.171875 -1.171875 0.5625 -1.171875q3.53125 0.96875 3.53125 2.75q0 1.25 -1.15625 1.25q-0.703125 0 -1.109375 -0.953125zm-2.9375 0.609375q3.140625 1.078125 3.140625 2.9375q0 1.25 -1.0625 1.25q-0.828125 0 -1.140625 -0.921875q-0.25 -1.09375 -1.453125 -2.125q-1.140625 -1.140625 0.515625 -1.140625zm11.109375 8.03125l0 2.5625l4.34375 0l0 -2.5625l-4.34375 0zm6.75 -1.265625q1.375 1.140625 -0.1875 1.453125l0 4.3125q-2.21875 2.046875 -2.21875 -0.125l0 -0.25l-4.34375 0l0 0.75q-2.21875 2.046875 -2.21875 -0.125l0 -6.84375l1.96875 0.53125l4.5625 0l0.703125 -0.9375l1.734375 1.234375zm-11.875 -12.390625l0 -3.0l2.28125 0.40625q1.953125 1.21875 -0.0625 1.546875l0 1.046875l3.875 0l0 -3.0l2.28125 0.40625q1.953125 1.21875 -0.0625 1.546875l0 1.046875l3.328125 0l1.5625 -1.5625l2.140625 1.578125q1.265625 1.046875 -0.234375 1.546875l-6.796875 0l0 1.5q-2.21875 2.046875 -2.21875 -0.125l0 -1.375l-3.875 0l0 1.78125q-2.21875 2.046875 -2.21875 -0.125l0 -1.65625l-6.65625 0l0 -1.5625l6.65625 0zm24.4375 10.453125l-0.9375 -1.40625l3.21875 -1.8125l0 -7.796875l2.3125 0.390625q2.609375 0.953125 -0.09375 1.625l0 4.5625l2.0 -1.125l0 -7.328125l2.3125 0.390625q2.609375 0.953125 -0.09375 1.625l0 4.078125l2.484375 -1.453125l0.609375 -1.328125l2.1875 0.96875q1.78125 1.328125 -0.40625 1.625l0 6.78125q0 1.265625 -0.8125 1.953125q-0.515625 0.515625 -1.28125 0.515625q-0.875 0 -0.875 -0.875q0 -0.109375 -0.203125 -0.171875l-1.25 -0.296875q-1.328125 -0.65625 0.046875 -1.34375l2.0 0q0.15625 0 0.15625 -0.15625l0 -5.796875l-2.65625 1.5l0 8.546875q-2.21875 2.046875 -2.21875 -0.125l0 -7.203125l-2.0 1.125l0 8.515625q-0.125 0 -0.125 -0.125l7.875 0q0.53125 0 0.640625 -0.53125l0.671875 -3.71875q0.796875 -0.78125 1.25 0.125l0 3.875q0 0.21875 0.1875 0.359375q1.125 0.9375 -0.15625 1.671875q-0.578125 0.34375 -1.65625 0.34375l-9.28125 0q-1.625 0 -1.625 -1.625l0 -7.671875l-2.28125 1.3125zm0.28125 -7.03125l1.859375 1.265625q1.28125 1.0625 -0.21875 1.5625l-3.515625 0l0 6.90625l2.625 -0.6875q2.78125 0 0.46875 1.328125l-6.171875 2.359375q-0.625 2.671875 -1.71875 0.5l-1.03125 -2.0625l3.609375 -0.8125l0 -7.53125l-3.09375 0l0 -1.5625l3.09375 0l0 -6.75l2.28125 0.40625q1.953125 1.21875 -0.0625 1.546875l0 4.796875l0.609375 0l1.265625 -1.265625z" fill-rule="nonzero"/><path fill="#ffff00" d="m145.33379 334.43137q2.84375 1.03125 3.59375 1.96875q0.765625 0.921875 -0.125 2.6875q-0.875 1.75 -1.671875 -0.15625q-0.796875 -1.921875 -2.421875 -3.546875l0.625 -0.953125zm6.65625 9.734375q-0.171875 0.515625 -0.25 0.6875q4.109375 1.25 5.90625 2.1875q1.8125 0.921875 1.734375 3.328125q-0.0625 2.421875 -2.09375 0.21875q-2.03125 -2.203125 -6.203125 -4.296875q-1.15625 2.078125 -3.984375 3.34375q-2.828125 1.265625 -7.78125 1.90625l0 -1.34375q4.265625 -0.8125 6.859375 -2.34375q2.609375 -1.53125 3.34375 -3.6875l-6.703125 0q-1.15625 0 -2.390625 0.34375l-1.90625 -1.90625l11.390625 0q0.28125 -1.359375 0.46875 -3.671875q0.1875 -2.3125 0.1875 -4.96875l3.75 1.796875l-1.1875 1.03125q-0.34375 3.28125 -0.734375 5.8125l5.03125 0l1.609375 -1.609375l3.171875 3.171875l-10.21875 0zm-9.171875 -6.265625q3.125 1.21875 3.875 2.203125q0.75 0.984375 -0.140625 2.671875q-0.875 1.671875 -1.671875 -0.171875q-0.796875 -1.84375 -2.703125 -3.75l0.640625 -0.953125zm5.0 -8.984375l0.953125 -0.625q1.828125 0.796875 3.0 1.875q1.1875 1.0625 -0.171875 2.84375q-1.34375 1.78125 -1.78125 -0.140625q-0.4375 -1.921875 -2.0 -3.953125zm8.40625 7.796875l1.234375 -2.296875l-14.265625 0q0.140625 1.078125 -0.34375 2.15625q-0.46875 1.0625 -2.296875 0.921875q-1.828125 -0.15625 -0.484375 -1.78125q1.34375 -1.625 1.65625 -3.984375l1.265625 0l0.09375 1.125l14.8125 0l1.265625 -1.265625l2.90625 3.359375q-2.53125 -0.140625 -4.828125 2.4375l-1.015625 -0.671875z" fill-rule="nonzero"/><path fill="#ffff00" d="m178.94316 330.1345q3.375 0.328125 3.375 2.28125q0 0.875 -0.921875 1.0625q-0.6875 0 -1.359375 -1.015625q-0.765625 -0.671875 -1.609375 -1.140625q-1.1875 -1.1875 0.515625 -1.1875zm2.3125 19.5625q-1.375 -0.984375 -2.0625 -1.859375q-2.59375 2.0 -7.34375 3.171875q-1.53125 0 -0.5625 -1.296875q4.640625 -1.703125 6.71875 -3.53125q-0.78125 -1.484375 -1.25 -3.28125l-4.921875 0.5625l-0.25 -1.546875l4.765625 -0.5625q-0.1875 -0.875 -0.390625 -2.296875l-3.75 0.375l-0.25 -1.546875l3.765625 -0.390625q-0.125 -1.09375 -0.1875 -2.296875l-3.984375 0.28125l-0.25 -1.5625l4.1875 -0.28125q-0.078125 -2.328125 -0.078125 -4.875l2.40625 0.265625q2.21875 0.984375 -0.1875 1.625q0 1.0 0.078125 2.8125l3.921875 -0.390625l1.078125 -1.515625l2.359375 1.421875q0.8125 1.078125 -0.453125 1.34375l-6.859375 0.703125q0.0625 1.09375 0.1875 2.1875l3.40625 -0.390625l1.078125 -1.515625l2.359375 1.421875q0.8125 1.078125 -0.453125 1.34375l-6.171875 0.6875q0.21875 1.4375 0.390625 2.296875l3.828125 -0.484375l1.078125 -1.515625l2.359375 1.421875q0.8125 1.078125 -0.453125 1.34375l-6.375 0.765625q0.390625 1.4375 0.8125 2.0625q0.71875 -0.5 2.703125 -3.25l1.75 1.75q1.15625 1.625 -1.21875 1.328125q-1.65625 1.640625 -2.09375 1.9375q0.46875 0.625 1.15625 1.046875q0.578125 0.421875 1.015625 0.484375q0.171875 0.03125 0.296875 -0.25l0.890625 -2.546875q1.390625 -1.125 1.390625 0.546875l-0.578125 2.390625q-0.140625 0.828125 0.25 1.546875q0.46875 1.1875 -1.296875 1.1875q-1.1875 0 -2.8125 -1.125zm-11.96875 -8.6875l0.796875 0l1.1875 -1.1875l1.671875 1.203125q1.265625 1.046875 -0.234375 1.546875l-3.421875 0l0 3.890625l4.203125 -1.234375q1.546875 0 0.578125 1.28125l-8.40625 3.328125q-0.296875 1.703125 -1.46875 0.53125l-1.71875 -2.25l1.6875 -0.359375l0 -8.0625l2.21875 0.390625q2.125 0.796875 0 1.5l0 5.640625l0.6875 -0.1875l0 -8.875l-0.59375 0l0 0.46875q-2.21875 2.046875 -2.21875 -0.125l0 -8.953125l2.046875 1.234375l2.984375 0l0.703125 -0.9375l1.734375 1.234375q1.375 1.140625 -0.1875 1.453125l0 5.71875q-2.21875 2.046875 -2.21875 -0.125l0.03125 0l-0.0625 0.03125l0 2.84375zm-2.8125 -8.65625l0 4.25l2.84375 0l0 -4.25l-2.84375 0zm27.046875 4.765625q0.515625 0.53125 0.515625 1.296875q0 0.765625 -0.515625 1.296875q-0.53125 0.515625 -1.296875 0.515625q-0.765625 0 -1.296875 -0.515625q-0.515625 -0.53125 -0.515625 -1.296875q0 -0.765625 0.515625 -1.296875q0.53125 -0.515625 1.296875 -0.515625q0.765625 0 1.296875 0.515625zm0 8.8125q0.515625 0.53125 0.515625 1.296875q0 0.765625 -0.515625 1.296875q-0.53125 0.515625 -1.296875 0.515625q-0.765625 0 -1.296875 -0.515625q-0.515625 -0.53125 -0.515625 -1.296875q0 -0.765625 0.515625 -1.296875q0.53125 -0.515625 1.296875 -0.515625q0.765625 0 1.296875 0.515625zm18.734375 -5.234375l-4.078125 0q-0.28125 7.53125 -7.1875 10.390625q-1.859375 0.3125 -0.765625 -1.140625q5.578125 -3.296875 5.734375 -9.25l-6.265625 0l0 -1.5625l6.375 0l0 -6.40625l-5.4375 0l0 -1.5625l15.484375 0l1.359375 -1.375l1.9375 1.375q2.25 1.5625 -0.28125 1.5625l-4.65625 0l0 6.40625l2.953125 0l1.359375 -1.375l1.953125 1.375q2.0 1.5625 -0.296875 1.5625l-5.96875 0l0 9.75q-2.21875 2.046875 -2.21875 -0.125l0 -9.625zm-3.96875 -7.96875l0 6.40625l3.96875 0l0 -6.40625l-3.96875 0z" fill-rule="nonzero"/><path fill="#ffff00" d="m230.61504 334.6345q0.203125 -1.078125 0.4375 -2.703125q0.234375 -1.625 0.375 -3.71875l3.296875 1.40625l-1.0625 1.0625q-0.640625 3.609375 -0.703125 3.953125l8.5625 0l1.53125 -1.53125l2.9375 3.09375l-13.3125 0q-0.21875 1.390625 -0.515625 2.46875l7.125 0l0.828125 -1.296875l2.484375 2.203125l-1.234375 0.953125q-1.671875 3.046875 -3.515625 5.140625q2.59375 2.125 7.84375 3.109375l0 1.109375q-1.53125 0.3125 -1.984375 1.546875q-4.96875 -1.796875 -7.34375 -4.09375q-3.40625 2.890625 -9.59375 4.21875l-0.390625 -1.171875q6.15625 -2.09375 8.5 -4.6875q-1.84375 -2.4375 -2.96875 -5.46875l-0.140625 0q-0.9375 2.8125 -2.8125 5.65625q-1.875 2.828125 -5.375 5.125l-0.703125 -1.0625q1.78125 -1.5625 3.203125 -3.484375q1.421875 -1.921875 2.46875 -4.359375q1.0625 -2.4375 1.78125 -5.90625l-3.484375 0l-0.953125 1.09375l-2.015625 -2.171875l1.140625 -0.703125q1.21875 -2.796875 1.609375 -5.03125l3.171875 1.75l-1.265625 0.9375q-0.890625 2.234375 -1.03125 2.5625l3.109375 0zm2.921875 5.59375q1.09375 2.203125 2.734375 3.90625q1.375 -1.59375 2.5 -3.90625l-5.234375 0zm2.9375 -11.4375q3.171875 1.3125 4.3125 2.25q1.15625 0.9375 0.4375 2.828125q-0.71875 1.875 -1.765625 0.046875q-1.03125 -1.84375 -3.640625 -4.125l0.65625 -1.0z" fill-rule="nonzero"/><path fill="#ffff00" d="m250.38066 348.5095q-0.515625 -0.859375 -2.140625 -2.3125q-1.5625 -1.25 0.5 -1.25q2.4375 0.71875 4.5 2.765625q0.984375 1.0 0.984375 2.046875q0 0.765625 -0.515625 1.296875q-0.4375 0.421875 -0.921875 0.421875q-0.78125 0 -1.1875 -0.828125q-0.46875 -0.828125 -1.21875 -2.140625zm16.749985 -9.875q-0.78125 0 -1.203125 -0.84375q-0.578125 -1.328125 -2.09375 -1.921875q-1.703125 -0.84375 0.265625 -1.234375q1.796875 0.109375 3.359375 1.25q0.734375 0.734375 0.734375 1.59375q0 1.15625 -1.0625 1.15625zm-4.3125 9.765625l4.0 -1.953125l0 -4.34375l-3.84375 0l0 -1.5625l3.953125 0l0.796875 -0.8125l1.609375 1.109375q1.265625 1.28125 -0.296875 1.5625l0 4.015625q2.109375 1.625 7.65625 1.625l8.4375 0.5q-0.203125 0.59375 -0.71875 1.625l-7.625 0q-6.3125 0 -8.828125 -2.609375l-2.0 1.84375q0.1875 2.5625 -1.4375 0.703125l-1.703125 -1.703125zm5.8125 -14.640625q-0.75 0 -1.359375 -0.984375q-0.765625 -1.28125 -2.15625 -1.890625q-2.046875 -1.21875 0.359375 -1.21875q1.734375 0.203125 3.15625 1.109375q1.0625 0.71875 1.0625 1.734375q0 1.25 -1.0625 1.25zm11.015625 6.0q4.671875 3.171875 4.671875 6.4375q0 1.265625 -0.984375 1.4375q-1.015625 0.15625 -1.40625 -1.375q-0.265625 -0.75 -0.34375 -1.015625l-9.734375 1.21875q-0.640625 2.734375 -1.796875 0.0625l-1.265625 -2.109375l3.578125 -0.109375l1.796875 -6.703125l-4.8125 0l0 -1.5625l11.359375 0l1.5625 -1.5625l2.140625 1.578125q1.265625 1.046875 -0.234375 1.546875l-7.203125 -0.296875l0.234375 -0.21875q1.203125 1.453125 -0.84375 1.453125l-2.28125 5.609375l6.90625 -0.375q-0.765625 -1.6875 -2.15625 -2.984375q-1.078125 -1.796875 0.8125 -1.03125zm-8.796875 -8.875l8.265625 0l1.5625 -1.5625l2.140625 1.578125q1.265625 1.046875 -0.234375 1.546875l-11.734375 0l0 -1.5625z" fill-rule="nonzero"/><path fill="#ffff00" d="m291.24002 342.072q1.671875 -0.296875 4.765625 -0.96875l0.328125 1.328125q-2.609375 0.671875 -4.515625 1.484375q-1.890625 0.8125 -2.796875 1.875l-2.140625 -3.0625q1.296875 -0.1875 2.375 -1.3125q1.09375 -1.140625 2.34375 -3.015625q0.03125 0.125 -0.9375 0.390625q-0.953125 0.265625 -2.03125 1.328125l-2.015625 -2.796875q1.4375 -0.28125 2.6875 -3.1875q1.265625 -2.90625 1.875 -5.46875l3.515625 1.921875l-1.609375 0.71875q-1.234375 2.203125 -3.28125 5.765625l2.5 -0.25q1.078125 -2.15625 1.75 -4.40625l2.84375 2.21875l-1.171875 0.671875q-2.59375 4.625 -4.484375 6.765625zm-4.15625 5.328125q1.46875 -0.375 3.234375 -0.921875q1.78125 -0.5625 5.953125 -1.953125l0.328125 1.296875q-2.90625 1.296875 -4.671875 2.203125q-1.765625 0.90625 -2.640625 2.21875l-2.203125 -2.84375zm11.671875 -7.640625l0 2.9375l2.9375 0l0 -2.9375l-2.9375 0zm0 4.5l0 3.3125l2.9375 0l0 -3.3125l-2.9375 0zm2.671875 -15.265625q3.265625 1.578125 3.453125 2.515625q0.1875 0.9375 -0.8125 2.171875q-0.984375 1.21875 -1.421875 -0.421875q-0.4375 -1.640625 -1.96875 -3.5l0.75 -0.765625zm-5.015625 22.8125q0.125 -3.28125 0.234375 -13.5q0.0625 0.09375 -1.921875 2.859375l-1.0625 -0.71875q1.703125 -3.078125 2.71875 -6.03125q1.015625 -2.96875 1.59375 -6.25l3.515625 1.984375l-1.328125 0.828125q-0.40625 0.96875 -1.15625 2.71875l6.546875 0l1.546875 -1.546875l2.640625 3.109375l-5.828125 0l0 2.9375l1.265625 0l1.5625 -1.5625l2.5 3.125l-5.328125 0l0 2.9375l1.171875 0l1.546875 -1.4375l2.6875 3.0l-5.40625 0l0 3.3125l2.109375 0l1.546875 -1.546875l2.640625 3.109375l-11.453125 0l0 1.5l-2.34375 1.171875zm5.28125 -16.546875l-2.9375 0l0 2.9375l2.9375 0l0 -2.9375z" fill-rule="nonzero"/><path fill="#ffff00" d="m314.1619 341.90012q-0.78125 1.609375 -2.9375 3.46875q-1.1875 0.890625 -1.1875 -0.75q3.40625 -4.4375 4.046875 -8.796875l-3.390625 0l0 -1.5625l3.46875 0l0 -5.53125l2.28125 0.40625q1.953125 1.21875 -0.0625 1.546875l0 3.578125l0.515625 0l1.28125 -1.28125l1.765625 1.296875q1.265625 1.046875 -0.234375 1.546875l-3.328125 0l0 2.59375q3.0 0.84375 3.0 2.71875q0 1.15625 -1.0625 1.15625q-0.703125 0 -1.109375 -0.9375q-0.578125 -1.09375 -0.828125 -1.25l0 10.4375q-2.21875 2.046875 -2.21875 -0.125l0 -8.515625zm11.09375 3.796875q-0.796875 4.703125 -7.75 5.59375q-1.5 0 -0.5 -1.328125q5.5 -1.09375 6.203125 -4.109375l-5.484375 0l0 -1.5625l5.8125 0q0.09375 -0.515625 0.203125 -1.34375l-1.640625 0l0 0.46875q-2.21875 2.046875 -2.21875 -0.125l0 -9.046875l2.046875 1.234375l6.265625 0l0.703125 -0.9375l1.734375 1.234375q1.375 1.140625 -0.1875 1.453125l0 6.0q-2.21875 2.046875 -2.21875 -0.125l0 -0.15625l-2.34375 0q-0.125 1.078125 -0.1875 1.34375l4.609375 0l1.375 -1.375l1.859375 1.390625q1.265625 1.046875 -0.234375 1.546875l-6.484375 0q1.640625 2.59375 8.40625 3.484375q-2.8125 1.03125 -3.5 1.953125q-5.15625 -1.6875 -6.75 -5.5l0.28125 -0.09375zm0.71875 -12.3125l-1.90625 0l0 1.5q-2.21875 2.046875 -2.21875 -0.125l0 -1.375l-3.75 0l0 -1.5625l3.75 0l0 -3.09375l2.28125 0.40625q1.953125 1.21875 -0.0625 1.546875l0 1.140625l1.90625 0l0 -3.09375l2.28125 0.40625q1.953125 1.21875 -0.0625 1.546875l0 1.140625l1.921875 0l1.375 -1.375l1.859375 1.390625q1.265625 1.046875 -0.234375 1.546875l-4.921875 0l0 1.40625q-2.21875 2.046875 -2.21875 -0.125l0 -1.28125zm-3.875 5.0l6.125 0l0 -1.34375l-6.125 0l0 1.34375zm0 3.0l6.125 0l0 -1.4375l-6.125 0l0 1.4375zm28.625 -11.34375q3.0625 0.765625 3.0625 2.46875q0 1.0625 -1.0625 1.0625q-0.828125 0 -1.109375 -0.859375q-0.484375 -0.796875 -1.46875 -1.515625q-1.15625 -1.15625 0.578125 -1.15625zm-1.96875 4.84375q0.421875 6.875 4.234375 10.671875q1.53125 1.546875 2.359375 1.546875q0.078125 0 0.078125 -0.015625l1.0625 -3.171875q1.15625 -1.734375 1.421875 0.421875l-0.5625 3.59375q0 0.1875 0.265625 0.390625q0.484375 0.328125 0.484375 0.875q0 0.96875 -1.25 0.96875q-2.734375 0 -5.515625 -2.765625q-4.4375 -4.453125 -4.8125 -12.515625l-11.453125 0l0 -1.5625l11.421875 0q-0.078125 -2.96875 -0.078125 -4.6875l2.265625 0.375q3.046875 0.515625 -0.046875 1.609375q0 0.203125 0.078125 2.703125l4.9375 0l1.5625 -1.5625l2.140625 1.578125q1.265625 1.046875 -0.234375 1.546875l-8.359375 0zm-6.59375 10.140625q2.109375 -0.4375 5.046875 -1.21875q1.734375 0.578125 0.28125 1.4375q-4.828125 1.609375 -9.40625 3.03125q-0.328125 2.078125 -1.609375 0.375l-1.703125 -2.359375q3.234375 -0.5 5.171875 -0.875l0 -5.28125l-4.78125 0l0 -1.5625l8.171875 0l1.375 -1.375l1.859375 1.390625q1.265625 1.046875 -0.234375 1.546875l-4.171875 0l0 4.890625zm30.8125 -2.609375q-0.53125 -1.46875 -2.0625 -2.921875q-1.09375 -1.453125 0.71875 -1.09375q3.625 1.5625 3.625 3.859375q0 1.34375 -1.15625 1.34375q-0.734375 0 -1.125 -1.1875zm-4.6875 -3.0625q2.625 -4.125 3.921875 -10.859375l2.3125 0.71875q3.015625 0.859375 -0.140625 1.75l-1.21875 2.921875l5.09375 0l0.703125 -0.9375l1.734375 1.234375q1.375 1.140625 -0.1875 1.453125l0 6.90625q0 4.671875 -1.421875 6.40625q-0.828125 1.046875 -2.359375 1.65625q-2.0 0.859375 -2.0 -0.65625q0 -0.34375 -0.078125 -0.359375l-1.78125 -0.484375q-1.6875 -1.015625 0.28125 -1.34375l2.3125 0.1875q0.78125 0.078125 1.5625 -0.390625q1.265625 -0.875 1.265625 -5.203125l0 -6.90625l-5.84375 0q-1.296875 2.78125 -2.984375 4.671875q-1.515625 0.90625 -1.171875 -0.765625zm0.40625 8.5625q-2.21875 2.046875 -2.21875 -0.125l0 -0.90625l-4.4375 0l0 1.96875q-2.21875 2.046875 -2.21875 -0.125l0 -15.921875l2.03125 1.078125l0.765625 0l0.96875 -5.375l1.921875 0.515625q3.296875 0.734375 -0.015625 2.0l-1.15625 2.859375l2.109375 0l0.703125 -0.9375l1.734375 1.234375q1.375 1.140625 -0.1875 1.453125l0 12.28125zm-2.21875 -12.46875l-4.4375 0l0 3.875l4.4375 0l0 -3.875zm-4.4375 5.4375l0 4.4375l4.4375 0l0 -4.4375l-4.4375 0zm33.828125 -4.3125q0.65625 4.65625 1.953125 6.515625q1.578125 -2.234375 2.234375 -6.515625l-4.1875 0zm-5.015625 3.8125q3.421875 -4.4375 5.3125 -11.75l2.65625 1.140625q0.9375 1.625 -0.734375 1.484375q-0.75 2.296875 -1.5625 3.75l5.5 0l1.375 -1.375l1.859375 1.390625q1.265625 1.046875 -0.234375 1.546875l-2.484375 0q-1.0625 5.046875 -3.296875 8.234375q2.3125 2.078125 7.296875 4.078125q-2.375 0.734375 -2.875 1.734375q-3.703125 -1.859375 -5.84375 -4.078125q-3.015625 3.203125 -9.0625 4.765625q-2.328125 -0.296875 -0.34375 -1.4375q5.09375 -1.859375 8.125 -4.96875q-2.03125 -3.53125 -2.140625 -6.46875q-0.6875 1.15625 -2.6875 2.953125q-1.921875 0.765625 -0.859375 -1.0zm-4.8125 5.8125q-0.125 0 -0.125 -0.125l4.125 0q0.625 0 0.734375 -0.53125l0.59375 -2.875q0.78125 -0.78125 1.234375 0.125l0 3.03125q0 0.21875 0.1875 0.359375q1.125 0.9375 -0.15625 1.671875q-0.578125 0.34375 -1.65625 0.34375l-5.53125 0q-1.625 0 -1.625 -1.625l0 -10.53125l2.015625 0.9375l3.796875 0l0 -4.15625l-6.1875 0l0 -1.5625l6.15625 0l0.796875 -1.015625l1.90625 1.296875q1.734375 1.296875 -0.453125 1.59375l0 6.0625q-2.21875 2.046875 -2.21875 -0.125l0 -0.53125l-3.59375 0l0 7.65625z" fill-rule="nonzero"/><path fill="#ffff00" d="m416.9744 333.29074l0 6.5l2.375 0l0 -6.5l-2.375 0zm-10.609375 -1.5625l10.84375 0q-0.078125 -0.6875 -1.734375 -2.546875l0.625 -0.953125q2.140625 0.953125 3.265625 1.90625q1.140625 0.953125 0.453125 1.59375l5.359375 0l1.703125 -1.703125l3.265625 3.265625l-8.484375 0l0 6.5l0.875 0l1.125 -1.25l2.515625 2.359375l-1.609375 0.734375q-1.921875 2.375 -4.375 4.53125q3.015625 2.171875 9.4375 2.65625l0 1.28125q-1.578125 0.203125 -2.109375 1.265625q-5.921875 -1.328125 -9.015625 -3.8125q-4.09375 2.671875 -11.40625 3.890625l-0.328125 -1.3125q6.859375 -1.59375 10.171875 -4.09375q-1.71875 -1.796875 -3.21875 -4.6875l-1.328125 0l-1.25 0.21875l-1.78125 -1.78125l5.296875 0l0 -6.5l-4.0 0q-1.15625 0 -2.390625 0.34375l-1.90625 -1.90625zm9.234375 9.625q1.171875 1.890625 2.9375 3.421875q1.515625 -1.359375 3.171875 -3.421875l-6.109375 0zm-3.3125 -7.96875l2.78125 2.46875l-1.578125 0.640625q-2.671875 2.859375 -6.15625 5.484375l-0.96875 -0.953125q2.046875 -1.828125 3.46875 -3.703125q1.4375 -1.890625 2.453125 -3.9375zm10.09375 0.765625q5.390625 2.65625 6.171875 3.671875q0.796875 1.015625 0.046875 2.359375q-0.734375 1.328125 -2.015625 -0.453125q-1.28125 -1.796875 -5.15625 -4.625l0.953125 -0.953125z" fill-rule="nonzero"/><path fill="#ffff00" d="m433.0369 348.15012q-1.03125 -0.515625 -1.03125 -1.578125q0 -0.546875 0.40625 -1.078125q0.546875 -0.546875 1.40625 -0.546875q1.015625 0 1.53125 0.78125q0.5625 0.78125 0.5625 1.59375q0 1.46875 -0.828125 2.71875q-0.84375 1.25 -2.734375 2.015625l-0.953125 -1.1875q1.25 -0.828125 1.765625 -1.4375q0.34375 -0.421875 0.34375 -0.890625q0 -0.15625 -0.46875 -0.390625zm14.515625 2.75q-2.15625 0.359375 -0.640625 -1.15625q4.25 -2.78125 5.734375 -5.265625q-0.859375 -0.546875 -1.828125 -0.90625l-0.359375 1.078125q-2.453125 1.578125 -2.03125 -0.53125l2.359375 -8.484375l-3.78125 0l0 -1.5625l4.125 0l1.25 -5.484375l2.03125 0.640625q2.578125 0.9375 -0.21875 1.625l-0.796875 3.21875l2.375 0l0.71875 -1.078125l2.046875 1.671875q1.25 1.265625 -0.75 1.40625q-0.703125 4.65625 -2.390625 7.6875q1.234375 0.71875 2.125 1.609375q0.703125 0.71875 0.703125 1.578125q0 1.0625 -0.96875 1.0625q-0.609375 0 -1.40625 -0.921875q-0.8125 -0.90625 -1.5 -1.46875q-2.296875 3.328125 -6.796875 5.28125zm5.484375 -15.265625l-1.734375 6.375q1.15625 0.34375 2.171875 0.8125q1.515625 -2.875 2.078125 -7.1875l-2.515625 0zm8.75 11.625l0 1.125q-2.21875 2.046875 -2.21875 -0.125l0 -16.21875l2.0625 1.375l4.1875 0l0.703125 -0.9375l1.734375 1.234375q1.375 1.140625 -0.1875 1.453125l0 12.65625q-2.21875 2.046875 -2.21875 -0.125l0 -0.4375l-4.0625 0zm0 -12.28125l0 10.71875l4.0625 0l0 -10.71875l-4.0625 0zm9.84375 6.9375q-2.0 1.0 -1.03125 -0.9375q3.8125 -6.046875 5.4375 -12.34375l2.3125 0.96875q2.40625 0.96875 -0.484375 1.640625q-0.9375 2.328125 -1.9375 4.171875l0.25 0.140625q1.53125 1.09375 -0.140625 1.5625l-0.09375 0.015625l0 13.125q-2.21875 2.046875 -2.21875 -0.125l0 -10.78125q-0.5 0.765625 -2.09375 2.5625zm5.9375 -9.8125l12.390625 0l1.5625 -1.5625l2.140625 1.578125q1.265625 1.046875 -0.234375 1.546875l-2.578125 0l0 14.125q0 1.359375 -0.828125 2.0625q-0.6875 0.578125 -1.5625 0.6875q-1.140625 0.1875 -1.140625 -0.96875q0 -0.125 -0.125 -0.171875l-1.5 -0.375q-1.65625 -0.671875 0.0625 -1.359375l2.53125 0q0.34375 0 0.34375 -0.34375l0 -13.65625l-11.0625 0l0 -1.5625zm5.96875 3.9375l0.703125 -0.9375l1.734375 1.234375q1.375 1.140625 -0.1875 1.453125l0 6.46875q-2.21875 2.046875 -2.21875 -0.125l0 -0.4375l-2.09375 0l0 1.875q-2.21875 2.046875 -2.21875 -0.125l0 -10.203125l2.0 0.796875l2.28125 0zm0.03125 1.5625l-2.09375 0l0 4.53125l2.09375 0l0 -4.53125z" fill-rule="nonzero"/><path fill="#ffff00" d="m502.8494 336.66574l0.671875 -1.0q2.4375 1.625 3.328125 2.625q0.890625 0.984375 0.828125 1.84375q-0.0625 0.84375 -0.984375 1.765625q-0.921875 0.921875 -1.546875 -1.109375q-0.625 -2.046875 -2.296875 -4.125zm7.25 -2.6875q0 -3.609375 -0.15625 -5.84375l3.5781555 1.703125l-1.109375 1.09375l0 3.046875l1.359375 0l1.4375 -1.4375l2.828125 3.0l-5.625 0l0 9.625q0 1.203125 -0.5156555 1.890625q-0.515625 0.671875 -2.046875 1.296875q-0.65625 -1.734375 -3.40625 -2.421875l0 -1.328125q3.0625 0.34375 3.359375 0.34375q0.296875 0 0.296875 -0.25l0 -9.15625l-5.96875 0q-0.6875 0 -1.921875 0.34375l-1.90625 -1.90625l9.796875 0zm-13.640625 -3.671875l0.65625 -0.96875q2.140625 1.0625 3.0 1.875q0.875 0.8125 0.8125 1.75q-0.0625 0.921875 -1.0 1.703125q-0.921875 0.765625 -1.484375 -1.03125q-0.5625 -1.8125 -1.984375 -3.328125zm4.328125 15.484375q0.8125 0.734375 2.09375 1.359375q1.28125 0.609375 4.21875 0.796875q2.9375 0.1875 5.3594055 0.046875q2.421875 -0.140625 5.203125 -0.375l0 1.328125q-1.875 0.375 -1.875 1.609375q-4.7344055 -0.109375 -7.5469055 -0.25q-2.796875 -0.140625 -4.46875 -0.6875q-1.671875 -0.546875 -2.765625 -1.546875q-1.09375 -1.0 -1.3125 -1.0q-0.21875 0 -1.0625 0.9375q-0.84375 0.921875 -1.890625 2.75l-2.1875 -2.1875q2.15625 -1.5625 3.921875 -2.8125l0 -6.9375l-0.25 0q-1.15625 0 -2.390625 0.34375l-1.90625 -1.90625l4.5625 0l1.234375 -1.234375l2.046875 2.046875l-0.984375 0.859375l0 6.859375z" fill-rule="nonzero"/><path fill="#ffff00" d="m533.92755 345.66574q1.53125 -1.234375 1.96875 -1.78125l-3.75 0q0.84375 1.109375 1.78125 1.78125zm-5.8125 -1.78125q-1.234375 3.890625 -3.53125 6.1875q-1.984375 1.0 -1.015625 -0.9375q2.9375 -4.5 2.9375 -9.6875l0 -8.484375l2.046875 1.234375l3.671875 0l0 -3.09375l2.28125 0.40625q1.953125 1.21875 -0.0625 1.546875l0 1.140625l3.234375 0l1.375 -1.375l1.859375 1.390625q1.265625 1.046875 -0.234375 1.546875l-11.953125 0l0 2.1875l1.4375 0l0 -2.71875l2.28125 0.40625q1.953125 1.21875 -0.0625 1.546875l0 0.765625l2.1875 0l0 -2.71875l2.28125 0.40625q1.953125 1.21875 -0.0625 1.546875l0 0.765625l1.640625 0l1.1875 -1.1875l1.671875 1.203125q1.265625 1.046875 -0.234375 1.546875l-4.265625 0l0 3.84375q-2.21875 2.046875 -2.21875 -0.125l0 -0.4375l-2.1875 0l0 0.84375q-2.21875 2.046875 -2.21875 -0.125l0 -4.0l-1.4375 0l0 1.375q0 2.59375 -0.21875 3.4375l8.421875 0l1.0 -1.0l1.671875 1.203125q2.125 1.921875 -0.78125 1.578125q-1.546875 1.53125 -3.0 2.65625q2.203125 1.109375 6.6875 1.609375q-1.796875 1.4375 -2.421875 2.546875q-3.9375 -1.171875 -6.078125 -2.796875q-3.4375 2.109375 -8.625 3.265625q-2.140625 0 -0.484375 -1.328125q4.796875 -1.40625 7.5 -3.265625q-1.0 -0.921875 -2.28125 -2.90625l-2.0 0zm-4.578125 -1.359375q-0.34375 0.859375 -0.34375 2.546875q0 0.90625 0.1875 2.078125q0.28125 1.5625 0.1875 2.609375q-0.296875 1.15625 -1.34375 1.15625q-0.78125 0 -1.21875 -0.890625q-0.21875 -0.984375 -0.125 -2.265625q0.09375 -1.578125 0.09375 -2.6875q0 -0.546875 -0.34375 -0.640625l-1.8125 -0.234375l0 -1.3125l2.21875 0l4.59375 -11.5625q1.3125 -1.640625 1.3125 0.515625l-3.40625 10.6875zm-2.515625 -5.21875q-0.609375 -1.28125 -1.65625 -2.078125q-1.25 -1.25 0.5 -1.25q3.421875 1.0625 3.421875 2.84375q0 1.515625 -1.234375 1.34375q-0.75 -0.15625 -1.03125 -0.859375zm1.96875 -5.046875q-0.671875 -1.171875 -1.828125 -1.890625q-1.171875 -1.171875 0.46875 -1.171875q3.625 0.859375 3.625 2.75q0 1.34375 -1.15625 1.34375q-0.71875 0 -1.109375 -1.03125zm11.578125 6.96875l0 -1.71875l-2.1875 0l0 1.71875l2.1875 0zm20.640625 9.296875q-0.53125 0.515625 -1.296875 0.515625q-0.765625 0 -1.296875 -0.515625q-0.515625 -0.53125 -0.515625 -1.296875q0 -0.765625 0.515625 -1.296875q0.53125 -0.515625 1.296875 -0.515625q0.765625 0 1.296875 0.515625q0.515625 0.53125 0.515625 1.296875q0 0.765625 -0.515625 1.296875zm-6.8125 -10.5q-0.609375 -0.625 -0.609375 -1.953125q0 -2.125 1.796875 -3.5q1.828125 -1.3125 4.421875 -1.3125q2.6875 0 4.5 1.3125q2.0 1.359375 2.0 3.59375q0 1.8125 -1.1875 2.90625q-1.09375 0.984375 -2.6875 1.6875q-1.109375 0.421875 -1.5 0.90625q-0.359375 0.34375 -0.4375 1.203125l-0.140625 1.390625l-1.609375 0l0 -1.90625q0 -1.15625 0.4375 -2.015625q0.453125 -0.796875 1.59375 -1.421875q1.34375 -0.796875 1.890625 -1.34375q0.484375 -0.34375 0.484375 -1.6875q0 -1.359375 -0.84375 -2.046875q-0.890625 -0.734375 -2.6875 -0.734375q-2.078125 0 -3.15625 0.828125q-1.03125 0.796875 -1.421875 1.78125q-0.1875 -0.359375 0.203125 -0.484375q0.359375 -0.125 0.8125 -0.125q0.8125 0 1.21875 0.546875q0.5 0.5 0.5 1.265625q0 0.765625 -0.5 1.265625q-0.40625 0.546875 -1.40625 0.546875q-0.953125 0 -1.671875 -0.703125z" fill-rule="nonzero"/><path fill="#cacaca" d="m58.478317 380.197q1.296875 0 2.53125 0.671875q1.25 0.671875 1.9375 1.921875q0.6875 1.234375 0.6875 2.5625q0 2.15625 -1.515625 3.671875q-1.5 1.5 -3.640625 1.5q-2.140625 0 -3.65625 -1.5q-1.5 -1.515625 -1.5 -3.671875q0 -1.34375 0.6875 -2.578125q0.6875 -1.234375 1.921875 -1.90625q1.25 -0.671875 2.546875 -0.671875z" fill-rule="nonzero"/><path fill="#cacaca" d="m96.75566 386.5095l2.15625 1.125l-0.75 0.5625l0 2.90625q0 1.03125 0.9375 1.125l5.8125 0q0.84375 -0.09375 1.078125 -1.03125q0.234375 -0.9375 0.328125 -3.0l0.375 0q0.09375 1.875 0.234375 2.71875q0.140625 0.84375 0.984375 1.03125q-0.65625 1.40625 -2.15625 1.40625l-7.03125 0q-2.0625 0 -1.875 -1.875q0 -3.84375 -0.09375 -4.96875zm2.8125 -1.03125l0.1875 -0.28125q2.25 1.125 3.09375 1.875q0.84375 0.75 0.234375 1.828125q-0.609375 1.078125 -1.171875 -0.234375q-0.5625 -1.3125 -2.34375 -3.1875zm7.59375 1.78125l0.1875 -0.28125q1.78125 0.75 2.859375 1.40625q1.078125 0.65625 1.265625 1.359375q0.1875 0.703125 -0.328125 1.546875q-0.515625 0.84375 -1.171875 -0.609375q-0.65625 -1.453125 -2.8125 -3.421875zm-13.125 0l0.375 0q-0.1875 2.90625 -0.609375 3.75q-0.421875 0.84375 -1.125 0.984375q-0.703125 0.140625 -1.21875 -0.234375q-0.515625 -0.375 0.65625 -1.359375q1.171875 -0.984375 1.921875 -3.140625zm3.1875 -14.25q1.5 0.9375 2.25 1.734375q0.75 0.796875 0.5625 1.546875q-0.1875 0.75 -0.75 1.171875q-0.5625 0.421875 -0.796875 -0.890625q-0.234375 -1.3125 -1.546875 -3.375l0.28125 -0.1875zm-1.96875 13.03125q0.09375 -2.25 0.09375 -4.40625q0 -2.15625 -0.09375 -4.125l1.40625 0.75l5.8125 0q1.6875 -3.09375 2.4375 -5.71875l1.96875 1.40625l-0.9375 0.28125q-1.59375 2.25 -2.90625 4.03125l3.75 0l0.65625 -0.9375l1.5 1.125l-0.75 0.65625q0 4.6875 0.09375 6.1875l-1.40625 0.5625l0 -1.03125l-10.21875 0l0 0.75l-1.40625 0.46875zm1.40625 -7.21875l0 5.4375l10.21875 0l0 -5.4375l-10.21875 0zm32.25 -1.3125q0 -3.84375 -0.09375 -5.0625l2.25 1.21875l-0.9375 0.65625l0 3.1875l3.46875 0l1.125 -1.125l1.59375 1.6875l-6.1875 0l0 4.21875l2.53125 0l1.125 -1.125l1.59375 1.6875l-7.96875 0q-1.21875 0 -2.25 0.28125l-0.84375 -0.84375l4.59375 0l0 -4.21875l-2.34375 0q-1.21875 0 -2.25 0.28125l-0.84375 -0.84375l5.4375 0zm-3.84375 16.875q0.09375 -2.0625 0.09375 -4.78125q0 -2.71875 -0.09375 -4.6875l1.5 0.84375l6.375 0l0.84375 -0.84375l1.3125 1.3125l-0.84375 0.5625l0 3.84375q0 2.0625 0.09375 2.90625l-1.3125 0.5625l0 -1.875l-6.65625 0l0 1.5l-1.3125 0.65625zm1.3125 -8.0625l0 5.34375l6.65625 0l0 -5.34375l-6.65625 0zm-9.0 0l6.46875 -1.03125l0 0.375q-1.125 0.28125 -3.5625 0.984375q-2.4375 0.703125 -3.5625 1.546875l-1.03125 -1.6875q0.75 -0.28125 1.40625 -0.9375q0.65625 -0.65625 3.09375 -4.03125q-1.125 0.1875 -2.15625 0.421875q-1.03125 0.234375 -1.96875 0.796875l-0.84375 -1.6875q0.9375 0 2.203125 -2.671875q1.265625 -2.671875 2.015625 -5.484375l1.96875 1.03125l-0.84375 0.46875q-1.96875 3.75 -3.84375 6.65625l3.75 -0.09375q1.125 -1.78125 1.78125 -3.28125l1.6875 1.21875l-0.84375 0.46875q-2.625 3.46875 -5.71875 6.9375zm-1.21875 6.75l-0.9375 -1.78125q1.3125 -0.1875 3.140625 -0.609375q1.828125 -0.421875 5.671875 -1.546875l0.09375 0.375q-6.9375 2.71875 -7.96875 3.5625z" fill-rule="nonzero"/><path fill="#cacaca" d="m144.66191 380.97824q0.375 0.375 0.375 0.9375q0 0.5625 -0.375 0.9375q-0.375 0.375 -0.9375 0.375q-0.5625 0 -0.9375 -0.375q-0.375 -0.375 -0.375 -0.9375q0 -0.5625 0.375 -0.9375q0.375 -0.375 0.9375 -0.375q0.5625 0 0.9375 0.375zm0 8.8125q0.375 0.375 0.375 0.9375q0 0.5625 -0.375 0.9375q-0.375 0.375 -0.9375 0.375q-0.5625 0 -0.9375 -0.375q-0.375 -0.375 -0.375 -0.9375q0 -0.5625 0.375 -0.9375q0.375 -0.375 0.9375 -0.375q0.5625 0 0.9375 0.375zm24.46875 -15.0l-14.25 0l0 9.84375q0 4.96875 -3.84375 9.46875q-0.46875 0.28125 -0.375 -0.28125q3.0 -4.5 3.0 -8.8125l0 -11.71875l1.40625 0.9375l13.78125 0l0.5625 -0.75l1.3125 0.9375q0.5625 0.46875 -0.375 0.65625l0 16.40625q0 1.125 -0.65625 1.6875q-0.5625 0.46875 -1.21875 0.5625q-0.5625 0.09375 -0.5625 -0.46875q0 -0.5625 -0.46875 -0.65625l-1.5 -0.375q-0.46875 -0.1875 0 -0.375l2.34375 0q0.84375 0 0.84375 -0.84375l0 -16.21875zm-1.875 3.28125q0.5625 0.46875 0 0.65625l-5.0625 0l0 3.09375l3.375 0l1.03125 -1.03125l1.3125 0.9375q0.5625 0.46875 0 0.65625l-11.53125 0l0 -0.5625l4.59375 0l0 -3.09375l-4.21875 0l0 -0.5625l4.21875 0l0 -2.4375l1.6875 0.28125q1.03125 0.1875 -0.46875 0.75l0 1.40625l2.71875 0l1.03125 -1.03125l1.3125 0.9375zm-2.4375 10.78125l0 -3.75l-6.28125 0l0 3.75l6.28125 0zm-6.09375 -4.3125l5.8125 0l0.5625 -0.75l1.3125 0.9375q0.5625 0.46875 -0.375 0.65625l0 4.59375q-1.21875 1.125 -1.21875 0.09375l0 -0.65625l-6.28125 0l0 1.3125q-1.21875 1.125 -1.21875 0.09375l0 -7.21875l1.40625 0.9375z" fill-rule="nonzero"/><path fill="#cacaca" d="m188.72441 374.04074q-0.09375 1.40625 -0.1875 4.03125l4.40625 0l0.9375 -0.9375l1.3125 1.3125l-0.65625 0.65625q-0.65625 5.8125 -0.984375 7.96875q-0.328125 2.15625 -1.03125 3.0q-0.703125 0.84375 -2.109375 1.21875q-0.5625 -1.40625 -2.8125 -2.15625l0.09375 -0.375q2.8125 0.65625 3.421875 0.5625q0.609375 -0.09375 0.984375 -1.734375q0.375 -1.640625 1.03125 -8.953125l-4.59375 0q-0.65625 7.875 -6.9375 11.53125l-0.1875 -0.28125q5.25 -4.03125 5.8125 -11.25l-2.53125 0q-1.21875 0 -2.25 0.28125l-0.84375 -0.84375l5.625 0q0.09375 -3.65625 0 -5.625l2.25 0.9375l-0.75 0.65625zm-11.34375 -0.5625l0.1875 -0.28125q1.78125 0.9375 2.4375 1.640625q0.65625 0.703125 0.703125 1.3125q0.046875 0.609375 -0.5625 1.125q-0.609375 0.515625 -1.03125 -0.9375q-0.421875 -1.453125 -1.734375 -2.859375zm2.34375 15.46875q0.84375 0.9375 2.34375 1.875q1.5 0.9375 4.453125 1.078125q2.953125 0.140625 5.484375 0.09375q2.53125 -0.046875 4.875 -0.234375l0 0.375q-1.875 0.46875 -1.875 1.40625q-4.40625 0 -7.171875 -0.140625q-2.765625 -0.140625 -4.546875 -0.84375q-1.78125 -0.703125 -2.8125 -1.921875q-1.03125 -1.21875 -1.40625 -1.21875q-0.375 0 -1.359375 0.984375q-0.984375 0.984375 -1.640625 2.015625l-1.3125 -1.21875q1.40625 -0.84375 3.75 -2.25l0 -7.875l-0.84375 0q-1.21875 0 -2.25 0.28125l-0.84375 -0.84375l3.75 0l1.03125 -1.03125l1.3125 1.3125l-0.9375 0.65625l0 7.5z" fill-rule="nonzero"/><path fill="#cacaca" d="m199.31816 385.3845q3.84375 -4.96875 5.15625 -11.15625l2.0625 0.5625q1.03125 0.375 -0.84375 0.84375q-0.5625 1.6875 -1.3125 3.28125l4.96875 0l0 -5.90625l1.59375 0.28125q0.75 0.46875 -0.375 0.65625l0 4.96875l5.625 0l1.21875 -1.21875l1.5 1.125q0.5625 0.46875 0 0.65625l-8.34375 0l0 5.53125l4.40625 0l1.21875 -1.21875l1.5 1.125q0.5625 0.46875 0 0.65625l-7.125 0l0 6.5625l6.65625 0l1.40625 -1.40625l1.78125 1.3125q0.5625 0.46875 0 0.65625l-20.8125 0l0 -0.5625l9.75 0l0 -6.5625l-5.8125 0l0 -0.5625l5.8125 0l0 -5.53125l-5.25 0q-1.96875 3.75 -4.5 6.1875q-0.46875 0.1875 -0.28125 -0.28125z" fill-rule="nonzero"/><path fill="#cacaca" d="m232.41191 372.54074l2.4375 1.125l-0.9375 0.46875q-0.1875 1.21875 -0.46875 2.90625l7.21875 0l1.40625 -1.40625l1.96875 1.96875l-9.75 0q1.96875 3.46875 4.875 4.96875q2.90625 1.5 5.34375 1.6875l0 0.375q-1.78125 0.28125 -1.96875 1.21875q-3.84375 -1.40625 -5.859375 -3.703125q-2.015625 -2.296875 -2.859375 -4.546875l-0.46875 0q-0.9375 2.8125 -2.25 4.5q1.6875 0.65625 2.765625 1.3125q1.078125 0.65625 1.078125 1.359375q0 0.703125 -0.375 1.171875q-0.375 0.46875 -1.171875 -0.84375q-0.796875 -1.3125 -2.578125 -2.625q-2.90625 2.625 -7.96875 3.84375l-0.1875 -0.375q3.65625 -1.03125 6.0 -3.046875q2.34375 -2.015625 3.28125 -5.296875l-5.625 0q-1.21875 0 -2.25 0.28125l-0.84375 -0.84375l8.8125 0q0.375 -2.71875 0.375 -4.5zm-5.71875 14.90625q0 1.6875 -0.328125 2.953125q-0.328125 1.265625 -1.03125 1.59375q-0.703125 0.328125 -1.453125 0q-0.75 -0.328125 0.375 -1.21875q1.125 -0.890625 2.0625 -3.421875l0.375 0.09375zm4.78125 -1.3125l0.1875 -0.28125q1.78125 0.75 2.671875 1.359375q0.890625 0.609375 0.84375 1.265625q-0.046875 0.65625 -0.515625 1.21875q-0.46875 0.5625 -0.9375 -0.609375q-0.46875 -1.171875 -2.25 -2.953125zm7.59375 1.125l0.28125 -0.1875q2.25 1.21875 3.09375 2.015625q0.84375 0.796875 0.703125 1.546875q-0.140625 0.75 -0.65625 1.21875q-0.515625 0.46875 -1.03125 -1.03125q-0.515625 -1.5 -2.390625 -3.5625zm-10.21875 4.6875q0 -3.84375 -0.09375 -5.90625l2.15625 1.125l-0.75 0.65625l0 3.65625q-0.1875 1.21875 1.125 1.125l4.96875 0q1.125 0 1.3125 -0.9375q0.1875 -0.9375 0.1875 -2.90625l0.46875 0q0.09375 1.6875 0.28125 2.625q0.1875 0.9375 1.125 1.125q-0.75 1.3125 -2.625 1.21875l-5.625 0q-2.625 0.1875 -2.53125 -1.78125z" fill-rule="nonzero"/><path fill="#cacaca" d="m250.31816 391.7595q-0.5625 -0.9375 -2.25 -2.4375q-0.46875 -0.375 0.09375 -0.375q2.25 0.65625 4.21875 2.625q0.84375 0.84375 0.84375 1.6875q0 0.5625 -0.375 0.9375q-0.28125 0.28125 -0.5625 0.28125q-0.46875 0 -0.75 -0.5625q-0.46875 -0.84375 -1.21875 -2.15625z" fill-rule="nonzero"/><path fill="#cacaca" d="m264.0994 378.16574q4.3125 5.90625 4.59375 7.359375q0.28125 1.453125 -0.5625 2.4375q-0.84375 0.984375 -1.171875 -1.359375q-0.328125 -2.34375 -3.140625 -8.25l0.28125 -0.1875zm6.28125 -1.6875q0 -1.5 -0.09375 -3.46875l2.25 1.125l-0.84375 0.75l0 17.25l3.84375 0l0 -15.5625q0 -1.3125 -0.09375 -3.5625l2.34375 1.125l-0.9375 0.65625l0 13.5q3.5625 -5.34375 4.875 -10.40625l2.25 1.59375l-1.03125 0.46875q-3.375 6.375 -6.09375 9.09375l0 3.09375l4.40625 0l1.5 -1.5l2.0625 2.0625l-19.21875 0q-1.21875 0 -2.25 0.28125l-0.84375 -0.84375l7.875 0l0 -15.65625zm23.625 -4.125l1.96875 1.125q-0.84375 0.375 -1.5 1.5l6.65625 0l0.84375 -0.9375l1.6875 1.40625l-1.03125 0.5625q-1.59375 2.8125 -4.03125 4.875q2.15625 1.5 4.96875 2.25q2.8125 0.75 4.96875 0.75l0 0.375q-1.78125 0.375 -1.96875 1.40625q-1.59375 -0.28125 -4.265625 -1.40625q-2.671875 -1.125 -4.546875 -2.71875q-2.34375 1.6875 -5.109375 2.90625q-2.765625 1.21875 -5.578125 1.96875l-0.28125 -0.375q3.1875 -1.03125 5.625 -2.296875q2.4375 -1.265625 4.59375 -2.953125q-1.78125 -1.78125 -3.46875 -4.40625q-0.75 1.3125 -1.921875 2.625q-1.171875 1.3125 -2.859375 2.53125l-0.28125 -0.1875q1.78125 -1.6875 3.375 -4.265625q1.59375 -2.578125 2.15625 -4.734375zm-0.1875 3.5625q2.0625 2.53125 3.9375 4.21875q2.15625 -1.96875 3.46875 -4.59375l-7.03125 0l-0.375 0.375zm9.84375 11.0625q-0.46875 4.78125 -1.125 5.953125q-0.65625 1.171875 -2.4375 1.546875q0 -0.9375 -2.71875 -2.15625l0.09375 -0.375q2.34375 0.5625 3.140625 0.5625q0.796875 0 1.171875 -1.78125q0.375 -1.78125 0.5625 -4.03125l-5.4375 0q-0.9375 3.75 -3.421875 5.390625q-2.484375 1.640625 -5.296875 2.484375l-0.28125 -0.375q2.8125 -1.03125 4.828125 -2.671875q2.015625 -1.640625 2.859375 -4.828125l-2.34375 0q-1.21875 0 -2.25 0.28125l-0.84375 -0.84375l5.53125 0q0.375 -1.96875 0.375 -3.1875l1.96875 1.03125l-0.65625 0.5625q-0.09375 0.65625 -0.375 1.59375l5.15625 0l0.65625 -0.84375l1.59375 1.125l-0.75 0.5625z" fill-rule="nonzero"/><path fill="#cacaca" d="m314.06815 386.79074l2.8125 -1.03125l0 -12.84375l1.40625 0.28125q0.9375 0.1875 -0.1875 0.75l0 19.3125q-1.21875 1.3125 -1.21875 0.09375l0 -7.125l-4.40625 2.53125q-0.09375 1.3125 -0.84375 0.375l-0.9375 -1.3125l2.15625 -0.65625l0 -11.4375l1.40625 0.28125q0.9375 0.1875 -0.1875 0.75l0 10.03125zm14.625 -7.21875q-0.375 5.34375 -2.34375 8.71875q3.0 3.1875 6.46875 4.3125q-0.9375 0.5625 -1.40625 1.21875q-3.375 -1.59375 -5.8125 -4.5q-2.90625 3.5625 -6.9375 4.6875q-0.5625 0 -0.09375 -0.375q3.9375 -1.96875 6.28125 -5.25q-1.6875 -2.8125 -2.90625 -7.59375q-1.3125 3.09375 -3.09375 5.15625q-0.46875 0.28125 -0.28125 -0.28125q3.09375 -4.96875 4.21875 -13.03125l1.59375 0.5625q1.5 0.5625 -0.28125 0.84375q-0.375 2.15625 -1.40625 4.96875l6.9375 0l1.40625 -1.40625l1.59375 1.3125q0.5625 0.46875 0 0.65625l-3.9375 0zm-6.1875 0l-0.1875 0.5625q1.5 4.875 3.1875 7.21875q1.6875 -2.90625 1.875 -7.78125l-4.875 0zm17.0625 -6.375q3.1875 1.3125 3.1875 3.09375q0 0.84375 -0.65625 0.84375q-0.46875 0 -1.125 -1.875q-0.28125 -0.84375 -1.5 -1.78125q-0.28125 -0.28125 0.09375 -0.28125zm10.5 12.46875l0.5625 -0.75l1.3125 0.9375q0.5625 0.46875 -0.375 0.65625l0 6.375l1.6875 0l1.40625 -1.40625l1.78125 1.3125q0.5625 0.46875 0 0.65625l-21.1875 0l0 -0.5625l3.75 0l0 -7.96875l1.5 0.75l9.5625 0zm0.5625 -12.1875q0.9375 0.5625 -0.28125 0.84375l-2.71875 3.46875l4.96875 0l1.21875 -1.21875l1.5 1.125q0.5625 0.46875 0 0.65625l-7.21875 0q1.78125 4.5 8.25 7.21875q-0.9375 0.1875 -1.875 1.21875q-5.0625 -2.71875 -6.9375 -8.4375l-4.40625 0l0.5625 0.46875q0.9375 0.75 -0.375 0.84375q-3.9375 5.625 -8.34375 7.3125q-0.5625 0.09375 -0.1875 -0.28125q4.3125 -2.4375 7.3125 -8.34375l-6.28125 0l0 -0.5625l11.25 0l2.34375 -4.875l1.21875 0.5625zm-7.96875 12.75l-2.4375 0l0 6.65625l2.4375 0l0 -6.65625zm3.75 0l-2.53125 0l0 6.65625l2.53125 0l0 -6.65625zm1.21875 0l0 6.65625l2.71875 0l0 -6.65625l-2.71875 0zm14.625 5.53125q-0.5625 -0.9375 -2.25 -2.4375q-0.46875 -0.375 0.09375 -0.375q2.25 0.65625 4.21875 2.625q0.84375 0.84375 0.84375 1.6875q0 0.5625 -0.375 0.9375q-0.28125 0.28125 -0.5625 0.28125q-0.46875 0 -0.75 -0.5625q-0.46875 -0.84375 -1.21875 -2.15625zm32.34375 0.375q-6.46875 -3.84375 -8.4375 -9.1875l-0.375 0l0 10.6875q-1.21875 1.125 -1.21875 0.09375l0 -9.5625q-3.65625 5.25 -10.03125 8.53125q-0.46875 0 -0.1875 -0.375q6.28125 -4.03125 9.46875 -9.375l-8.8125 0l0 -0.5625l9.5625 0l0 -4.03125l-8.15625 0l0 -0.5625l8.15625 0l0 -4.6875l1.59375 0.28125q0.75 0.46875 -0.375 0.65625l0 3.75l5.4375 0l1.40625 -1.40625l1.78125 1.3125q0.5625 0.46875 0 0.65625l-8.625 0l0 4.03125l7.40625 0l1.40625 -1.40625l1.78125 1.3125q0.5625 0.46875 0 0.65625l-9.65625 0q2.34375 5.0625 9.84375 7.96875q-1.03125 0.1875 -1.96875 1.21875zm4.40625 1.125q5.0625 -3.09375 8.8125 -8.4375l-8.25 0l0 -0.5625l9.28125 0l0 -6.84375l-8.53125 0l0 -0.5625l8.53125 0l0 -3.84375l1.6875 0.28125q1.03125 0.375 -0.46875 0.75l0 2.8125l6.5625 0l1.21875 -1.21875l1.5 1.125q0.5625 0.46875 0 0.65625l-9.28125 0l0 6.84375l7.125 0l1.40625 -1.40625l1.78125 1.3125q0.5625 0.46875 0 0.65625l-9.75 0q3.75 4.78125 9.75 6.75q-1.3125 0.75 -1.78125 1.59375q-5.34375 -3.09375 -8.53125 -8.25l0 8.53125q-1.21875 1.125 -1.21875 0.09375l0 -7.875q-4.125 5.25 -9.46875 7.875q-0.5625 0.1875 -0.375 -0.28125zm15.75 -14.71875l1.78125 0.84375q0.5625 0.5625 -1.03125 0.75l-2.625 3.46875q-0.46875 0.28125 -0.375 -0.1875l2.25 -4.875zm-10.5 4.21875q-0.1875 -2.25 -1.96875 -4.21875q-0.1875 -0.375 0.28125 -0.1875q3.1875 2.15625 3.1875 4.125q0 1.03125 -0.75 1.03125q-0.5625 0 -0.75 -0.75z" fill-rule="nonzero"/><path fill="#cacaca" d="m427.0369 372.6345l2.0625 0.9375l-0.75 0.65625l0 4.03125l1.59375 0l1.03125 -1.03125l1.5 1.59375l-4.125 0l0 4.21875l1.875 0l1.03125 -1.03125l1.5 1.59375l-4.40625 0q0 0.75 -0.1875 2.15625q3.09375 1.78125 3.609375 2.671875q0.515625 0.890625 0.046875 1.78125q-0.46875 0.890625 -1.171875 -0.65625q-0.703125 -1.546875 -2.578125 -3.421875q-0.1875 2.25 -1.40625 4.21875q-1.21875 1.96875 -3.75 3.9375l-0.28125 -0.28125q2.34375 -2.15625 3.375 -4.59375q1.03125 -2.4375 1.125 -5.8125l-1.3125 0q-1.21875 0 -2.25 0.28125l-0.84375 -0.84375l4.40625 0l0 -4.21875l-0.75 0q-1.21875 0 -2.25 0.28125l-0.84375 -0.84375l3.84375 0q0 -3.375 -0.09375 -5.625zm15.5625 3.09375q0 7.59375 0.09375 9.65625l-1.3125 0.75l0 -10.875l-6.65625 0l0 10.59375l-1.3125 0.75q0.09375 -2.8125 0.09375 -6.1875q0 -3.375 -0.09375 -6.46875l1.40625 0.75l6.375 0l0.84375 -0.9375l1.5 1.3125l-0.9375 0.65625zm-5.53125 1.21875l2.0625 1.03125l-0.65625 0.65625q-0.09375 3.75 -0.46875 6.234375q-0.375 2.484375 -1.359375 4.265625q-0.984375 1.78125 -2.8125 3.046875q-1.828125 1.265625 -4.546875 2.109375l-0.09375 -0.375q2.0625 -0.84375 3.84375 -2.15625q1.78125 -1.3125 2.671875 -3.1875q0.890625 -1.875 1.171875 -4.59375q0.28125 -2.71875 0.1875 -7.03125zm1.3125 14.625l0 -4.96875q0 -2.25 -0.09375 -3.65625l2.0625 1.21875l-0.75 0.5625l0 6.65625q0 0.84375 1.125 0.84375l1.125 0q0.84375 0 0.984375 -1.453125q0.140625 -1.453125 0.140625 -2.671875l0.46875 0q0 1.3125 0.140625 2.4375q0.140625 1.125 0.984375 1.59375q-0.75 1.21875 -1.875 1.21875l-2.71875 0q-1.59375 0 -1.59375 -1.78125z" fill-rule="nonzero"/><path fill="#cacaca" d="m456.0994 380.04074l1.03125 -1.40625l1.78125 1.03125q0.5625 0.46875 0 0.65625l-6.0 0.46875q0.375 3.65625 1.3125 6.28125q1.59375 -2.34375 2.625 -4.5l1.3125 1.03125q0.9375 0.75 -0.75 0.65625q-1.40625 2.15625 -2.625 3.9375q1.3125 2.4375 2.625 3.0q0.46875 0.1875 0.65625 -0.28125l0.84375 -2.8125q0.28125 -0.46875 0.375 0l-0.375 2.8125q-0.09375 0.75 0.28125 1.21875q0.65625 0.75 -0.1875 1.03125q-0.65625 0.1875 -1.5 -0.28125q-1.96875 -1.03125 -3.5625 -3.75q-3.09375 3.375 -7.3125 4.96875q-0.65625 0 -0.1875 -0.375q4.21875 -2.15625 6.9375 -5.71875q-1.3125 -3.28125 -1.59375 -7.125l-4.78125 0.28125l0 -0.5625l4.6875 -0.28125q-0.375 -4.78125 -0.28125 -7.3125l1.59375 0.28125q0.75 0.375 -0.375 0.65625q-0.09375 2.15625 0.28125 6.28125l3.1875 -0.1875zm1.3125 -3.0q0 0.65625 -0.5625 0.65625q-0.46875 0 -0.75 -0.46875q-0.84375 -1.3125 -2.15625 -2.15625q-0.375 -0.28125 0.09375 -0.28125q3.375 0.84375 3.375 2.25zm3.46875 -1.875l1.40625 0.28125q0.9375 0.28125 -0.1875 0.84375l0 12.65625q-1.21875 1.125 -1.21875 0.09375l0 -13.875zm5.25 -1.96875l1.40625 0.28125q0.9375 0.28125 -0.1875 0.84375l0 17.90625q0 1.3125 -1.03125 1.59375q-1.03125 0.375 -1.03125 -0.09375q0 -0.375 -0.5625 -0.5625l-1.5 -0.375q-0.375 -0.1875 0.09375 -0.28125l2.0625 0q0.75 0 0.75 -0.75l0 -18.5625z" fill-rule="nonzero"/></g></svg>