<svg version="1.1" viewBox="0.0 0.0 960.0 540.0" fill="none" stroke="none" stroke-linecap="square" stroke-miterlimit="10" xmlns:xlink="http://www.w3.org/1999/xlink" xmlns="http://www.w3.org/2000/svg"><clipPath id="g5cf35b70de_0_312.0"><path d="m0 0l960.0 0l0 540.0l-960.0 0l0 -540.0z" clip-rule="nonzero"/></clipPath><g clip-path="url(#g5cf35b70de_0_312.0)"><path fill="#37474f" d="m0 0l960.0 0l0 540.0l-960.0 0z" fill-rule="evenodd"/><path fill="#000000" fill-opacity="0.0" d="m32.72441 46.721786l894.55115 0l0 60.125984l-894.55115 0z" fill-rule="evenodd"/><path fill="#ffffff" d="m44.22441 93.34053q14.375 -5.0 15.15625 -19.21875l-14.0625 0l0 -3.4375l14.375 0l0 -8.281246l3.4375 0q1.5625 0.3125 0.15625 1.25l0 7.031246l15.0 0l0 3.4375l-14.6875 0q3.28125 12.96875 15.9375 18.4375l-2.03125 3.75q-10.9375 -5.0 -15.46875 -16.875q-2.65625 12.8125 -16.40625 17.65625l-1.40625 -3.75z" fill-rule="nonzero"/><path fill="#ffffff" d="m118.91191 93.34053q0 2.96875 -1.5625 3.59375q-1.5625 0.625 -4.375 1.09375q-0.3125 -1.71875 -1.25 -3.59375q2.5 0 3.359375 -0.390625q0.859375 -0.390625 0.859375 -1.953125l0 -25.78125l-13.59375 0l0 31.5625l-2.96875 0q0.15625 -3.4375 0.15625 -5.3125l0 -23.28125q0 -2.5 -0.15625 -5.312496l19.6875 0q-0.15625 2.3437462 -0.15625 4.687496l0 24.6875zm-25.625 -28.90625q-1.09375 0.9375 -2.578125 3.59375q-1.484375 2.65625 -3.984375 6.875q2.8125 0 5.46875 -0.15625q1.5625 -2.65625 2.65625 -5.625q1.5625 1.09375 3.59375 1.71875q-1.875 2.1875 -3.671875 5.15625q-1.796875 2.96875 -5.234375 7.5q5.15625 -0.78125 8.28125 -1.5625q-0.46875 1.875 -0.46875 3.28125q-1.71875 0.3125 -5.3125 0.859375q-3.59375 0.546875 -5.9375 1.328125q-0.46875 -1.71875 -1.25 -3.59375q1.5625 -0.46875 2.734375 -2.109375q1.171875 -1.640625 3.046875 -4.453125q-1.09375 0 -2.734375 0.15625q-1.640625 0.15625 -3.671875 0.78125q-0.46875 -1.71875 -1.09375 -3.4375q1.25 -0.46875 3.125 -4.0625q1.875 -3.59375 3.28125 -8.437496q1.71875 1.25 3.75 2.1874962zm12.5 6.25q1.25 2.34375 3.59375 6.5625q1.71875 -4.0625 2.1875 -7.34375q1.71875 0.78125 3.59375 1.5625q-1.25 1.875 -2.109375 3.984375q-0.859375 2.109375 -1.953125 4.609375q2.03125 2.8125 2.890625 4.375q0.859375 1.5625 1.796875 3.125q-1.875 0.625 -2.65625 1.71875q-2.03125 -4.21875 -3.4375 -6.5625q-1.09375 2.03125 -2.265625 3.984375q-1.171875 1.953125 -2.109375 3.359375q-1.25 -1.25 -2.65625 -2.1875q1.875 -2.03125 3.125 -3.984375q1.25 -1.953125 2.03125 -3.828125q-0.9375 -1.71875 -2.1875 -3.75q-1.25 -2.03125 -2.5 -3.4375q1.09375 -0.78125 2.65625 -2.1875zm-8.125 21.71875q-8.28125 2.34375 -9.921875 2.96875q-1.640625 0.625 -3.203125 1.40625q-0.78125 -2.1875 -1.5625 -3.90625q3.28125 -0.46875 5.78125 -1.171875q2.5 -0.703125 9.0625 -2.578125q-0.15625 1.40625 -0.15625 3.28125z" fill-rule="nonzero"/><path fill="#000000" fill-opacity="0.0" d="m32.72441 231.09448l894.55115 0l0 186.83466l-894.55115 0z" fill-rule="evenodd"/><path fill="#d9d9d9" d="m58.478317 251.19699q1.296875 0 2.53125 0.671875q1.25 0.671875 1.9375 1.921875q0.6875 1.234375 0.6875 2.5625q0 2.15625 -1.515625 3.671875q-1.5 1.5 -3.640625 1.5q-2.140625 0 -3.65625 -1.5q-1.5 -1.515625 -1.5 -3.671875q0 -1.34375 0.6875 -2.578125q0.6875 -1.234375 1.921875 -1.90625q1.25 -0.671875 2.546875 -0.671875z" fill-rule="nonzero"/><path fill="#d9d9d9" d="m98.53691 249.63449q0.28125 -1.5 0.515625 -3.140625q0.234375 -1.640625 0.328125 -3.046875l1.96875 0.84375l-0.65625 0.65625q-0.65625 3.75 -0.84375 4.6875l9.375 0l1.3125 -1.3125l1.78125 1.875l-12.5625 0q-0.28125 1.78125 -0.75 3.46875l8.0625 0l0.65625 -1.03125l1.59375 1.40625l-0.84375 0.65625q-1.6875 3.09375 -3.84375 5.53125q3.09375 2.53125 8.0625 3.46875l0 0.28125q-1.40625 0.28125 -1.78125 1.3125q-4.40625 -1.59375 -7.03125 -4.125q-3.65625 3.09375 -9.28125 4.3125l-0.09375 -0.28125q5.8125 -1.96875 8.53125 -4.96875q-2.0625 -2.71875 -3.28125 -6.0l-0.84375 0q-1.03125 3.09375 -2.859375 5.859375q-1.828125 2.765625 -4.828125 4.734375l-0.1875 -0.28125q1.5 -1.3125 2.953125 -3.28125q1.453125 -1.96875 2.53125 -4.453125q1.078125 -2.484375 1.921875 -6.609375l-4.3125 0l-0.75 0.84375l-1.21875 -1.3125l0.75 -0.46875q1.3125 -3.0 1.59375 -4.59375l1.875 1.03125l-0.75 0.5625q-0.9375 2.34375 -1.40625 3.375l4.3125 0zm1.6875 4.59375q1.5 3.0 3.5625 5.15625q1.78125 -2.0625 3.28125 -5.15625l-6.84375 0zm3.9375 -10.3125q2.71875 1.125 3.703125 1.921875q0.984375 0.796875 0.515625 2.015625q-0.46875 1.21875 -1.265625 -0.1875q-0.796875 -1.40625 -3.140625 -3.46875l0.1875 -0.28125zm20.0625 14.4375q0.09375 -1.6875 0.09375 -6.890625q0 -5.203125 -0.09375 -6.984375l1.3125 0.84375l6.9375 0l0.65625 -0.9375l1.40625 1.125l-0.65625 0.5625q0 9.28125 0.09375 10.78125l-1.3125 0.65625l0 -11.625l-7.125 0l0 11.90625l-1.3125 0.5625zm3.9375 -9.9375l2.25 0.9375l-0.84375 0.75q-0.09375 7.40625 -2.0625 10.3125q-1.96875 2.90625 -7.40625 5.0625l-0.1875 -0.28125q5.0625 -2.71875 6.703125 -5.765625q1.640625 -3.046875 1.546875 -11.015625zm1.59375 7.03125l1.875 0.9375l-0.65625 0.65625l0 5.4375q0 1.21875 1.03125 1.125l2.15625 0q0.5625 0 0.75 -1.265625q0.1875 -1.265625 0.375 -3.421875l0.375 0q0 1.21875 0.09375 2.8125q0.09375 1.59375 1.03125 1.78125q-0.75 1.3125 -1.96875 1.21875l-3.46875 0q-1.5 0 -1.59375 -1.78125l0 -7.5zm-14.90625 -9.375l5.8125 0l1.21875 -1.125l1.5 1.6875l-3.84375 0l0 5.90625l1.125 0l1.03125 -1.03125l1.5 1.59375l-3.65625 0l0 6.28125l3.5625 -1.3125l0.09375 0.375q-6.1875 2.90625 -7.21875 4.21875l-1.125 -1.78125q2.0625 -0.5625 3.46875 -1.125l0 -6.65625q-1.21875 0 -2.25 0.28125l-0.84375 -0.84375l3.09375 0l0 -5.90625l-0.375 0q-1.21875 0 -2.25 0.28125l-0.84375 -0.84375zm26.53125 1.6875l2.34375 1.3125l-0.84375 0.5625l0 14.90625l-1.5 0.65625q0.09375 -4.03125 0.09375 -9.5625q0 -5.53125 -0.09375 -7.875zm11.15625 14.71875q2.0625 0.1875 3.09375 0.28125q1.03125 0.09375 1.03125 -0.75l0 -15.28125l-5.15625 0q-1.21875 0 -2.25 0.28125l-0.84375 -0.84375l8.15625 0l0.75 -1.125l1.59375 1.3125l-0.84375 0.75l0 15.1875q0.09375 2.4375 -2.34375 2.90625q0 -1.6875 -3.1875 -2.34375l0 -0.375zm-9.375 -18.75q1.875 1.03125 2.671875 1.921875q0.796875 0.890625 0.046875 2.0625q-0.75 1.171875 -1.171875 -0.234375q-0.421875 -1.40625 -1.828125 -3.5625l0.28125 -0.1875zm4.03125 8.71875l0 5.53125l5.15625 0l0 -5.53125l-5.15625 0zm6.46875 4.5q0 0.9375 0.09375 2.4375l-1.40625 0.5625l0 -1.40625l-5.15625 0l0 1.21875l-1.40625 0.5625q0.09375 -2.8125 0.09375 -5.015625q0 -2.203125 -0.09375 -4.359375l1.40625 0.9375l5.0625 0l0.65625 -1.03125l1.5 1.125l-0.75 0.65625l0 4.3125zm13.125 -11.25l0 2.71875l4.40625 0l0 -2.71875l-4.40625 0zm0 3.28125l0 2.625l4.40625 0l0 -2.625l-4.40625 0zm5.625 -3.09375q0 4.3125 0.09375 6.46875l-1.3125 0.65625l0 -0.84375l-4.40625 0l0 0.5625l-1.3125 0.46875q0.09375 -2.15625 0.09375 -4.5q0 -2.34375 -0.09375 -4.3125l1.3125 0.75l4.21875 0l0.65625 -0.9375l1.40625 1.125l-0.65625 0.5625zm-6.5625 13.6875q1.03125 1.3125 2.625 2.34375l0 -7.125l-1.96875 0q-1.21875 0 -2.25 0.28125l-0.84375 -0.84375l8.25 0l1.125 -1.125l1.5 1.6875l-4.59375 0l0 3.28125l1.78125 0l1.03125 -1.03125l1.40625 1.59375l-4.21875 0l0 3.65625q1.875 0.84375 6.421875 0.890625q4.546875 0.046875 8.390625 -0.421875l0 0.375q-1.78125 0.65625 -1.78125 1.5q-7.96875 0.09375 -10.359375 -0.375q-2.390625 -0.46875 -3.796875 -1.265625q-1.40625 -0.796875 -2.90625 -2.859375q-1.125 3.375 -2.71875 5.15625l-0.28125 -0.1875q1.125 -1.96875 1.734375 -4.640625q0.609375 -2.671875 0.703125 -4.734375l1.875 0.9375q-0.75 0.28125 -1.125 2.90625zm16.875 -5.8125q0 0.75 0.09375 2.90625l-1.3125 0.65625l0 -8.25l-5.4375 0l0 7.78125l-1.3125 0.75q0.09375 -1.96875 0.09375 -4.828125q0 -2.859375 -0.09375 -5.015625l1.3125 0.75l1.21875 0q0.375 -1.40625 0.46875 -2.71875l-1.125 0q-1.21875 0 -2.25 0.28125l-0.84375 -0.84375l8.15625 0l1.125 -1.125l1.5 1.6875l-4.96875 0q-0.375 0.5625 -1.59375 2.71875l3.5625 0l0.65625 -0.84375l1.40625 1.03125l-0.65625 0.5625l0 4.5zm-4.78125 -3.28125l2.0625 1.03125l-0.75 0.65625q0 3.9375 -0.46875 5.484375q-0.46875 1.546875 -1.828125 2.859375q-1.359375 1.3125 -3.984375 2.25l-0.1875 -0.28125q2.8125 -1.5 3.890625 -3.09375q1.078125 -1.59375 1.21875 -3.890625q0.140625 -2.296875 0.046875 -5.015625zm1.125 7.3125l0.1875 -0.28125q3.65625 1.6875 4.078125 2.390625q0.421875 0.703125 0.046875 1.6875q-0.375 0.984375 -1.078125 -0.375q-0.703125 -1.359375 -3.234375 -3.421875z" fill-rule="nonzero"/><path fill="#d9d9d9" d="m192.66191 251.97824q0.375 0.375 0.375 0.9375q0 0.5625 -0.375 0.9375q-0.375 0.375 -0.9375 0.375q-0.5625 0 -0.9375 -0.375q-0.375 -0.375 -0.375 -0.9375q0 -0.5625 0.375 -0.9375q0.375 -0.375 0.9375 -0.375q0.5625 0 0.9375 0.375zm0 8.8125q0.375 0.375 0.375 0.9375q0 0.5625 -0.375 0.9375q-0.375 0.375 -0.9375 0.375q-0.5625 0 -0.9375 -0.375q-0.375 -0.375 -0.375 -0.9375q0 -0.5625 0.375 -0.9375q0.375 -0.375 0.9375 -0.375q0.5625 0 0.9375 0.375z" fill-rule="nonzero"/><path fill="#d9d9d9" d="m204.66191 251.04074q3.0 4.125 3.46875 5.390625q0.46875 1.265625 0.234375 2.109375q-0.234375 0.84375 -0.75 1.125q-0.515625 0.28125 -0.9375 -2.015625q-0.421875 -2.296875 -2.296875 -6.421875l0.28125 -0.1875zm4.6875 -0.75q2.0625 2.8125 2.859375 4.265625q0.796875 1.453125 0.65625 2.4375q-0.140625 0.984375 -0.796875 1.5q-0.65625 0.515625 -0.984375 -1.828125q-0.328125 -2.34375 -2.109375 -6.1875l0.375 -0.1875zm-7.21875 12.5625l10.875 0q1.96875 -4.96875 2.71875 -7.546875q0.75 -2.578125 1.21875 -5.109375l2.15625 1.3125q-0.65625 0.28125 -2.109375 3.75q-1.453125 3.46875 -3.328125 7.59375l3.28125 0l1.59375 -1.59375l2.15625 2.15625l-15.46875 0q-1.21875 0 -2.25 0.28125l-0.84375 -0.84375zm-0.75 -16.5l1.40625 0.9375l13.96875 0l1.5 -1.5l2.0625 2.0625l-17.53125 0q0 3.28125 -0.046875 6.328125q-0.046875 3.046875 -0.890625 5.765625q-0.84375 2.71875 -2.90625 5.34375l-0.28125 -0.1875q1.875 -3.375 2.34375 -6.5625q0.46875 -3.1875 0.46875 -6.09375q0 -2.90625 -0.09375 -6.09375zm8.25 -2.8125q2.0625 1.125 2.390625 1.6875q0.328125 0.5625 0 1.171875q-0.328125 0.609375 -0.75 0.796875q-0.421875 0.1875 -0.609375 -0.75q-0.1875 -0.9375 -1.3125 -2.71875l0.28125 -0.1875z" fill-rule="nonzero"/><path fill="#d9d9d9" d="m223.22441 264.822q-0.5625 0.28125 -0.28125 -0.28125q3.5625 -4.3125 3.5625 -9.1875l0 -11.15625l1.40625 0.84375l12.75 0l0.5625 -0.75l1.3125 0.9375q0.5625 0.46875 -0.375 0.65625l0 16.40625q0 1.125 -0.65625 1.6875q-0.5625 0.46875 -1.125 0.5625q-0.5625 0.09375 -0.5625 -0.46875q0 -0.46875 -0.46875 -0.65625l-1.6875 -0.375q-0.46875 -0.1875 0 -0.375l2.4375 0q0.84375 0 0.84375 -0.84375l0 -5.53125l-6.28125 0l0 7.6875q-1.21875 1.125 -1.21875 0.09375l0 -7.78125l-5.71875 0q-0.28125 4.6875 -4.5 8.53125zm17.71875 -14.4375l0 -4.78125l-6.28125 0l0 4.78125l6.28125 0zm-13.21875 0l5.71875 0l0 -4.78125l-5.71875 0l0 4.78125zm5.71875 5.34375l0 -4.78125l-5.71875 0l0 4.78125l5.71875 0zm1.21875 -4.78125l0 4.78125l6.28125 0l0 -4.78125l-6.28125 0z" fill-rule="nonzero"/><path fill="#d9d9d9" d="m254.53691 249.63449q0.28125 -1.5 0.515625 -3.140625q0.234375 -1.640625 0.328125 -3.046875l1.9687347 0.84375l-0.65625 0.65625q-0.65625 3.75 -0.84373474 4.6875l9.374985 0l1.3125 -1.3125l1.78125 1.875l-12.562485 0q-0.28125 1.78125 -0.75 3.46875l8.062485 0l0.65625 -1.03125l1.59375 1.40625l-0.84375 0.65625q-1.6875 3.09375 -3.84375 5.53125q3.09375 2.53125 8.0625 3.46875l0 0.28125q-1.40625 0.28125 -1.78125 1.3125q-4.40625 -1.59375 -7.03125 -4.125q-3.65625 3.09375 -9.281235 4.3125l-0.09375 -0.28125q5.8124847 -1.96875 8.531235 -4.96875q-2.0625 -2.71875 -3.2812347 -6.0l-0.84375 0q-1.03125 3.09375 -2.859375 5.859375q-1.828125 2.765625 -4.828125 4.734375l-0.1875 -0.28125q1.5 -1.3125 2.953125 -3.28125q1.453125 -1.96875 2.53125 -4.453125q1.078125 -2.484375 1.921875 -6.609375l-4.3125 0l-0.75 0.84375l-1.21875 -1.3125l0.75 -0.46875q1.3125 -3.0 1.59375 -4.59375l1.875 1.03125l-0.75 0.5625q-0.9375 2.34375 -1.40625 3.375l4.3125 0zm1.6874847 4.59375q1.5 3.0 3.5625 5.15625q1.78125 -2.0625 3.28125 -5.15625l-6.84375 0zm3.9375 -10.3125q2.71875 1.125 3.703125 1.921875q0.984375 0.796875 0.515625 2.015625q-0.46875 1.21875 -1.265625 -0.1875q-0.796875 -1.40625 -3.140625 -3.46875l0.1875 -0.28125z" fill-rule="nonzero"/><path fill="#d9d9d9" d="m270.4744 259.47824q-0.46875 0 -0.1875 -0.375q5.25 -3.84375 8.15625 -10.3125l-7.59375 0l0 -0.5625l7.78125 0q0.9375 -2.0625 1.5 -4.40625l1.6875 0.75q0.84375 0.375 -0.65625 0.84375q-0.5625 1.5 -1.21875 2.8125l9.0 0l1.40625 -1.40625l1.6875 1.3125q0.5625 0.46875 0 0.65625l-12.375 0q-0.84375 1.875 -2.0625 3.65625l0.46875 0.65625l4.21875 0l0 -3.28125l1.59375 0.28125q0.75 0.46875 -0.375 0.65625l0 2.34375l4.78125 0l0.5625 -0.75l1.3125 0.9375q0.5625 0.46875 -0.375 0.65625l0 7.3125q0 1.03125 -0.65625 1.59375q-0.375 0.375 -0.9375 0.375q-0.375 0 -0.375 -0.375q0 -0.46875 -0.5625 -0.65625l-1.21875 -0.28125q-0.375 -0.1875 0 -0.375l1.875 0q0.65625 0 0.65625 -0.65625l0 -7.21875l-5.0625 0l0 10.6875q-1.21875 1.125 -1.21875 0.09375l0 -10.78125l-4.40625 0l0 9.46875q-1.21875 1.125 -1.21875 0.09375l0 -9.28125q-2.625 3.375 -6.1875 5.53125zm27.84375 3.28125q-0.5625 -0.9375 -2.25 -2.4375q-0.46875 -0.375 0.09375 -0.375q2.25 0.65625 4.21875 2.625q0.84375 0.84375 0.84375 1.6875q0 0.5625 -0.375 0.9375q-0.28125 0.28125 -0.5625 0.28125q-0.46875 0 -0.75 -0.5625q-0.46875 -0.84375 -1.21875 -2.15625zm33.75 -3.5625q0 1.96875 -1.21875 3.0q-0.9375 0.65625 -1.5 0.65625q-0.65625 0 -0.65625 -0.65625q0 -0.375 -0.5625 -0.5625l-1.125 -0.375q-0.28125 -0.1875 0 -0.28125l0.9375 0.09375q0.9375 0.1875 1.6875 0.09375q0.5625 -0.09375 0.84375 -0.5625q0.28125 -0.75 0.28125 -1.875q0 -2.8125 -2.8125 -5.8125l1.78125 -6.09375l-3.84375 0l0 17.90625q-1.21875 1.125 -1.21875 0.09375l0 -19.21875l1.40625 0.65625l3.65625 0l0.46875 -0.65625l1.59375 1.125q0.5625 0.65625 -0.65625 0.5625l-2.625 5.625q3.5625 3.1875 3.5625 6.28125zm-12.5625 -1.59375l-5.25 0l0 4.21875l5.25 0l0 -4.21875zm-5.25 4.78125l0 2.0625q-1.21875 1.125 -1.21875 0.09375l0 -8.25l1.40625 0.75l4.875 0l0.5625 -0.65625l1.21875 0.84375q0.5625 0.46875 -0.375 0.65625l0 5.34375q-1.21875 1.125 -1.21875 0.09375l0 -0.9375l-5.25 0zm3.28125 -14.8125l3.0 0l1.21875 -1.21875l1.40625 1.125q0.5625 0.46875 0 0.65625l-12.09375 0l0 -0.5625l5.25 0l0 -3.75l1.59375 0.28125q0.75 0.46875 -0.375 0.65625l0 2.8125zm-4.5 1.125q2.25 1.6875 2.25 3.5625q0 1.03125 -0.65625 1.03125q-0.46875 0 -0.5625 -0.9375q-0.1875 -2.15625 -1.21875 -3.375q-0.28125 -0.375 0.1875 -0.28125zm-2.15625 5.25l7.125 0l1.59375 -5.15625l1.6875 0.46875q0.75 0.5625 -0.65625 0.75l-2.15625 3.9375l2.53125 0l1.21875 -1.21875l1.5 1.125q0.5625 0.46875 0 0.65625l-12.84375 0l0 -0.5625zm41.625 -2.625q-2.8125 2.34375 -4.125 3.28125l5.34375 0l1.21875 -1.21875l1.5 1.125q0.5625 0.46875 0 0.65625l-8.90625 0q-1.6875 1.21875 -3.9375 2.4375l7.3125 0l0.5625 -0.65625l1.21875 0.84375q0.65625 0.46875 -0.375 0.65625l0 6.1875q-1.21875 1.125 -1.21875 0.09375l0 -0.375l-8.53125 0l0 0.5625q-1.21875 1.125 -1.21875 0.09375l0 -6.28125q-2.8125 1.6875 -6.09375 2.53125q-0.65625 0 -0.09375 -0.375q3.09375 -1.03125 6.1875 -3.0l0 -1.125l1.21875 0.5625q2.0625 -1.21875 3.46875 -2.15625l-11.0625 0l0 -0.5625l8.34375 0l0 -2.25l-6.0 0l0 -0.5625l6.0 0l0 -2.25l1.03125 0.1875q1.59375 0.28125 0.1875 0.75l0 1.3125l2.625 0l1.125 -1.125l1.6875 1.3125q1.03125 -0.9375 1.96875 -1.96875l1.3125 0.84375q0.75 0.46875 -0.75 0.46875zm-7.96875 3.28125l2.25 0q0.84375 -0.5625 2.90625 -2.25l-5.15625 0l0 2.25zm-1.96875 3.5625l0 2.4375l8.53125 0l0 -2.4375l-8.53125 0zm0 3.0l0 2.625l8.53125 0l0 -2.625l-8.53125 0zm9.46875 -16.6875l0.5625 -0.65625l1.21875 0.84375q0.65625 0.46875 -0.375 0.65625l0 3.46875q-1.21875 1.125 -1.21875 0.09375l0 -0.375l-13.875 0l0 0.84375q-1.21875 1.125 -1.21875 0.09375l0 -5.71875l1.40625 0.75l13.5 0zm-3.75 0.5625l0 2.90625l3.9375 0l0 -2.90625l-3.9375 0zm-4.78125 0l0 2.90625l3.5625 0l0 -2.90625l-3.5625 0zm-5.15625 0l0 2.90625l3.9375 0l0 -2.90625l-3.9375 0zm23.90625 17.71875q-0.5625 -0.9375 -2.25 -2.4375q-0.46875 -0.375 0.09375 -0.375q2.25 0.65625 4.21875 2.625q0.84375 0.84375 0.84375 1.6875q0 0.5625 -0.375 0.9375q-0.28125 0.28125 -0.5625 0.28125q-0.46875 0 -0.75 -0.5625q-0.46875 -0.84375 -1.21875 -2.15625zm16.3125 -10.125q-0.46875 0 -0.75 -0.5625q-0.65625 -1.5 -2.34375 -2.15625q-0.375 -0.1875 0.09375 -0.28125q1.59375 0.09375 3.0 1.125q0.5625 0.5625 0.5625 1.21875q0 0.65625 -0.5625 0.65625zm-3.46875 10.40625l3.65625 -1.78125l0 -5.15625l-3.84375 0l0 -0.5625l3.65625 0l0.65625 -0.65625l1.21875 0.84375q0.5625 0.5625 -0.46875 0.75l0 4.6875q2.4375 1.875 8.15625 1.875l8.4375 0q-0.5625 0.1875 -1.03125 1.125l-7.3125 0q-6.09375 0 -8.8125 -2.8125l-2.53125 2.34375q0.09375 1.3125 -0.5625 0.5625l-1.21875 -1.21875zm4.96875 -15.28125q-0.46875 0 -0.9375 -0.75q-0.84375 -1.40625 -2.34375 -2.0625q-0.46875 -0.28125 0.09375 -0.28125q1.59375 0.1875 2.90625 1.03125q0.84375 0.5625 0.84375 1.3125q0 0.75 -0.5625 0.75zm10.78125 6.9375q4.40625 3.0 4.40625 6.0q0 0.84375 -0.5625 0.9375q-0.5625 0.09375 -0.84375 -1.03125q-0.28125 -0.75 -0.46875 -1.40625l-10.5 1.3125q-0.375 1.59375 -0.9375 0.28125l-0.84375 -1.40625l3.09375 -0.09375l2.0625 -7.6875l-4.96875 0l0 -0.5625l11.0625 0l1.40625 -1.40625l1.78125 1.3125q0.5625 0.46875 0 0.65625l-7.875 0l0.65625 0.375q0.46875 0.5625 -0.84375 0.5625l-2.71875 6.65625l8.4375 -0.46875q-1.125 -2.4375 -2.53125 -3.75q-0.28125 -0.46875 0.1875 -0.28125zm-8.0625 -8.8125l7.96875 0l1.40625 -1.40625l1.78125 1.3125q0.5625 0.46875 0 0.65625l-11.15625 0l0 -0.5625z" fill-rule="nonzero"/><path fill="#d9d9d9" d="m401.3494 257.322q3.09375 -0.5625 5.71875 -1.125l0.09375 0.375q-2.15625 0.5625 -4.125 1.40625q-1.96875 0.84375 -2.53125 1.5l-1.3125 -1.875q0.65625 -0.09375 1.828125 -1.3125q1.171875 -1.21875 2.765625 -3.9375q-0.84375 0.1875 -1.875 0.46875q-1.03125 0.28125 -1.78125 1.03125l-1.21875 -1.6875q0.9375 -0.1875 2.25 -3.234375q1.3125 -3.046875 1.78125 -5.015625l2.0625 1.125l-0.84375 0.375q-1.3125 2.34375 -3.84375 6.75l3.75 -0.375q1.21875 -2.4375 1.6875 -4.03125l1.6875 1.3125l-0.65625 0.375q-2.625 4.6875 -5.4375 7.875zm-1.96875 4.875q0.75 -0.1875 2.53125 -0.75q1.78125 -0.5625 5.4375 -1.78125l0.09375 0.375q-2.53125 1.125 -4.359375 2.0625q-1.828125 0.9375 -2.390625 1.78125l-1.3125 -1.6875zm10.3125 -8.4375l0 3.9375l3.9375 0l0 -3.9375l-3.9375 0zm0 4.5l0 4.3125l3.9375 0l0 -4.3125l-3.9375 0zm3.28125 -14.15625q2.71875 1.3125 2.859375 2.015625q0.140625 0.703125 -0.46875 1.453125q-0.609375 0.75 -0.9375 -0.46875q-0.328125 -1.21875 -1.640625 -2.8125l0.1875 -0.1875zm-4.59375 21.375q0.09375 -2.4375 0.09375 -14.34375q-0.75 1.5 -2.4375 3.84375l-0.28125 -0.1875q1.5 -2.71875 2.53125 -5.71875q1.03125 -3.0 1.5 -5.625l2.15625 1.21875l-0.75 0.46875q-0.46875 1.125 -1.5 3.5625l7.5 0l1.3125 -1.3125l1.59375 1.875l-5.25 0l0 3.9375l1.96875 0l1.3125 -1.3125l1.5 1.875l-4.78125 0l0 3.9375l1.875 0l1.3125 -1.21875l1.59375 1.78125l-4.78125 0l0 4.3125l2.8125 0l1.3125 -1.3125l1.59375 1.875l-10.875 0l0 1.6875l-1.3125 0.65625zm5.25 -16.21875l-3.9375 0l0 3.9375l3.9375 0l0 -3.9375z" fill-rule="nonzero"/><path fill="#d9d9d9" d="m434.63065 244.29074q1.03125 0.375 -0.46875 0.75l0 3.375l6.5625 0l0.65625 -0.84375l1.5 1.03125q0.75 0.5625 -0.65625 0.75l0 7.78125q-1.21875 1.125 -1.21875 0.09375l0 -0.9375l-6.84375 0l0 8.4375q-1.21875 1.125 -1.21875 0.09375l0 -8.53125l-6.5625 0l0 1.03125q-1.21875 1.125 -1.21875 0.09375l0 -9.84375l1.40625 0.84375l6.375 0l0 -4.40625l1.6875 0.28125zm-1.6875 4.6875l-6.5625 0l0 6.75l6.5625 0l0 -6.75zm8.0625 6.75l0 -6.75l-6.84375 0l0 6.75l6.84375 0zm19.875 1.03125q-0.5625 -1.59375 -2.15625 -3.09375q-0.28125 -0.375 0.1875 -0.28125q3.28125 1.40625 3.28125 3.375q0 0.84375 -0.65625 0.84375q-0.375 0 -0.65625 -0.84375zm-4.6875 -2.71875q2.625 -4.125 3.84375 -10.40625l1.78125 0.5625q1.3125 0.375 -0.375 0.84375l-1.59375 3.84375l6.09375 0l0.5625 -0.75l1.3125 0.9375q0.5625 0.46875 -0.375 0.65625l0 7.3125q0 4.5 -1.3125 6.09375q-0.75 0.9375 -2.15625 1.5q-1.3125 0.5625 -1.3125 -0.1875q0 -0.75 -0.46875 -0.84375l-1.6875 -0.46875q-0.46875 -0.28125 0.09375 -0.375l2.25 0.1875q0.9375 0.09375 1.875 -0.46875q1.5 -1.03125 1.5 -5.625l0 -7.40625l-6.65625 0q-1.40625 3.0 -3.0 4.78125q-0.46875 0.28125 -0.375 -0.1875zm-0.5625 8.15625q-1.21875 1.125 -1.21875 0.09375l0 -1.40625l-5.4375 0l0 2.25q-1.21875 1.125 -1.21875 0.09375l0 -15.09375l1.40625 0.75l1.3125 0l0.9375 -5.25l1.40625 0.375q1.6875 0.375 -0.28125 1.125l-1.5 3.75l3.09375 0l0.5625 -0.75l1.3125 0.9375q0.5625 0.46875 -0.375 0.65625l0 12.46875zm-1.21875 -12.75l-5.4375 0l0 4.875l5.4375 0l0 -4.875zm-5.4375 5.4375l0 5.4375l5.4375 0l0 -5.4375l-5.4375 0zm26.90625 -7.78125l0 8.25q0 6.0 -4.3125 9.375q-0.375 0.09375 -0.28125 -0.1875q3.375 -3.75 3.375 -9.09375l0 -1.03125l-2.8125 2.34375q0.09375 0.9375 -0.46875 0.46875l-0.84375 -1.59375l4.125 -1.6875l0 -8.15625l1.5 0.75l6.09375 0l0 -3.09375l1.6875 0.28125q1.03125 0.375 -0.46875 0.75l0 2.0625l5.53125 0l1.40625 -1.40625l1.78125 1.3125q0.5625 0.46875 0 0.65625l-16.3125 0zm5.4375 3.75q1.6875 0.28125 2.8125 1.125q1.5 -1.3125 2.4375 -2.34375l-9.0 0l0 -0.5625l9.0 0l0.9375 -0.75l1.40625 1.40625q0.46875 0.5625 -1.125 0.46875q-1.78125 1.125 -3.375 2.0625q0.46875 0.65625 -0.09375 1.03125l4.3125 0l0.5625 -0.75l1.3125 0.9375q0.5625 0.46875 -0.375 0.65625l0 8.8125q0 1.03125 -0.65625 1.59375q-0.375 0.375 -0.9375 0.375q-0.375 0 -0.375 -0.46875q0 -0.46875 -0.5625 -0.65625l-1.21875 -0.1875q-0.375 -0.1875 0 -0.375l1.875 0q0.65625 0 0.65625 -0.65625l0 -2.71875l-4.21875 0l0 4.40625q-1.21875 1.125 -1.21875 0.09375l0 -4.5l-4.03125 0l0 4.59375q-1.21875 1.125 -1.21875 0.09375l0 -12.1875l1.40625 0.9375l3.9375 0q-0.28125 -0.1875 -0.5625 -0.65625q-0.46875 -0.84375 -1.875 -1.5q-0.28125 -0.28125 0.1875 -0.28125zm-9.09375 -0.46875q-0.375 -1.96875 -1.40625 -3.09375q-0.1875 -0.375 0.28125 -0.1875q2.4375 1.59375 2.4375 3.1875q0 0.84375 -0.65625 0.84375q-0.5625 0 -0.65625 -0.75zm7.21875 5.8125l4.03125 0l0 -2.34375l-4.03125 0l0 2.34375zm9.46875 3.09375l0 -2.53125l-4.21875 0l0 2.53125l4.21875 0zm0 -3.09375l0 -2.34375l-4.21875 0l0 2.34375l4.21875 0zm-5.4375 0.5625l-4.03125 0l0 2.53125l4.03125 0l0 -2.53125zm19.21875 2.25q1.21875 2.25 1.21875 4.3125q0 1.3125 -1.03125 1.3125q-0.28125 0 -0.46875 -0.28125q-0.1875 -0.375 0 -1.03125q0.46875 -1.5 -0.09375 -4.125q0 -0.65625 0.375 -0.1875zm12.5625305 4.875q-0.375 0 -0.65625 -0.65625q-1.40625 -2.53125 -3.2812805 -3.84375q-0.375 -0.375 0.09375 -0.375q4.5937805 1.96875 4.5937805 4.03125q0 0.84375 -0.75 0.84375zm-6.8437805 -0.375q-0.375 -2.34375 -1.6875 -4.21875q-0.1875 -0.46875 0.28125 -0.28125q2.8125 2.625 2.8125 4.40625q0 1.03125 -0.75 1.03125q-0.5625 0 -0.65625 -0.9375zm-12.46875 -1.125q1.6875 -1.21875 1.875 -3.84375q0.28125 -0.5625 0.46875 0.09375q0.1875 3.09375 -0.75 4.5q-0.75 0.9375 -1.5 0.9375q-0.65625 0 -0.65625 -0.65625q0 -0.5625 0.5625 -1.03125zm9.28125 -15.1875l6.65625 0l1.2187805 -1.21875l1.5 1.125q0.5625 0.46875 0 0.65625l-9.3750305 0l0 3.5625l5.4375 0l0.5625 -0.75l1.3125305 0.9375q0.5625 0.46875 -0.375 0.65625l0 5.4375q-1.2187805 1.125 -1.2187805 0.09375l0 -0.5625l-10.21875 0l0 0.9375q-1.21875 1.125 -1.21875 0.09375l0 -7.6875l1.40625 0.84375l3.09375 0l0 -7.59375l1.59375 0.28125q0.75 0.46875 -0.375 0.65625l0 2.53125zm5.71875 4.6875l-10.21875 0l0 4.6875l10.21875 0l0 -4.6875z" fill-rule="nonzero"/><path fill="#cacaca" d="m58.478317 294.197q1.296875 0 2.53125 0.671875q1.25 0.671875 1.9375 1.921875q0.6875 1.234375 0.6875 2.5625q0 2.15625 -1.515625 3.671875q-1.5 1.5 -3.640625 1.5q-2.140625 0 -3.65625 -1.5q-1.5 -1.515625 -1.5 -3.671875q0 -1.34375 0.6875 -2.578125q0.6875 -1.234375 1.921875 -1.90625q1.25 -0.671875 2.546875 -0.671875z" fill-rule="nonzero"/><path fill="#cacaca" d="m107.81816 308.29074q-1.21875 1.125 -1.21875 0.09375l0 -5.4375l-4.59375 0l0 -0.5625l4.59375 0l0 -3.0l-2.625 0q-0.65625 1.40625 -1.40625 2.15625q-0.46875 0.375 -0.28125 -0.09375q1.125 -2.53125 1.78125 -5.53125l1.5 0.5625q0.46875 0.5625 -0.5625 0.46875q-0.375 0.9375 -0.84375 1.875l2.4375 0l0 -3.28125l1.6875 0.28125q1.03125 0.375 -0.46875 0.75l0 2.25l1.59375 0l1.03125 -1.03125l1.3125 0.9375q0.5625 0.46875 0 0.65625l-3.9375 0l0 3.0l2.4375 0l1.03125 -1.03125l1.3125 0.9375q0.5625 0.46875 0 0.65625l-4.78125 0l0 5.34375zm-10.59375 -21.0q0.375 0.46875 -0.75 0.5625q-0.28125 0.5625 -0.65625 1.125l2.4375 0l0.9375 -0.75l1.125 1.125q0.46875 0.5625 -0.9375 0.46875l-1.875 2.8125l1.875 0l0.5625 -0.75l1.3125 0.9375q0.5625 0.46875 -0.375 0.65625l0 12.5625q0 1.03125 -0.65625 1.59375q-0.375 0.375 -0.9375 0.375q-0.375 0 -0.375 -0.375q0 -0.46875 -0.5625 -0.65625l-1.21875 -0.28125q-0.375 -0.1875 0 -0.375l1.875 0q0.65625 0 0.65625 -0.65625l0 -4.5l-5.4375 0q-0.5625 4.3125 -3.28125 6.5625q-0.375 0.28125 -0.28125 -0.1875q2.34375 -3.1875 2.34375 -8.0625l0 -6.1875q-1.3125 1.40625 -2.34375 2.25q-0.65625 0.28125 -0.28125 -0.375q3.0 -3.0 5.0625 -8.71875l1.78125 0.84375zm-1.6875 2.25q-0.84375 1.3125 -1.6875 2.625l0.5625 0.46875l2.625 0l1.21875 -3.09375l-2.71875 0zm9.375 4.21875q-1.3125 1.5 -3.0 2.53125q-0.46875 0.1875 -0.1875 -0.28125q1.78125 -1.5 2.53125 -2.90625q0.75 -1.40625 1.03125 -3.5625l-2.90625 0l0 -0.5625l8.0625 0l0.5625 -0.75l1.21875 0.84375q0.75 0.5625 -0.65625 0.84375q-0.375 3.5625 -1.3125 4.40625q-0.75 0.65625 -1.59375 0.65625q-0.28125 0 -0.28125 -0.28125q0 -0.375 -0.46875 -0.5625l-1.03125 -0.375q-0.46875 -0.375 0.1875 -0.375q0.9375 0.09375 1.6875 0.09375q0.65625 0 1.125 -1.03125q0.28125 -0.65625 0.5625 -2.90625l-3.84375 0q-0.375 2.71875 -1.6875 4.21875zm-5.25 2.625l0 -3.1875l-2.15625 0l0 3.1875l2.15625 0zm0 4.21875l0 -3.65625l-2.15625 0l0 3.65625l2.15625 0zm-3.375 -3.65625l-2.0625 0l0 3.65625l2.0625 0l0 -3.65625zm-2.0625 -3.75l0 3.1875l2.0625 0l0 -3.1875l-2.0625 0zm33.0 5.0625q-0.75 4.875 -3.75 7.3125q-2.0625 1.6875 -4.875 2.625q-0.5625 0.1875 -0.28125 -0.375q3.75 -1.78125 5.4375 -3.9375q1.78125 -2.34375 2.15625 -5.625l-5.0625 0l0 -0.5625l5.15625 0q0.09375 -1.59375 0.09375 -3.0l0 -2.4375l-4.21875 0l0 -0.5625l4.21875 0l0 -4.125l1.125 0.1875q1.875 0.28125 0.09375 0.9375l0 3.0l3.65625 0l0.75 -0.84375l1.125 0.9375q0.84375 0.5625 -0.46875 0.75l0 5.15625l0.84375 0l1.40625 -1.40625l1.78125 1.3125q0.5625 0.46875 0 0.65625l-8.15625 0q0.84375 2.8125 2.8125 4.96875q2.15625 2.25 4.96875 3.375q-0.9375 0.46875 -1.5 1.3125q-2.71875 -1.78125 -4.6875 -4.40625q-1.59375 -2.4375 -2.15625 -5.25l-0.46875 0zm-12.65625 2.25l0 -0.375l2.34375 0l4.21875 -7.3125q0.375 -0.28125 0.375 0.1875l-3.28125 6.65625q-0.46875 0.9375 -0.1875 2.4375q0.1875 1.21875 0.28125 2.0625q0.1875 1.6875 -0.75 1.78125q-1.03125 0 -0.9375 -1.6875q0.09375 -0.75 0.1875 -1.78125q0.09375 -1.21875 -0.65625 -1.59375l-1.59375 -0.375zm12.75 -5.0625q0 1.40625 -0.09375 2.25l3.9375 0l0 -5.4375l-3.84375 0l0 3.1875zm-11.15625 -5.8125q-0.28125 -0.28125 0.1875 -0.28125q1.59375 0.46875 2.4375 1.3125q0.75 1.03125 0.5625 1.875q-0.65625 1.125 -1.3125 0q-0.1875 -0.65625 -0.46875 -1.40625q-0.46875 -0.75 -1.40625 -1.5zm23.71875 16.6875q-0.5625 0 -0.5625 -0.65625q0 -0.5625 0.375 -1.03125q1.59375 -1.6875 1.78125 -3.75q0.1875 -0.46875 0.375 0q0.28125 3.09375 -0.5625 4.5q-0.5625 0.9375 -1.40625 0.9375zm16.125 -8.53125l-12.28125 0l0 1.03125q-1.21875 1.125 -1.21875 0.09375l0 -12.0l1.40625 0.9375l11.8125 0l0.65625 -0.84375l1.5 1.03125q0.75 0.5625 -0.65625 0.75l0 9.46875q-1.21875 1.125 -1.21875 0.09375l0 -0.5625zm-5.53125 -0.5625l5.53125 0l0 -3.9375l-5.53125 0l0 3.9375zm0 -4.5l5.53125 0l0 -4.3125l-5.53125 0l0 4.3125zm-6.75 0l5.53125 0l0 -4.3125l-5.53125 0l0 4.3125zm5.53125 4.5l0 -3.9375l-5.53125 0l0 3.9375l5.53125 0zm9.75 4.6875q1.6875 1.125 1.6875 2.4375q0 0.75 -0.46875 0.75q-0.65625 0 -1.40625 -1.5q-1.03125 -1.59375 -2.625 -2.4375q-0.375 -0.375 0.09375 -0.375q1.5 0.375 2.71875 1.125zm-10.03125 -2.8125q3.375 1.03125 3.375 3.09375q0 0.75 -0.75 0.75q-0.46875 0 -0.65625 -0.75q-0.375 -1.59375 -2.0625 -2.8125q-0.28125 -0.28125 0.09375 -0.28125zm-2.53125 8.4375q-1.125 0 -1.125 -1.125l0 -6.65625l1.6875 0.28125q1.03125 0.375 -0.46875 0.75l0 5.25q0 0.375 0.375 0.375l7.125 0q0.9375 0 1.03125 -0.65625l0.5625 -2.90625q0.1875 -0.1875 0.28125 0l0 2.90625q0 0.46875 0.375 0.65625q0.65625 0.28125 0 0.84375q-0.28125 0.28125 -1.6875 0.28125l-8.15625 0zm32.25 -12.375q3.0 2.53125 6.09375 3.1875q-1.03125 0.46875 -1.21875 1.3125q-3.28125 -1.59375 -5.53125 -3.84375q-2.8125 3.0 -6.46875 4.78125q-0.5625 0.09375 -0.1875 -0.375q3.1875 -2.0625 6.0 -5.15625q-1.125 -1.3125 -2.25 -3.5625q-1.125 1.875 -3.09375 3.75q-0.65625 0.375 -0.375 -0.1875q3.375 -4.40625 4.40625 -8.4375l1.03125 0.46875q1.40625 0.65625 -0.09375 0.84375q-0.375 0.75 -0.75 1.40625l4.40625 0l0.75 -0.75l0.84375 0.5625q1.6875 1.125 0 1.125q-1.5 2.4375 -3.5625 4.875zm-2.71875 -5.25q-0.28125 0.5625 -0.5625 1.125q1.21875 2.15625 2.4375 3.375q1.78125 -2.0625 3.09375 -4.5l-4.96875 0zm-11.25 15.75l0 -7.96875l1.03125 0.1875q1.59375 0.28125 0.1875 0.75l0 6.75l1.6875 -0.46875l0 -10.125l-2.15625 0l0 0.9375q-1.21875 1.125 -1.21875 0.09375l0 -7.6875l1.40625 0.75l3.75 0l0.5625 -0.75l1.3125 0.9375q0.65625 0.46875 -0.375 0.65625l0 5.625q-1.21875 1.125 -1.21875 0.09375l0 -0.65625l-0.84375 0l0 3.5625l1.21875 0l1.03125 -1.03125l1.40625 0.9375q0.5625 0.46875 0 0.65625l-3.65625 0l0 5.625l3.375 -0.9375q0.75 0.1875 0.09375 0.46875l-7.5 2.71875q-0.28125 1.5 -1.03125 0.375l-0.75 -1.125l1.6875 -0.375zm16.03125 -5.15625l0.5625 -0.75l1.3125 0.9375q0.65625 0.46875 -0.375 0.65625l0 5.71875q-1.21875 1.125 -1.21875 0.09375l0 -0.9375l-5.8125 0l0 1.3125q-1.21875 1.125 -1.21875 0.09375l0 -7.6875l1.40625 0.5625l5.34375 0zm-5.53125 5.15625l5.8125 0l0 -4.59375l-5.8125 0l0 4.59375zm-9.75 -11.4375l4.21875 0l0 -4.78125l-4.21875 0l0 4.78125zm27.1875 0.75q0.375 0.375 0.375 0.9375q0 0.5625 -0.375 0.9375q-0.375 0.375 -0.9375 0.375q-0.5625 0 -0.9375 -0.375q-0.375 -0.375 -0.375 -0.9375q0 -0.5625 0.375 -0.9375q0.375 -0.375 0.9375 -0.375q0.5625 0 0.9375 0.375zm0 8.8125q0.375 0.375 0.375 0.9375q0 0.5625 -0.375 0.9375q-0.375 0.375 -0.9375 0.375q-0.5625 0 -0.9375 -0.375q-0.375 -0.375 -0.375 -0.9375q0 -0.5625 0.375 -0.9375q0.375 -0.375 0.9375 -0.375q0.5625 0 0.9375 0.375zm24.0 -8.90625l-4.40625 0l0 3.46875l4.40625 0l0 -3.46875zm-0.28125 -0.5625l0.5625 -0.75l1.3125 0.9375q0.5625 0.46875 -0.375 0.65625l0 4.5q-1.21875 1.125 -1.21875 0.09375l0 -0.84375l-4.5 0q-0.09375 2.25 -1.40625 4.5q3.46875 2.4375 10.125 2.8125q-1.3125 0.5625 -1.78125 1.59375q-5.53125 -1.03125 -8.8125 -3.65625q-2.4375 2.71875 -6.65625 3.75q-0.375 -0.09375 -0.09375 -0.375q4.125 -1.5 5.90625 -4.03125q-1.125 -1.125 -1.96875 -3.0l0.46875 -0.28125q0.84375 1.6875 1.96875 2.625q1.03125 -1.59375 1.03125 -3.9375l-4.03125 0l0 1.03125q-1.21875 1.125 -1.21875 0.09375l0 -6.65625l1.40625 0.9375l3.9375 0l0 -2.90625l-6.09375 0l0 -0.5625l6.09375 0l0 -4.03125l1.6875 0.28125q1.03125 0.375 -0.46875 0.75l0 3.0l4.96875 0l1.40625 -1.40625l1.78125 1.3125q0.5625 0.46875 0 0.65625l-8.15625 0l0 2.90625l4.125 0zm-9.46875 4.03125l4.125 0l0 -3.46875l-4.125 0l0 3.46875zm-2.625 -10.03125q-1.03125 2.8125 -1.875 4.78125l0.9375 0.28125q0.84375 0.375 -0.46875 0.84375l0 13.21875q-1.21875 1.125 -1.21875 0.09375l0 -12.5625q-1.59375 2.53125 -3.09375 4.03125q-0.5625 0.375 -0.28125 -0.28125q3.65625 -5.34375 4.78125 -11.90625l1.78125 0.75q1.21875 0.5625 -0.5625 0.75zm18.9375 19.5q-0.5625 0.28125 -0.28125 -0.28125q3.5625 -4.3125 3.5625 -9.1875l0 -11.15625l1.40625 0.84375l12.75 0l0.5625 -0.75l1.3125 0.9375q0.5625 0.46875 -0.375 0.65625l0 16.40625q0 1.125 -0.65625 1.6875q-0.5625 0.46875 -1.125 0.5625q-0.5625 0.09375 -0.5625 -0.46875q0 -0.46875 -0.46875 -0.65625l-1.6875 -0.375q-0.46875 -0.1875 0 -0.375l2.4375 0q0.84375 0 0.84375 -0.84375l0 -5.53125l-6.28125 0l0 7.6875q-1.21875 1.125 -1.21875 0.09375l0 -7.78125l-5.71875 0q-0.28125 4.6875 -4.5 8.53125zm17.71875 -14.4375l0 -4.78125l-6.28125 0l0 4.78125l6.28125 0zm-13.21875 0l5.71875 0l0 -4.78125l-5.71875 0l0 4.78125zm5.71875 5.34375l0 -4.78125l-5.71875 0l0 4.78125l5.71875 0zm1.21875 -4.78125l0 4.78125l6.28125 0l0 -4.78125l-6.28125 0z" fill-rule="nonzero"/><path fill="#cacaca" d="m259.06815 306.21262q-1.515625 -0.078125 -3.296875 -0.078125q-1.765625 0 -3.28125 0.078125l-0.0625 -0.703125q1.21875 -0.234375 1.640625 -0.421875q0.4375 -0.203125 0.484375 -0.609375q0.203125 -1.421875 0.203125 -5.140625q0 -6.015625 -0.15625 -7.5l-0.046875 -0.484375q-0.046875 -0.4375 -0.4375 -0.609375q-0.375 -0.1875 -1.53125 -0.421875l0.078125 -0.703125q1.515625 0.078125 3.171875 0.078125q1.65625 0 3.15625 -0.078125l0.078125 0.703125q-1.15625 0.234375 -1.546875 0.421875q-0.375 0.171875 -0.421875 0.609375q-0.1875 1.34375 -0.1875 6.015625l6.328125 -6.0625q0.09375 -0.078125 0.09375 -0.171875q0 -0.453125 -1.765625 -0.8125l0.0625 -0.703125q1.515625 0.078125 2.96875 0.078125q1.453125 0 2.96875 -0.078125l0.0625 0.703125q-1.921875 0.375 -2.734375 1.15625l-5.15625 4.890625l6.671875 8.734375q0.546875 0.28125 2.0 0.40625l-0.078125 0.703125l-4.015625 0.140625l-6.140625 -8.515625l-1.265625 1.1875q0 3.765625 0.140625 5.046875l0.046875 0.40625q0.046875 0.4375 0.453125 0.625q0.40625 0.171875 1.59375 0.40625l-0.078125 0.703125zm13.844574 0.140625q-2.4375 0 -2.4375 -2.5l0 -3.21875q0 -3.21875 -0.171875 -4.0l-1.421875 -0.453125l-0.046875 -0.625q1.421875 0 3.046875 -0.4375l0.453125 0.21875q-0.0625 4.296875 -0.0625 7.796875q0 1.609375 1.9375 1.609375q0.8125 0 1.75 -0.265625q0.9375 -0.28125 1.5 -0.625q0.09375 -1.296875 0.09375 -3.046875q0 -3.265625 -0.203125 -4.171875l-1.5 -0.453125l-0.046875 -0.625q1.53125 0 3.15625 -0.4375l0.453125 0.21875q-0.0625 1.796875 -0.0625 5.953125l0.0625 2.796875q0 0.421875 0.328125 0.65625q0.328125 0.21875 0.640625 0.28125q0.3125 0.046875 0.859375 0.078125l-0.0625 0.6875q-0.875 0.078125 -2.625 0.4375q-0.71875 -0.3125 -0.984375 -1.4375q-2.296875 1.5625 -4.65625 1.5625zm14.715576 -1.109375q1.734375 0 2.734375 -1.40625q1.015625 -1.40625 1.015625 -3.15625q0 -1.765625 -0.875 -2.9375q-0.859375 -1.1875 -2.421875 -1.1875q-1.171875 0 -2.6875 0.765625q0 5.78125 0.21875 7.515625q1.0625 0.40625 2.015625 0.40625zm-2.234375 -8.75q2.0 -1.375 3.859375 -1.375q1.859375 0 3.046875 1.625q1.203125 1.609375 1.203125 3.890625q0 2.28125 -1.5625 4.015625q-1.546875 1.71875 -4.546875 1.71875q-2.0 0 -3.984375 -0.828125q0.1875 -2.125 0.1875 -6.5625q0 -7.21875 -0.140625 -8.4375l-0.046875 -0.421875l-1.546875 -0.453125l-0.046875 -0.625q1.546875 0 3.171875 -0.421875l0.453125 0.21875q-0.046875 2.65625 -0.046875 7.65625zm17.207733 1.953125q0 -1.09375 -0.625 -1.625q-0.625 -0.546875 -1.390625 -0.546875q-1.125 0 -1.9375 0.890625q-0.8125 0.875 -1.078125 2.171875l4.96875 -0.1875q0.0625 -0.359375 0.0625 -0.703125zm-2.078125 7.90625q-2.546875 0 -3.84375 -1.453125q-1.296875 -1.453125 -1.296875 -3.859375q0 -2.421875 1.421875 -4.1875q1.4375 -1.765625 4.3125 -1.765625q1.46875 0 2.546875 1.046875q1.09375 1.03125 1.09375 3.0625l-0.8125 0.984375q-0.140625 -0.015625 -2.265625 -0.015625q-2.125 0 -4.265625 0.15625l0 0.21875q0 2.1875 0.90625 3.28125q0.921875 1.09375 2.5 1.09375q1.59375 0 3.34375 -0.765625l0.28125 0.71875q-1.84375 1.484375 -3.921875 1.484375zm12.64093 -11.40625q0.1875 0 0.625 0.5625q0.453125 0.5625 0.59375 1.125l-0.359375 0.453125q-0.859375 -0.34375 -1.796875 -0.34375q-0.9375 0 -1.703125 0.78125q-0.765625 0.78125 -0.765625 2.515625q0.015625 4.21875 0.21875 4.921875q0.015625 0.1875 0.671875 0.34375q0.671875 0.15625 1.390625 0.203125l-0.078125 0.703125q-1.15625 -0.078125 -2.921875 -0.078125q-1.75 0 -2.90625 0.078125l0.078125 -0.703125q0.46875 -0.046875 1.0 -0.203125q0.53125 -0.15625 0.546875 -0.328125q0.203125 -0.828125 0.203125 -3.359375q0 -4.078125 -0.203125 -4.984375l-1.53125 -0.453125l-0.046875 -0.625q1.53125 0 3.171875 -0.4375l0.453125 0.21875q-0.046875 0.359375 -0.046875 1.96875q0.6875 -1.15625 1.75 -1.75q1.078125 -0.609375 1.65625 -0.609375zm5.5479736 2.375l-0.03125 3.3125q0 3.09375 0.1875 4.03125l0.0625 0.3125q0.015625 0.171875 0.53125 0.328125q0.515625 0.15625 1.0 0.203125l-0.078125 0.703125q-1.140625 -0.078125 -2.640625 -0.078125q-1.484375 0 -2.640625 0.078125l0.078125 -0.703125q0.453125 -0.046875 0.96875 -0.203125q0.515625 -0.15625 0.546875 -0.328125q0.1875 -0.828125 0.1875 -3.359375q0 -4.078125 -0.1875 -4.984375l-1.546875 -0.453125l-0.046875 -0.625q1.546875 0 3.171875 -0.4375l0.453125 0.21875l0 1.15625q2.671875 -1.40625 4.640625 -1.40625q1.203125 0 1.8125 0.484375q0.625 0.484375 0.625 1.796875l0 3.265625q0 3.09375 0.171875 4.03125l0.078125 0.3125q0.015625 0.171875 0.53125 0.328125q0.515625 0.15625 1.0 0.203125l-0.078125 0.703125q-1.140625 -0.078125 -2.640625 -0.078125q-1.484375 0 -2.625 0.078125l0.0625 -0.703125q0.453125 -0.046875 0.96875 -0.203125q0.515625 -0.15625 0.546875 -0.328125q0.1875 -0.828125 0.1875 -4.34375l0 -2.328125q0 -0.9375 -0.546875 -1.296875q-0.546875 -0.359375 -1.875 -0.359375q-1.3125 0 -2.875 0.671875zm17.393097 1.125q0 -1.09375 -0.625 -1.625q-0.625 -0.546875 -1.390625 -0.546875q-1.125 0 -1.9375 0.890625q-0.8125 0.875 -1.078125 2.171875l4.96875 -0.1875q0.0625 -0.359375 0.0625 -0.703125zm-2.078125 7.90625q-2.546875 0 -3.84375 -1.453125q-1.296875 -1.453125 -1.296875 -3.859375q0 -2.421875 1.421875 -4.1875q1.4375 -1.765625 4.3125 -1.765625q1.46875 0 2.546875 1.046875q1.09375 1.03125 1.09375 3.0625l-0.8125 0.984375q-0.140625 -0.015625 -2.265625 -0.015625q-2.125 0 -4.265625 0.15625l0 0.21875q0 2.1875 0.90625 3.28125q0.921875 1.09375 2.5 1.09375q1.59375 0 3.34375 -0.765625l0.28125 0.71875q-1.84375 1.484375 -3.921875 1.484375zm9.672211 0q-2.5 0 -2.5 -2.40625q0.015625 -2.109375 0.015625 -3.875q0 -1.765625 -0.046875 -3.6875l-1.53125 0.03125l-0.078125 -0.265625l0.5625 -0.9375q0.328125 0.078125 1.0 0.09375l-0.09375 -2.203125l1.578125 -1.421875l0.46875 0.21875q-0.046875 1.78125 -0.046875 3.390625l3.515625 -0.03125l0.125 0.296875l-0.859375 0.953125q-0.828125 -0.09375 -2.78125 -0.125l0 3.21875q0 3.0 0.0625 4.296875q0.078125 1.078125 1.28125 1.078125q0.953125 0 2.109375 -0.546875l0.28125 0.796875q-1.703125 1.125 -3.0625 1.125zm11.269836 -7.90625q0 -1.09375 -0.625 -1.625q-0.625 -0.546875 -1.390625 -0.546875q-1.125 0 -1.9375 0.890625q-0.8125 0.875 -1.078125 2.171875l4.96875 -0.1875q0.0625 -0.359375 0.0625 -0.703125zm-2.078125 7.90625q-2.546875 0 -3.84375 -1.453125q-1.296875 -1.453125 -1.296875 -3.859375q0 -2.421875 1.421875 -4.1875q1.4375 -1.765625 4.3125 -1.765625q1.46875 0 2.546875 1.046875q1.09375 1.03125 1.09375 3.0625l-0.8125 0.984375q-0.140625 -0.015625 -2.265625 -0.015625q-2.125 0 -4.265625 0.15625l0 0.21875q0 2.1875 0.90625 3.28125q0.921875 1.09375 2.5 1.09375q1.59375 0 3.34375 -0.765625l0.28125 0.71875q-1.84375 1.484375 -3.921875 1.484375zm12.422241 -10.828125l0.34375 0.171875q0 1.5625 0.140625 2.375l-0.625 0.21875q-0.3125 -1.234375 -0.875 -1.703125q-0.5625 -0.484375 -1.4375 -0.484375q-0.859375 0 -1.359375 0.453125q-0.5 0.453125 -0.5 1.078125q0 1.078125 1.25 1.78125l2.4375 1.34375q1.59375 0.890625 1.59375 2.5625q0 1.234375 -0.984375 2.140625q-0.96875 0.890625 -2.765625 0.890625q-1.796875 0 -3.703125 -0.609375q0.296875 -1.671875 0.296875 -2.75l0.625 -0.21875q0.21875 0.859375 0.3125 1.171875q0.109375 0.3125 0.390625 0.78125q0.28125 0.453125 0.703125 0.59375q0.4375 0.140625 1.28125 0.140625q0.84375 0 1.390625 -0.46875q0.546875 -0.484375 0.546875 -1.15625q0 -1.015625 -1.125 -1.640625l-2.59375 -1.4375q-1.578125 -0.84375 -1.578125 -2.5625q0 -1.234375 0.9375 -2.171875q0.9375 -0.9375 2.609375 -0.9375q1.6875 0 2.6875 0.4375z" fill-rule="nonzero"/><path fill="#cacaca" d="m391.13776 308.29074q-1.21875 1.125 -1.21875 0.09375l0 -5.4375l-4.59375 0l0 -0.5625l4.59375 0l0 -3.0l-2.625 0q-0.65625 1.40625 -1.40625 2.15625q-0.46875 0.375 -0.28125 -0.09375q1.125 -2.53125 1.78125 -5.53125l1.5 0.5625q0.46875 0.5625 -0.5625 0.46875q-0.375 0.9375 -0.84375 1.875l2.4375 0l0 -3.28125l1.6875 0.28125q1.03125 0.375 -0.46875 0.75l0 2.25l1.59375 0l1.03125 -1.03125l1.3125 0.9375q0.5625 0.46875 0 0.65625l-3.9375 0l0 3.0l2.4375 0l1.03125 -1.03125l1.3125 0.9375q0.5625 0.46875 0 0.65625l-4.78125 0l0 5.34375zm-10.59375 -21.0q0.375 0.46875 -0.75 0.5625q-0.28125 0.5625 -0.65625 1.125l2.4375 0l0.9375 -0.75l1.125 1.125q0.46875 0.5625 -0.9375 0.46875l-1.875 2.8125l1.875 0l0.5625 -0.75l1.3125 0.9375q0.5625 0.46875 -0.375 0.65625l0 12.5625q0 1.03125 -0.65625 1.59375q-0.375 0.375 -0.9375 0.375q-0.375 0 -0.375 -0.375q0 -0.46875 -0.5625 -0.65625l-1.21875 -0.28125q-0.375 -0.1875 0 -0.375l1.875 0q0.65625 0 0.65625 -0.65625l0 -4.5l-5.4375 0q-0.5625 4.3125 -3.28125 6.5625q-0.375 0.28125 -0.28125 -0.1875q2.34375 -3.1875 2.34375 -8.0625l0 -6.1875q-1.3125 1.40625 -2.34375 2.25q-0.65625 0.28125 -0.28125 -0.375q3.0 -3.0 5.0625 -8.71875l1.78125 0.84375zm-1.6875 2.25q-0.84375 1.3125 -1.6875 2.625l0.5625 0.46875l2.625 0l1.21875 -3.09375l-2.71875 0zm9.375 4.21875q-1.3125 1.5 -3.0 2.53125q-0.46875 0.1875 -0.1875 -0.28125q1.78125 -1.5 2.53125 -2.90625q0.75 -1.40625 1.03125 -3.5625l-2.90625 0l0 -0.5625l8.0625 0l0.5625 -0.75l1.21875 0.84375q0.75 0.5625 -0.65625 0.84375q-0.375 3.5625 -1.3125 4.40625q-0.75 0.65625 -1.59375 0.65625q-0.28125 0 -0.28125 -0.28125q0 -0.375 -0.46875 -0.5625l-1.03125 -0.375q-0.46875 -0.375 0.1875 -0.375q0.9375 0.09375 1.6875 0.09375q0.65625 0 1.125 -1.03125q0.28125 -0.65625 0.5625 -2.90625l-3.84375 0q-0.375 2.71875 -1.6875 4.21875zm-5.25 2.625l0 -3.1875l-2.15625 0l0 3.1875l2.15625 0zm0 4.21875l0 -3.65625l-2.15625 0l0 3.65625l2.15625 0zm-3.375 -3.65625l-2.0625 0l0 3.65625l2.0625 0l0 -3.65625zm-2.0625 -3.75l0 3.1875l2.0625 0l0 -3.1875l-2.0625 0zm33.0 5.0625q-0.75 4.875 -3.75 7.3125q-2.0625 1.6875 -4.875 2.625q-0.5625 0.1875 -0.28125 -0.375q3.75 -1.78125 5.4375 -3.9375q1.78125 -2.34375 2.15625 -5.625l-5.0625 0l0 -0.5625l5.15625 0q0.09375 -1.59375 0.09375 -3.0l0 -2.4375l-4.21875 0l0 -0.5625l4.21875 0l0 -4.125l1.125 0.1875q1.875 0.28125 0.09375 0.9375l0 3.0l3.65625 0l0.75 -0.84375l1.125 0.9375q0.84375 0.5625 -0.46875 0.75l0 5.15625l0.84375 0l1.40625 -1.40625l1.78125 1.3125q0.5625 0.46875 0 0.65625l-8.15625 0q0.84375 2.8125 2.8125 4.96875q2.15625 2.25 4.96875 3.375q-0.9375 0.46875 -1.5 1.3125q-2.71875 -1.78125 -4.6875 -4.40625q-1.59375 -2.4375 -2.15625 -5.25l-0.46875 0zm-12.65625 2.25l0 -0.375l2.34375 0l4.21875 -7.3125q0.375 -0.28125 0.375 0.1875l-3.28125 6.65625q-0.46875 0.9375 -0.1875 2.4375q0.1875 1.21875 0.28125 2.0625q0.1875 1.6875 -0.75 1.78125q-1.03125 0 -0.9375 -1.6875q0.09375 -0.75 0.1875 -1.78125q0.09375 -1.21875 -0.65625 -1.59375l-1.59375 -0.375zm12.75 -5.0625q0 1.40625 -0.09375 2.25l3.9375 0l0 -5.4375l-3.84375 0l0 3.1875zm-11.15625 -5.8125q-0.28125 -0.28125 0.1875 -0.28125q1.59375 0.46875 2.4375 1.3125q0.75 1.03125 0.5625 1.875q-0.65625 1.125 -1.3125 0q-0.1875 -0.65625 -0.46875 -1.40625q-0.46875 -0.75 -1.40625 -1.5z" fill-rule="nonzero"/><path fill="#cacaca" d="m433.51276 287.0095l0.1875 -0.1875q2.0625 1.03125 2.53125 1.59375q0.46875 0.5625 0.28125 1.171875q-0.1875 0.609375 -0.65625 1.03125q-0.46875 0.421875 -0.75 -0.703125q-0.28125 -1.125 -1.59375 -2.90625zm-4.5 4.59375l11.34375 0l1.40625 -1.5l1.6875 2.0625l-4.03125 0q-0.84375 3.375 -2.4375 6.1875q2.4375 1.875 3.46875 2.90625q1.03125 1.03125 0.796875 2.015625q-0.234375 0.984375 -0.515625 1.078125q-0.28125 0.09375 -0.796875 -0.796875q-0.515625 -0.890625 -1.6875 -2.203125q-1.171875 -1.3125 -2.015625 -2.0625q-3.0 3.375 -7.03125 4.96875l-0.1875 -0.28125q4.40625 -2.8125 6.28125 -5.53125q-2.25 -2.15625 -4.59375 -3.84375l0.1875 -0.28125q3.375 1.96875 5.0625 3.28125q1.5 -2.8125 1.96875 -5.4375l-6.28125 0q-0.75 0 -1.78125 0.28125l-0.84375 -0.84375zm-4.96875 -4.59375l0.1875 -0.1875q1.6875 0.9375 2.390625 1.59375q0.703125 0.65625 0.609375 1.40625q-0.09375 0.75 -0.703125 1.265625q-0.609375 0.515625 -0.890625 -0.796875q-0.28125 -1.3125 -1.59375 -3.28125zm3.1875 16.03125q0.84375 0.9375 2.34375 1.78125q1.5 0.84375 4.40625 0.984375q2.90625 0.140625 5.4375 0.046875q2.53125 -0.09375 4.59375 -0.28125l0 0.375q-1.96875 0.46875 -1.96875 1.59375q-4.125 0 -6.796875 -0.1875q-2.671875 -0.1875 -4.453125 -0.890625q-1.78125 -0.703125 -2.765625 -1.6875q-0.984375 -0.984375 -1.453125 -1.125q-0.46875 -0.140625 -1.59375 0.9375q-1.125 1.078125 -1.5 1.828125l-1.40625 -1.40625q1.78125 -1.21875 3.9375 -2.0625l0 -7.78125l-0.84375 0q-1.21875 0 -2.25 0.28125l-0.84375 -0.84375l3.75 0l0.65625 -1.03125l1.59375 1.21875l-0.84375 0.75l0 7.5z" fill-rule="nonzero"/><path fill="#cacaca" d="m459.38776 297.79074q0 0.375 0.375 0.375l5.0625 0q0.9375 0 1.125 -0.84375l0.65625 -2.8125q0.1875 -0.1875 0.28125 0l0 2.90625q0 0.46875 0.375 0.75q0.5625 0.46875 -0.09375 0.84375q-0.46875 0.28125 -1.40625 0.28125l-6.46875 0q-1.125 0 -1.125 -1.125l0 -10.96875l1.59375 0.28125q0.75 0.46875 -0.375 0.65625l0 5.34375l5.53125 -3.84375l1.40625 0.9375q0.75 0.75 -1.03125 0.46875l-5.90625 2.90625l0 3.84375zm-6.09375 -5.53125l2.0625 0l0.9375 -0.9375l1.3125 1.03125q0.28125 0.375 -0.1875 0.46875l-4.125 0l0 4.21875l3.5625 -0.75q0.65625 0 0.28125 0.375l-9.84375 2.71875q-0.375 1.03125 -0.75 0.46875l-1.03125 -1.5l2.71875 -0.375l0 -8.71875l1.59375 0.28125q0.75 0.46875 -0.375 0.65625l0 7.59375l2.625 -0.46875l0 -10.03125l1.59375 0.28125q0.75 0.46875 -0.375 0.65625l0 4.03125zm-4.03125 10.03125l0 -0.5625l12.375 0l1.03125 -1.03125l1.3125 0.9375q0.5625 0.46875 0 0.65625l-14.71875 0zm-2.8125 4.40625l0 -0.5625l17.90625 0l1.21875 -1.21875l1.59375 1.125q0.5625 0.46875 0 0.65625l-20.71875 0z" fill-rule="nonzero"/><path fill="#cacaca" d="m472.70026 290.7595l2.34375 1.3125l-0.84375 0.5625l0 14.90625l-1.5 0.65625q0.09375 -4.03125 0.09375 -9.5625q0 -5.53125 -0.09375 -7.875zm11.15625 14.71875q2.0625 0.1875 3.09375 0.28125q1.03125 0.09375 1.03125 -0.75l0 -15.28125l-5.15625 0q-1.21875 0 -2.25 0.28125l-0.84375 -0.84375l8.15625 0l0.75 -1.125l1.59375 1.3125l-0.84375 0.75l0 15.1875q0.09375 2.4375 -2.34375 2.90625q0 -1.6875 -3.1875 -2.34375l0 -0.375zm-9.375 -18.75q1.875 1.03125 2.671875 1.921875q0.796875 0.890625 0.046875 2.0625q-0.75 1.171875 -1.171875 -0.234375q-0.421875 -1.40625 -1.828125 -3.5625l0.28125 -0.1875zm4.03125 8.71875l0 5.53125l5.15625 0l0 -5.53125l-5.15625 0zm6.46875 4.5q0 0.9375 0.09375 2.4375l-1.40625 0.5625l0 -1.40625l-5.15625 0l0 1.21875l-1.40625 0.5625q0.09375 -2.8125 0.09375 -5.015625q0 -2.203125 -0.09375 -4.359375l1.40625 0.9375l5.0625 0l0.65625 -1.03125l1.5 1.125l-0.75 0.65625l0 4.3125zm13.125 -11.25l0 2.71875l4.40625 0l0 -2.71875l-4.40625 0zm0 3.28125l0 2.625l4.40625 0l0 -2.625l-4.40625 0zm5.625 -3.09375q0 4.3125 0.09375 6.46875l-1.3125 0.65625l0 -0.84375l-4.40625 0l0 0.5625l-1.3125 0.46875q0.09375 -2.15625 0.09375 -4.5q0 -2.34375 -0.09375 -4.3125l1.3125 0.75l4.21875 0l0.65625 -0.9375l1.40625 1.125l-0.65625 0.5625zm-6.5625 13.6875q1.03125 1.3125 2.625 2.34375l0 -7.125l-1.96875 0q-1.21875 0 -2.25 0.28125l-0.84375 -0.84375l8.25 0l1.125 -1.125l1.5 1.6875l-4.59375 0l0 3.28125l1.78125 0l1.03125 -1.03125l1.40625 1.59375l-4.21875 0l0 3.65625q1.875 0.84375 6.421875 0.890625q4.546875 0.046875 8.390625 -0.421875l0 0.375q-1.78125 0.65625 -1.78125 1.5q-7.96875 0.09375 -10.359375 -0.375q-2.390625 -0.46875 -3.796875 -1.265625q-1.40625 -0.796875 -2.90625 -2.859375q-1.125 3.375 -2.71875 5.15625l-0.28125 -0.1875q1.125 -1.96875 1.734375 -4.640625q0.609375 -2.671875 0.703125 -4.734375l1.875 0.9375q-0.75 0.28125 -1.125 2.90625zm16.875 -5.8125q0 0.75 0.09375 2.90625l-1.3125 0.65625l0 -8.25l-5.4375 0l0 7.78125l-1.3125 0.75q0.09375 -1.96875 0.09375 -4.828125q0 -2.859375 -0.09375 -5.015625l1.3125 0.75l1.21875 0q0.375 -1.40625 0.46875 -2.71875l-1.125 0q-1.21875 0 -2.25 0.28125l-0.84375 -0.84375l8.15625 0l1.125 -1.125l1.5 1.6875l-4.96875 0q-0.375 0.5625 -1.59375 2.71875l3.5625 0l0.65625 -0.84375l1.40625 1.03125l-0.65625 0.5625l0 4.5zm-4.78125 -3.28125l2.0625 1.03125l-0.75 0.65625q0 3.9375 -0.46875 5.484375q-0.46875 1.546875 -1.828125 2.859375q-1.359375 1.3125 -3.984375 2.25l-0.1875 -0.28125q2.8125 -1.5 3.890625 -3.09375q1.078125 -1.59375 1.21875 -3.890625q0.140625 -2.296875 0.046875 -5.015625zm1.125 7.3125l0.1875 -0.28125q3.65625 1.6875 4.078125 2.390625q0.421875 0.703125 0.046875 1.6875q-0.375 0.984375 -1.078125 -0.375q-0.703125 -1.359375 -3.234375 -3.421875z" fill-rule="nonzero"/><path fill="#cacaca" d="m532.32526 299.7595q-0.5625 -1.59375 -2.15625 -3.09375q-0.28125 -0.375 0.1875 -0.28125q3.28125 1.40625 3.28125 3.375q0 0.84375 -0.65625 0.84375q-0.375 0 -0.65625 -0.84375zm-4.6875 -2.71875q2.625 -4.125 3.84375 -10.40625l1.78125 0.5625q1.3125 0.375 -0.375 0.84375l-1.59375 3.84375l6.09375 0l0.5625 -0.75l1.3125 0.9375q0.5625 0.46875 -0.375 0.65625l0 7.3125q0 4.5 -1.3125 6.09375q-0.75 0.9375 -2.15625 1.5q-1.3125 0.5625 -1.3125 -0.1875q0 -0.75 -0.46875 -0.84375l-1.6875 -0.46875q-0.46875 -0.28125 0.09375 -0.375l2.25 0.1875q0.9375 0.09375 1.875 -0.46875q1.5 -1.03125 1.5 -5.625l0 -7.40625l-6.65625 0q-1.40625 3.0 -3.0 4.78125q-0.46875 0.28125 -0.375 -0.1875zm-0.5625 8.15625q-1.21875 1.125 -1.21875 0.09375l0 -1.40625l-5.4375 0l0 2.25q-1.21875 1.125 -1.21875 0.09375l0 -15.09375l1.40625 0.75l1.3125 0l0.9375 -5.25l1.40625 0.375q1.6875 0.375 -0.28125 1.125l-1.5 3.75l3.09375 0l0.5625 -0.75l1.3125 0.9375q0.5625 0.46875 -0.375 0.65625l0 12.46875zm-1.21875 -12.75l-5.4375 0l0 4.875l5.4375 0l0 -4.875zm-5.4375 5.4375l0 5.4375l5.4375 0l0 -5.4375l-5.4375 0z" fill-rule="nonzero"/><path fill="#cacaca" d="m548.3565 292.54074q2.34375 0.84375 2.953125 1.59375q0.609375 0.75 0.046875 1.875q-0.5625 1.125 -1.171875 -0.328125q-0.609375 -1.453125 -2.015625 -2.859375l0.1875 -0.28125zm6.09375 8.625q-0.28125 0.84375 -0.5625 1.5q4.59375 1.40625 6.234375 2.25q1.640625 0.84375 1.59375 2.484375q-0.046875 1.640625 -1.6875 -0.140625q-1.640625 -1.78125 -6.328125 -4.125q-1.3125 2.34375 -4.03125 3.5625q-2.71875 1.21875 -7.03125 1.78125l0 -0.375q3.9375 -0.75 6.65625 -2.34375q2.71875 -1.59375 3.75 -4.59375l-7.40625 0q-1.21875 0 -2.25 0.28125l-0.84375 -0.84375l10.59375 0q0.375 -1.78125 0.5625 -4.125q0.1875 -2.34375 0.1875 -4.21875l2.34375 1.125l-0.75 0.65625q-0.375 3.46875 -0.84375 6.5625l5.8125 0l1.40625 -1.40625l1.96875 1.96875l-9.375 0zm-8.625 -5.15625q2.625 1.03125 3.234375 1.828125q0.609375 0.796875 0.046875 1.875q-0.5625 1.078125 -1.171875 -0.328125q-0.609375 -1.40625 -2.296875 -3.09375l0.1875 -0.28125zm5.53125 -9.46875l0.28125 -0.1875q1.5 0.65625 2.484375 1.546875q0.984375 0.890625 0.09375 2.0625q-0.890625 1.171875 -1.21875 -0.28125q-0.328125 -1.453125 -1.640625 -3.140625zm8.34375 7.5l1.40625 -2.625l-15.65625 0q0.1875 1.5 -0.1875 2.34375q-0.375 0.84375 -1.546875 0.75q-1.171875 -0.09375 -0.09375 -1.40625q1.078125 -1.3125 1.359375 -3.375l0.375 0l0.09375 1.125l15.46875 0l1.03125 -1.03125l1.78125 2.0625q-1.59375 -0.09375 -3.75 2.34375l-0.28125 -0.1875zm15.84375 7.3125q0.09375 -1.6875 0.09375 -6.890625q0 -5.203125 -0.09375 -6.984375l1.3125 0.84375l6.9375 0l0.65625 -0.9375l1.40625 1.125l-0.65625 0.5625q0 9.28125 0.09375 10.78125l-1.3125 0.65625l0 -11.625l-7.125 0l0 11.90625l-1.3125 0.5625zm3.9375 -9.9375l2.25 0.9375l-0.84375 0.75q-0.09375 7.40625 -2.0625 10.3125q-1.96875 2.90625 -7.40625 5.0625l-0.1875 -0.28125q5.0625 -2.71875 6.703125 -5.765625q1.640625 -3.046875 1.546875 -11.015625zm1.59375 7.03125l1.875 0.9375l-0.65625 0.65625l0 5.4375q0 1.21875 1.03125 1.125l2.15625 0q0.5625 0 0.75 -1.265625q0.1875 -1.265625 0.375 -3.421875l0.375 0q0 1.21875 0.09375 2.8125q0.09375 1.59375 1.03125 1.78125q-0.75 1.3125 -1.96875 1.21875l-3.46875 0q-1.5 0 -1.59375 -1.78125l0 -7.5zm-14.90625 -9.375l5.8125 0l1.21875 -1.125l1.5 1.6875l-3.84375 0l0 5.90625l1.125 0l1.03125 -1.03125l1.5 1.59375l-3.65625 0l0 6.28125l3.5625 -1.3125l0.09375 0.375q-6.1875 2.90625 -7.21875 4.21875l-1.125 -1.78125q2.0625 -0.5625 3.46875 -1.125l0 -6.65625q-1.21875 0 -2.25 0.28125l-0.84375 -0.84375l3.09375 0l0 -5.90625l-0.375 0q-1.21875 0 -2.25 0.28125l-0.84375 -0.84375zm26.34375 10.6875q3.5625 -0.46875 6.09375 -0.9375l0 0.375q-5.25 1.3125 -6.65625 2.53125l-1.21875 -2.15625q0.65625 -0.09375 1.59375 -0.9375q0.9375 -0.84375 3.1875 -4.125q-1.21875 0.28125 -2.4375 0.65625q-1.21875 0.375 -1.96875 1.03125l-1.03125 -1.875q1.03125 -0.28125 2.390625 -2.859375q1.359375 -2.578125 1.921875 -4.734375l1.875 1.125q-0.75 0.375 -1.828125 2.15625q-1.078125 1.78125 -2.859375 4.40625l4.21875 -0.375q0.75 -1.21875 1.6875 -3.46875l1.59375 1.3125q-0.84375 0.5625 -2.25 2.53125q-1.40625 1.96875 -4.3125 5.34375zm-2.34375 5.15625q3.65625 -0.5625 8.25 -1.78125l0.09375 0.375q-3.0 1.03125 -4.96875 1.875q-1.96875 0.84375 -2.25 1.40625l-1.125 -1.875zm10.59375 -14.625l0 7.03125l3.65625 0l0 -7.03125l-3.65625 0zm4.96875 0l0 7.03125l3.65625 0l0 -7.03125l-3.65625 0zm-6.28125 -1.5l1.3125 0.9375l8.53125 0l0.75 -1.03125l1.5 1.21875l-0.84375 0.65625l0 15.28125q0 0.75 0.09375 1.59375l-1.40625 0.65625l0 -2.25l-8.625 0l0 1.78125l-1.3125 0.5625q0.09375 -3.09375 0.09375 -10.40625q0 -7.3125 -0.09375 -9.0zm6.28125 9.09375l0 7.40625l3.65625 0l0 -7.40625l-3.65625 0zm-4.96875 0l0 7.40625l3.65625 0l0 -7.40625l-3.65625 0zm26.0625 4.78125q2.90625 0.375 3.5625 0.375q0.65625 0 0.65625 -0.75l0 -6.46875l-6.5625 0l0 8.71875q0 1.6875 0.09375 3.09375l-1.5 0.84375q0.09375 -2.15625 0.09375 -4.125l0 -8.53125l-4.125 0q-1.21875 0 -2.25 0.28125l-0.84375 -0.84375l14.8125 0l1.03125 -1.03125l1.40625 1.3125l-0.75 0.65625l0 6.46875q0 0.9375 -0.375 1.5q-0.375 0.5625 -1.59375 1.125q-0.65625 -1.59375 -3.65625 -2.15625l0 -0.46875zm1.125 -12.09375q0 -2.0625 -0.09375 -3.75l2.25 1.125l-0.84375 0.5625l0 2.0625l2.90625 0l1.6875 -1.5l1.96875 2.0625l-6.5625 0q0 1.3125 0.09375 2.34375l-1.40625 0.65625l0 -3.0l-5.34375 0l0 2.53125l-1.40625 0.75q0.09375 -1.6875 0.09375 -3.28125l-4.21875 0q-1.21875 0 -2.25 0.28125l-0.84375 -0.84375l7.3125 0q0 -2.15625 -0.09375 -3.65625l2.15625 1.03125l-0.75 0.65625l0 1.96875l5.34375 0z" fill-rule="nonzero"/><path fill="#d9d9d9" d="m58.478317 337.197q1.296875 0 2.53125 0.671875q1.25 0.671875 1.9375 1.921875q0.6875 1.234375 0.6875 2.5625q0 2.15625 -1.515625 3.671875q-1.5 1.5 -3.640625 1.5q-2.140625 0 -3.65625 -1.5q-1.5 -1.515625 -1.5 -3.671875q0 -1.34375 0.6875 -2.578125q0.6875 -1.234375 1.921875 -1.90625q1.25 -0.671875 2.546875 -0.671875z" fill-rule="nonzero"/><path fill="#d9d9d9" d="m104.44316 340.22824q1.3125 -1.5 2.34375 -3.28125l-4.78125 0l-0.28125 0.5625q1.125 1.5 2.71875 2.71875zm-8.53125 5.53125q4.78125 -1.59375 7.96875 -4.96875q-1.03125 -0.9375 -2.4375 -2.8125q-1.21875 2.34375 -3.84375 4.5q-0.46875 0.1875 -0.28125 -0.28125q3.09375 -3.28125 4.21875 -7.6875l1.5 0.46875q0.75 0.46875 -0.375 0.65625l-0.375 0.75l4.5 0l0.65625 -0.65625l1.40625 0.9375q0.375 0.375 -0.65625 0.5625q-1.40625 2.15625 -2.8125 3.5625q2.625 2.15625 7.6875 3.0q-1.21875 0.65625 -1.59375 1.40625q-3.46875 -0.9375 -6.84375 -3.65625q-3.1875 3.1875 -8.53125 4.59375q-0.65625 0 -0.1875 -0.375zm-4.6875 -0.46875l0 -0.375l2.53125 0l3.84375 -8.25q0.5625 -0.46875 0.46875 0.1875l-3.28125 7.96875q-0.28125 0.75 -0.28125 1.59375q0.1875 1.5 0.375 2.0625q0.28125 1.125 0 1.875q-0.28125 0.46875 -0.75 0.46875q-0.5625 0 -0.75 -0.65625q-0.1875 -0.65625 0 -1.78125q0.09375 -0.9375 0.09375 -1.78125q0 -0.9375 -0.84375 -1.125l-1.40625 -0.1875zm3.5625 -8.25q-0.5625 -1.21875 -1.96875 -2.0625q-0.28125 -0.28125 0.1875 -0.28125q3.09375 0.84375 3.09375 2.25q0 0.75 -0.65625 0.75q-0.375 0 -0.65625 -0.65625zm-3.46875 1.3125q2.71875 0.9375 2.71875 2.4375q0 0.75 -0.5625 0.75q-0.46875 0 -0.65625 -0.5625q-0.28125 -1.21875 -1.59375 -2.34375q-0.28125 -0.28125 0.09375 -0.28125zm10.6875 7.03125l0 3.5625l5.34375 0l0 -3.5625l-5.34375 0zm6.9375 -0.375q0.5625 0.46875 -0.375 0.65625l0 4.5q-1.21875 1.125 -1.21875 0.09375l0 -0.75l-5.34375 0l0 1.03125q-1.21875 1.125 -1.21875 0.09375l0 -6.1875l1.40625 0.375l4.875 0l0.5625 -0.75l1.3125 0.9375zm-11.0625 -12.28125l0 -2.90625l1.59375 0.28125q0.75 0.46875 -0.375 0.65625l0 1.96875l4.875 0l0 -2.90625l1.59375 0.28125q0.75 0.46875 -0.375 0.65625l0 1.96875l4.03125 0l1.40625 -1.40625l1.78125 1.3125q0.5625 0.46875 0 0.65625l-7.21875 0l0 1.78125q-1.21875 1.125 -1.21875 0.09375l0 -1.875l-4.875 0l0 2.0625q-1.21875 1.125 -1.21875 0.09375l0 -2.15625l-6.65625 0l0 -0.5625l6.65625 0zm24.09375 9.28125l-0.375 -0.5625l3.0 -1.6875l0 -7.5l1.6875 0.28125q1.03125 0.375 -0.46875 0.75l0 5.8125l3.0 -1.6875l0 -7.03125l1.6875 0.28125q1.03125 0.375 -0.46875 0.75l0 5.34375l3.375 -1.96875l0.46875 -1.03125l1.6875 0.75q0.75 0.5625 -0.65625 0.75l0 7.21875q0 1.03125 -0.65625 1.59375q-0.375 0.375 -0.9375 0.375q-0.375 0 -0.375 -0.375q0 -0.46875 -0.5625 -0.65625l-1.21875 -0.28125q-0.375 -0.1875 0 -0.375l1.875 0q0.65625 0 0.65625 -0.65625l0 -6.65625l-3.65625 2.0625l0 8.625q-1.21875 1.125 -1.21875 0.09375l0 -8.0625l-3.0 1.6875l0 8.8125q0 0.375 0.375 0.375l7.875 0q0.9375 0 1.125 -0.9375l0.65625 -3.5625q0.1875 -0.1875 0.28125 0l0 3.75q0 0.46875 0.375 0.75q0.5625 0.46875 -0.09375 0.84375q-0.46875 0.28125 -1.40625 0.28125l-9.28125 0q-1.125 0 -1.125 -1.125l0 -8.53125l-2.625 1.5zm0.1875 -5.71875l1.5 1.03125q0.5625 0.46875 0 0.65625l-3.9375 0l0 8.0625l3.1875 -0.84375q0.84375 0 0.1875 0.375l-6.375 2.4375q-0.375 1.59375 -0.84375 0.65625l-0.75 -1.5l3.375 -0.75l0 -8.4375l-3.09375 0l0 -0.5625l3.09375 0l0 -6.65625l1.59375 0.28125q0.75 0.46875 -0.375 0.65625l0 5.71875l1.3125 0l1.125 -1.125z" fill-rule="nonzero"/><path fill="#d9d9d9" d="m145.03691 335.54074q2.34375 0.84375 2.953125 1.59375q0.609375 0.75 0.046875 1.875q-0.5625 1.125 -1.171875 -0.328125q-0.609375 -1.453125 -2.015625 -2.859375l0.1875 -0.28125zm6.09375 8.625q-0.28125 0.84375 -0.5625 1.5q4.59375 1.40625 6.234375 2.25q1.640625 0.84375 1.59375 2.484375q-0.046875 1.640625 -1.6875 -0.140625q-1.640625 -1.78125 -6.328125 -4.125q-1.3125 2.34375 -4.03125 3.5625q-2.71875 1.21875 -7.03125 1.78125l0 -0.375q3.9375 -0.75 6.65625 -2.34375q2.71875 -1.59375 3.75 -4.59375l-7.40625 0q-1.21875 0 -2.25 0.28125l-0.84375 -0.84375l10.59375 0q0.375 -1.78125 0.5625 -4.125q0.1875 -2.34375 0.1875 -4.21875l2.34375 1.125l-0.75 0.65625q-0.375 3.46875 -0.84375 6.5625l5.8125 0l1.40625 -1.40625l1.96875 1.96875l-9.375 0zm-8.625 -5.15625q2.625 1.03125 3.234375 1.828125q0.609375 0.796875 0.046875 1.875q-0.5625 1.078125 -1.171875 -0.328125q-0.609375 -1.40625 -2.296875 -3.09375l0.1875 -0.28125zm5.53125 -9.46875l0.28125 -0.1875q1.5 0.65625 2.484375 1.546875q0.984375 0.890625 0.09375 2.0625q-0.890625 1.171875 -1.21875 -0.28125q-0.328125 -1.453125 -1.640625 -3.140625zm8.34375 7.5l1.40625 -2.625l-15.65625 0q0.1875 1.5 -0.1875 2.34375q-0.375 0.84375 -1.546875 0.75q-1.171875 -0.09375 -0.09375 -1.40625q1.078125 -1.3125 1.359375 -3.375l0.375 0l0.09375 1.125l15.46875 0l1.03125 -1.03125l1.78125 2.0625q-1.59375 -0.09375 -3.75 2.34375l-0.28125 -0.1875z" fill-rule="nonzero"/><path fill="#d9d9d9" d="m178.41191 331.1345q2.90625 0.28125 2.90625 1.78125q0 0.46875 -0.46875 0.5625q-0.375 0 -0.9375 -0.84375q-0.84375 -0.75 -1.6875 -1.21875q-0.28125 -0.28125 0.1875 -0.28125zm2.625 18.65625q-1.3125 -0.9375 -2.25 -2.15625q-2.90625 2.25 -7.5 3.375q-0.46875 0 -0.1875 -0.375q4.59375 -1.6875 7.03125 -3.84375q-0.9375 -1.78125 -1.5 -3.9375l-4.875 0.5625l-0.09375 -0.5625l4.78125 -0.5625q-0.28125 -1.40625 -0.5625 -3.28125l-3.75 0.375l-0.09375 -0.5625l3.75 -0.375q-0.1875 -1.59375 -0.28125 -3.28125l-4.03125 0.28125l-0.09375 -0.5625l4.125 -0.28125q-0.09375 -2.8125 -0.09375 -4.78125l1.78125 0.1875q0.84375 0.375 -0.5625 0.75q0 1.40625 0.09375 3.75l4.6875 -0.46875l0.9375 -1.3125l1.875 1.125q0.28125 0.375 -0.1875 0.46875l-7.3125 0.75q0.09375 1.59375 0.28125 3.1875l4.125 -0.46875l0.9375 -1.3125l1.875 1.125q0.28125 0.375 -0.1875 0.46875l-6.65625 0.75q0.28125 1.96875 0.5625 3.28125l4.5 -0.5625l0.9375 -1.3125l1.875 1.125q0.28125 0.375 -0.1875 0.46875l-6.9375 0.84375q0.5625 2.0625 1.3125 3.1875q1.21875 -0.84375 2.90625 -3.1875l1.3125 1.3125q0.46875 0.65625 -1.03125 0.46875q-1.78125 1.78125 -2.625 2.34375q0.84375 1.125 1.59375 1.59375q0.65625 0.46875 1.21875 0.5625q0.5625 0.09375 0.84375 -0.5625l0.84375 -2.4375q0.46875 -0.375 0.46875 0.1875l-0.5625 2.34375q-0.1875 1.03125 0.28125 1.875q0.1875 0.46875 -0.84375 0.46875q-1.03125 0 -2.53125 -1.03125zm-12.75 -7.78125l1.5 0l1.03125 -1.03125l1.3125 0.9375q0.5625 0.46875 0 0.65625l-3.84375 0l0 5.0625l4.78125 -1.40625q0.46875 0 0.1875 0.375l-8.53125 3.375q-0.1875 1.03125 -0.65625 0.5625l-1.21875 -1.59375l1.3125 -0.28125l0 -7.875l1.59375 0.28125q0.75 0.28125 -0.375 0.65625l0 6.65625l1.6875 -0.46875l0 -9.75l-1.59375 0l0 0.75q-1.21875 1.125 -1.21875 0.09375l0 -8.0625l1.40625 0.84375l3.375 0l0.5625 -0.75l1.3125 0.9375q0.5625 0.46875 -0.375 0.65625l0 5.90625q-1.21875 1.125 -1.21875 0.09375l0 -0.46875l-1.03125 0l0 3.84375zm-2.8125 -9.65625l0 5.25l3.84375 0l0 -5.25l-3.84375 0zm27.1875 5.625q0.375 0.375 0.375 0.9375q0 0.5625 -0.375 0.9375q-0.375 0.375 -0.9375 0.375q-0.5625 0 -0.9375 -0.375q-0.375 -0.375 -0.375 -0.9375q0 -0.5625 0.375 -0.9375q0.375 -0.375 0.9375 -0.375q0.5625 0 0.9375 0.375zm0 8.8125q0.375 0.375 0.375 0.9375q0 0.5625 -0.375 0.9375q-0.375 0.375 -0.9375 0.375q-0.5625 0 -0.9375 -0.375q-0.375 -0.375 -0.375 -0.9375q0 -0.5625 0.375 -0.9375q0.375 -0.375 0.9375 -0.375q0.5625 0 0.9375 0.375zm19.59375 -6.09375l-5.0625 0q-0.28125 7.6875 -6.84375 10.40625q-0.5625 0.09375 -0.28125 -0.28125q5.71875 -3.375 5.90625 -10.125l-6.28125 0l0 -0.5625l6.375 0l0 -7.40625l-5.4375 0l0 -0.5625l15.1875 0l1.21875 -1.21875l1.59375 1.125q0.9375 0.65625 0 0.65625l-5.15625 0l0 7.40625l3.65625 0l1.21875 -1.21875l1.59375 1.125q0.84375 0.65625 0 0.65625l-6.46875 0l0 10.03125q-1.21875 1.125 -1.21875 0.09375l0 -10.125zm-4.96875 -7.96875l0 7.40625l4.96875 0l0 -7.40625l-4.96875 0z" fill-rule="nonzero"/><path fill="#d9d9d9" d="m230.53691 335.6345q0.28125 -1.5 0.515625 -3.140625q0.234375 -1.640625 0.328125 -3.046875l1.96875 0.84375l-0.65625 0.65625q-0.65625 3.75 -0.84375 4.6875l9.375 0l1.3125 -1.3125l1.78125 1.875l-12.5625 0q-0.28125 1.78125 -0.75 3.46875l8.0625 0l0.65625 -1.03125l1.59375 1.40625l-0.84375 0.65625q-1.6875 3.09375 -3.84375 5.53125q3.09375 2.53125 8.0625 3.46875l0 0.28125q-1.40625 0.28125 -1.78125 1.3125q-4.40625 -1.59375 -7.03125 -4.125q-3.65625 3.09375 -9.28125 4.3125l-0.09375 -0.28125q5.8125 -1.96875 8.53125 -4.96875q-2.0625 -2.71875 -3.28125 -6.0l-0.84375 0q-1.03125 3.09375 -2.859375 5.859375q-1.828125 2.765625 -4.828125 4.734375l-0.1875 -0.28125q1.5 -1.3125 2.953125 -3.28125q1.453125 -1.96875 2.53125 -4.453125q1.078125 -2.484375 1.921875 -6.609375l-4.3125 0l-0.75 0.84375l-1.21875 -1.3125l0.75 -0.46875q1.3125 -3.0 1.59375 -4.59375l1.875 1.03125l-0.75 0.5625q-0.9375 2.34375 -1.40625 3.375l4.3125 0zm1.6875 4.59375q1.5 3.0 3.5625 5.15625q1.78125 -2.0625 3.28125 -5.15625l-6.84375 0zm3.9375 -10.3125q2.71875 1.125 3.703125 1.921875q0.984375 0.796875 0.515625 2.015625q-0.46875 1.21875 -1.265625 -0.1875q-0.796875 -1.40625 -3.140625 -3.46875l0.1875 -0.28125z" fill-rule="nonzero"/><path fill="#d9d9d9" d="m250.31816 348.7595q-0.5625 -0.9375 -2.25 -2.4375q-0.46875 -0.375 0.09375 -0.375q2.25 0.65625 4.21875 2.625q0.84375 0.84375 0.84375 1.6875q0 0.5625 -0.375 0.9375q-0.28125 0.28125 -0.5625 0.28125q-0.46875 0 -0.75 -0.5625q-0.46875 -0.84375 -1.21875 -2.15625zm16.312485 -10.125q-0.46875 0 -0.75 -0.5625q-0.65625 -1.5 -2.34375 -2.15625q-0.375 -0.1875 0.09375 -0.28125q1.59375 0.09375 3.0 1.125q0.5625 0.5625 0.5625 1.21875q0 0.65625 -0.5625 0.65625zm-3.46875 10.40625l3.65625 -1.78125l0 -5.15625l-3.84375 0l0 -0.5625l3.65625 0l0.65625 -0.65625l1.21875 0.84375q0.5625 0.5625 -0.46875 0.75l0 4.6875q2.4375 1.875 8.15625 1.875l8.4375 0q-0.5625 0.1875 -1.03125 1.125l-7.3125 0q-6.09375 0 -8.8125 -2.8125l-2.53125 2.34375q0.09375 1.3125 -0.5625 0.5625l-1.21875 -1.21875zm4.96875 -15.28125q-0.46875 0 -0.9375 -0.75q-0.84375 -1.40625 -2.34375 -2.0625q-0.46875 -0.28125 0.09375 -0.28125q1.59375 0.1875 2.90625 1.03125q0.84375 0.5625 0.84375 1.3125q0 0.75 -0.5625 0.75zm10.78125 6.9375q4.40625 3.0 4.40625 6.0q0 0.84375 -0.5625 0.9375q-0.5625 0.09375 -0.84375 -1.03125q-0.28125 -0.75 -0.46875 -1.40625l-10.5 1.3125q-0.375 1.59375 -0.9375 0.28125l-0.84375 -1.40625l3.09375 -0.09375l2.0625 -7.6875l-4.96875 0l0 -0.5625l11.0625 0l1.40625 -1.40625l1.78125 1.3125q0.5625 0.46875 0 0.65625l-7.875 0l0.65625 0.375q0.46875 0.5625 -0.84375 0.5625l-2.71875 6.65625l8.4375 -0.46875q-1.125 -2.4375 -2.53125 -3.75q-0.28125 -0.46875 0.1875 -0.28125zm-8.0625 -8.8125l7.96875 0l1.40625 -1.40625l1.78125 1.3125q0.5625 0.46875 0 0.65625l-11.15625 0l0 -0.5625z" fill-rule="nonzero"/><path fill="#d9d9d9" d="m289.4119 343.322q3.09375 -0.5625 5.71875 -1.125l0.09375 0.375q-2.15625 0.5625 -4.125 1.40625q-1.96875 0.84375 -2.53125 1.5l-1.3125 -1.875q0.65625 -0.09375 1.828125 -1.3125q1.171875 -1.21875 2.765625 -3.9375q-0.84375 0.1875 -1.875 0.46875q-1.03125 0.28125 -1.78125 1.03125l-1.21875 -1.6875q0.9375 -0.1875 2.25 -3.234375q1.3125 -3.046875 1.78125 -5.015625l2.0625 1.125l-0.84375 0.375q-1.3125 2.34375 -3.84375 6.75l3.75 -0.375q1.21875 -2.4375 1.6875 -4.03125l1.6875 1.3125l-0.65625 0.375q-2.625 4.6875 -5.4375 7.875zm-1.96875 4.875q0.75 -0.1875 2.53125 -0.75q1.78125 -0.5625 5.4375 -1.78125l0.09375 0.375q-2.53125 1.125 -4.359375 2.0625q-1.828125 0.9375 -2.390625 1.78125l-1.3125 -1.6875zm10.3125 -8.4375l0 3.9375l3.9375 0l0 -3.9375l-3.9375 0zm0 4.5l0 4.3125l3.9375 0l0 -4.3125l-3.9375 0zm3.28125 -14.15625q2.71875 1.3125 2.859375 2.015625q0.140625 0.703125 -0.46875 1.453125q-0.609375 0.75 -0.9375 -0.46875q-0.328125 -1.21875 -1.640625 -2.8125l0.1875 -0.1875zm-4.59375 21.375q0.09375 -2.4375 0.09375 -14.34375q-0.75 1.5 -2.4375 3.84375l-0.28125 -0.1875q1.5 -2.71875 2.53125 -5.71875q1.03125 -3.0 1.5 -5.625l2.15625 1.21875l-0.75 0.46875q-0.46875 1.125 -1.5 3.5625l7.5 0l1.3125 -1.3125l1.59375 1.875l-5.25 0l0 3.9375l1.96875 0l1.3125 -1.3125l1.5 1.875l-4.78125 0l0 3.9375l1.875 0l1.3125 -1.21875l1.59375 1.78125l-4.78125 0l0 4.3125l2.8125 0l1.3125 -1.3125l1.59375 1.875l-10.875 0l0 1.6875l-1.3125 0.65625zm5.25 -16.21875l-3.9375 0l0 3.9375l3.9375 0l0 -3.9375z" fill-rule="nonzero"/><path fill="#d9d9d9" d="m314.1619 340.22824q-1.6875 3.46875 -3.75 5.25q-0.375 0.28125 -0.375 -0.1875q3.375 -4.40625 4.125 -9.46875l-3.46875 0l0 -0.5625l3.46875 0l0 -5.4375l1.59375 0.28125q0.75 0.46875 -0.375 0.65625l0 4.5l1.21875 0l1.125 -1.125l1.40625 1.03125q0.5625 0.46875 0 0.65625l-3.75 0l0 3.46875q3.0 0.84375 3.0 2.34375q0 0.65625 -0.5625 0.65625q-0.375 0 -0.65625 -0.65625q-0.65625 -1.21875 -1.78125 -1.96875l0 11.15625q-1.21875 1.125 -1.21875 0.09375l0 -10.6875zm10.3125 5.625q-0.9375 4.59375 -7.5 5.4375q-0.46875 0 -0.1875 -0.375q5.625 -1.125 6.5625 -5.0625l-5.625 0l0 -0.5625l5.71875 0q0.1875 -0.9375 0.375 -2.34375l-2.71875 0l0 0.75q-1.21875 1.125 -1.21875 0.09375l0 -8.15625l1.40625 0.84375l6.65625 0l0.5625 -0.75l1.3125 0.9375q0.5625 0.46875 -0.375 0.65625l0 6.1875q-1.21875 1.125 -1.21875 0.09375l0 -0.65625l-3.28125 0q-0.1875 1.5 -0.375 2.34375l5.4375 0l1.21875 -1.21875l1.5 1.125q0.5625 0.46875 0 0.65625l-7.3125 0q2.25 3.5625 7.21875 4.21875q-1.03125 0.375 -1.59375 1.125q-4.59375 -1.5 -6.28125 -5.34375l-0.28125 0zm1.5 -12.46875l-2.90625 0l0 1.78125q-1.21875 1.125 -1.21875 0.09375l0 -1.875l-3.75 0l0 -0.5625l3.75 0l0 -3.0l1.59375 0.28125q0.75 0.46875 -0.375 0.65625l0 2.0625l2.90625 0l0 -3.0l1.59375 0.28125q0.75 0.46875 -0.375 0.65625l0 2.0625l2.625 0l1.21875 -1.21875l1.5 1.125q0.5625 0.46875 0 0.65625l-5.34375 0l0 1.6875q-1.21875 1.125 -1.21875 0.09375l0 -1.78125zm-4.875 6.0l7.125 0l0 -2.34375l-7.125 0l0 2.34375zm0 3.0l7.125 0l0 -2.4375l-7.125 0l0 2.4375zm29.0625 -11.34375q2.625 0.65625 2.625 1.96875q0 0.5625 -0.5625 0.5625q-0.46875 0 -0.65625 -0.5625q-0.5625 -0.9375 -1.59375 -1.6875q-0.28125 -0.28125 0.1875 -0.28125zm-2.4375 3.84375q0.46875 7.59375 4.40625 11.53125q1.6875 1.6875 2.71875 1.6875q0.46875 0 0.5625 -0.375l1.03125 -3.09375q0.375 -0.5625 0.46875 0.1875l-0.5625 3.5625q0 0.46875 0.46875 0.84375q0.28125 0.1875 0.28125 0.46875q0 0.46875 -0.75 0.46875q-2.53125 0 -5.15625 -2.625q-4.3125 -4.3125 -4.6875 -12.65625l-11.4375 0l0 -0.5625l11.4375 0q-0.09375 -3.46875 -0.09375 -4.59375l1.6875 0.28125q1.125 0.1875 -0.46875 0.75q0 0.5625 0.09375 3.5625l5.625 0l1.40625 -1.40625l1.78125 1.3125q0.5625 0.46875 0 0.65625l-8.8125 0zm-6.5625 11.25q2.71875 -0.5625 5.53125 -1.3125q0.5625 0.1875 0.09375 0.46875q-4.78125 1.59375 -9.65625 3.09375q-0.1875 1.21875 -0.75 0.46875l-1.21875 -1.6875q2.4375 -0.375 4.78125 -0.84375l0 -6.1875l-4.78125 0l0 -0.5625l7.875 0l1.21875 -1.21875l1.5 1.125q0.5625 0.46875 0 0.65625l-4.59375 0l0 6.0zm31.78125 -3.375q-0.5625 -1.59375 -2.15625 -3.09375q-0.28125 -0.375 0.1875 -0.28125q3.28125 1.40625 3.28125 3.375q0 0.84375 -0.65625 0.84375q-0.375 0 -0.65625 -0.84375zm-4.6875 -2.71875q2.625 -4.125 3.84375 -10.40625l1.78125 0.5625q1.3125 0.375 -0.375 0.84375l-1.59375 3.84375l6.09375 0l0.5625 -0.75l1.3125 0.9375q0.5625 0.46875 -0.375 0.65625l0 7.3125q0 4.5 -1.3125 6.09375q-0.75 0.9375 -2.15625 1.5q-1.3125 0.5625 -1.3125 -0.1875q0 -0.75 -0.46875 -0.84375l-1.6875 -0.46875q-0.46875 -0.28125 0.09375 -0.375l2.25 0.1875q0.9375 0.09375 1.875 -0.46875q1.5 -1.03125 1.5 -5.625l0 -7.40625l-6.65625 0q-1.40625 3.0 -3.0 4.78125q-0.46875 0.28125 -0.375 -0.1875zm-0.5625 8.15625q-1.21875 1.125 -1.21875 0.09375l0 -1.40625l-5.4375 0l0 2.25q-1.21875 1.125 -1.21875 0.09375l0 -15.09375l1.40625 0.75l1.3125 0l0.9375 -5.25l1.40625 0.375q1.6875 0.375 -0.28125 1.125l-1.5 3.75l3.09375 0l0.5625 -0.75l1.3125 0.9375q0.5625 0.46875 -0.375 0.65625l0 12.46875zm-1.21875 -12.75l-5.4375 0l0 4.875l5.4375 0l0 -4.875zm-5.4375 5.4375l0 5.4375l5.4375 0l0 -5.4375l-5.4375 0zm33.75 -4.3125q0.75 5.34375 2.53125 7.875q2.0625 -2.90625 2.8125 -7.875l-5.34375 0zm-4.03125 4.59375q3.46875 -4.5 5.25 -11.34375l1.96875 0.84375q0.375 0.65625 -0.75 0.5625q-0.84375 2.625 -2.0625 4.78125l6.5625 0l1.21875 -1.21875l1.5 1.125q0.5625 0.46875 0 0.65625l-2.8125 0q-1.125 5.34375 -3.5625 8.8125q2.71875 2.4375 6.46875 3.9375q-1.21875 0.375 -1.59375 1.125q-3.1875 -1.59375 -5.625 -4.125q-3.28125 3.46875 -9.09375 4.96875q-0.75 -0.09375 -0.09375 -0.46875q5.15625 -1.875 8.53125 -5.34375q-2.15625 -3.75 -2.34375 -8.25q-1.5 2.53125 -3.375 4.21875q-0.46875 0.1875 -0.1875 -0.28125zm-5.71875 5.53125q0 0.375 0.375 0.375l4.125 0q1.03125 0 1.21875 -0.9375l0.5625 -2.71875q0.1875 -0.1875 0.28125 0l0 2.90625q0 0.46875 0.375 0.75q0.5625 0.46875 -0.09375 0.84375q-0.46875 0.28125 -1.40625 0.28125l-5.53125 0q-1.125 0 -1.125 -1.125l0 -9.75l1.40625 0.65625l4.40625 0l0 -5.15625l-6.1875 0l0 -0.5625l5.90625 0l0.65625 -0.84375l1.5 1.03125q0.75 0.5625 -0.65625 0.75l0 6.28125q-1.21875 1.125 -1.21875 0.09375l0 -1.03125l-4.59375 0l0 8.15625z" fill-rule="nonzero"/><path fill="#d9d9d9" d="m415.9744 333.29074l0 7.5l3.375 0l0 -7.5l-3.375 0zm-8.90625 -0.5625l10.21875 0q-0.1875 -1.40625 -1.6875 -3.09375l0.1875 -0.28125q1.6875 0.75 2.578125 1.5q0.890625 0.75 -0.328125 1.875l6.84375 0l1.5 -1.5l2.0625 2.0625l-7.78125 0l0 7.5l1.59375 0l0.9375 -1.03125l1.59375 1.5l-1.03125 0.46875q-1.96875 2.4375 -4.875 4.96875q3.65625 2.625 9.75 3.09375l0 0.375q-1.40625 0.1875 -1.875 1.125q-5.4375 -1.21875 -8.71875 -3.84375q-4.3125 2.8125 -11.0625 3.9375l-0.09375 -0.375q6.46875 -1.5 10.3125 -4.40625q-2.0625 -2.15625 -3.65625 -5.25l-1.6875 0l-1.03125 0.1875l-0.75 -0.75l4.59375 0l0 -7.5l-4.5 0q-1.21875 0 -2.25 0.28125l-0.84375 -0.84375zm7.125 8.625q1.6875 2.71875 3.84375 4.59375q1.875 -1.6875 4.21875 -4.59375l-8.0625 0zm-2.25 -6.65625l1.6875 1.5l-0.9375 0.375q-2.71875 2.90625 -5.8125 5.25l-0.28125 -0.28125q1.6875 -1.5 3.140625 -3.421875q1.453125 -1.921875 2.203125 -3.421875zm10.03125 0.5625q4.96875 2.4375 5.625 3.28125q0.65625 0.84375 0.1875 1.6875q-0.46875 0.84375 -1.546875 -0.65625q-1.078125 -1.5 -4.546875 -4.03125l0.28125 -0.28125z" fill-rule="nonzero"/><path fill="#d9d9d9" d="m432.75565 348.197q-0.75 -0.375 -0.75 -1.125q0 -0.375 0.28125 -0.75q0.375 -0.375 1.03125 -0.375q0.75 0 1.125 0.5625q0.46875 0.65625 0.46875 1.3125q0 1.3125 -0.75 2.4375q-0.75 1.125 -2.15625 1.6875l-0.375 -0.46875q0.84375 -0.5625 1.40625 -1.21875q0.46875 -0.5625 0.46875 -1.21875q0 -0.46875 -0.75 -0.84375zm14.15625 2.71875q-0.5625 0.09375 -0.1875 -0.28125q4.3125 -2.8125 6.09375 -5.8125q-1.3125 -0.84375 -2.8125 -1.40625l-0.46875 1.40625q-1.3125 0.84375 -1.125 -0.09375l2.53125 -9.09375l-3.9375 0l0 -0.5625l4.03125 0l1.21875 -5.34375l1.5 0.46875q1.03125 0.375 -0.46875 0.75l-1.03125 4.125l3.28125 0l0.5625 -0.84375l1.59375 1.3125q0.46875 0.46875 -0.84375 0.5625q-0.75 4.96875 -2.625 8.34375q1.59375 0.9375 2.4375 1.78125q0.5625 0.5625 0.5625 1.21875q0 0.5625 -0.46875 0.5625q-0.375 0 -1.03125 -0.75q-0.84375 -0.9375 -1.96875 -1.875q-2.53125 3.65625 -6.84375 5.53125zm5.25 -15.28125l-1.96875 7.21875q1.59375 0.46875 3.0 1.125q1.78125 -3.375 2.4375 -8.34375l-3.46875 0zm8.625 11.625l0 1.40625q-1.21875 1.125 -1.21875 0.09375l0 -15.28125l1.40625 0.9375l4.59375 0l0.5625 -0.75l1.3125 0.9375q0.5625 0.46875 -0.375 0.65625l0 12.84375q-1.21875 1.125 -1.21875 0.09375l0 -0.9375l-5.0625 0zm0 -12.28125l0 11.71875l5.0625 0l0 -11.71875l-5.0625 0zm10.03125 7.03125q-0.5625 0.28125 -0.28125 -0.28125q3.84375 -6.09375 5.34375 -11.90625l1.78125 0.75q0.9375 0.375 -0.65625 0.75q-1.03125 2.53125 -2.25 4.78125l0.65625 0.375q0.65625 0.46875 0 0.65625l-0.46875 0.09375l0 13.3125q-1.21875 1.125 -1.21875 0.09375l0 -12.46875q-1.40625 2.15625 -2.90625 3.84375zm6.75 -8.90625l12.09375 0l1.40625 -1.40625l1.78125 1.3125q0.5625 0.46875 0 0.65625l-3.0 0l0 14.625q0 1.125 -0.65625 1.6875q-0.5625 0.46875 -1.3125 0.5625q-0.5625 0.09375 -0.5625 -0.46875q0 -0.46875 -0.46875 -0.65625l-1.5 -0.375q-0.46875 -0.1875 0 -0.375l2.4375 0q0.84375 0 0.84375 -0.84375l0 -14.15625l-11.0625 0l0 -0.5625zm5.71875 3.9375l0.5625 -0.75l1.3125 0.9375q0.5625 0.46875 -0.375 0.65625l0 6.65625q-1.21875 1.125 -1.21875 0.09375l0 -0.9375l-3.09375 0l0 2.15625q-1.21875 1.125 -1.21875 0.09375l0 -9.46875l1.40625 0.5625l2.625 0zm0.28125 0.5625l-3.09375 0l0 5.53125l3.09375 0l0 -5.53125z" fill-rule="nonzero"/><path fill="#d9d9d9" d="m502.9744 337.1345l0.1875 -0.28125q1.96875 1.3125 2.765625 2.203125q0.796875 0.890625 0.75 1.546875q-0.046875 0.65625 -0.609375 1.21875q-0.5625 0.5625 -1.078125 -1.125q-0.515625 -1.6875 -2.015625 -3.5625zm7.125 -2.15625q0 -4.125 -0.09375 -5.53125l2.1562805 1.03125l-0.7500305 0.75l0 3.75l2.0625305 0l1.21875 -1.21875l1.6875 1.78125l-4.9687805 0l0 10.125q0 1.03125 -0.421875 1.59375q-0.421875 0.5625 -1.359375 0.9375q-0.5625 -1.5 -3.1875 -2.15625l0 -0.375q2.53125 0.28125 3.09375 0.28125q0.5625 0 0.5625 -0.75l0 -9.65625l-6.46875 0q-0.75 0 -1.78125 0.28125l-0.84375 -0.84375l9.09375 0zm-13.5 -4.21875l0.1875 -0.28125q1.6875 0.84375 2.4375 1.546875q0.75 0.703125 0.703125 1.40625q-0.046875 0.703125 -0.609375 1.171875q-0.5625 0.46875 -1.03125 -1.03125q-0.46875 -1.5 -1.6875 -2.8125zm3.1875 15.75q1.03125 0.9375 2.390625 1.59375q1.359375 0.65625 4.359375 0.84375q3.0 0.1875 5.4375 0.046875q2.4375305 -0.140625 4.6875305 -0.328125l0 0.375q-1.875 0.375 -1.875 1.5q-4.2187805 -0.09375 -6.9844055 -0.234375q-2.765625 -0.140625 -4.359375 -0.65625q-1.59375 -0.515625 -2.71875 -1.546875q-1.125 -1.03125 -1.546875 -1.03125q-0.421875 0 -1.359375 1.03125q-0.9375 1.03125 -1.6875 2.34375l-1.3125 -1.3125q1.6875 -1.21875 3.65625 -2.625l0 -7.6875l-0.75 0q-1.21875 0 -2.25 0.28125l-0.84375 -0.84375l3.5625 0l1.03125 -1.03125l1.3125 1.3125l-0.75 0.65625l0 7.3125z" fill-rule="nonzero"/><path fill="#d9d9d9" d="m533.4432 346.79074q1.875 -1.5 3.0 -2.90625l-5.8125 0q1.5 1.96875 2.8125 2.90625zm-6.1875 -2.90625q-1.3125 4.125 -3.46875 6.28125q-0.5625 0.28125 -0.28125 -0.28125q3.0 -4.59375 3.0 -9.9375l0 -7.59375l1.40625 0.84375l4.3125 0l0 -3.0l1.59375 0.28125q0.75 0.46875 -0.375 0.65625l0 2.0625l3.9375 0l1.21875 -1.21875l1.5 1.125q0.5625 0.46875 0 0.65625l-12.375 0l0 3.1875l2.4375 0l0 -2.625l1.59375 0.28125q0.75 0.46875 -0.375 0.65625l0 1.6875l3.1875 0l0 -2.625l1.59375 0.28125q0.75 0.46875 -0.375 0.65625l0 1.6875l2.34375 0l1.03125 -1.03125l1.3125 0.9375q0.5625 0.46875 0 0.65625l-4.6875 0l0 4.125q-1.21875 1.125 -1.21875 0.09375l0 -0.9375l-3.1875 0l0 1.125q-1.21875 1.125 -1.21875 0.09375l0 -4.5l-2.4375 0l0 1.875q0 2.53125 -0.375 3.9375l9.28125 0l0.84375 -0.84375l1.3125 0.9375q0.9375 0.84375 -0.65625 0.65625q-1.6875 1.6875 -3.75 3.28125q3.0 1.5 6.375 1.875q-0.9375 0.75 -1.40625 1.59375q-3.46875 -1.03125 -5.8125 -2.8125q-3.65625 2.25 -8.71875 3.375q-0.65625 0 -0.1875 -0.375q4.78125 -1.40625 8.0625 -3.65625q-1.40625 -1.3125 -2.8125 -3.46875l-2.625 0zm-4.6875 -1.03125q-0.375 0.9375 -0.375 2.71875q0 0.9375 0.1875 2.15625q0.28125 1.5 0.1875 2.4375q-0.1875 0.75 -0.84375 0.75q-0.46875 0 -0.75 -0.5625q-0.1875 -0.84375 -0.09375 -2.0625q0.09375 -1.59375 0.09375 -2.71875q0 -0.9375 -0.75 -1.125l-1.40625 -0.1875l0 -0.375l2.0625 0l4.6875 -11.8125q0.375 -0.46875 0.375 0.1875l-3.375 10.59375zm-1.59375 -5.25q-0.65625 -1.40625 -1.78125 -2.25q-0.375 -0.375 0.09375 -0.375q3.0 0.9375 3.0 2.34375q0 0.9375 -0.65625 0.84375q-0.46875 -0.09375 -0.65625 -0.5625zm1.96875 -5.0625q-0.75 -1.3125 -1.96875 -2.0625q-0.28125 -0.28125 0.09375 -0.28125q3.1875 0.75 3.1875 2.25q0 0.84375 -0.65625 0.84375q-0.375 0 -0.65625 -0.75zm11.625 7.6875l0 -2.71875l-3.1875 0l0 2.71875l3.1875 0zm19.78125 8.4375q-0.375 0.375 -0.9375 0.375q-0.5625 0 -0.9375 -0.375q-0.375 -0.375 -0.375 -0.9375q0 -0.5625 0.375 -0.9375q0.375 -0.375 0.9375 -0.375q0.5625 0 0.9375 0.375q0.375 0.375 0.375 0.9375q0 0.5625 -0.375 0.9375zm-6.09375 -10.5q-0.46875 -0.46875 -0.46875 -1.59375q0 -1.875 1.59375 -3.09375q1.6875 -1.21875 4.125 -1.21875q2.53125 0 4.21875 1.21875q1.78125 1.21875 1.78125 3.1875q0 1.59375 -1.03125 2.53125q-1.03125 0.9375 -2.53125 1.59375q-1.21875 0.46875 -1.6875 1.03125q-0.46875 0.46875 -0.5625 1.5l-0.09375 0.9375l-0.65625 0l0 -1.40625q0 -1.03125 0.375 -1.78125q0.375 -0.65625 1.40625 -1.21875q1.40625 -0.84375 1.96875 -1.40625q0.65625 -0.46875 0.65625 -2.0625q0 -1.59375 -1.03125 -2.4375q-1.03125 -0.84375 -3.0 -0.84375q-2.25 0 -3.46875 0.9375q-1.21875 0.9375 -1.21875 2.4375q0.1875 -0.1875 0.46875 -0.28125q0.28125 -0.09375 0.65625 -0.09375q0.5625 0 0.84375 0.375q0.375 0.375 0.375 0.9375q0 0.5625 -0.375 0.9375q-0.28125 0.375 -1.03125 0.375q-0.75 0 -1.3125 -0.5625z" fill-rule="nonzero"/><path fill="#ffff00" d="m58.478317 380.197q1.296875 0 2.53125 0.671875q1.25 0.671875 1.9375 1.921875q0.6875 1.234375 0.6875 2.5625q0 2.15625 -1.515625 3.671875q-1.5 1.5 -3.640625 1.5q-2.140625 0 -3.65625 -1.5q-1.5 -1.515625 -1.5 -3.671875q0 -1.34375 0.6875 -2.578125q0.6875 -1.234375 1.921875 -1.90625q1.25 -0.671875 2.546875 -0.671875z" fill-rule="nonzero"/><path fill="#ffff00" d="m96.677536 385.15012l3.671875 1.90625l-1.1875 0.890625l0 2.65625q0 0.578125 0.46875 0.625l5.75 0q0.46875 -0.046875 0.65625 -0.796875q0.1875 -0.75 0.296875 -3.234375l1.328125 0q0.125 2.328125 0.234375 2.984375q0.109375 0.65625 1.234375 0.90625q-1.0625 2.265625 -2.875 2.265625l-7.03125 0q-2.609375 0 -2.375 -2.40625q0 -3.796875 -0.171875 -5.796875zm2.75 -0.109375l0.65625 -0.984375q2.703125 1.34375 3.71875 2.25q1.03125 0.90625 0.0625 2.609375q-0.953125 1.6875 -1.703125 -0.046875q-0.734375 -1.734375 -2.734375 -3.828125zm7.578125 1.796875l0.65625 -0.984375q2.203125 0.921875 3.375 1.640625q1.1875 0.71875 1.421875 1.625q0.234375 0.90625 -0.578125 2.25q-0.8125 1.328125 -1.640625 -0.5q-0.828125 -1.84375 -3.234375 -4.03125zm-12.828125 -0.578125l1.265625 0q-0.21875 3.546875 -0.71875 4.546875q-0.5 0.984375 -1.4375 1.171875q-0.921875 0.1875 -1.796875 -0.4375q-0.859375 -0.625 0.5 -1.765625q1.375 -1.15625 2.1875 -3.515625zm3.53125 -14.34375q1.828125 1.140625 2.6875 2.0625q0.875 0.921875 0.625 1.890625q-0.234375 0.96875 -1.1875 1.6875q-0.953125 0.71875 -1.25 -0.9375q-0.296875 -1.671875 -1.828125 -4.0625l0.953125 -0.640625zm-2.484375 14.328125q0.125 -2.96875 0.125 -5.109375q0 -2.140625 -0.140625 -4.984375l2.078125 1.109375l5.390625 0q1.515625 -2.78125 2.453125 -6.03125l3.375 2.40625l-1.75 0.515625q-1.5 2.125 -2.234375 3.109375l2.5 0l0.8125 -1.140625l2.40625 1.796875l-1.046875 0.921875q0 4.4375 0.109375 6.28125l-2.421875 0.96875l0 -1.265625l-9.21875 0l0 0.609375l-2.4375 0.8125zm2.4375 -7.421875l0 4.4375l9.21875 0l0 -4.4375l-9.21875 0zm31.25 -2.3125q0 -3.328125 -0.15625 -5.4375l3.765625 2.046875l-1.390625 0.96875l0 2.421875l2.765625 0l1.34375 -1.34375l2.734375 2.90625l-6.84375 0l0 3.21875l1.828125 0l1.34375 -1.34375l2.734375 2.90625l-9.125 0q-1.15625 0 -2.390625 0.34375l-1.90625 -1.90625l5.296875 0l0 -3.21875l-1.84375 0q-1.15625 0 -2.390625 0.34375l-1.90625 -1.90625l6.140625 0zm-3.875 18.203125q0.125 -2.90625 0.125 -5.609375q0 -2.703125 -0.140625 -5.5625l2.171875 1.21875l6.046875 0l1.046875 -1.046875l2.09375 2.09375l-1.125 0.75l0 3.578125q0 2.03125 0.125 3.21875l-2.34375 1.015625l0 -2.140625l-5.65625 0l0 1.3125l-2.34375 1.171875zm2.34375 -8.390625l0 4.34375l5.65625 0l0 -4.34375l-5.65625 0zm-8.1875 -1.21875l5.65625 -0.90625l0 1.359375q-1.5 0.375 -3.890625 1.0625q-2.375 0.6875 -3.875 1.8125l-1.640625 -2.671875q1.21875 -0.46875 1.828125 -1.0625q0.609375 -0.609375 2.375 -3.0q0.015625 0.015625 -0.96875 0.25q-0.984375 0.21875 -2.3125 1.015625l-1.453125 -2.890625q1.4375 0 2.625 -2.5q1.1875 -2.515625 2.078125 -5.890625l3.34375 1.75l-1.515625 0.84375q-1.90625 3.640625 -3.28125 5.765625l2.53125 -0.0625q0.96875 -1.515625 1.859375 -3.546875l2.828125 2.046875l-1.453125 0.796875q-2.5625 3.390625 -4.734375 5.828125zm-2.6875 8.25l-1.546875 -2.953125q1.984375 -0.28125 3.796875 -0.703125q1.8125 -0.421875 6.140625 -1.6875l0.328125 1.3125q-7.28125 2.84375 -8.71875 4.03125z" fill-rule="nonzero"/><path fill="#ffff00" d="m145.52129 380.11887q0.515625 0.53125 0.515625 1.296875q0 0.765625 -0.515625 1.296875q-0.53125 0.515625 -1.296875 0.515625q-0.765625 0 -1.296875 -0.515625q-0.515625 -0.53125 -0.515625 -1.296875q0 -0.765625 0.515625 -1.296875q0.53125 -0.515625 1.296875 -0.515625q0.765625 0 1.296875 0.515625zm0 8.8125q0.515625 0.53125 0.515625 1.296875q0 0.765625 -0.515625 1.296875q-0.53125 0.515625 -1.296875 0.515625q-0.765625 0 -1.296875 -0.515625q-0.515625 -0.53125 -0.515625 -1.296875q0 -0.765625 0.515625 -1.296875q0.53125 -0.515625 1.296875 -0.515625q0.765625 0 1.296875 0.515625zm23.609375 -14.140625l-13.25 0l0 9.34375q0 5.15625 -4.015625 9.859375q-1.46875 0.875 -1.171875 -0.859375q2.96875 -4.46875 2.96875 -8.625l0 -12.65625l2.0625 1.375l13.375 0l0.703125 -0.9375l1.734375 1.234375q1.375 1.140625 -0.1875 1.453125l0 16.0q0 1.359375 -0.828125 2.0625q-0.671875 0.5625 -1.46875 0.6875q-1.140625 0.1875 -1.140625 -0.96875q0 -0.15625 -0.078125 -0.171875l-1.546875 -0.375q-1.65625 -0.671875 0.0625 -1.359375l2.4375 0q0.34375 0 0.34375 -0.34375l0 -15.71875zm-1.0625 2.390625q1.265625 1.046875 -0.234375 1.546875l-4.640625 0l0 2.09375l2.671875 0l1.1875 -1.1875l1.671875 1.203125q1.265625 1.046875 -0.234375 1.546875l-12.109375 0l0 -1.5625l4.59375 0l0 -2.09375l-4.21875 0l0 -1.5625l4.21875 0l0 -2.53125l2.265625 0.375q2.828125 0.515625 -0.046875 1.59375l0 0.5625l2.015625 0l1.1875 -1.1875l1.671875 1.203125zm-3.25 10.671875l0 -2.75l-5.28125 0l0 2.75l5.28125 0zm-5.4375 -4.3125l5.40625 0l0.703125 -0.9375l1.734375 1.234375q1.375 1.140625 -0.1875 1.453125l0 4.40625q-2.21875 2.046875 -2.21875 -0.125l0 -0.15625l-5.28125 0l0 1.03125q-2.21875 2.046875 -2.21875 -0.125l0 -8.15625l2.0625 1.375z" fill-rule="nonzero"/><path fill="#ffff00" d="m189.70879 373.77512q-0.078125 1.203125 -0.15625 3.296875l3.6875 0l1.140625 -1.140625l2.015625 2.015625l-0.875 0.890625q-0.640625 5.640625 -0.984375 7.875q-0.34375 2.234375 -1.140625 3.1875q-0.796875 0.953125 -2.78125 1.484375q-0.640625 -1.59375 -3.109375 -2.421875l0.328125 -1.296875q3.1875 0.734375 3.578125 0.6875q0.40625 -0.0625 0.734375 -1.515625q0.328125 -1.46875 0.9375 -8.203125l-3.59375 0q-0.625 7.671875 -7.546875 11.703125l-0.703125 -1.0625q5.4375 -4.1875 5.9375 -10.640625l-1.984375 0q-1.15625 0 -2.390625 0.34375l-1.90625 -1.90625l6.34375 0q0.078125 -3.15625 -0.046875 -5.890625l3.71875 1.546875l-1.203125 1.046875zm-12.46875 -0.75l0.65625 -0.984375q2.265625 1.1875 3.0 1.984375q0.75 0.796875 0.8125 1.625q0.0625 0.828125 -0.9375 1.671875q-1.0 0.84375 -1.515625 -0.921875q-0.515625 -1.765625 -2.015625 -3.375zm3.484375 15.234375q0.671875 0.734375 2.078125 1.625q1.421875 0.875 4.296875 1.015625q2.875 0.140625 5.390625 0.09375q2.515625 -0.046875 5.390625 -0.28125l0 1.3125q-1.875 0.46875 -1.875 1.515625q-4.921875 0 -7.734375 -0.140625q-2.8125 -0.140625 -4.6875 -0.890625q-1.875 -0.734375 -2.875 -1.90625q-1.0 -1.1875 -1.15625 -1.1875q-0.15625 0 -1.046875 0.890625q-0.890625 0.890625 -1.84375 2.390625l-2.234375 -2.09375q1.984375 -1.171875 4.078125 -2.4375l0 -7.09375l-0.34375 0q-1.15625 0 -2.390625 0.34375l-1.90625 -1.90625l4.75 0l1.234375 -1.234375l2.09375 2.078125l-1.21875 0.859375l0 7.046875z" fill-rule="nonzero"/><path fill="#ffff00" d="m199.38066 384.6345q3.8125 -4.9375 5.21875 -11.53125l2.59375 0.703125q2.578125 0.953125 -0.609375 1.75q-0.484375 1.453125 -0.921875 2.359375l3.6875 0l0 -6.0l2.28125 0.40625q1.953125 1.21875 -0.0625 1.546875l0 4.046875l4.921875 0l1.375 -1.375l1.859375 1.390625q1.265625 1.046875 -0.234375 1.546875l-7.921875 0l0 4.53125l3.703125 0l1.375 -1.375l1.859375 1.390625q1.265625 1.046875 -0.234375 1.546875l-6.703125 0l0 5.5625l5.953125 0l1.5625 -1.5625l2.140625 1.578125q1.265625 1.046875 -0.234375 1.546875l-21.390625 0l0 -1.5625l9.75 0l0 -5.5625l-5.8125 0l0 -1.5625l5.8125 0l0 -4.53125l-4.453125 0q-1.859375 3.546875 -4.515625 6.109375q-1.640625 0.65625 -1.0 -0.953125z" fill-rule="nonzero"/><path fill="#ffff00" d="m232.41191 371.2595l4.09375 1.890625l-1.640625 0.8125q-0.140625 0.96875 -0.328125 2.078125l6.421875 0l1.609375 -1.609375l3.171875 3.171875l-10.09375 0q1.46875 2.59375 4.265625 4.046875q2.796875 1.4375 5.59375 1.640625l0 1.265625q-1.859375 0.296875 -2.09375 1.46875q-4.515625 -1.65625 -6.609375 -4.03125q-2.078125 -2.375 -2.828125 -4.390625l0.234375 0q-0.84375 2.546875 -1.796875 3.78125q1.09375 0.421875 2.3125 1.171875q1.21875 0.734375 1.21875 1.671875q0 0.921875 -0.65625 1.75q-0.65625 0.8125 -1.609375 -0.765625q-0.953125 -1.578125 -2.328125 -2.59375q-2.703125 2.4375 -8.265625 3.78125l-0.640625 -1.265625q4.140625 -1.171875 6.375 -3.09375q2.25 -1.9375 2.96875 -4.4375l-4.96875 0q-1.15625 0 -2.390625 0.34375l-1.90625 -1.90625l9.578125 0q0.3125 -2.25 0.3125 -4.78125zm-4.71875 15.296875q0 2.140625 -0.375 3.5625q-0.359375 1.40625 -1.28125 1.828125q-0.90625 0.421875 -2.140625 -0.109375q-1.234375 -0.546875 0.15625 -1.65625q1.40625 -1.109375 2.453125 -3.921875l1.1875 0.296875zm3.640625 -0.859375l0.640625 -0.96875q2.203125 0.9375 3.234375 1.640625q1.03125 0.703125 0.96875 1.59375q-0.0625 0.875 -0.859375 1.828125q-0.78125 0.9375 -1.390625 -0.578125q-0.59375 -1.515625 -2.59375 -3.515625zm7.46875 0.96875l1.015625 -0.671875q2.578125 1.390625 3.546875 2.3125q0.96875 0.90625 0.78125 1.875q-0.1875 0.953125 -1.046875 1.734375q-0.84375 0.78125 -1.46875 -1.015625q-0.625 -1.8125 -2.828125 -4.234375zm-9.953125 4.765625q0 -3.8125 -0.125 -6.734375l3.5625 1.859375l-1.125 1.0l0 3.453125q-0.09375 0.640625 0.609375 0.59375l4.984375 0q0.71875 0 0.859375 -0.703125q0.140625 -0.71875 0.140625 -3.140625l1.4375 0q0.125 2.125 0.265625 2.890625q0.15625 0.75 1.453125 1.0q-1.25 2.1875 -3.421875 2.078125l-5.59375 0q-3.171875 0.21875 -3.046875 -2.296875z" fill-rule="nonzero"/><path fill="#ffff00" d="m250.38066 391.5095q-0.515625 -0.859375 -2.140625 -2.3125q-1.5625 -1.25 0.5 -1.25q2.4375 0.71875 4.5 2.765625q0.984375 1.0 0.984375 2.046875q0 0.765625 -0.515625 1.296875q-0.4375 0.421875 -0.921875 0.421875q-0.78125 0 -1.1875 -0.828125q-0.46875 -0.828125 -1.21875 -2.140625z" fill-rule="nonzero"/><path fill="#ffff00" d="m264.7244 376.97824q4.65625 6.390625 4.96875 8.015625q0.3125 1.625 -0.96875 3.125q-1.28125 1.5 -1.6875 -1.359375q-0.390625 -2.859375 -3.359375 -9.078125l1.046875 -0.703125zm5.65625 -1.0q0 -1.484375 -0.140625 -4.296875l3.6875 1.84375l-1.234375 1.078125l0 16.53125l2.84375 0l0 -15.0625q0 -1.296875 -0.125 -4.375l3.859375 1.859375l-1.421875 1.0l0 11.578125q2.59375 -3.890625 4.078125 -9.578125l3.546875 2.515625l-1.671875 0.765625q-3.328125 6.28125 -5.953125 8.90625l0 2.390625l3.703125 0l1.703125 -1.703125l3.265625 3.265625l-20.421875 0q-1.15625 0 -2.390625 0.34375l-1.90625 -1.90625l8.578125 0l0 -15.15625zm23.8125 -4.890625l3.390625 1.953125q-1.609375 0.703125 -1.734375 0.9375l5.5625 0l1.015625 -1.125l2.625 2.1875l-1.5625 0.84375q-1.5625 2.765625 -3.578125 4.46875q1.5625 1.078125 4.296875 1.8125q2.734375 0.71875 5.328125 0.71875l0 1.28125q-1.84375 0.390625 -2.0625 1.578125q-2.140625 -0.375 -4.875 -1.515625q-2.734375 -1.15625 -4.375 -2.546875q-2.0625 1.484375 -4.875 2.71875q-2.796875 1.234375 -5.984375 2.078125l-0.890625 -1.203125q3.8125 -1.234375 6.203125 -2.46875q2.40625 -1.25 4.078125 -2.5625q-1.421875 -1.421875 -2.6875 -3.390625q-0.375 0.640625 -1.578125 2.0q-1.203125 1.34375 -3.21875 2.796875l-1.09375 -0.734375q2.1875 -2.0625 3.734375 -4.578125q1.5625 -2.53125 2.28125 -5.25zm0.796875 4.359375q1.75 2.15625 3.265625 3.515625q1.75 -1.609375 2.65625 -3.421875l-6.015625 0l0.09375 -0.09375zm9.640625 11.296875q-0.453125 4.671875 -1.1875 5.984375q-0.734375 1.3125 -3.34375 1.859375q0 -1.21875 -2.8125 -2.484375l0.328125 -1.265625q2.765625 0.671875 3.328125 0.671875q0.5625 0 0.890625 -1.5625q0.328125 -1.578125 0.46875 -3.25l-4.5 0q-0.890625 3.5625 -3.484375 5.28125q-2.59375 1.703125 -5.8125 2.671875l-0.890625 -1.1875q3.359375 -1.234375 5.28125 -2.796875q1.921875 -1.5625 2.546875 -3.96875l-1.6875 0q-1.15625 0 -2.390625 0.34375l-1.90625 -1.90625l6.328125 0q0.28125 -1.515625 0.28125 -3.515625l3.359375 1.765625l-1.078125 0.90625q-0.078125 0.515625 -0.171875 0.84375l4.234375 0l0.796875 -1.03125l2.546875 1.796875l-1.125 0.84375z" fill-rule="nonzero"/><path fill="#ffff00" d="m315.06815 385.572l1.8125 -0.65625l0 -13.109375l2.0 0.40625q2.375 0.46875 0.21875 1.546875l0 19.203125q-2.21875 2.375 -2.21875 -0.109375l0 -6.265625l-3.421875 1.96875q-0.171875 2.328125 -1.734375 0.375l-1.34375 -1.890625l2.46875 -0.75l0 -11.671875l2.0 0.40625q2.375 0.46875 0.21875 1.546875l0 9.0zm14.59375 -6.0q-0.359375 5.0 -2.1875 8.140625q2.65625 2.828125 7.046875 4.25q-1.796875 1.078125 -2.4375 1.984375q-3.859375 -1.8125 -5.984375 -4.34375q-2.625 3.21875 -6.875 4.40625q-2.046875 0 -0.421875 -1.296875q3.875 -1.9375 5.953125 -4.859375q-1.5625 -2.59375 -2.4375 -6.0q-0.765625 1.796875 -2.640625 3.984375q-1.703125 1.015625 -1.0625 -0.890625q3.0625 -4.921875 4.265625 -13.484375l2.171875 0.765625q3.28125 1.234375 -0.015625 1.75q-0.328125 1.84375 -1.125 4.03125l6.015625 0l1.578125 -1.578125l1.9375 1.59375q1.265625 1.046875 -0.234375 1.546875l-3.546875 0zm-6.296875 0l-0.015625 0.0625q1.421875 4.65625 2.609375 6.296875q1.234375 -2.125 1.40625 -6.359375l-4.0 0zm16.796875 -7.375q3.59375 1.484375 3.59375 3.59375q0 1.34375 -1.15625 1.34375q-0.828125 0 -1.59375 -2.21875q-0.234375 -0.703125 -1.359375 -1.5625q-1.15625 -1.15625 0.515625 -1.15625zm10.15625 12.46875l0.703125 -0.9375l1.734375 1.234375q1.375 1.140625 -0.1875 1.453125l0 5.46875l0.984375 0l1.5625 -1.5625l2.140625 1.578125q1.265625 1.046875 -0.234375 1.546875l-21.765625 0l0 -1.5625l3.75 0l0 -8.28125l2.125 1.0625l9.1875 0zm1.046875 -12.125q2.015625 1.203125 -0.234375 1.734375l-1.96875 2.515625l3.734375 0l1.375 -1.375l1.859375 1.390625q1.265625 1.046875 -0.234375 1.546875l-6.5625 0q1.4375 3.625 9.21875 6.890625q-2.375 0.46875 -3.46875 1.671875q-5.578125 -3.0 -7.40625 -8.5625l-3.3125 -0.234375l0.140625 -0.1875q1.9375 1.546875 -0.421875 1.71875q-3.875 5.546875 -8.484375 7.3125q-2.140625 0.359375 -0.625 -1.171875q4.25 -2.390625 6.8125 -7.4375l-5.96875 0l0 -1.5625l11.4375 0l2.421875 -5.03125l1.6875 0.78125zm-8.703125 13.6875l-1.4375 0l0 5.65625l1.4375 0l0 -5.65625zm3.75 0l-1.53125 0l0 5.65625l1.53125 0l0 -5.65625zm2.21875 0l0 5.65625l1.71875 0l0 -5.65625l-1.71875 0zm13.6875 5.28125q-0.515625 -0.859375 -2.140625 -2.3125q-1.5625 -1.25 0.5 -1.25q2.4375 0.71875 4.5 2.765625q0.984375 1.0 0.984375 2.046875q0 0.765625 -0.515625 1.296875q-0.4375 0.421875 -0.921875 0.421875q-0.78125 0 -1.1875 -0.828125q-0.46875 -0.828125 -1.21875 -2.140625zm32.875 0.765625q-6.96875 -4.140625 -8.875 -9.328125l0.34375 -0.125l0.125 10.53125q-2.21875 2.046875 -2.21875 -0.125l0 -7.96875q-2.8125 4.046875 -9.40625 7.4375q-1.59375 0 -0.65625 -1.25q6.25 -4.015625 8.9375 -8.5l-8.4375 0l0 -1.5625l9.5625 0l0 -3.03125l-8.15625 0l0 -1.5625l8.15625 0l0 -4.78125l2.28125 0.40625q1.953125 1.21875 -0.0625 1.546875l0 2.828125l4.734375 0l1.5625 -1.5625l2.140625 1.578125q1.265625 1.046875 -0.234375 1.546875l-8.203125 0l0 3.03125l6.703125 0l1.5625 -1.5625l2.140625 1.578125q1.265625 1.046875 -0.234375 1.546875l-8.953125 0q1.9375 4.171875 10.890625 7.640625q-2.609375 0.484375 -3.703125 1.6875zm3.90625 0.140625q5.125 -3.125 8.25 -7.59375l-7.78125 0l0 -1.5625l9.28125 0l0 -5.84375l-8.53125 0l0 -1.5625l8.53125 0l0 -3.9375l2.3125 0.390625q2.609375 0.953125 -0.09375 1.625l0 1.921875l5.859375 0l1.375 -1.375l1.859375 1.390625q1.265625 1.046875 -0.234375 1.546875l-8.859375 0l0 5.84375l6.421875 0l1.5625 -1.5625l2.140625 1.578125q1.265625 1.046875 -0.234375 1.546875l-8.796875 0q3.015625 3.859375 9.9375 6.125q-2.15625 1.234375 -2.8125 2.40625q-5.890625 -3.40625 -8.21875 -7.171875l0 6.984375q-2.21875 2.046875 -2.21875 -0.125l0 -6.421875q-3.296875 4.203125 -8.78125 6.890625q-1.609375 0.53125 -0.96875 -1.09375zm15.90625 -15.046875l2.328125 1.09375q1.34375 1.359375 -1.0625 1.640625l-2.546875 3.375q-1.53125 0.921875 -1.203125 -0.71875l2.484375 -5.390625zm-10.75 4.96875q-0.171875 -2.125 -1.890625 -4.015625q-0.796875 -1.609375 0.9375 -0.90625q3.453125 2.328125 3.453125 4.5625q0 1.53125 -1.25 1.53125q-0.953125 0 -1.25 -1.171875z" fill-rule="nonzero"/><path fill="#ffff00" d="m427.00565 371.33762l3.5 1.59375l-1.15625 1.03125l0 3.296875l0.890625 0l1.25 -1.25l2.640625 2.8125l-4.78125 0l0 3.21875l1.171875 0l1.25 -1.25l2.640625 2.8125l-5.0625 0q0 0.28125 -0.140625 1.390625q2.90625 1.6875 3.53125 2.75q0.625 1.0625 -0.15625 2.53125q-0.765625 1.46875 -1.671875 -0.5q-0.890625 -1.96875 -1.9375 -3.03125q-0.109375 1.296875 -1.390625 3.359375q-1.265625 2.0625 -4.21875 4.359375l-0.953125 -0.96875q2.640625 -2.4375 3.625 -4.78125q1.0 -2.34375 1.078125 -5.109375l-0.796875 0q-1.15625 0 -2.390625 0.34375l-1.90625 -1.90625l5.109375 0l0 -3.21875l-0.25 0q-1.15625 0 -2.390625 0.34375l-1.90625 -1.90625l4.546875 0q0 -2.859375 -0.125 -5.921875zm16.59375 4.15625q0 7.3125 0.109375 9.671875l-2.328125 1.328125l0 -11.234375l-5.65625 0l0 10.390625l-2.34375 1.328125q0.125 -3.703125 0.125 -7.0625q0 -3.375 -0.125 -7.3125l2.0625 1.09375l6.03125 0l1.015625 -1.140625l2.359375 2.0625l-1.25 0.875zm-6.546875 0.140625l3.421875 1.703125l-1.0 1.015625q-0.09375 3.578125 -0.484375 6.125q-0.375 2.53125 -1.421875 4.40625q-1.03125 1.875 -2.9375 3.203125q-1.90625 1.3125 -5.203125 2.34375l-0.328125 -1.3125q2.40625 -0.984375 4.109375 -2.234375q1.71875 -1.265625 2.5625 -3.046875q0.84375 -1.78125 1.109375 -4.4375q0.28125 -2.65625 0.171875 -7.765625zm1.328125 15.4375l0 -4.96875q0 -2.234375 -0.15625 -4.5625l3.53125 2.078125l-1.15625 0.859375l0 6.40625q0 0.34375 0.625 0.34375l1.125 0q0.390625 0 0.5 -1.21875q0.125 -1.21875 0.125 -2.90625l1.46875 0q0 1.78125 0.125 2.765625q0.125 0.984375 1.203125 1.578125q-1.171875 1.90625 -2.578125 1.90625l-2.71875 0q-2.09375 0 -2.09375 -2.28125z" fill-rule="nonzero"/><path fill="#ffff00" d="m456.33377 379.05637l1.15625 -1.578125l2.203125 1.28125q1.296875 1.0625 -0.1875 1.5625l-5.546875 0.421875q0.3125 3.09375 0.90625 4.734375q1.015625 -1.5 2.296875 -4.1875l1.8125 1.421875q2.15625 1.71875 -0.796875 1.5625q-1.25 1.921875 -2.3125 3.453125q1.09375 2.015625 2.234375 2.5q0 0 0 0.015625l0.84375 -2.84375q0.984375 -1.625 1.34375 0.1875l-0.375 2.890625q-0.078125 0.546875 0.171875 0.828125q1.140625 1.3125 -0.4375 1.84375q-0.859375 0.234375 -1.875 -0.328125q-2.09375 -1.09375 -3.421875 -3.34375q-2.71875 2.953125 -7.125 4.625q-2.171875 0 -0.546875 -1.296875q4.15625 -2.125 6.640625 -5.375q-1.25 -3.09375 -1.5 -6.515625l-4.8125 0.28125l0 -1.5625l4.65625 -0.28125q-0.34375 -4.296875 -0.234375 -7.4375l2.234375 0.390625q2.03125 1.015625 -0.046875 1.53125q-0.078125 1.75 0.25 5.359375l2.46875 -0.140625zm2.078125 -2.515625q0 1.15625 -1.0625 1.15625q-0.75 0 -1.171875 -0.703125q-0.78125 -1.21875 -2.015625 -2.015625q-1.59375 -1.1875 0.4375 -1.1875q3.8125 0.953125 3.8125 2.75zm2.46875 -2.484375l2.03125 0.40625q2.15625 0.65625 0.1875 1.640625l0 12.5625q-2.21875 2.046875 -2.21875 -0.125l0 -14.484375zm5.25 -1.96875l2.03125 0.40625q2.15625 0.65625 0.1875 1.640625l0 17.59375q0 1.6875 -1.375 2.078125q-1.6875 0.609375 -1.6875 -0.578125q0 -0.015625 -0.203125 -0.078125l-1.53125 -0.390625q-1.734375 -0.859375 0.21875 -1.25l2.109375 0q0.25 0 0.25 -0.25l0 -19.171875z" fill-rule="nonzero"/></g></svg>