<svg version="1.1" viewBox="0.0 0.0 960.0 540.0" fill="none" stroke="none" stroke-linecap="square" stroke-miterlimit="10" xmlns:xlink="http://www.w3.org/1999/xlink" xmlns="http://www.w3.org/2000/svg"><clipPath id="g5cf35b70de_0_325.0"><path d="m0 0l960.0 0l0 540.0l-960.0 0l0 -540.0z" clip-rule="nonzero"/></clipPath><g clip-path="url(#g5cf35b70de_0_325.0)"><path fill="#37474f" d="m0 0l960.0 0l0 540.0l-960.0 0z" fill-rule="evenodd"/><path fill="#000000" fill-opacity="0.0" d="m32.72441 84.16798l894.55115 0l0 60.125984l-894.55115 0z" fill-rule="evenodd"/><path fill="#ffffff" d="m59.38066 100.16173q-0.3125 4.375 -0.3125 7.5l0 22.96875l5.15625 0l0 -24.84375q0 -2.5 -0.3125 -5.625l3.90625 0q-0.3125 2.5 -0.3125 5.3125l0 25.15625l6.09375 0q2.5 0 6.09375 -0.3125l0 3.4375q-3.59375 -0.3125 -5.9375 -0.3125l-23.75 0q-2.1875 0 -6.25 0.3125l0 -3.4375q4.0625 0.3125 6.09375 0.3125l5.78125 0l0 -23.125q0 -3.28125 -0.46875 -7.34375l4.21875 0zm-11.25 7.8125q1.875 4.84375 5.15625 14.21875q-1.71875 0.3125 -3.59375 1.25q-2.8125 -9.0625 -5.0 -14.0625q1.5625 -0.625 3.4375 -1.40625zm30.15625 0.9375q-2.03125 5.3125 -5.625 14.84375q-1.5625 -0.9375 -3.28125 -1.40625q3.28125 -6.09375 5.0 -14.6875q1.71875 0.625 3.90625 1.25zm21.25 -8.28125q-1.25 1.09375 -2.1875 2.5l17.34375 0q-1.40625 2.34375 -3.671875 5.0q-2.265625 2.65625 -5.703125 5.0q2.1875 1.40625 5.9375 2.109375q3.75 0.703125 8.90625 0.859375q-1.25 1.40625 -1.71875 3.28125q-4.375 -0.3125 -8.59375 -1.5625q-4.21875 -1.25 -7.03125 -2.96875q-5.0 2.34375 -9.0625 3.4375q-4.0625 1.09375 -7.96875 1.71875q-0.625 -1.875 -1.875 -3.28125q3.4375 0 7.8125 -0.9375q4.375 -0.9375 8.59375 -2.65625q-3.28125 -3.125 -5.625 -6.40625q-2.65625 3.28125 -5.46875 5.46875q-1.09375 -1.25 -2.8125 -1.875q4.375 -3.125 6.40625 -6.015625q2.03125 -2.890625 2.96875 -5.390625q2.03125 1.09375 3.75 1.71875zm-0.3125 20.625q0.3125 -1.875 0.3125 -4.375q1.875 0.3125 3.75 0.46875q-0.46875 0.9375 -0.9375 3.90625l12.65625 0q-0.15625 1.875 -0.3125 4.296875q-0.15625 2.421875 -0.546875 5.234375q-0.390625 2.8125 -2.265625 3.28125q-1.875 0.46875 -5.9375 0.9375q-0.3125 -2.03125 -1.5625 -3.4375q4.53125 0 5.46875 -0.3125q0.9375 -0.3125 1.25 -1.71875l0.46875 -5.9375l-9.53125 0q-2.1875 6.71875 -6.171875 8.75q-3.984375 2.03125 -8.515625 3.59375q-0.46875 -1.40625 -2.1875 -3.28125q3.75 -0.3125 7.8125 -2.34375q4.0625 -2.03125 5.78125 -6.71875l-3.59375 0q-4.6875 0 -6.875 0.3125l0 -2.8125q2.34375 0.15625 7.03125 0.15625l3.90625 0zm3.75 -9.84375q3.125 -1.875 6.09375 -5.9375l-11.71875 0q2.96875 3.90625 5.625 5.9375z" fill-rule="nonzero"/><path fill="#ffffff" d="m134.22441 134.06798l0 -9.84375l-7.8125 2.8125q-0.46875 1.5625 -1.09375 0.3125l-1.5625 -3.125l3.125 -0.9375l0 -19.375l2.96875 0q1.25 0.15625 0.15625 0.9375l0 17.5l4.21875 -1.40625l0 -20.78125l2.96875 0q1.25 0.15625 0.15625 0.9375l0 32.96875l-3.125 0zm14.6875 -12.03125q2.65625 -4.53125 3.4375 -10.46875l-6.875 0q0.78125 6.25 3.4375 10.46875zm-10.78125 -4.6875q5.15625 -5.9375 7.1875 -17.5l2.5 0.46875q1.875 0.46875 0.15625 1.09375q-0.625 2.8125 -1.875 7.1875l12.96875 0l0 2.96875l-3.75 0q-1.25 7.8125 -4.53125 12.96875q3.4375 3.4375 8.4375 5.625l-1.71875 3.125q-4.84375 -2.34375 -8.59375 -6.09375q-3.75 4.375 -8.90625 6.5625l-1.71875 -2.8125q5.9375 -2.5 8.75 -6.25q-2.5 -3.90625 -3.90625 -9.21875q-1.71875 2.8125 -2.8125 3.90625l-2.1875 -2.03125zm52.03125 3.59375l-3.90625 0l0 9.6875l3.90625 0l0 -9.6875zm7.8125 1.5625q-4.21875 -2.03125 -5.15625 -3.4375l0 11.5625l5.9375 0l0 2.96875l-33.75 0l0 -2.96875l5.9375 0l0 -11.25q-2.34375 2.03125 -5.3125 3.4375l-1.5625 -2.96875q8.4375 -3.75 10.46875 -10.9375l-9.21875 0l0 -2.96875l10.15625 0q-0.46875 -1.875 -2.65625 -4.84375l2.8125 -1.5625q2.34375 2.8125 3.4375 6.40625l5.0 0q1.71875 -2.96875 3.125 -7.03125l3.59375 1.25q0.625 0.78125 -0.625 0.9375q-1.71875 3.59375 -2.8125 4.84375l10.9375 0l0 2.96875l-9.53125 0q3.4375 7.5 11.09375 10.3125l-1.875 3.28125zm-20.625 -1.5625l-3.75 0l0 9.6875l3.75 0l0 -9.6875zm6.25 0l-3.59375 0l0 9.6875l3.59375 0l0 -9.6875zm7.8125 -2.96875q-4.21875 -4.53125 -5.78125 -9.0625l-7.8125 0q-1.40625 5.78125 -5.3125 9.0625l18.90625 0z" fill-rule="nonzero"/><path fill="#000000" fill-opacity="0.0" d="m17.976377 61.01837l475.59055 -1.4803123" fill-rule="evenodd"/><path stroke="#9e9e9e" stroke-width="1.0" stroke-linejoin="round" stroke-linecap="butt" d="m17.976377 61.01837l475.59055 -1.4803123" fill-rule="evenodd"/><path fill="#000000" fill-opacity="0.0" d="m32.72441 10.687664l431.40155 0l0 50.330708l-431.40155 0z" fill-rule="evenodd"/><path fill="#b7b7b7" d="m47.19316 33.232662l1.671875 0.875l-0.578125 0.4375l0 2.265625q0 0.796875 0.71875 0.875l4.53125 0q0.65625 -0.078125 0.828125 -0.796875q0.1875 -0.734375 0.265625 -2.34375l0.28125 0q0.078125 1.453125 0.1875 2.109375q0.109375 0.65625 0.765625 0.8125q-0.515625 1.09375 -1.671875 1.09375l-5.46875 0q-1.609375 0 -1.46875 -1.46875q0 -2.984375 -0.0625 -3.859375zm2.1875 -0.796875l0.140625 -0.21875q1.75 0.875 2.40625 1.453125q0.65625 0.578125 0.171875 1.421875q-0.46875 0.84375 -0.90625 -0.171875q-0.4375 -1.03125 -1.8125 -2.484375zm5.90625 1.375l0.140625 -0.21875q1.375 0.59375 2.21875 1.109375q0.84375 0.5 0.984375 1.046875q0.140625 0.546875 -0.265625 1.203125q-0.390625 0.65625 -0.90625 -0.46875q-0.5 -1.140625 -2.171875 -2.671875zm-10.203125 0l0.28125 0q-0.140625 2.265625 -0.46875 2.921875q-0.328125 0.65625 -0.875 0.765625q-0.546875 0.109375 -0.953125 -0.171875q-0.390625 -0.296875 0.515625 -1.0625q0.90625 -0.765625 1.5 -2.453125zm2.46875 -11.0625q1.171875 0.71875 1.75 1.34375q0.578125 0.609375 0.4375 1.203125q-0.140625 0.578125 -0.578125 0.90625q-0.4375 0.328125 -0.625 -0.6875q-0.1875 -1.03125 -1.203125 -2.625l0.21875 -0.140625zm-1.53125 10.125q0.078125 -1.75 0.078125 -3.421875q0 -1.6875 -0.078125 -3.21875l1.09375 0.59375l4.515625 0q1.3125 -2.40625 1.90625 -4.453125l1.53125 1.09375l-0.734375 0.21875q-1.234375 1.75 -2.265625 3.140625l2.921875 0l0.515625 -0.734375l1.15625 0.875l-0.578125 0.515625q0 3.640625 0.0625 4.8125l-1.078125 0.4375l0 -0.8125l-7.953125 0l0 0.59375l-1.09375 0.359375zm1.09375 -5.609375l0 4.21875l7.953125 0l0 -4.21875l-7.953125 0zm25.078125 -1.03125q0 -2.984375 -0.078125 -3.921875l1.75 0.9375l-0.734375 0.515625l0 2.46875l2.703125 0l0.875 -0.875l1.234375 1.3125l-4.8125 0l0 3.28125l1.96875 0l0.875 -0.875l1.234375 1.3125l-6.1875 0q-0.953125 0 -1.75 0.21875l-0.65625 -0.65625l3.578125 0l0 -3.28125l-1.828125 0q-0.953125 0 -1.75 0.21875l-0.65625 -0.65625l4.234375 0zm-3.0 13.125q0.078125 -1.609375 0.078125 -3.71875q0 -2.109375 -0.078125 -3.640625l1.171875 0.65625l4.953125 0l0.65625 -0.65625l1.015625 1.015625l-0.65625 0.4375l0 2.984375q0 1.609375 0.078125 2.265625l-1.015625 0.4375l0 -1.453125l-5.171875 0l0 1.15625l-1.03125 0.515625zm1.03125 -6.265625l0 4.15625l5.171875 0l0 -4.15625l-5.171875 0zm-7.0 0l5.03125 -0.796875l0 0.28125q-0.875 0.21875 -2.78125 0.765625q-1.890625 0.546875 -2.765625 1.203125l-0.796875 -1.3125q0.578125 -0.21875 1.09375 -0.71875q0.515625 -0.515625 2.40625 -3.140625q-0.875 0.140625 -1.6875 0.328125q-0.796875 0.1875 -1.515625 0.625l-0.65625 -1.3125q0.71875 0 1.703125 -2.078125q0.984375 -2.078125 1.578125 -4.265625l1.515625 0.796875l-0.65625 0.359375q-1.515625 2.921875 -2.984375 5.1875l2.921875 -0.078125q0.875 -1.390625 1.375 -2.546875l1.3125 0.9375l-0.65625 0.375q-2.03125 2.6875 -4.4375 5.390625zm-0.953125 5.25l-0.71875 -1.390625q1.015625 -0.140625 2.4375 -0.46875q1.421875 -0.328125 4.40625 -1.203125l0.078125 0.28125q-5.390625 2.125 -6.203125 2.78125z" fill-rule="nonzero"/><path fill="#b7b7b7" d="m84.53691 28.779537q0.296875 0.296875 0.296875 0.734375q0 0.453125 -0.296875 0.75q-0.296875 0.296875 -0.75 0.296875q-0.4375 0 -0.734375 -0.296875q-0.296875 -0.296875 -0.296875 -0.75q0 -0.4375 0.296875 -0.734375q0.296875 -0.296875 0.734375 -0.296875q0.453125 0 0.75 0.296875zm0 6.96875q0.296875 0.296875 0.296875 0.75q0 0.4375 -0.296875 0.734375q-0.296875 0.296875 -0.75 0.296875q-0.4375 0 -0.734375 -0.296875q-0.296875 -0.296875 -0.296875 -0.734375q0 -0.453125 0.296875 -0.75q0.296875 -0.296875 0.734375 -0.296875q0.453125 0 0.75 0.296875zm9.34375 -6.234375q-2.078125 1.859375 -4.671875 3.125q-0.375 0 -0.15625 -0.296875q2.453125 -1.484375 4.6875 -3.796875l-2.234375 0l0 0.828125q-0.96875 0.890625 -0.96875 0.0625l0 -4.078125l1.125 0.671875l2.21875 0l0 -1.5625l-4.375 0l0 -0.4375l4.375 0l0 -1.859375l1.265625 0.21875q0.59375 0.375 -0.296875 0.515625l0 1.125l2.59375 0l0.8125 -0.828125l1.046875 0.75q0.4375 0.375 0 0.515625l-4.453125 0l0 1.5625l2.078125 0l0.4375 -0.59375l1.046875 0.734375q0.4375 0.375 -0.296875 0.53125l0 2.375q-0.96875 0.890625 -0.96875 0.0625l0 -0.59375l-2.296875 0l0 0.671875q3.40625 0.453125 3.40625 1.640625q0 0.4375 -0.4375 0.4375q-0.21875 0 -0.375 -0.21875q-0.96875 -1.109375 -2.59375 -1.5625l0 2.671875q-0.96875 0.890625 -0.96875 0.078125l0 -2.75zm3.125 2.890625q2.671875 -1.25 4.515625 -3.109375q-0.890625 -1.265625 -1.40625 -2.96875q-0.59375 0.96875 -1.484375 1.859375q-0.375 0.140625 -0.21875 -0.234375q1.859375 -2.734375 2.59375 -5.859375l1.109375 0.453125q0.890625 0.4375 -0.296875 0.59375q-0.4375 1.109375 -1.109375 2.21875l3.640625 0l0.96875 -0.96875l1.1875 0.890625q0.4375 0.375 0 0.53125l-1.484375 0q-1.34375 2.4375 -2.53125 3.484375q2.078125 1.5625 4.234375 2.0q-0.8125 0.453125 -1.34375 0.96875q-1.84375 -0.890625 -3.40625 -2.453125q-1.78125 1.640625 -4.828125 2.890625q-0.4375 0 -0.140625 -0.296875zm4.96875 -3.625q1.109375 -1.34375 1.859375 -2.96875l-3.34375 0l-0.15625 0.296875q0.75 1.625 1.640625 2.671875zm-7.125 -2.3125l0 1.640625l2.296875 0l0 -1.640625l-2.296875 0zm-3.34375 0l0 1.640625l2.375 0l0 -1.640625l-2.375 0zm6.90625 8.90625l3.265625 0l0.734375 -0.734375l1.046875 0.8125q0.21875 0.296875 -0.15625 0.375l-4.890625 0l0 2.234375l5.484375 0l1.125 -1.125l1.40625 1.046875q0.4375 0.375 0 0.515625l-16.921875 0l0 -0.4375l3.484375 0l0 -3.421875l1.265625 0.21875q0.59375 0.375 -0.296875 0.515625l0 2.6875l3.484375 0l0 -4.53125l-6.90625 0l0 -0.453125l11.515625 0l0.953125 -0.96875l1.1875 0.890625q0.453125 0.375 0 0.53125l-5.78125 0l0 1.84375zm26.265625 0.078125q-4.078125 -3.40625 -5.40625 -8.6875l-0.15625 0l0 7.71875l1.859375 0l0.8125 -0.8125l1.046875 0.75q0.4375 0.359375 0 0.515625l-3.71875 0l0 3.859375q-0.96875 0.890625 -0.96875 0.078125l0 -3.9375l-3.484375 0l0 -0.453125l3.484375 0l0 -6.234375q-2.21875 4.15625 -5.34375 7.125q-0.515625 0.234375 -0.21875 -0.296875q3.78125 -4.515625 4.96875 -8.3125l-4.515625 0l0 -0.4375l5.109375 0l0 -4.015625l1.265625 0.234375q0.59375 0.359375 -0.296875 0.515625l0 3.265625l4.078125 0l1.125 -1.109375l1.40625 1.03125q0.4375 0.375 0 0.515625l-6.09375 0q1.5625 4.6875 6.3125 7.71875q-0.8125 0.453125 -1.265625 0.96875zm-16.03125 -4.234375q2.671875 -4.078125 3.796875 -9.125l1.484375 0.75q0.734375 0.515625 -0.53125 0.515625q-0.734375 2.0 -1.703125 4.078125l0.453125 0.21875q0.59375 0.375 -0.296875 0.53125l0 10.609375q-0.96875 0.890625 -0.96875 0.078125l0 -10.09375q-0.75 1.328125 -1.9375 2.671875q-0.4375 0.21875 -0.296875 -0.234375zm19.0 7.0625q4.09375 -2.078125 7.28125 -5.71875l-7.28125 0l0 -0.453125l7.796875 0l0 -2.21875l1.265625 0.21875q0.59375 0.375 -0.296875 0.515625l0 1.484375l5.5625 0l1.109375 -1.109375l1.421875 1.046875q0.4375 0.359375 0 0.515625l-7.796875 0q3.78125 3.78125 8.15625 4.75q-0.953125 0.515625 -1.25 1.109375q-4.234375 -1.78125 -7.203125 -5.640625l0 6.171875q-0.96875 0.890625 -0.96875 0.0625l0 -5.78125q-3.5625 3.859375 -7.5 5.34375q-0.890625 0.296875 -0.296875 -0.296875zm9.875 -14.78125l1.109375 0.53125l3.046875 0l0.453125 -0.59375l1.03125 0.734375q0.453125 0.375 -0.296875 0.515625l0 4.90625q-0.96875 0.890625 -0.96875 0.078125l0 -0.53125l-3.40625 0l0 0.96875q-0.96875 0.890625 -0.96875 0.078125l0 -6.6875zm0.96875 0.96875l0 4.234375l3.40625 0l0 -4.234375l-3.40625 0zm-6.609375 -1.484375q-0.140625 0.96875 -0.296875 1.78125l2.234375 0l0.59375 -0.59375l0.953125 0.96875q0.375 0.4375 -0.4375 0.375q-0.296875 3.03125 -0.671875 4.078125q-0.515625 1.484375 -1.859375 1.484375q-0.21875 0 -0.21875 -0.296875q0 -0.21875 -0.59375 -0.375l-0.59375 -0.140625q-0.59375 -0.296875 0.078125 -0.296875l1.40625 0q0.671875 0 0.890625 -0.59375q0.453125 -1.1875 0.671875 -4.15625l-2.53125 0q-0.953125 4.375 -4.296875 6.296875q-0.375 0.15625 -0.15625 -0.21875q2.671875 -2.21875 3.5625 -6.078125l-2.8125 0l0 -0.453125l2.890625 0q0.15625 -1.265625 0.21875 -2.671875l1.265625 0.21875q0.75 0.296875 -0.296875 0.671875zm14.46875 10.984375q2.453125 -3.859375 2.90625 -7.046875l-2.828125 0l0 -0.453125l2.828125 0l0 -4.21875l1.109375 0.21875q1.109375 0.21875 -0.15625 0.734375l0 3.265625l0.890625 0l0.890625 -0.890625l1.1875 0.828125q0.53125 0.359375 0 0.515625l-2.96875 0l0 3.1875q1.5625 0.453125 2.234375 1.640625q0.296875 0.8125 -0.15625 1.03125q-0.4375 0.15625 -0.734375 -0.515625q-0.59375 -1.34375 -1.34375 -1.78125l0 8.53125q-0.953125 0.890625 -0.953125 0.078125l0 -8.90625q-1.34375 2.8125 -2.75 4.0q-0.296875 0.078125 -0.15625 -0.21875zm16.921875 -7.421875q0.453125 0.375 -0.296875 0.515625l0 6.6875q0 1.78125 -0.296875 2.96875q-0.21875 0.8125 -0.59375 1.34375q-0.515625 0.65625 -1.25 1.03125q-0.828125 0.375 -0.828125 -0.21875q0 -0.515625 -0.4375 -0.59375l-1.109375 -0.21875q-0.296875 -0.15625 0 -0.234375l1.84375 0q0.671875 0 1.046875 -0.59375q0.671875 -1.03125 0.671875 -3.34375l0 -7.046875l-7.125 0q-0.96875 1.640625 -2.453125 3.1875q-0.453125 0.234375 -0.21875 -0.296875q2.140625 -3.265625 3.328125 -7.1875l1.1875 0.4375q1.046875 0.375 -0.296875 0.59375q-0.734375 1.5625 -1.40625 2.828125l6.75 0l0.453125 -0.59375l1.03125 0.734375zm-4.15625 8.390625q0 0.734375 -0.59375 0.734375q-0.515625 0 -0.65625 -1.328125l-4.53125 0.890625q-0.296875 1.03125 -0.75 0.140625l-0.59375 -1.1875l1.859375 0q0.890625 -2.96875 1.265625 -5.859375l0.96875 0.296875q1.25 0.375 0 0.75q-0.828125 2.4375 -1.859375 4.8125l3.484375 -0.21875q-0.21875 -0.8125 -1.109375 -1.859375q-0.21875 -0.4375 0.21875 -0.21875q1.484375 0.96875 2.0 2.0q0.296875 0.59375 0.296875 1.046875zm9.0625 2.375q-0.453125 -0.75 -1.78125 -1.9375q-0.375 -0.296875 0.078125 -0.296875q1.78125 0.53125 3.328125 2.078125q0.671875 0.671875 0.671875 1.34375q0 0.453125 -0.296875 0.75q-0.21875 0.21875 -0.4375 0.21875q-0.375 0 -0.59375 -0.453125q-0.375 -0.65625 -0.96875 -1.703125z" fill-rule="nonzero"/><path fill="#b7b7b7" d="m179.04472 26.748287q3.359375 4.59375 3.578125 5.71875q0.21875 1.125 -0.4375 1.890625q-0.65625 0.765625 -0.921875 -1.046875q-0.25 -1.828125 -2.4375 -6.421875l0.21875 -0.140625zm4.890625 -1.3125q0 -1.171875 -0.078125 -2.6875l1.75 0.859375l-0.65625 0.59375l0 13.40625l2.984375 0l0 -12.09375q0 -1.03125 -0.0625 -2.765625l1.8125 0.859375l-0.71875 0.515625l0 10.5q2.765625 -4.15625 3.78125 -8.09375l1.75 1.234375l-0.796875 0.375q-2.625 4.953125 -4.734375 7.0625l0 2.40625l3.421875 0l1.15625 -1.171875l1.609375 1.609375l-14.9375 0q-0.953125 0 -1.75 0.21875l-0.65625 -0.65625l6.125 0l0 -12.171875zm18.359375 -3.203125l1.53125 0.875q-0.65625 0.296875 -1.171875 1.15625l5.1875 0l0.65625 -0.71875l1.3125 1.09375l-0.8125 0.4375q-1.234375 2.1875 -3.125 3.78125q1.671875 1.171875 3.859375 1.765625q2.1875 0.578125 3.859375 0.578125l0 0.28125q-1.390625 0.296875 -1.53125 1.09375q-1.234375 -0.21875 -3.3125 -1.09375q-2.078125 -0.875 -3.53125 -2.109375q-1.828125 1.3125 -3.984375 2.265625q-2.140625 0.9375 -4.328125 1.515625l-0.21875 -0.28125q2.484375 -0.796875 4.375 -1.78125q1.890625 -0.984375 3.5625 -2.296875q-1.375 -1.390625 -2.6875 -3.4375q-0.59375 1.03125 -1.5 2.046875q-0.90625 1.015625 -2.21875 1.96875l-0.21875 -0.140625q1.390625 -1.3125 2.625 -3.3125q1.234375 -2.015625 1.671875 -3.6875zm-0.140625 2.765625q1.59375 1.96875 3.0625 3.28125q1.671875 -1.53125 2.6875 -3.578125l-5.46875 0l-0.28125 0.296875zm7.65625 8.59375q-0.375 3.71875 -0.890625 4.625q-0.5 0.921875 -1.890625 1.21875q0 -0.734375 -2.109375 -1.6875l0.078125 -0.28125q1.8125 0.4375 2.4375 0.4375q0.625 0 0.90625 -1.390625q0.296875 -1.390625 0.4375 -3.140625l-4.21875 0q-0.734375 2.921875 -2.671875 4.203125q-1.921875 1.265625 -4.109375 1.921875l-0.21875 -0.28125q2.1875 -0.8125 3.75 -2.078125q1.5625 -1.28125 2.21875 -3.765625l-1.8125 0q-0.953125 0 -1.75 0.21875l-0.65625 -0.65625l4.296875 0q0.296875 -1.515625 0.296875 -2.46875l1.53125 0.796875l-0.515625 0.4375q-0.078125 0.515625 -0.296875 1.234375l4.015625 0l0.515625 -0.640625l1.234375 0.859375l-0.578125 0.4375z" fill-rule="nonzero"/><path fill="#b7b7b7" d="m217.95097 33.373287l2.234375 -0.8125l0 -10.171875l1.109375 0.21875q0.75 0.15625 -0.140625 0.59375l0 15.296875q-0.96875 1.046875 -0.96875 0.078125l0 -5.640625l-3.484375 2.0q-0.078125 1.03125 -0.671875 0.296875l-0.75 -1.046875l1.71875 -0.515625l0 -9.046875l1.109375 0.21875q0.734375 0.140625 -0.15625 0.59375l0 7.9375zm11.578125 -5.71875q-0.296875 4.234375 -1.84375 6.90625q2.375 2.53125 5.109375 3.421875q-0.734375 0.4375 -1.109375 0.96875q-2.671875 -1.265625 -4.59375 -3.578125q-2.3125 2.828125 -5.5 3.71875q-0.4375 0 -0.078125 -0.296875q3.125 -1.5625 4.984375 -4.15625q-1.34375 -2.234375 -2.3125 -6.015625q-1.03125 2.453125 -2.4375 4.078125q-0.375 0.234375 -0.234375 -0.21875q2.453125 -3.9375 3.34375 -10.3125l1.265625 0.4375q1.1875 0.453125 -0.21875 0.671875q-0.296875 1.703125 -1.125 3.9375l5.5 0l1.109375 -1.109375l1.265625 1.03125q0.4375 0.375 0 0.515625l-3.125 0zm-4.890625 0l-0.15625 0.453125q1.1875 3.859375 2.53125 5.71875q1.328125 -2.3125 1.484375 -6.171875l-3.859375 0zm13.5 -5.046875q2.53125 1.046875 2.53125 2.453125q0 0.671875 -0.515625 0.671875q-0.375 0 -0.890625 -1.484375q-0.234375 -0.671875 -1.1875 -1.40625q-0.234375 -0.234375 0.0625 -0.234375zm8.3125 9.875l0.453125 -0.59375l1.03125 0.75q0.453125 0.359375 -0.296875 0.515625l0 5.046875l1.34375 0l1.109375 -1.109375l1.40625 1.03125q0.453125 0.375 0 0.53125l-16.765625 0l0 -0.453125l2.96875 0l0 -6.3125l1.1875 0.59375l7.5625 0zm0.453125 -9.640625q0.734375 0.4375 -0.21875 0.65625l-2.15625 2.75l3.9375 0l0.953125 -0.96875l1.1875 0.890625q0.453125 0.375 0 0.53125l-5.703125 0q1.40625 3.5625 6.53125 5.703125q-0.75 0.15625 -1.484375 0.96875q-4.015625 -2.15625 -5.5 -6.671875l-3.484375 0l0.4375 0.359375q0.75 0.59375 -0.296875 0.671875q-3.109375 4.453125 -6.59375 5.796875q-0.453125 0.0625 -0.15625 -0.234375q3.421875 -1.921875 5.796875 -6.59375l-4.984375 0l0 -0.453125l8.90625 0l1.859375 -3.859375l0.96875 0.453125zm-6.3125 10.09375l-1.921875 0l0 5.265625l1.921875 0l0 -5.265625zm2.96875 0l-2.0 0l0 5.265625l2.0 0l0 -5.265625zm0.96875 0l0 5.265625l2.15625 0l0 -5.265625l-2.15625 0zm11.57811 4.375q-0.45310974 -0.75 -1.7812347 -1.9375q-0.375 -0.296875 0.078125 -0.296875q1.7812347 0.53125 3.3281097 2.078125q0.671875 0.671875 0.671875 1.34375q0 0.453125 -0.296875 0.75q-0.21875 0.21875 -0.4375 0.21875q-0.375 0 -0.59375 -0.453125q-0.375 -0.65625 -0.96875 -1.703125zm25.601562 0.296875q-5.125 -3.046875 -6.671875 -7.28125l-0.296875 0l0 8.46875q-0.96875 0.890625 -0.96875 0.078125l0 -7.578125q-2.890625 4.15625 -7.9375 6.765625q-0.375 0 -0.15625 -0.296875q4.96875 -3.203125 7.5 -7.4375l-6.984375 0l0 -0.4375l7.578125 0l0 -3.1875l-6.453125 0l0 -0.453125l6.453125 0l0 -3.703125l1.265625 0.21875q0.59375 0.375 -0.296875 0.515625l0 2.96875l4.296875 0l1.109375 -1.109375l1.421875 1.03125q0.4375 0.375 0 0.53125l-6.828125 0l0 3.1875l5.859375 0l1.109375 -1.109375l1.40625 1.03125q0.453125 0.375 0 0.515625l-7.640625 0q1.859375 4.015625 7.796875 6.3125q-0.8125 0.15625 -1.5625 0.96875zm3.484375 0.890625q4.015625 -2.453125 6.984375 -6.6875l-6.53125 0l0 -0.4375l7.34375 0l0 -5.421875l-6.75 0l0 -0.4375l6.75 0l0 -3.046875l1.34375 0.21875q0.8125 0.296875 -0.375 0.59375l0 2.234375l5.1875 0l0.96875 -0.96875l1.1875 0.890625q0.453125 0.375 0 0.515625l-7.34375 0l0 5.421875l5.640625 0l1.109375 -1.109375l1.40625 1.03125q0.453125 0.375 0 0.515625l-7.71875 0q2.96875 3.796875 7.71875 5.34375q-1.03125 0.609375 -1.40625 1.265625q-4.234375 -2.453125 -6.75 -6.53125l0 6.765625q-0.96875 0.890625 -0.96875 0.0625l0 -6.234375q-3.265625 4.15625 -7.5 6.234375q-0.4375 0.15625 -0.296875 -0.21875zm12.46875 -11.65625l1.421875 0.671875q0.4375 0.4375 -0.828125 0.59375l-2.078125 2.75q-0.359375 0.21875 -0.296875 -0.15625l1.78125 -3.859375zm-8.3125 3.34375q-0.140625 -1.78125 -1.546875 -3.34375q-0.15625 -0.296875 0.21875 -0.140625q2.515625 1.703125 2.515625 3.265625q0 0.8125 -0.59375 0.8125q-0.4375 0 -0.59375 -0.59375z" fill-rule="nonzero"/><path fill="#b7b7b7" d="m307.31815 22.451412l1.59375 0.734375l-0.578125 0.5l0 3.140625l1.234375 0l0.796875 -0.8125l1.171875 1.25l-3.203125 0l0 3.28125l1.453125 0l0.796875 -0.8125l1.171875 1.25l-3.421875 0q0 0.578125 -0.15625 1.671875q2.40625 1.375 2.8125 2.078125q0.40625 0.6875 0.03125 1.390625q-0.359375 0.6875 -0.90625 -0.515625q-0.546875 -1.203125 -2.0 -2.671875q-0.15625 1.75 -1.109375 3.28125q-0.9375 1.53125 -2.90625 3.0625l-0.21875 -0.21875q1.828125 -1.671875 2.625 -3.5625q0.8125 -1.90625 0.875 -4.515625l-1.015625 0q-0.953125 0 -1.75 0.21875l-0.65625 -0.65625l3.421875 0l0 -3.28125l-0.578125 0q-0.953125 0 -1.75 0.21875l-0.65625 -0.65625l2.984375 0q0 -2.625 -0.0625 -4.375zm12.09375 2.40625q0 5.90625 0.0625 7.5l-1.015625 0.578125l0 -8.453125l-5.171875 0l0 8.25l-1.015625 0.578125q0.0625 -2.1875 0.0625 -4.8125q0 -2.625 -0.0625 -5.03125l1.09375 0.578125l4.953125 0l0.65625 -0.71875l1.15625 1.015625l-0.71875 0.515625zm-4.296875 0.9375l1.59375 0.8125l-0.5 0.5q-0.078125 2.921875 -0.375 4.859375q-0.28125 1.921875 -1.046875 3.3125q-0.765625 1.375 -2.1875 2.359375q-1.421875 0.984375 -3.546875 1.640625l-0.0625 -0.28125q1.59375 -0.65625 2.984375 -1.671875q1.390625 -1.03125 2.078125 -2.484375q0.6875 -1.46875 0.90625 -3.578125q0.21875 -2.109375 0.15625 -5.46875zm1.015625 11.375l0 -3.859375q0 -1.75 -0.078125 -2.84375l1.609375 0.953125l-0.578125 0.4375l0 5.171875q0 0.65625 0.859375 0.65625l0.875 0q0.65625 0 0.765625 -1.125q0.109375 -1.140625 0.109375 -2.09375l0.375 0q0 1.03125 0.109375 1.90625q0.109375 0.875 0.765625 1.234375q-0.59375 0.953125 -1.46875 0.953125l-2.109375 0q-1.234375 0 -1.234375 -1.390625z" fill-rule="nonzero"/><path fill="#b7b7b7" d="m330.05252 28.029537l0.8125 -1.109375l1.421875 0.8125q0.4375 0.375 0 0.515625l-4.75 0.375q0.296875 2.890625 1.03125 4.96875q1.265625 -1.84375 2.078125 -3.5625l1.046875 0.828125q0.734375 0.59375 -0.59375 0.515625q-1.125 1.703125 -2.078125 3.109375q1.03125 1.9375 2.078125 2.375q0.359375 0.15625 0.515625 -0.21875l0.671875 -2.21875q0.21875 -0.375 0.296875 0l-0.296875 2.21875q-0.078125 0.59375 0.21875 0.96875q0.515625 0.59375 -0.15625 0.8125q-0.515625 0.15625 -1.1875 -0.21875q-1.546875 -0.8125 -2.8125 -2.96875q-2.453125 2.671875 -5.796875 3.9375q-0.515625 0 -0.140625 -0.296875q3.34375 -1.71875 5.484375 -4.53125q-1.03125 -2.59375 -1.25 -5.640625l-3.796875 0.21875l0 -0.4375l3.71875 -0.234375q-0.296875 -3.78125 -0.21875 -5.78125l1.25 0.21875q0.59375 0.296875 -0.296875 0.515625q-0.0625 1.71875 0.234375 4.984375l2.515625 -0.15625zm1.046875 -2.375q0 0.515625 -0.453125 0.515625q-0.375 0 -0.59375 -0.359375q-0.671875 -1.046875 -1.703125 -1.71875q-0.296875 -0.21875 0.078125 -0.21875q2.671875 0.671875 2.671875 1.78125zm2.734375 -1.484375l1.125 0.21875q0.734375 0.234375 -0.15625 0.671875l0 10.015625q-0.96875 0.890625 -0.96875 0.078125l0 -10.984375zm4.15625 -1.5625l1.125 0.234375q0.734375 0.21875 -0.15625 0.65625l0 14.1875q0 1.03125 -0.8125 1.265625q-0.8125 0.296875 -0.8125 -0.078125q0 -0.296875 -0.453125 -0.453125l-1.1875 -0.296875q-0.296875 -0.140625 0.078125 -0.21875l1.625 0q0.59375 0 0.59375 -0.59375l0 -14.703125z" fill-rule="nonzero"/><path fill="#000000" fill-opacity="0.0" d="m32.72441 191.73228l894.55115 0l0 312.31494l-894.55115 0z" fill-rule="evenodd"/><path fill="#cacaca" d="m58.478317 211.83478q1.296875 0 2.53125 0.671875q1.25 0.671875 1.9375 1.921875q0.6875 1.234375 0.6875 2.5625q0 2.15625 -1.515625 3.671875q-1.5 1.5 -3.640625 1.5q-2.140625 0 -3.65625 -1.5q-1.5 -1.515625 -1.5 -3.671875q0 -1.34375 0.6875 -2.578125q0.6875 -1.234375 1.921875 -1.90625q1.25 -0.671875 2.546875 -0.671875z" fill-rule="nonzero"/><path fill="#cacaca" d="m95.09941 208.99103q-0.1875 1.40625 -0.1875 5.140625q0 6.015625 0.140625 7.484375l0.046875 0.5q0.046875 0.4375 0.453125 0.625q0.40625 0.171875 1.59375 0.40625l-0.078125 0.703125q-1.515625 -0.078125 -3.296875 -0.078125q-1.765625 0 -3.28125 0.078125l-0.0625 -0.703125q1.21875 -0.234375 1.640625 -0.421875q0.4375 -0.203125 0.484375 -0.609375q0.203125 -1.421875 0.203125 -5.140625q0 -6.015625 -0.15625 -7.5l-0.046875 -0.484375q-0.046875 -0.4375 -0.4375 -0.609375q-0.375 -0.1875 -1.53125 -0.421875l0.078125 -0.703125q1.515625 0.078125 3.171875 0.078125q1.65625 0 3.15625 -0.078125l0.078125 0.703125q-1.15625 0.234375 -1.546875 0.421875q-0.375 0.171875 -0.421875 0.609375zm9.817352 9.734375q-1.96875 0.0625 -3.0 0.765625q-1.03125 0.6875 -1.03125 1.5q0 0.8125 0.421875 1.1875q0.421875 0.375 1.34375 0.375q0.9375 0 2.265625 -0.796875l0 -3.03125zm1.75 5.265625q-1.4375 0 -1.671875 -1.5625q-2.125 1.5625 -3.65625 1.5625q-1.03125 0 -1.75 -0.640625q-0.71875 -0.640625 -0.71875 -1.984375q0 -1.34375 1.421875 -2.421875q1.4375 -1.078125 4.625 -1.296875l0 -2.234375q0 -0.671875 -0.5 -1.03125q-0.484375 -0.359375 -1.375 -0.359375q-0.890625 0 -1.421875 0.5q-0.515625 0.484375 -0.515625 1.265625q0 0.28125 0.0625 0.640625l-0.515625 0.234375q-0.484375 -0.265625 -0.90625 -0.71875q-0.421875 -0.453125 -0.421875 -0.65625q0 -0.203125 0.328125 -0.59375q0.328125 -0.40625 0.875 -0.859375q0.546875 -0.453125 1.46875 -0.78125q0.921875 -0.328125 2.078125 -0.328125q1.15625 0 1.875 0.578125q0.71875 0.5625 0.71875 2.046875q0 1.46875 0.140625 6.21875q0.03125 1.140625 0.875 1.140625q0.359375 0 0.734375 -0.1875l0.25 0.625q-0.921875 0.84375 -2.0 0.84375zm9.217972 -5.265625q-1.96875 0.0625 -3.0 0.765625q-1.03125 0.6875 -1.03125 1.5q0 0.8125 0.421875 1.1875q0.421875 0.375 1.34375 0.375q0.9375 0 2.265625 -0.796875l0 -3.03125zm1.75 5.265625q-1.4375 0 -1.671875 -1.5625q-2.125 1.5625 -3.65625 1.5625q-1.03125 0 -1.75 -0.640625q-0.71875 -0.640625 -0.71875 -1.984375q0 -1.34375 1.421875 -2.421875q1.4375 -1.078125 4.625 -1.296875l0 -2.234375q0 -0.671875 -0.5 -1.03125q-0.484375 -0.359375 -1.375 -0.359375q-0.890625 0 -1.421875 0.5q-0.515625 0.484375 -0.515625 1.265625q0 0.28125 0.0625 0.640625l-0.515625 0.234375q-0.484375 -0.265625 -0.90625 -0.71875q-0.421875 -0.453125 -0.421875 -0.65625q0 -0.203125 0.328125 -0.59375q0.328125 -0.40625 0.875 -0.859375q0.546875 -0.453125 1.46875 -0.78125q0.921875 -0.328125 2.078125 -0.328125q1.15625 0 1.875 0.578125q0.71875 0.5625 0.71875 2.046875q0 1.46875 0.140625 6.21875q0.03125 1.140625 0.875 1.140625q0.359375 0 0.734375 -0.1875l0.25 0.625q-0.921875 0.84375 -2.0 0.84375zm12.217972 -12.625q-0.484375 -1.75 -1.34375 -2.390625q-0.84375 -0.65625 -2.21875 -0.65625q-1.359375 0 -2.078125 0.65625q-0.71875 0.65625 -0.71875 1.625q0 1.5625 1.609375 2.609375l3.796875 2.46875q2.484375 1.640625 2.484375 3.875q0 1.796875 -1.4375 3.125q-1.421875 1.328125 -4.15625 1.328125q-2.734375 0 -4.765625 -0.859375q0.375 -1.96875 0.375 -3.53125l0.65625 -0.28125q0.359375 1.96875 1.125 2.71875q0.765625 0.734375 2.375 0.734375q1.625 0 2.484375 -0.78125q0.859375 -0.796875 0.859375 -1.875q0 -1.46875 -1.5625 -2.484375l-3.84375 -2.515625q-2.203125 -1.4375 -2.203125 -3.703125q0 -1.75 1.359375 -3.03125q1.375 -1.28125 3.578125 -1.28125q0.71875 0 1.59375 0.1875q0.875 0.171875 1.328125 0.171875q0.46875 0 1.0625 -0.140625l0 0.359375q0 1.75 0.28125 3.375l-0.640625 0.296875z" fill-rule="nonzero"/><path fill="#cacaca" d="m146.32153 213.36603l10.125 0l1.125 -1.125l1.6875 1.6875l-9.84375 0q-1.40625 0 -2.25 0.28125l-0.84375 -0.84375zm8.53125 7.21875q1.78125 1.03125 3.046875 2.0625q1.265625 1.03125 1.359375 1.78125q0.09375 0.75 -0.375 1.3125q-0.46875 0.5625 -0.796875 -0.046875q-0.328125 -0.609375 -0.890625 -1.640625q-4.40625 0.375 -7.078125 0.75q-2.671875 0.375 -3.515625 0.9375l-0.9375 -1.78125q1.21875 -0.09375 3.0 -2.34375q1.78125 -2.25 2.4375 -3.9375l-3.5625 0q-1.21875 0 -2.25 0.28125l-0.84375 -0.84375l13.6875 0l1.21875 -1.21875l1.78125 1.78125l-9.75 0l1.78125 1.21875q-0.84375 0.28125 -2.34375 1.828125q-1.5 1.546875 -3.46875 3.234375l9.65625 -0.28125q-0.84375 -1.3125 -2.4375 -2.8125l0.28125 -0.28125zm-10.5 -14.34375l0 3.1875l13.125 0l0 -3.1875l-13.125 0zm-4.875 19.6875q1.78125 -2.71875 2.53125 -5.625q0.75 -2.90625 0.84375 -5.765625q0.09375 -2.859375 0.09375 -5.25q0 -2.390625 -0.09375 -4.359375l1.5 0.75l13.03125 0l0.9375 -0.9375l1.3125 1.3125l-0.75 0.5625q0 1.03125 0 2.109375q0 1.078125 0.09375 1.828125l-1.5 0.5625l0 -1.125l-13.125 0q0 2.8125 -0.28125 5.71875q-0.28125 2.90625 -1.171875 5.4375q-0.890625 2.53125 -3.140625 5.0625l-0.28125 -0.28125z" fill-rule="nonzero"/><path fill="#cacaca" d="m177.82153 217.39728q-0.5625 -1.59375 -2.15625 -3.09375q-0.28125 -0.375 0.1875 -0.28125q3.28125 1.40625 3.28125 3.375q0 0.84375 -0.65625 0.84375q-0.375 0 -0.65625 -0.84375zm-4.6875 -2.71875q2.625 -4.125 3.84375 -10.40625l1.78125 0.5625q1.3125 0.375 -0.375 0.84375l-1.59375 3.84375l6.09375 0l0.5625 -0.75l1.3125 0.9375q0.5625 0.46875 -0.375 0.65625l0 7.3125q0 4.5 -1.3125 6.09375q-0.75 0.9375 -2.15625 1.5q-1.3125 0.5625 -1.3125 -0.1875q0 -0.75 -0.46875 -0.84375l-1.6875 -0.46875q-0.46875 -0.28125 0.09375 -0.375l2.25 0.1875q0.9375 0.09375 1.875 -0.46875q1.5 -1.03125 1.5 -5.625l0 -7.40625l-6.65625 0q-1.40625 3.0 -3.0 4.78125q-0.46875 0.28125 -0.375 -0.1875zm-0.5625 8.15625q-1.21875 1.125 -1.21875 0.09375l0 -1.40625l-5.4375 0l0 2.25q-1.21875 1.125 -1.21875 0.09375l0 -15.09375l1.40625 0.75l1.3125 0l0.9375 -5.25l1.40625 0.375q1.6875 0.375 -0.28125 1.125l-1.5 3.75l3.09375 0l0.5625 -0.75l1.3125 0.9375q0.5625 0.46875 -0.375 0.65625l0 12.46875zm-1.21875 -12.75l-5.4375 0l0 4.875l5.4375 0l0 -4.875zm-5.4375 5.4375l0 5.4375l5.4375 0l0 -5.4375l-5.4375 0zm25.03125 -0.375l0 1.875q0 4.6875 -3.1875 8.90625q-0.46875 0.28125 -0.375 -0.1875q2.34375 -4.3125 2.34375 -8.53125l0 -8.4375l1.40625 0.9375l8.25 0q-0.09375 -1.40625 -0.09375 -2.71875l0 -2.71875l1.59375 0.28125q0.75 0.28125 -0.375 1.03125l0 1.21875q0 1.3125 0.09375 2.90625l5.0625 0l1.40625 -1.40625l1.78125 1.3125q0.5625 0.46875 0 0.65625l-8.25 0q0.5625 5.34375 1.875 8.25q1.6875 -2.8125 2.8125 -6.0l1.6875 0.84375q0.9375 0.5625 -0.75 0.75q-1.40625 3.0 -3.1875 5.53125q1.96875 2.8125 4.21875 3.46875q0.5625 0.09375 0.75 -0.375l0.9375 -2.625q0.375 -0.375 0.375 0.09375l-0.65625 2.90625q0 0.65625 0.28125 0.84375q0.375 0.5625 0 0.9375q-0.28125 0.1875 -0.84375 0.09375q-3.1875 -0.5625 -5.90625 -4.21875q-2.71875 3.1875 -6.0 5.15625q-0.46875 0 -0.1875 -0.375q3.1875 -2.4375 5.625 -5.71875q-1.6875 -3.84375 -2.15625 -9.5625l-8.53125 0l0 4.3125l4.3125 0l0.75 -0.84375l1.40625 0.9375q1.03125 0.375 -0.5625 0.75q-0.09375 3.09375 -0.46875 5.8125q-0.1875 1.40625 -1.3125 1.96875q-1.03125 0.46875 -1.03125 -0.28125q0 -0.375 -0.65625 -0.65625l-1.78125 -0.5625q-0.1875 -0.1875 0.09375 -0.28125l2.4375 0.375q0.9375 0.09375 1.125 -0.9375q0.375 -2.4375 0.46875 -5.71875l-4.78125 0zm13.78125 -7.40625q-0.5625 -1.125 -2.15625 -1.96875q-0.375 -0.1875 0 -0.375q3.46875 0.5625 3.46875 2.34375q0 0.5625 -0.5625 0.5625q-0.46875 0 -0.75 -0.5625zm16.96875 12.28125l-4.40625 0l0 -0.5625l4.40625 0l0 -7.5q-4.40625 7.21875 -9.9375 10.3125q-0.5625 0.09375 -0.28125 -0.375q5.8125 -4.125 9.46875 -11.625l-8.71875 0l0 -0.5625l9.46875 0l0 -5.0625l1.59375 0.28125q0.75 0.46875 -0.375 0.65625l0 4.125l6.9375 0l1.40625 -1.40625l1.78125 1.3125q0.5625 0.46875 0 0.65625l-9.65625 0q3.65625 7.21875 10.5 10.03125q-1.21875 0.375 -1.6875 1.21875q-6.28125 -3.5625 -9.28125 -11.0625l0 9.0l2.0625 0l1.21875 -1.21875l1.5 1.125q0.5625 0.46875 0 0.65625l-4.78125 0l0 5.25q-1.21875 1.125 -1.21875 0.09375l0 -5.34375z" fill-rule="nonzero"/><path fill="#cacaca" d="m58.478317 254.83478q1.296875 0 2.53125 0.671875q1.25 0.671875 1.9375 1.921875q0.6875 1.234375 0.6875 2.5625q0 2.15625 -1.515625 3.671875q-1.5 1.5 -3.640625 1.5q-2.140625 0 -3.65625 -1.5q-1.5 -1.515625 -1.5 -3.671875q0 -1.34375 0.6875 -2.578125q0.6875 -1.234375 1.921875 -1.90625q1.25 -0.671875 2.546875 -0.671875z" fill-rule="nonzero"/><path fill="#cacaca" d="m104.25566 258.33478l-5.0625 0q-0.28125 7.6875 -6.84375 10.40625q-0.5625 0.09375 -0.28125 -0.28125q5.71875 -3.375 5.90625 -10.125l-6.28125 0l0 -0.5625l6.375 0l0 -7.40625l-5.4375 0l0 -0.5625l15.1875 0l1.21875 -1.21875l1.59375 1.125q0.9375 0.65625 0 0.65625l-5.15625 0l0 7.40625l3.65625 0l1.21875 -1.21875l1.59375 1.125q0.84375 0.65625 0 0.65625l-6.46875 0l0 10.03125q-1.21875 1.125 -1.21875 0.09375l0 -10.125zm-4.96875 -7.96875l0 7.40625l4.96875 0l0 -7.40625l-4.96875 0z" fill-rule="nonzero"/><path fill="#cacaca" d="m122.53691 253.27228q0.28125 -1.5 0.515625 -3.140625q0.234375 -1.640625 0.328125 -3.046875l1.96875 0.84375l-0.65625 0.65625q-0.65625 3.75 -0.84375 4.6875l9.375 0l1.3125 -1.3125l1.78125 1.875l-12.5625 0q-0.28125 1.78125 -0.75 3.46875l8.0625 0l0.65625 -1.03125l1.59375 1.40625l-0.84375 0.65625q-1.6875 3.09375 -3.84375 5.53125q3.09375 2.53125 8.0625 3.46875l0 0.28125q-1.40625 0.28125 -1.78125 1.3125q-4.40625 -1.59375 -7.03125 -4.125q-3.65625 3.09375 -9.28125 4.3125l-0.09375 -0.28125q5.8125 -1.96875 8.53125 -4.96875q-2.0625 -2.71875 -3.28125 -6.0l-0.84375 0q-1.03125 3.09375 -2.859375 5.859375q-1.828125 2.765625 -4.828125 4.734375l-0.1875 -0.28125q1.5 -1.3125 2.953125 -3.28125q1.453125 -1.96875 2.53125 -4.453125q1.078125 -2.484375 1.921875 -6.609375l-4.3125 0l-0.75 0.84375l-1.21875 -1.3125l0.75 -0.46875q1.3125 -3.0 1.59375 -4.59375l1.875 1.03125l-0.75 0.5625q-0.9375 2.34375 -1.40625 3.375l4.3125 0zm1.6875 4.59375q1.5 3.0 3.5625 5.15625q1.78125 -2.0625 3.28125 -5.15625l-6.84375 0zm3.9375 -10.3125q2.71875 1.125 3.703125 1.921875q0.984375 0.796875 0.515625 2.015625q-0.46875 1.21875 -1.265625 -0.1875q-0.796875 -1.40625 -3.140625 -3.46875l0.1875 -0.28125z" fill-rule="nonzero"/><path fill="#cacaca" d="m160.13066 262.83478q0 1.96875 -1.21875 3.0q-0.9375 0.65625 -1.5 0.65625q-0.65625 0 -0.65625 -0.65625q0 -0.375 -0.5625 -0.5625l-1.125 -0.375q-0.28125 -0.1875 0 -0.28125l0.9375 0.09375q0.9375 0.1875 1.6875 0.09375q0.5625 -0.09375 0.84375 -0.5625q0.28125 -0.75 0.28125 -1.875q0 -2.8125 -2.8125 -5.8125l1.78125 -6.09375l-3.84375 0l0 17.90625q-1.21875 1.125 -1.21875 0.09375l0 -19.21875l1.40625 0.65625l3.65625 0l0.46875 -0.65625l1.59375 1.125q0.5625 0.65625 -0.65625 0.5625l-2.625 5.625q3.5625 3.1875 3.5625 6.28125zm-12.5625 -1.59375l-5.25 0l0 4.21875l5.25 0l0 -4.21875zm-5.25 4.78125l0 2.0625q-1.21875 1.125 -1.21875 0.09375l0 -8.25l1.40625 0.75l4.875 0l0.5625 -0.65625l1.21875 0.84375q0.5625 0.46875 -0.375 0.65625l0 5.34375q-1.21875 1.125 -1.21875 0.09375l0 -0.9375l-5.25 0zm3.28125 -14.8125l3.0 0l1.21875 -1.21875l1.40625 1.125q0.5625 0.46875 0 0.65625l-12.09375 0l0 -0.5625l5.25 0l0 -3.75l1.59375 0.28125q0.75 0.46875 -0.375 0.65625l0 2.8125zm-4.5 1.125q2.25 1.6875 2.25 3.5625q0 1.03125 -0.65625 1.03125q-0.46875 0 -0.5625 -0.9375q-0.1875 -2.15625 -1.21875 -3.375q-0.28125 -0.375 0.1875 -0.28125zm-2.15625 5.25l7.125 0l1.59375 -5.15625l1.6875 0.46875q0.75 0.5625 -0.65625 0.75l-2.15625 3.9375l2.53125 0l1.21875 -1.21875l1.5 1.125q0.5625 0.46875 0 0.65625l-12.84375 0l0 -0.5625zm41.625 -2.625q-2.8125 2.34375 -4.125 3.28125l5.34375 0l1.21875 -1.21875l1.5 1.125q0.5625 0.46875 0 0.65625l-8.90625 0q-1.6875 1.21875 -3.9375 2.4375l7.3125 0l0.5625 -0.65625l1.21875 0.84375q0.65625 0.46875 -0.375 0.65625l0 6.1875q-1.21875 1.125 -1.21875 0.09375l0 -0.375l-8.53125 0l0 0.5625q-1.21875 1.125 -1.21875 0.09375l0 -6.28125q-2.8125 1.6875 -6.09375 2.53125q-0.65625 0 -0.09375 -0.375q3.09375 -1.03125 6.1875 -3.0l0 -1.125l1.21875 0.5625q2.0625 -1.21875 3.46875 -2.15625l-11.0625 0l0 -0.5625l8.34375 0l0 -2.25l-6.0 0l0 -0.5625l6.0 0l0 -2.25l1.03125 0.1875q1.59375 0.28125 0.1875 0.75l0 1.3125l2.625 0l1.125 -1.125l1.6875 1.3125q1.03125 -0.9375 1.96875 -1.96875l1.3125 0.84375q0.75 0.46875 -0.75 0.46875zm-7.96875 3.28125l2.25 0q0.84375 -0.5625 2.90625 -2.25l-5.15625 0l0 2.25zm-1.96875 3.5625l0 2.4375l8.53125 0l0 -2.4375l-8.53125 0zm0 3.0l0 2.625l8.53125 0l0 -2.625l-8.53125 0zm9.46875 -16.6875l0.5625 -0.65625l1.21875 0.84375q0.65625 0.46875 -0.375 0.65625l0 3.46875q-1.21875 1.125 -1.21875 0.09375l0 -0.375l-13.875 0l0 0.84375q-1.21875 1.125 -1.21875 0.09375l0 -5.71875l1.40625 0.75l13.5 0zm-3.75 0.5625l0 2.90625l3.9375 0l0 -2.90625l-3.9375 0zm-4.78125 0l0 2.90625l3.5625 0l0 -2.90625l-3.5625 0zm-5.15625 0l0 2.90625l3.9375 0l0 -2.90625l-3.9375 0z" fill-rule="nonzero"/><path fill="#cacaca" d="m189.28691 248.11603l0.1875 -0.28125q1.59375 0.75 2.390625 1.453125q0.796875 0.703125 0.796875 1.453125q0 0.75 -0.5625 1.078125q-0.5625 0.328125 -0.984375 -0.9375q-0.421875 -1.265625 -1.828125 -2.765625zm2.34375 16.125l2.90625 -2.625l0.28125 0.28125q-2.90625 3.75 -3.65625 4.96875l-1.125 -1.3125q0.375 -0.5625 0.375 -1.3125l0 -8.8125l-0.46875 0q-1.21875 0 -2.25 0.28125l-0.84375 -0.84375l3.46875 0l0.9375 -0.9375l1.3125 1.3125l-0.9375 0.65625l0 8.34375zm1.125 4.40625q2.90625 -4.03125 2.90625 -9.140625q0 -5.109375 0 -6.796875q0 -1.6875 -0.09375 -4.40625l1.40625 0.75l8.625 0l0.84375 -0.84375l1.3125 1.3125l-0.75 0.5625l0 16.59375q0 0.84375 -0.328125 1.3125q-0.328125 0.46875 -1.265625 0.9375q-0.65625 -1.40625 -3.375 -1.875l0 -0.46875q2.90625 0.375 3.328125 0.28125q0.421875 -0.09375 0.421875 -0.75l0 -16.5l-4.96875 0l1.59375 0.75l-0.65625 0.5625l0 1.96875l1.03125 0l0.9375 -0.9375l1.40625 1.5l-3.375 0l0 2.625l1.40625 0l1.03125 -1.03125l1.5 1.59375l-5.71875 0q-1.21875 0 -2.25 0.28125l-0.84375 -0.84375l3.75 0l0 -2.625l-0.09375 0q-1.21875 0 -2.25 0.28125l-0.84375 -0.84375l3.1875 0q0 -1.875 -0.09375 -3.28125l-3.75 0l0 7.875q0.375 7.6875 -3.84375 11.4375l-0.1875 -0.28125zm5.71875 -3.1875q0.09375 -1.78125 0.09375 -3.65625q0 -1.875 -0.09375 -3.75l1.21875 0.84375l2.8125 0l0.75 -0.75l1.125 1.125l-0.65625 0.5625q0 3.1875 0.09375 4.5l-1.21875 0.5625l0 -1.21875l-2.90625 0l0 1.21875l-1.21875 0.5625zm1.21875 -6.0l0 3.65625l2.90625 0l0 -3.65625l-2.90625 0zm13.125 -10.6875l0.28125 -0.1875q1.3125 0.9375 2.15625 1.828125q0.84375 0.890625 0.65625 1.640625q-0.1875 0.75 -0.796875 1.171875q-0.609375 0.421875 -0.84375 -0.9375q-0.234375 -1.359375 -1.453125 -3.515625zm2.90625 16.875l3.28125 -3.65625l0.28125 0.28125q-1.59375 2.4375 -2.34375 3.5625q-0.75 1.125 -1.40625 2.4375l-1.5 -1.59375q0.46875 -0.5625 0.375 -1.5l0 -8.15625l-1.125 0q-0.75 0 -1.78125 0.28125l-0.84375 -0.84375l3.65625 0l0.5625 -0.9375l1.6875 1.125l-0.84375 0.65625l0 8.34375zm15.46875 0.84375l0.75 -3.84375l0.375 0q-0.1875 2.15625 -0.1875 3.375q0 1.21875 0.375 2.4375q0.375 1.21875 -1.78125 -0.421875q-2.15625 -1.640625 -3.5625 -5.203125q-1.40625 -3.5625 -1.6875 -9.28125l-5.53125 0q-0.75 0 -1.78125 0.28125l-0.84375 -0.84375l8.0625 0q-0.1875 -2.90625 -0.1875 -5.625l2.25 1.21875l-0.84375 0.65625q0 2.15625 0.09375 3.75l3.1875 0l1.21875 -1.3125l1.6875 1.875l-6.0 0q0.28125 9.375 4.40625 12.9375zm-3.1875 -18.46875q1.59375 0.65625 2.390625 1.21875q0.796875 0.5625 0.703125 1.171875q-0.09375 0.609375 -0.515625 1.171875q-0.421875 0.5625 -0.9375 -0.703125q-0.515625 -1.265625 -1.828125 -2.578125l0.1875 -0.28125zm-5.4375 16.40625l3.5625 -1.03125l0.09375 0.375q-3.28125 1.3125 -6.5625 2.90625l-0.65625 0.75l-1.125 -1.6875q2.25 -0.5625 3.375 -0.9375l0 -6.75l-0.84375 0q-0.75 0 -1.78125 0.28125l-0.84375 -0.84375l5.34375 0l1.125 -1.125l1.40625 1.6875l-3.09375 0l0 6.375z" fill-rule="nonzero"/><path fill="#cacaca" d="m249.00566 260.39728q-0.5625 -1.59375 -2.15625 -3.09375q-0.28125 -0.375 0.1875 -0.28125q3.28125 1.40625 3.28125 3.375q0 0.84375 -0.65625 0.84375q-0.375 0 -0.65625 -0.84375zm-4.6875 -2.71875q2.625 -4.125 3.84375 -10.40625l1.78125 0.5625q1.3125 0.375 -0.375 0.84375l-1.59375 3.84375l6.09375 0l0.5625 -0.75l1.3125 0.9375q0.56248474 0.46875 -0.375 0.65625l0 7.3125q0 4.5 -1.3125 6.09375q-0.75 0.9375 -2.15625 1.5q-1.3125 0.5625 -1.3125 -0.1875q0 -0.75 -0.46875 -0.84375l-1.6875 -0.46875q-0.46875 -0.28125 0.09375 -0.375l2.25 0.1875q0.9375 0.09375 1.875 -0.46875q1.5 -1.03125 1.5 -5.625l0 -7.40625l-6.65625 0q-1.40625 3.0 -3.0 4.78125q-0.46875 0.28125 -0.375 -0.1875zm-0.5625 8.15625q-1.21875 1.125 -1.21875 0.09375l0 -1.40625l-5.4375 0l0 2.25q-1.21875 1.125 -1.21875 0.09375l0 -15.09375l1.40625 0.75l1.3125 0l0.9375 -5.25l1.40625 0.375q1.6875 0.375 -0.28125 1.125l-1.5 3.75l3.09375 0l0.5625 -0.75l1.3125 0.9375q0.5625 0.46875 -0.375 0.65625l0 12.46875zm-1.21875 -12.75l-5.4375 0l0 4.875l5.4375 0l0 -4.875zm-5.4375 5.4375l0 5.4375l5.4375 0l0 -5.4375l-5.4375 0z" fill-rule="nonzero"/><path fill="#cacaca" d="m274.5994 253.27228q0 -3.65625 -0.09375 -6.09375l2.34375 1.21875l-0.9375 0.65625l0 4.21875l1.40625 0l1.21875 -1.21875l1.78125 1.78125l-4.40625 0l0 12.5625q0 1.78125 -2.0625 2.53125q-0.09375 -1.40625 -3.09375 -2.0625l0 -0.46875q2.53125 0.375 3.1875 0.28125q0.65625 -0.09375 0.65625 -1.125l0 -11.71875l-4.875 0q-1.21875 0 -2.25 0.28125l-0.84375 -0.84375l7.96875 0zm-6.09375 2.90625q2.4375 1.6875 3.0 2.578125q0.5625 0.890625 -0.1875 1.96875q-0.75 1.078125 -1.171875 -0.609375q-0.421875 -1.6875 -1.921875 -3.65625l0.28125 -0.28125zm-7.3125 -4.96875l0 5.625l3.84375 0l0 -5.625l-3.84375 0zm0 6.1875l0 6.0l3.84375 0l0 -6.0l-3.84375 0zm5.15625 1.875q0 4.5 0.09375 5.8125l-1.40625 0.75l0 -1.875l-3.84375 0l0 1.96875l-1.40625 0.75q0.09375 -3.0 0.09375 -9.0q0 -6.0 -0.09375 -7.78125l1.5 0.75l3.5625 0l0.75 -0.9375l1.5 1.21875l-0.75 0.65625l0 7.6875zm23.4375 5.53125q0.09375 -3.0 0.09375 -5.953125q0 -2.953125 -0.09375 -5.859375l1.40625 0.84375l4.59375 0l0.9375 -0.9375l1.21875 1.21875l-0.75 0.65625q0 6.1875 0.09375 9.09375l-1.3125 0.75l0 -1.5l-4.875 0l0 1.03125l-1.3125 0.65625zm1.3125 -10.40625l0 3.65625l4.875 0l0 -3.65625l-4.875 0zm0 4.21875l0 3.9375l4.875 0l0 -3.9375l-4.875 0zm-4.59375 -11.34375q2.15625 1.40625 2.671875 2.203125q0.515625 0.796875 -0.140625 1.78125q-0.65625 0.984375 -1.078125 -0.46875q-0.421875 -1.453125 -1.734375 -3.234375l0.28125 -0.28125zm-0.5625 17.90625q0 1.5 0.09375 3.0l-1.5 0.5625q0.09375 -1.40625 0.09375 -9.28125q0 -7.875 -0.09375 -9.28125l2.25 1.125l-0.84375 0.5625l0 13.3125zm11.625 1.125q3.0 0.46875 3.375 0.328125q0.375 -0.140625 0.375 -0.796875l0 -15.75l-7.5 0q-1.21875 0 -2.25 0.28125l-0.84375 -0.84375l10.40625 0l0.9375 -0.9375l1.3125 1.3125l-0.75 0.5625l0 15.46875q0 1.21875 -0.421875 1.78125q-0.421875 0.5625 -1.734375 1.125q-0.75 -1.59375 -2.90625 -2.15625l0 -0.375z" fill-rule="nonzero"/><path fill="#cacaca" d="m310.31815 266.39728q-0.5625 -0.9375 -2.25 -2.4375q-0.46875 -0.375 0.09375 -0.375q2.25 0.65625 4.21875 2.625q0.84375 0.84375 0.84375 1.6875q0 0.5625 -0.375 0.9375q-0.28125 0.28125 -0.5625 0.28125q-0.46875 0 -0.75 -0.5625q-0.46875 -0.84375 -1.21875 -2.15625zm22.21875 -17.8125l1.875 0.28125q1.03125 0.375 -0.46875 0.75l0 1.21875q1.21875 12.1875 10.78125 15.84375q-1.3125 0 -2.625 1.125q-7.125 -4.5 -8.53125 -15.46875q-0.28125 6.46875 -2.625 10.21875q-2.34375 3.75 -7.6875 6.09375q-0.5625 0.09375 -0.1875 -0.375q4.96875 -2.8125 6.9375 -6.46875q2.25 -4.21875 2.53125 -10.125l0 -3.09375zm32.15625 13.6875q0.65625 -3.9375 0.65625 -8.53125l-7.5 0q-1.03125 10.59375 -10.6875 14.53125q-0.84375 0.1875 -0.1875 -0.28125q8.53125 -4.6875 9.5625 -14.25l-7.6875 0l0 -0.5625l7.6875 0q0.1875 -1.5 0.1875 -2.25l0 -3.09375l1.6875 0.1875q1.875 0.5625 -0.28125 1.03125l0 1.78125q0 0.9375 -0.1875 2.34375l7.03125 0l0.5625 -0.75l1.3125 0.9375q0.65625 0.46875 -0.375 0.65625q-0.1875 9.09375 -1.5 12.0q-0.5625 1.21875 -1.96875 1.875q-1.03125 0.46875 -1.59375 0.46875q-0.5625 0 -0.5625 -0.5625q0 -0.5625 -0.75 -0.9375l-1.03125 -0.46875q-0.375 -0.375 0.28125 -0.28125l1.6875 0.46875q0.65625 0.1875 1.03125 0.1875q0.46875 0 1.125 -0.46875q0.9375 -0.65625 1.5 -4.03125zm9.375 -4.125l0 1.875q0 4.6875 -3.1875 8.90625q-0.46875 0.28125 -0.375 -0.1875q2.34375 -4.3125 2.34375 -8.53125l0 -8.4375l1.40625 0.9375l8.25 0q-0.09375 -1.40625 -0.09375 -2.71875l0 -2.71875l1.59375 0.28125q0.75 0.28125 -0.375 1.03125l0 1.21875q0 1.3125 0.09375 2.90625l5.0625 0l1.40625 -1.40625l1.78125 1.3125q0.5625 0.46875 0 0.65625l-8.25 0q0.5625 5.34375 1.875 8.25q1.6875 -2.8125 2.8125 -6.0l1.6875 0.84375q0.9375 0.5625 -0.75 0.75q-1.40625 3.0 -3.1875 5.53125q1.96875 2.8125 4.21875 3.46875q0.5625 0.09375 0.75 -0.375l0.9375 -2.625q0.375 -0.375 0.375 0.09375l-0.65625 2.90625q0 0.65625 0.28125 0.84375q0.375 0.5625 0 0.9375q-0.28125 0.1875 -0.84375 0.09375q-3.1875 -0.5625 -5.90625 -4.21875q-2.71875 3.1875 -6.0 5.15625q-0.46875 0 -0.1875 -0.375q3.1875 -2.4375 5.625 -5.71875q-1.6875 -3.84375 -2.15625 -9.5625l-8.53125 0l0 4.3125l4.3125 0l0.75 -0.84375l1.40625 0.9375q1.03125 0.375 -0.5625 0.75q-0.09375 3.09375 -0.46875 5.8125q-0.1875 1.40625 -1.3125 1.96875q-1.03125 0.46875 -1.03125 -0.28125q0 -0.375 -0.65625 -0.65625l-1.78125 -0.5625q-0.1875 -0.1875 0.09375 -0.28125l2.4375 0.375q0.9375 0.09375 1.125 -0.9375q0.375 -2.4375 0.46875 -5.71875l-4.78125 0zm13.78125 -7.40625q-0.5625 -1.125 -2.15625 -1.96875q-0.375 -0.1875 0 -0.375q3.46875 0.5625 3.46875 2.34375q0 0.5625 -0.5625 0.5625q-0.46875 0 -0.75 -0.5625zm16.96875 12.28125l-4.40625 0l0 -0.5625l4.40625 0l0 -7.5q-4.40625 7.21875 -9.9375 10.3125q-0.5625 0.09375 -0.28125 -0.375q5.8125 -4.125 9.46875 -11.625l-8.71875 0l0 -0.5625l9.46875 0l0 -5.0625l1.59375 0.28125q0.75 0.46875 -0.375 0.65625l0 4.125l6.9375 0l1.40625 -1.40625l1.78125 1.3125q0.5625 0.46875 0 0.65625l-9.65625 0q3.65625 7.21875 10.5 10.03125q-1.21875 0.375 -1.6875 1.21875q-6.28125 -3.5625 -9.28125 -11.0625l0 9.0l2.0625 0l1.21875 -1.21875l1.5 1.125q0.5625 0.46875 0 0.65625l-4.78125 0l0 5.25q-1.21875 1.125 -1.21875 0.09375l0 -5.34375z" fill-rule="nonzero"/><path fill="#cacaca" d="m58.478317 297.83478q1.296875 0 2.53125 0.671875q1.25 0.671875 1.9375 1.921875q0.6875 1.234375 0.6875 2.5625q0 2.15625 -1.515625 3.671875q-1.5 1.5 -3.640625 1.5q-2.140625 0 -3.65625 -1.5q-1.5 -1.515625 -1.5 -3.671875q0 -1.34375 0.6875 -2.578125q0.6875 -1.234375 1.921875 -1.90625q1.25 -0.671875 2.546875 -0.671875z" fill-rule="nonzero"/><path fill="#cacaca" d="m104.44316 290.64728q2.25 1.125 2.765625 1.59375q0.515625 0.46875 0.46875 1.078125q-0.046875 0.609375 -0.609375 1.078125q-0.5625 0.46875 -0.984375 -0.703125q-0.421875 -1.171875 -1.921875 -2.765625l0.28125 -0.28125zm-2.25 4.3125l7.40625 0l1.21875 -1.21875l1.78125 1.78125l-10.40625 0q0.09375 6.46875 -0.5625 9.9375q-0.65625 3.46875 -4.40625 6.65625l-0.28125 -0.28125q2.71875 -2.625 3.421875 -6.1875q0.703125 -3.5625 0.421875 -11.53125l1.40625 0.84375zm-11.53125 7.40625q1.40625 -0.28125 4.5 -1.40625l0 -4.6875l-2.53125 0l-1.125 0.1875l-0.75 -0.75l4.40625 0q0 -3.09375 -0.09375 -5.4375l2.25 1.03125l-0.84375 0.65625l0 3.75l1.125 0l1.125 -1.125l1.6875 1.6875l-3.9375 0l0 4.3125l3.46875 -1.3125l0.1875 0.375l-3.65625 1.78125l0 8.15625q-0.09375 1.5 -2.0625 2.34375q0.1875 -1.125 -2.8125 -2.15625l0 -0.375q2.34375 0.375 2.953125 0.328125q0.609375 -0.046875 0.609375 -1.078125l0 -6.65625q-3.1875 1.5 -3.28125 2.15625l-1.21875 -1.78125z" fill-rule="nonzero"/><path fill="#cacaca" d="m121.97441 311.08478q-1.21875 1.125 -1.21875 0.09375l0 -6.65625q-2.90625 2.25 -5.90625 3.46875q-0.46875 0.09375 -0.28125 -0.28125q7.125 -3.9375 10.40625 -10.40625l1.78125 0.375q0.9375 0.375 -0.28125 0.84375q3.9375 5.0625 10.21875 5.90625q-1.40625 0.46875 -1.96875 1.40625q-4.78125 -1.5 -9.0 -7.125q-1.78125 2.8125 -4.21875 5.15625l0.65625 0.5625l7.3125 0l0.5625 -0.75l1.3125 0.9375q0.5625 0.46875 -0.375 0.65625l0 5.8125q-1.21875 1.125 -1.21875 0.09375l0 -1.125l-7.78125 0l0 1.03125zm-5.15625 -9.46875q-0.5625 0.1875 -0.375 -0.28125q3.84375 -2.625 5.625 -6.09375l1.5 0.9375q0.65625 0.5625 -0.84375 0.46875q-2.53125 3.1875 -5.90625 4.96875zm8.0625 -8.15625l0 -3.0l1.59375 0.28125q0.75 0.46875 -0.375 0.65625l0 2.0625l7.59375 0l0.75 -0.75l1.5 1.5q1.21875 1.125 -0.5625 0.84375q-0.65625 -0.09375 -0.9375 0.1875l-1.21875 1.21875q-0.375 0.28125 -0.375 -0.09375l0.9375 -2.34375l-15.65625 0q-0.1875 3.28125 -2.0625 3.28125q-0.65625 0 -0.65625 -0.65625q0 -0.375 0.5625 -0.84375q1.59375 -1.03125 1.5 -3.46875q0.09375 -0.375 0.28125 -0.09375q0.1875 0.5625 0.28125 1.21875l6.84375 0zm8.25 4.875q0.84375 0.84375 0.84375 1.5q0 0.75 -0.5625 0.75q-0.46875 0 -0.9375 -0.65625q-1.5 -2.34375 -4.40625 -3.75q-0.28125 -0.375 0.1875 -0.28125q3.1875 0.75 4.875 2.4375zm-3.375 11.15625l0 -4.5l-7.78125 0l0 4.5l7.78125 0z" fill-rule="nonzero"/><path fill="#cacaca" d="m152.72441 301.05353l0 3.75l4.6875 0l0 -3.75l-4.6875 0zm0 4.3125l0 4.03125l4.6875 0l0 -4.03125l-4.6875 0zm5.90625 3.46875q0 1.6875 0.09375 2.34375l-1.3125 0.65625l0 -1.875l-4.6875 0l0 1.5l-1.3125 0.5625q0.09375 -2.625 0.09375 -5.8125q0 -3.1875 -0.09375 -6.375l1.3125 0.65625l1.125 0q0.375 -1.78125 0.5625 -3.1875l-0.65625 0q-1.21875 0 -2.25 0.28125l-0.84375 -0.84375l7.125 0l1.125 -1.03125l1.59375 1.59375l-4.5 0q-0.75 1.125 -1.6875 3.1875l2.90625 0l0.65625 -0.84375l1.5 1.03125l-0.75 0.5625l0 7.59375zm-9.5625 -7.78125l0 10.5l-1.3125 0.75q0.09375 -1.5 0.09375 -3.375l0 -7.21875q-1.40625 2.0625 -3.0 3.5625l-0.28125 -0.1875q2.0625 -2.8125 3.140625 -5.4375q1.078125 -2.625 1.546875 -4.6875l1.875 1.125l-0.84375 0.46875q-0.9375 2.0625 -1.59375 3.375l1.03125 0.65625l-0.65625 0.46875zm8.0625 -5.34375l1.21875 -2.0625l-9.9375 0q0.09375 1.125 -0.234375 1.6875q-0.328125 0.5625 -0.9375 0.609375q-0.609375 0.046875 -0.84375 -0.234375q-0.234375 -0.28125 0.46875 -0.984375q0.703125 -0.703125 1.171875 -2.671875l0.375 0l0 1.03125l4.78125 0q-0.1875 -1.5 -1.3125 -2.90625l0.1875 -0.1875q2.15625 1.03125 2.390625 1.640625q0.234375 0.609375 -0.609375 1.453125l4.40625 0l0.75 -0.84375l1.59375 1.5q-1.21875 0 -3.1875 2.15625l-0.28125 -0.1875zm-16.125 7.40625q2.4375 -0.28125 4.5 -0.46875l0 0.375q-2.0625 0.375 -3.375 0.75q-1.3125 0.375 -1.96875 1.03125l-1.03125 -1.6875q0.5625 -0.09375 1.40625 -0.890625q0.84375 -0.796875 3.09375 -4.078125q-3.09375 0.46875 -3.84375 1.3125l-0.9375 -1.6875q0.84375 -0.09375 2.203125 -2.8125q1.359375 -2.71875 1.734375 -4.5l1.6875 1.125q-0.65625 0.375 -1.734375 2.296875q-1.078125 1.921875 -2.484375 3.984375l3.5625 -0.1875q0.5625 -0.84375 1.125 -2.4375l1.59375 1.125q-0.84375 0.5625 -1.921875 2.015625q-1.078125 1.453125 -3.609375 4.734375zm-2.34375 4.96875q1.6875 -0.1875 3.046875 -0.46875q1.359375 -0.28125 4.171875 -0.84375l0.09375 0.375q-1.6875 0.46875 -3.703125 1.171875q-2.015625 0.703125 -2.671875 1.453125l-0.9375 -1.6875z" fill-rule="nonzero"/><path fill="#cacaca" d="m169.97441 311.08478q-1.21875 1.125 -1.21875 0.09375l0 -6.65625q-2.90625 2.25 -5.90625 3.46875q-0.46875 0.09375 -0.28125 -0.28125q7.125 -3.9375 10.40625 -10.40625l1.78125 0.375q0.9375 0.375 -0.28125 0.84375q3.9375 5.0625 10.21875 5.90625q-1.40625 0.46875 -1.96875 1.40625q-4.78125 -1.5 -9.0 -7.125q-1.78125 2.8125 -4.21875 5.15625l0.65625 0.5625l7.3125 0l0.5625 -0.75l1.3125 0.9375q0.5625 0.46875 -0.375 0.65625l0 5.8125q-1.21875 1.125 -1.21875 0.09375l0 -1.125l-7.78125 0l0 1.03125zm-5.15625 -9.46875q-0.5625 0.1875 -0.375 -0.28125q3.84375 -2.625 5.625 -6.09375l1.5 0.9375q0.65625 0.5625 -0.84375 0.46875q-2.53125 3.1875 -5.90625 4.96875zm8.0625 -8.15625l0 -3.0l1.59375 0.28125q0.75 0.46875 -0.375 0.65625l0 2.0625l7.59375 0l0.75 -0.75l1.5 1.5q1.21875 1.125 -0.5625 0.84375q-0.65625 -0.09375 -0.9375 0.1875l-1.21875 1.21875q-0.375 0.28125 -0.375 -0.09375l0.9375 -2.34375l-15.65625 0q-0.1875 3.28125 -2.0625 3.28125q-0.65625 0 -0.65625 -0.65625q0 -0.375 0.5625 -0.84375q1.59375 -1.03125 1.5 -3.46875q0.09375 -0.375 0.28125 -0.09375q0.1875 0.5625 0.28125 1.21875l6.84375 0zm8.25 4.875q0.84375 0.84375 0.84375 1.5q0 0.75 -0.5625 0.75q-0.46875 0 -0.9375 -0.65625q-1.5 -2.34375 -4.40625 -3.75q-0.28125 -0.375 0.1875 -0.28125q3.1875 0.75 4.875 2.4375zm-3.375 11.15625l0 -4.5l-7.78125 0l0 4.5l7.78125 0zm23.25 -6.09375q-0.5625 -1.59375 -2.15625 -3.09375q-0.28125 -0.375 0.1875 -0.28125q3.28125 1.40625 3.28125 3.375q0 0.84375 -0.65625 0.84375q-0.375 0 -0.65625 -0.84375zm-4.6875 -2.71875q2.625 -4.125 3.84375 -10.40625l1.78125 0.5625q1.3125 0.375 -0.375 0.84375l-1.59375 3.84375l6.09375 0l0.5625 -0.75l1.3125 0.9375q0.5625 0.46875 -0.375 0.65625l0 7.3125q0 4.5 -1.3125 6.09375q-0.75 0.9375 -2.15625 1.5q-1.3125 0.5625 -1.3125 -0.1875q0 -0.75 -0.46875 -0.84375l-1.6875 -0.46875q-0.46875 -0.28125 0.09375 -0.375l2.25 0.1875q0.9375 0.09375 1.875 -0.46875q1.5 -1.03125 1.5 -5.625l0 -7.40625l-6.65625 0q-1.40625 3.0 -3.0 4.78125q-0.46875 0.28125 -0.375 -0.1875zm-0.5625 8.15625q-1.21875 1.125 -1.21875 0.09375l0 -1.40625l-5.4375 0l0 2.25q-1.21875 1.125 -1.21875 0.09375l0 -15.09375l1.40625 0.75l1.3125 0l0.9375 -5.25l1.40625 0.375q1.6875 0.375 -0.28125 1.125l-1.5 3.75l3.09375 0l0.5625 -0.75l1.3125 0.9375q0.5625 0.46875 -0.375 0.65625l0 12.46875zm-1.21875 -12.75l-5.4375 0l0 4.875l5.4375 0l0 -4.875zm-5.4375 5.4375l0 5.4375l5.4375 0l0 -5.4375l-5.4375 0z" fill-rule="nonzero"/><path fill="#cacaca" d="m226.59941 296.27228q0 -3.65625 -0.09375 -6.09375l2.34375 1.21875l-0.9375 0.65625l0 4.21875l1.40625 0l1.21875 -1.21875l1.78125 1.78125l-4.40625 0l0 12.5625q0 1.78125 -2.0625 2.53125q-0.09375 -1.40625 -3.09375 -2.0625l0 -0.46875q2.53125 0.375 3.1875 0.28125q0.65625 -0.09375 0.65625 -1.125l0 -11.71875l-4.875 0q-1.21875 0 -2.25 0.28125l-0.84375 -0.84375l7.96875 0zm-6.09375 2.90625q2.4375 1.6875 3.0 2.578125q0.5625 0.890625 -0.1875 1.96875q-0.75 1.078125 -1.171875 -0.609375q-0.421875 -1.6875 -1.921875 -3.65625l0.28125 -0.28125zm-7.3125 -4.96875l0 5.625l3.84375 0l0 -5.625l-3.84375 0zm0 6.1875l0 6.0l3.84375 0l0 -6.0l-3.84375 0zm5.15625 1.875q0 4.5 0.09375 5.8125l-1.40625 0.75l0 -1.875l-3.84375 0l0 1.96875l-1.40625 0.75q0.09375 -3.0 0.09375 -9.0q0 -6.0 -0.09375 -7.78125l1.5 0.75l3.5625 0l0.75 -0.9375l1.5 1.21875l-0.75 0.65625l0 7.6875zm23.4375 5.53125q0.09375 -3.0 0.09375 -5.953125q0 -2.953125 -0.09375 -5.859375l1.40625 0.84375l4.59375 0l0.9375 -0.9375l1.21875 1.21875l-0.75 0.65625q0 6.1875 0.09375 9.09375l-1.3125 0.75l0 -1.5l-4.875 0l0 1.03125l-1.3125 0.65625zm1.3125 -10.40625l0 3.65625l4.875 0l0 -3.65625l-4.875 0zm0 4.21875l0 3.9375l4.875 0l0 -3.9375l-4.875 0zm-4.59375 -11.34375q2.15625 1.40625 2.671875 2.203125q0.515625 0.796875 -0.140625 1.78125q-0.65625 0.984375 -1.078125 -0.46875q-0.421875 -1.453125 -1.734375 -3.234375l0.28125 -0.28125zm-0.5625 17.90625q0 1.5 0.09375 3.0l-1.5 0.5625q0.09375 -1.40625 0.09375 -9.28125q0 -7.875 -0.09375 -9.28125l2.25 1.125l-0.84375 0.5625l0 13.3125zm11.625 1.125q3.0 0.46875 3.375 0.328125q0.375 -0.140625 0.375 -0.796875l0 -15.75l-7.5 0q-1.21875 0 -2.25 0.28125l-0.84375 -0.84375l10.40625 0l0.9375 -0.9375l1.3125 1.3125l-0.75 0.5625l0 15.46875q0 1.21875 -0.421875 1.78125q-0.421875 0.5625 -1.734375 1.125q-0.75 -1.59375 -2.90625 -2.15625l0 -0.375z" fill-rule="nonzero"/><path fill="#cacaca" d="m262.13065 301.14728l0 1.875q0 4.6875 -3.1875 8.90625q-0.46875 0.28125 -0.375 -0.1875q2.34375 -4.3125 2.34375 -8.53125l0 -8.4375l1.40625 0.9375l8.25 0q-0.09375 -1.40625 -0.09375 -2.71875l0 -2.71875l1.59375 0.28125q0.75 0.28125 -0.375 1.03125l0 1.21875q0 1.3125 0.09375 2.90625l5.0625 0l1.40625 -1.40625l1.78125 1.3125q0.5625 0.46875 0 0.65625l-8.25 0q0.5625 5.34375 1.875 8.25q1.6875 -2.8125 2.8125 -6.0l1.6875 0.84375q0.9375 0.5625 -0.75 0.75q-1.40625 3.0 -3.1875 5.53125q1.96875 2.8125 4.21875 3.46875q0.5625 0.09375 0.75 -0.375l0.9375 -2.625q0.375 -0.375 0.375 0.09375l-0.65625 2.90625q0 0.65625 0.28125 0.84375q0.375 0.5625 0 0.9375q-0.28125 0.1875 -0.84375 0.09375q-3.1875 -0.5625 -5.90625 -4.21875q-2.71875 3.1875 -6.0 5.15625q-0.46875 0 -0.1875 -0.375q3.1875 -2.4375 5.625 -5.71875q-1.6875 -3.84375 -2.15625 -9.5625l-8.53125 0l0 4.3125l4.3125 0l0.75 -0.84375l1.40625 0.9375q1.03125 0.375 -0.5625 0.75q-0.09375 3.09375 -0.46875 5.8125q-0.1875 1.40625 -1.3125 1.96875q-1.03125 0.46875 -1.03125 -0.28125q0 -0.375 -0.65625 -0.65625l-1.78125 -0.5625q-0.1875 -0.1875 0.09375 -0.28125l2.4375 0.375q0.9375 0.09375 1.125 -0.9375q0.375 -2.4375 0.46875 -5.71875l-4.78125 0zm13.78125 -7.40625q-0.5625 -1.125 -2.15625 -1.96875q-0.375 -0.1875 0 -0.375q3.46875 0.5625 3.46875 2.34375q0 0.5625 -0.5625 0.5625q-0.46875 0 -0.75 -0.5625zm16.96875 12.28125l-4.40625 0l0 -0.5625l4.40625 0l0 -7.5q-4.40625 7.21875 -9.9375 10.3125q-0.5625 0.09375 -0.28125 -0.375q5.8125 -4.125 9.46875 -11.625l-8.71875 0l0 -0.5625l9.46875 0l0 -5.0625l1.59375 0.28125q0.75 0.46875 -0.375 0.65625l0 4.125l6.9375 0l1.40625 -1.40625l1.78125 1.3125q0.5625 0.46875 0 0.65625l-9.65625 0q3.65625 7.21875 10.5 10.03125q-1.21875 0.375 -1.6875 1.21875q-6.28125 -3.5625 -9.28125 -11.0625l0 9.0l2.0625 0l1.21875 -1.21875l1.5 1.125q0.5625 0.46875 0 0.65625l-4.78125 0l0 5.25q-1.21875 1.125 -1.21875 0.09375l0 -5.34375z" fill-rule="nonzero"/><path fill="#cacaca" d="m58.478317 340.83478q1.296875 0 2.53125 0.671875q1.25 0.671875 1.9375 1.921875q0.6875 1.234375 0.6875 2.5625q0 2.15625 -1.515625 3.671875q-1.5 1.5 -3.640625 1.5q-2.140625 0 -3.65625 -1.5q-1.5 -1.515625 -1.5 -3.671875q0 -1.34375 0.6875 -2.578125q0.6875 -1.234375 1.921875 -1.90625q1.25 -0.671875 2.546875 -0.671875z" fill-rule="nonzero"/><path fill="#cacaca" d="m104.25566 347.05353l0 6.1875l3.375 0l0 -6.1875l-3.375 0zm-10.5 6.1875q0 -5.25 -0.09375 -7.6875l1.40625 0.9375l12.375 0l0.9375 -0.9375l1.3125 1.3125l-0.84375 0.65625l0 5.71875l0.9375 0l1.21875 -1.21875l1.6875 1.78125l-18.84375 0q-1.21875 0 -2.25 0.28125l-0.84375 -0.84375l3.0 0zm1.21875 -6.1875l0 6.1875l3.46875 0l0 -6.1875l-3.46875 0zm4.6875 0l0 6.1875l3.375 0l0 -6.1875l-3.375 0zm-4.96875 -10.6875q0 5.4375 0.09375 7.40625l-1.40625 0.65625q0.09375 -3.46875 0.09375 -5.390625q0 -1.921875 -0.09375 -4.359375l1.96875 0.9375l-0.65625 0.75zm4.40625 -1.3125q0 8.0625 0.09375 10.125l-1.40625 0.65625q0.09375 -3.09375 0.09375 -6.234375q0 -3.140625 -0.09375 -6.234375l2.0625 0.9375l-0.75 0.75zm5.90625 0.1875q-0.46875 1.5 -0.75 2.15625l4.40625 0l1.21875 -1.21875l1.6875 1.78125l-7.5 0q-1.78125 3.9375 -3.65625 6.0l-0.28125 -0.1875q1.59375 -2.90625 2.390625 -5.34375q0.796875 -2.4375 1.265625 -5.0625l2.15625 1.21875l-0.9375 0.65625zm0.375 3.9375q2.625 1.78125 3.375 2.953125q0.75 1.171875 0.09375 2.0625q-0.65625 0.890625 -1.21875 -0.609375q-0.5625 -1.5 -1.171875 -2.390625q-0.609375 -0.890625 -1.265625 -1.734375l0.1875 -0.28125z" fill-rule="nonzero"/><path fill="#cacaca" d="m126.47441 337.20978l-2.15625 0q0.09375 3.1875 -1.40625 3.1875q-0.5625 0 -0.5625 -0.5625q0 -0.375 0.28125 -0.65625q1.03125 -1.21875 0.9375 -3.46875q0.09375 -0.375 0.375 0l0.28125 0.9375l4.3125 0l0 -3.0l1.59375 0.28125q0.75 0.46875 -0.375 0.65625l0 2.0625l4.59375 0l0.65625 -0.65625l1.59375 1.3125q0.5625 0.65625 -0.65625 0.5625q-0.46875 -0.09375 -0.84375 0.375l-1.21875 1.5q-0.375 0.28125 -0.375 -0.09375l0.84375 -2.4375l-3.0 0l0 5.34375q0 0.375 0.375 0.375l3.1875 0q0.46875 0 0.65625 -0.75l0.46875 -1.875q0.1875 -0.1875 0.28125 0l0 2.0625q0 0.375 0.375 0.65625q0.375 0.28125 0 0.65625q-0.375 0.375 -1.03125 0.375l-4.40625 0q-1.125 0 -1.125 -1.125l0 -5.71875l-2.4375 0l0 0.84375q0 5.34375 -5.8125 8.34375q-0.46875 0 -0.1875 -0.375q4.78125 -3.09375 4.78125 -7.40625l0 -1.40625zm-7.21875 8.34375l0 7.21875q0 1.03125 -0.65625 1.59375q-0.375 0.375 -0.9375 0.375q-0.375 0 -0.375 -0.375q0 -0.46875 -0.5625 -0.65625l-1.21875 -0.28125q-0.375 -0.1875 0 -0.375l1.875 0q0.65625 0 0.65625 -0.65625l0 -6.375l-1.78125 0.9375q0.1875 1.5 -0.75 0.46875l-0.84375 -1.21875l3.375 -1.125l0 -5.71875l-3.1875 0l0 -0.5625l3.1875 0l0 -5.15625l1.59375 0.28125q0.75 0.46875 -0.375 0.65625l0 4.21875l0.46875 0l0.9375 -0.9375l1.3125 1.03125q0.28125 0.375 -0.1875 0.46875l-2.53125 0l0 5.34375l3.84375 -1.5q0.46875 0 0.1875 0.375l-4.03125 1.96875zm2.53125 7.78125l0 -0.5625l6.28125 0l0 -5.4375l-4.96875 0l0 -0.5625l9.75 0l1.21875 -1.21875l1.5 1.125q0.5625 0.46875 0 0.65625l-6.28125 0l0 5.4375l4.40625 0l1.21875 -1.21875l1.5 1.125q0.5625 0.46875 0 0.65625l-14.625 0zm25.03125 -4.6875q1.21875 2.25 1.21875 4.3125q0 1.3125 -1.03125 1.3125q-0.28125 0 -0.46875 -0.28125q-0.1875 -0.375 0 -1.03125q0.46875 -1.5 -0.09375 -4.125q0 -0.65625 0.375 -0.1875zm12.5625 4.875q-0.375 0 -0.65625 -0.65625q-1.40625 -2.53125 -3.28125 -3.84375q-0.375 -0.375 0.09375 -0.375q4.59375 1.96875 4.59375 4.03125q0 0.84375 -0.75 0.84375zm-6.84375 -0.375q-0.375 -2.34375 -1.6875 -4.21875q-0.1875 -0.46875 0.28125 -0.28125q2.8125 2.625 2.8125 4.40625q0 1.03125 -0.75 1.03125q-0.5625 0 -0.65625 -0.9375zm-12.46875 -1.125q1.6875 -1.21875 1.875 -3.84375q0.28125 -0.5625 0.46875 0.09375q0.1875 3.09375 -0.75 4.5q-0.75 0.9375 -1.5 0.9375q-0.65625 0 -0.65625 -0.65625q0 -0.5625 0.5625 -1.03125zm9.28125 -15.1875l6.65625 0l1.21875 -1.21875l1.5 1.125q0.5625 0.46875 0 0.65625l-9.375 0l0 3.5625l5.4375 0l0.5625 -0.75l1.3125 0.9375q0.5625 0.46875 -0.375 0.65625l0 5.4375q-1.21875 1.125 -1.21875 0.09375l0 -0.5625l-10.21875 0l0 0.9375q-1.21875 1.125 -1.21875 0.09375l0 -7.6875l1.40625 0.84375l3.09375 0l0 -7.59375l1.59375 0.28125q0.75 0.46875 -0.375 0.65625l0 2.53125zm5.71875 4.6875l-10.21875 0l0 4.6875l10.21875 0l0 -4.6875zm21.9375 4.875q-0.5625 -1.59375 -2.15625 -3.09375q-0.28125 -0.375 0.1875 -0.28125q3.28125 1.40625 3.28125 3.375q0 0.84375 -0.65625 0.84375q-0.375 0 -0.65625 -0.84375zm-4.6875 -2.71875q2.625 -4.125 3.84375 -10.40625l1.78125 0.5625q1.3125 0.375 -0.375 0.84375l-1.59375 3.84375l6.09375 0l0.5625 -0.75l1.3125 0.9375q0.5625 0.46875 -0.375 0.65625l0 7.3125q0 4.5 -1.3125 6.09375q-0.75 0.9375 -2.15625 1.5q-1.3125 0.5625 -1.3125 -0.1875q0 -0.75 -0.46875 -0.84375l-1.6875 -0.46875q-0.46875 -0.28125 0.09375 -0.375l2.25 0.1875q0.9375 0.09375 1.875 -0.46875q1.5 -1.03125 1.5 -5.625l0 -7.40625l-6.65625 0q-1.40625 3.0 -3.0 4.78125q-0.46875 0.28125 -0.375 -0.1875zm-0.5625 8.15625q-1.21875 1.125 -1.21875 0.09375l0 -1.40625l-5.4375 0l0 2.25q-1.21875 1.125 -1.21875 0.09375l0 -15.09375l1.40625 0.75l1.3125 0l0.9375 -5.25l1.40625 0.375q1.6875 0.375 -0.28125 1.125l-1.5 3.75l3.09375 0l0.5625 -0.75l1.3125 0.9375q0.5625 0.46875 -0.375 0.65625l0 12.46875zm-1.21875 -12.75l-5.4375 0l0 4.875l5.4375 0l0 -4.875zm-5.4375 5.4375l0 5.4375l5.4375 0l0 -5.4375l-5.4375 0zm40.5 -8.15625l1.5 1.125q0.75 0.5625 0 0.75l-9.0 0l0 4.3125l5.625 0l1.3125 -1.3125l1.5 1.125q0.75 0.5625 0 0.75l-8.4375 0l0 4.78125l6.46875 0l1.40625 -1.40625l1.59375 1.21875q0.84375 0.65625 0 0.75l-9.46875 0l0 5.0625q-1.21875 1.21875 -1.21875 0.1875l0 -5.25l-8.8125 0l0 -0.5625l8.8125 0l0 -4.78125l-7.21875 0l0 -0.5625l7.21875 0l0 -4.3125l-7.96875 0l0 -0.5625l7.96875 0l0 -3.65625l1.3125 0.1875q1.5 0.1875 -0.09375 0.84375l0 2.625l6.1875 0l1.3125 -1.3125zm7.96875 -0.9375q0.09375 -0.46875 0.375 0l0.28125 0.9375l6.75 0l0 -2.71875l1.59375 0.28125q0.75 0.46875 -0.375 0.65625l0 1.78125l7.5 0l0.5625 -0.5625l2.0625 1.5q0.5625 0.46875 -0.75 0.5625q-0.5625 0.09375 -1.03125 0.28125l-1.5 1.125q-0.375 0.1875 -0.28125 -0.28125l1.03125 -2.0625l-15.5625 0q0 1.5 -0.65625 2.4375q-0.46875 0.65625 -1.21875 0.65625q-0.5625 0 -0.5625 -0.5625q0 -0.28125 0.46875 -0.75q1.3125 -1.3125 1.3125 -2.53125l0 -0.75zm16.03125 11.34375q0.5625 0.46875 -0.375 0.65625l0 6.5625q-1.21875 1.125 -1.21875 0.09375l0 -0.375l-12.28125 0l0 0.75q-1.21875 1.125 -1.21875 0.09375l0 -8.625l1.3125 0.65625l12.0 0l0.5625 -0.65625l1.21875 0.84375zm-8.625 6.375l0 -2.8125l-5.25 0l0 2.8125l5.25 0zm0 -3.375l0 -2.625l-5.25 0l0 2.625l5.25 0zm1.21875 0.5625l0 2.8125l5.8125 0l0 -2.8125l-5.8125 0zm5.8125 -0.5625l0 -2.625l-5.8125 0l0 2.625l5.8125 0zm-0.28125 -8.625q0.5625 0.46875 -0.375 0.65625l0 3.28125q-1.21875 1.125 -1.21875 0.09375l0 -0.46875l-8.625 0l0 0.46875q-1.21875 1.125 -1.21875 0.09375l0 -5.0625l1.40625 0.75l8.25 0l0.5625 -0.65625l1.21875 0.84375zm-1.59375 3.0l0 -2.625l-8.625 0l0 2.625l8.625 0zm-10.5 -4.78125l0 -0.5625l8.90625 0l1.21875 -1.21875l1.5 1.125q0.5625 0.46875 0 0.65625l-11.625 0z" fill-rule="nonzero"/></g></svg>