<svg version="1.1" viewBox="0.0 0.0 960.0 540.0" fill="none" stroke="none" stroke-linecap="square" stroke-miterlimit="10" xmlns:xlink="http://www.w3.org/1999/xlink" xmlns="http://www.w3.org/2000/svg"><clipPath id="g5dd4512f4c_0_39.0"><path d="m0 0l960.0 0l0 540.0l-960.0 0l0 -540.0z" clip-rule="nonzero"/></clipPath><g clip-path="url(#g5dd4512f4c_0_39.0)"><path fill="#37474f" d="m0 0l960.0 0l0 540.0l-960.0 0z" fill-rule="evenodd"/><path fill="#000000" fill-opacity="0.0" d="m32.72441 84.16798l894.55115 0l0 60.125984l-894.55115 0z" fill-rule="evenodd"/><path fill="#ffffff" d="m75.31816 118.44298q-3.28125 5.0 -5.625 7.5q2.03125 3.28125 4.6875 3.90625q1.25 0.3125 1.40625 -2.96875l2.96875 1.5625q-0.78125 5.9375 -3.90625 5.15625q-4.6875 -1.09375 -7.5 -5.46875q-3.90625 3.28125 -8.4375 5.3125l-1.40625 -3.28125q6.25 -2.8125 8.28125 -5.0q-1.5625 -4.6875 -1.5625 -12.03125l-7.65625 0l0 6.09375q2.96875 -0.625 6.09375 -1.5625l0.46875 2.8125q-3.59375 1.09375 -6.5625 1.875l0 9.84375q0 2.5 -2.5 2.5l-4.21875 0l-0.625 -3.4375l3.59375 0q0.625 0 0.625 -0.625l0 -7.5q-2.8125 0.625 -6.875 1.5625q-0.9375 1.25 -1.25 0.3125l-1.09375 -3.59375q4.375 -0.46875 9.21875 -1.5625l0 -6.71875l-8.59375 0l0 -2.96875l8.59375 0l0 -5.46875l-7.1875 0.9375l-0.78125 -2.96875q9.375 -0.9375 14.84375 -2.8125l1.875 2.96875q0.3125 0.78125 -1.09375 0.46875l-4.53125 0.78125l0 6.09375l7.65625 0l0 -9.84375l2.96875 0q1.25 0.15625 0.15625 0.9375l0 8.90625l11.25 0l0 2.96875l-11.25 0q0 5.78125 0.9375 9.6875q2.8125 -3.59375 4.6875 -7.03125l2.96875 1.71875q0.9375 0.46875 -0.625 0.9375zm-2.34375 -10.15625q-1.40625 -1.5625 -3.90625 -3.75l2.65625 -2.34375q2.65625 2.1875 3.90625 3.75l-2.65625 2.34375z" fill-rule="nonzero"/><path fill="#ffffff" d="m95.47441 100.00548q-1.09375 1.5625 -3.59375 7.03125l0 21.25q0 4.375 0.15625 7.5l-3.4375 0q0.15625 -3.28125 0.15625 -7.5l0 -15.3125q-0.625 1.40625 -2.96875 5.0q-1.25 -1.25 -2.65625 -1.875q2.03125 -2.1875 4.921875 -7.578125q2.890625 -5.390625 3.671875 -9.765625q2.5 0.9375 3.75 1.25zm22.5 3.90625q-0.15625 2.96875 -0.15625 6.40625l0 21.25q0.15625 2.5 -1.796875 3.125q-1.953125 0.625 -4.609375 0.9375q-0.46875 -1.875 -1.40625 -3.75q2.8125 0.15625 3.828125 -0.078125q1.015625 -0.234375 1.015625 -1.640625l0 -23.4375l-2.8125 0q-2.65625 0 -4.6875 0.3125l0 -3.28125q2.1875 0.15625 4.6875 0.15625l5.9375 0zm-17.96875 4.0625q-0.15625 1.25 -0.15625 4.6875l0 22.96875l-3.28125 0q0.15625 -2.03125 0.15625 -6.5625l0 -15.625q0 -3.59375 -0.15625 -5.46875l3.4375 0zm0.15625 -8.4375q1.5625 1.71875 2.578125 3.125q1.015625 1.40625 2.109375 2.96875q-1.5625 0.9375 -2.8125 2.03125q-0.9375 -2.03125 -4.21875 -6.09375q1.25 -0.9375 2.34375 -2.03125z" fill-rule="nonzero"/><path fill="#ffffff" d="m153.44316 134.22423l-3.125 0l0 -1.875l-17.65625 0l0 2.5l-3.125 0l0 -33.59375l23.90625 0l0 32.96875zm-3.125 -23.90625l0 -6.09375l-17.65625 0l0 6.09375l17.65625 0zm0 9.21875l0 -6.25l-17.65625 0l0 6.25l17.65625 0zm0 9.84375l0 -6.875l-17.65625 0l0 6.875l17.65625 0zm26.71875 -12.96875l0 -3.125l-6.875 0l0 3.125l6.875 0zm0 2.96875l-6.875 0l0 3.28125l6.875 0l0 -3.28125zm-0.46875 12.34375q0.46875 0 0.46875 -0.46875l0 -5.625l-6.875 0l0 9.375l-3.125 0l0 -24.6875l13.125 0l0 21.71875q0 2.65625 -2.5 2.65625l-3.125 0l-0.78125 -2.96875l2.8125 0zm8.125 -20.625l3.125 0l0 17.96875l-3.125 0l0 -17.96875zm7.96875 20.46875q0.46875 0 0.46875 -0.46875l0 -21.25l2.96875 0q1.5625 0.3125 0.15625 1.25l0 20.78125q0 2.65625 -2.5 2.65625l-3.4375 0l-0.625 -2.96875l2.96875 0zm-2.65625 -30.46875q-0.9375 1.71875 -2.34375 3.90625l11.875 0l0 2.96875l-35.9375 0l0 -2.96875l10.625 0q-0.9375 -2.1875 -2.1875 -3.75l2.8125 -1.5625q1.71875 1.71875 3.4375 5.3125l5.78125 0q1.71875 -2.96875 2.8125 -5.9375l3.59375 1.25q0.625 0.625 -0.46875 0.78125zm13.28125 15.3125q4.6875 -6.25 7.03125 -17.34375l3.125 0.625q1.40625 0.625 -0.15625 0.9375q-1.25 5.3125 -2.65625 9.21875q1.875 0.15625 0.46875 0.9375l0 24.21875l-3.125 0l0 -19.84375q-1.5625 2.8125 -3.28125 5.0l-1.40625 -3.75zm17.34375 -16.40625q1.25 0.15625 0.15625 0.9375l0 6.09375l5.625 0l0 2.96875l-5.625 0l0 6.25l3.59375 0l0 13.75l-7.34375 0l0 2.5l-3.125 0l0 -16.25l3.75 0l0 -6.25l-5.0 0l0 -2.96875l5.0 0l0 -7.03125l2.96875 0zm9.84375 11.09375q0.15625 6.09375 1.875 11.40625q1.5625 -5.0 1.875 -11.40625l-3.75 0zm2.03125 -9.6875q-0.625 3.90625 -1.5625 6.71875l9.0625 0l0 2.96875l-3.125 0q-0.15625 8.4375 -2.8125 14.375q2.1875 2.96875 6.09375 5.3125l-1.25 3.59375q-4.53125 -2.96875 -6.5625 -5.9375q-2.65625 4.0625 -7.8125 6.5625l-1.25 -3.28125q4.6875 -2.03125 7.5 -6.09375q-2.1875 -5.15625 -2.65625 -10.78125q-0.9375 2.65625 -1.875 3.75l-1.71875 -2.65625q3.75 -6.5625 5.15625 -15.9375l3.28125 0.625q0.625 0.625 -0.46875 0.78125zm-15.46875 25.625l4.21875 0l0 -7.8125l-4.21875 0l0 7.8125zm45.937485 -16.09375q5.0 -3.59375 7.1875 -5.625l-22.968735 0l0 -2.96875l25.781235 0l0.625 -0.625l2.96875 2.96875q0.3125 0.625 -0.78125 0.625q-4.375 4.0625 -12.03125 8.75l0 17.8125q0 2.1875 -2.1875 2.1875l-4.84375 0l-0.625 -3.4375l3.4375 0q0.625 0 0.625 -0.625l0 -19.53125l2.8125 0.46875zm31.71875 -9.6875q-1.09375 4.53125 -2.8125 9.21875l0.625 0.15625q0.46875 0.46875 -0.3125 0.9375l0 23.59375l-3.125 0l0 -19.0625q-1.5625 2.34375 -3.4375 4.53125l-2.03125 -2.65625q6.40625 -6.875 7.96875 -18.75l3.59375 1.25q0.625 0.625 -0.46875 0.78125zm10.46875 33.75l0 -20.0l-11.25 0l0 -2.96875l11.25 0l0 -12.1875l2.96875 0q1.25 0.15625 0.15625 0.9375l0 11.25l10.46875 0l0 2.96875l-10.46875 0l0 20.0l-3.125 0zm25.15625 -2.5q-0.46875 1.5625 -0.9375 0.3125l-1.25 -3.75l5.0 -0.3125q3.4375 -8.125 5.78125 -15.9375l3.75 1.25q1.25 0.46875 -0.46875 0.9375q-2.8125 6.875 -5.78125 13.59375l13.28125 -0.9375q-1.5625 -2.65625 -4.53125 -6.40625l3.125 -1.40625q4.21875 4.53125 7.96875 11.71875l-3.4375 1.875q-0.46875 -1.25 -1.5625 -3.125l-20.9375 2.1875zm-6.40625 -15.3125q7.1875 -5.78125 11.40625 -15.3125l3.4375 2.34375q0.78125 0.78125 -0.78125 0.9375q-4.21875 8.59375 -11.40625 14.6875l-2.65625 -2.65625zm45.9375 -4.375q0 -1.5625 0.78125 -3.125q0.625 -1.25 1.71875 -2.34375q3.125 -3.125 9.6875 -3.125q6.09375 0 8.59375 2.5q2.03125 2.03125 2.03125 4.21875q0 1.875 -0.9375 3.28125q-1.09375 1.5625 -3.125 2.5q-3.125 1.40625 -4.53125 2.5q-0.78125 0.625 -0.78125 1.71875l0 1.25l-3.4375 0l0 -2.34375q0 -2.1875 1.5625 -3.125q3.4375 -2.03125 5.46875 -2.96875q1.71875 -0.9375 1.71875 -2.65625q0 -1.25 -0.9375 -2.1875q-1.40625 -1.40625 -5.625 -1.40625q-4.53125 0 -6.40625 1.875q-1.71875 1.71875 -1.71875 3.4375l0 0.78125l-4.0625 0l0 -0.78125zm9.53125 13.75l4.375 0l0 4.53125l-4.375 0l0 -4.53125z" fill-rule="nonzero"/><path fill="#000000" fill-opacity="0.0" d="m32.72441 191.73228l894.55115 0l0 312.31494l-894.55115 0z" fill-rule="evenodd"/><path fill="#cacaca" d="m58.478317 211.83478q1.296875 0 2.53125 0.671875q1.25 0.671875 1.9375 1.921875q0.6875 1.234375 0.6875 2.5625q0 2.15625 -1.515625 3.671875q-1.5 1.5 -3.640625 1.5q-2.140625 0 -3.65625 -1.5q-1.5 -1.515625 -1.5 -3.671875q0 -1.34375 0.6875 -2.578125q0.6875 -1.234375 1.921875 -1.90625q1.25 -0.671875 2.546875 -0.671875z" fill-rule="nonzero"/><path fill="#cacaca" d="m97.50566 207.36603l8.4375 0l0.5625 -0.75l1.3125 0.9375q0.5625 0.46875 -0.375 0.65625l0 15.0q-1.21875 1.125 -1.21875 0.09375l0 -1.6875l-8.90625 0l0 2.8125q-1.21875 1.125 -1.21875 0.09375l0 -18.1875l1.40625 1.03125zm8.71875 0.5625l-8.90625 0l0 5.90625l8.90625 0l0 -5.90625zm0 6.46875l-8.90625 0l0 6.65625l8.90625 0l0 -6.65625zm19.96875 2.4375q1.78125 1.21875 1.78125 2.34375q0 0.9375 -0.65625 0.9375q-0.5625 0 -0.75 -0.75q-0.46875 -1.78125 -2.15625 -3.0q-0.375 -0.375 0.1875 -0.28125q0.9375 0.28125 1.59375 0.75zm9.84375 4.59375q0 0.84375 -0.75 0.84375q-0.46875 0 -0.75 -0.65625q-0.65625 -2.25 -3.1875 -4.5q-0.1875 -0.375 0.1875 -0.28125q4.5 2.4375 4.5 4.59375zm-9.9375 -7.5l5.71875 0l1.21875 -1.21875l1.5 1.125q0.5625 0.46875 0 0.65625l-17.25 0l0 -0.5625l7.59375 0l0 -4.59375l-9.28125 0l0 -0.5625l9.28125 0l0 -4.40625l1.6875 0.28125q1.03125 0.375 -0.46875 0.75l0 3.375l6.84375 0l1.40625 -1.40625l1.78125 1.3125q0.5625 0.46875 0 0.65625l-10.03125 0l0 4.59375zm-3.84375 10.78125q-1.125 0 -1.125 -1.125l0 -7.125l1.6875 0.28125q1.03125 0.375 -0.46875 0.75l0 5.71875q0 0.375 0.375 0.375l7.125 0q0.9375 0 1.03125 -0.65625l0.5625 -2.90625q0.1875 -0.1875 0.28125 0l0 2.90625q0 0.46875 0.375 0.65625q0.65625 0.28125 0 0.84375q-0.28125 0.28125 -1.6875 0.28125l-8.15625 0zm-7.21875 -1.59375q0 -0.5625 0.65625 -1.03125q1.59375 -1.125 1.96875 -4.3125q0.1875 -0.5625 0.46875 0q0.375 2.34375 -0.46875 4.59375q-0.5625 1.59375 -1.875 1.59375q-0.75 0 -0.75 -0.84375zm39.65625 -12.84375q-0.28125 -1.78125 -1.40625 -2.8125l-1.125 0q-1.125 1.5 -2.0625 2.34375l0.28125 0.09375q1.21875 0.375 -0.375 0.65625l0 1.40625l7.40625 0l0.75 -0.75l1.5 1.125q1.125 0.9375 -0.75 0.84375l-2.34375 1.875q-0.375 0.28125 -0.375 -0.1875l1.5 -2.34375l-15.65625 0q-0.09375 1.3125 -0.75 2.34375q-0.46875 0.65625 -0.9375 0.65625q-0.75 0 -0.75 -0.5625q0 -0.5625 0.28125 -0.84375q1.40625 -1.03125 1.78125 -3.09375q0.1875 -0.375 0.375 0.09375l0 0.84375l6.75 0l0 -2.53125l0.75 0.1875q2.0625 -2.15625 3.09375 -5.53125l1.59375 0.75q0.75 0.65625 -0.65625 0.65625q-0.375 0.5625 -1.03125 1.40625l4.5 0l1.21875 -1.21875l1.5 1.125q0.5625 0.46875 0 0.65625l-5.90625 0q2.0625 1.3125 2.0625 2.4375q0 0.9375 -0.65625 0.9375q-0.46875 0 -0.5625 -0.5625zm-10.125 -5.4375q0.75 0.65625 -0.65625 0.65625q-0.375 0.65625 -0.84375 1.40625l4.21875 0l1.21875 -1.21875l1.5 1.125q0.5625 0.46875 0 0.65625l-5.53125 0q1.96875 1.40625 1.96875 2.4375q0 0.9375 -0.75 0.9375q-0.375 0 -0.46875 -0.75q-0.28125 -1.6875 -1.3125 -2.625l-1.21875 0q-1.78125 2.625 -3.1875 3.84375q-0.65625 0.28125 -0.28125 -0.28125q2.71875 -3.375 3.5625 -7.03125l1.78125 0.84375zm8.34375 12.9375l0 -2.625l-7.40625 0l0 2.625l7.40625 0zm-0.28125 -3.1875l0.5625 -0.75l1.3125 0.9375q0.5625 0.46875 -0.375 0.65625l0 3.375q-1.21875 1.125 -1.21875 0.09375l0 -0.5625l-7.40625 0l0 2.25l8.15625 0l0.5625 -0.75l1.3125 0.9375q0.5625 0.46875 -0.375 0.65625l0 3.65625q-1.21875 1.125 -1.21875 0.09375l0 -0.65625l-8.4375 0l0 1.03125q-1.21875 1.125 -1.21875 0.09375l0 -11.8125l1.40625 0.75l6.9375 0zm1.3125 9.375l0 -2.8125l-8.4375 0l0 2.8125l8.4375 0zm24.1875 -4.5l0 4.59375l3.46875 0l1.40625 -1.40625l1.78125 1.3125q0.5625 0.46875 0 0.65625l-16.03125 0l0 -0.5625l8.15625 0l0 -4.59375l-4.6875 0l0 -0.5625l4.6875 0l0 -3.84375l-3.65625 0l0 1.3125q-1.21875 1.125 -1.21875 0.09375l0 -10.96875l1.40625 0.65625l7.96875 0l0.5625 -0.75l1.3125 0.9375q0.5625 0.46875 -0.375 0.65625l0 8.8125q-1.21875 1.125 -1.21875 0.09375l0 -0.84375l-3.5625 0l0 3.84375l3.0 0l1.21875 -1.21875l1.5 1.125q0.5625 0.46875 0 0.65625l-5.71875 0zm-10.59375 -11.34375l0 5.25l0.84375 0l1.21875 -1.21875l1.5 1.125q0.5625 0.46875 0 0.65625l-3.5625 0l0 5.8125l4.6875 -1.78125q0.46875 0 0.1875 0.375l-7.6875 3.9375q-0.28125 1.5 -0.84375 0.75l-1.21875 -1.59375l3.65625 -1.21875l0 -6.28125l-3.09375 0l0 -0.5625l3.09375 0l0 -5.25l-3.46875 0l0 -0.5625l5.8125 0l1.21875 -1.21875l1.5 1.125q0.5625 0.46875 0 0.65625l-3.84375 0zm14.15625 -1.40625l-3.5625 0l0 3.75l3.5625 0l0 -3.75zm-3.5625 4.3125l0 3.46875l3.5625 0l0 -3.46875l-3.5625 0zm-4.875 -4.3125l0 3.75l3.65625 0l0 -3.75l-3.65625 0zm0 7.78125l3.65625 0l0 -3.46875l-3.65625 0l0 3.46875zm27.75 2.90625q-0.5625 -1.59375 -2.15625 -3.09375q-0.28125 -0.375 0.1875 -0.28125q3.28125 1.40625 3.28125 3.375q0 0.84375 -0.65625 0.84375q-0.375 0 -0.65625 -0.84375zm-4.6875 -2.71875q2.625 -4.125 3.84375 -10.40625l1.78125 0.5625q1.3125 0.375 -0.375 0.84375l-1.59375 3.84375l6.09375 0l0.5625 -0.75l1.3125 0.9375q0.5625 0.46875 -0.375 0.65625l0 7.3125q0 4.5 -1.3125 6.09375q-0.75 0.9375 -2.15625 1.5q-1.3125 0.5625 -1.3125 -0.1875q0 -0.75 -0.46875 -0.84375l-1.6875 -0.46875q-0.46875 -0.28125 0.09375 -0.375l2.25 0.1875q0.9375 0.09375 1.875 -0.46875q1.5 -1.03125 1.5 -5.625l0 -7.40625l-6.65625 0q-1.40625 3.0 -3.0 4.78125q-0.46875 0.28125 -0.375 -0.1875zm-0.5625 8.15625q-1.21875 1.125 -1.21875 0.09375l0 -1.40625l-5.4375 0l0 2.25q-1.21875 1.125 -1.21875 0.09375l0 -15.09375l1.40625 0.75l1.3125 0l0.9375 -5.25l1.40625 0.375q1.6875 0.375 -0.28125 1.125l-1.5 3.75l3.09375 0l0.5625 -0.75l1.3125 0.9375q0.5625 0.46875 -0.375 0.65625l0 12.46875zm-1.21875 -12.75l-5.4375 0l0 4.875l5.4375 0l0 -4.875zm-5.4375 5.4375l0 5.4375l5.4375 0l0 -5.4375l-5.4375 0zm25.59375 -2.25q-0.46875 0 -0.75 -0.5625q-0.65625 -1.5 -2.34375 -2.15625q-0.375 -0.1875 0.09375 -0.28125q1.59375 0.09375 3.0 1.125q0.5625 0.5625 0.5625 1.21875q0 0.65625 -0.5625 0.65625zm-3.46875 10.40625l3.65625 -1.78125l0 -5.15625l-3.84375 0l0 -0.5625l3.65625 0l0.65625 -0.65625l1.21875 0.84375q0.5625 0.5625 -0.46875 0.75l0 4.6875q2.4375 1.875 8.15625 1.875l8.4375 0q-0.5625 0.1875 -1.03125 1.125l-7.3125 0q-6.09375 0 -8.8125 -2.8125l-2.53125 2.34375q0.09375 1.3125 -0.5625 0.5625l-1.21875 -1.21875zm4.96875 -15.1875q-0.46875 0 -0.9375 -0.75q-0.84375 -1.40625 -2.34375 -2.0625q-0.46875 -0.28125 0.09375 -0.28125q1.59375 0.1875 2.90625 1.03125q0.84375 0.5625 0.84375 1.3125q0 0.75 -0.5625 0.75zm7.6875 2.4375l0 -3.75q-3.46875 0.375 -5.34375 0.46875q-0.5625 -0.1875 0 -0.375q6.09375 -0.84375 10.21875 -2.4375l1.59375 1.03125q0.5625 0.65625 -1.03125 0.28125q-2.0625 0.46875 -4.21875 0.84375l0 3.9375l4.59375 0l1.21875 -1.21875l1.5 1.125q0.5625 0.46875 0 0.65625l-7.3125 0l0 3.84375l3.28125 0l0.5625 -0.75l1.3125 0.9375q0.5625 0.46875 -0.375 0.65625l0 5.90625q-1.21875 1.125 -1.21875 0.09375l0 -1.03125l-8.0625 0l0 1.125q-1.21875 1.125 -1.21875 0.09375l0 -7.96875l1.40625 0.9375l3.09375 0l0 -3.84375l-6.5625 0l0 -0.5625l6.5625 0zm-3.28125 4.96875l0 4.6875l8.0625 0l0 -4.6875l-8.0625 0zm20.25 -4.3125l-1.40625 0l0 2.0625q0 2.90625 -2.8125 4.3125l0 1.40625l7.125 0l0 -2.8125l-1.78125 0q-1.125 0 -1.125 -1.125l0 -3.84375zm2.90625 4.03125l0 -4.03125l-1.875 0l0 3.65625q0 0.375 0.375 0.375l1.5 0zm-5.34375 -4.03125l-1.78125 0l0 5.8125q1.59375 -0.75 1.78125 -3.75l0 -2.0625zm2.4375 -4.78125l-1.40625 0l0 4.21875l1.40625 0l0 -4.21875zm-6.0 -0.5625l8.34375 0l1.21875 -1.21875l1.5 1.125q0.5625 0.46875 0 0.65625l-4.03125 0l0 4.21875l1.59375 0l0.5625 -0.75l1.3125 0.9375q0.5625 0.46875 -0.375 0.65625l0 12.75q-1.21875 1.125 -1.21875 0.09375l0 -0.9375l-7.125 0l0 1.21875q-1.21875 1.125 -1.21875 0.09375l0 -15.0l1.40625 0.9375l1.59375 0l0 -4.21875l-3.5625 0l0 -0.5625zm1.78125 16.96875l7.125 0l0 -3.28125l-7.125 0l0 3.28125zm11.625 -0.1875q0 0.375 0.375 0.375l5.625 0q0.9375 0 1.03125 -0.65625l0.5625 -2.90625q0.18748474 -0.1875 0.28123474 0l0 2.90625q0 0.46875 0.375 0.65625q0.65625 0.28125 0 0.84375q-0.28125 0.28125 -1.6874847 0.28125l-6.65625 0q-1.125 0 -1.125 -1.125l0 -10.3125l1.40625 0.84375l5.15625 0l0 -7.125l-6.28125 0l0 -0.5625l6.0 0l0.5625 -0.75l1.3125 0.9375q0.5625 0.46875 -0.375 0.65625l0 8.53125q-1.21875 1.125 -1.21875 0.09375l0 -1.21875l-5.34375 0l0 8.53125z" fill-rule="nonzero"/><path fill="#cacaca" d="m58.478317 254.83478q1.296875 0 2.53125 0.671875q1.25 0.671875 1.9375 1.921875q0.6875 1.234375 0.6875 2.5625q0 2.15625 -1.515625 3.671875q-1.5 1.5 -3.640625 1.5q-2.140625 0 -3.65625 -1.5q-1.5 -1.515625 -1.5 -3.671875q0 -1.34375 0.6875 -2.578125q0.6875 -1.234375 1.921875 -1.90625q1.25 -0.671875 2.546875 -0.671875z" fill-rule="nonzero"/><path fill="#cacaca" d="m93.88066 250.33478l3.640625 0q2.640625 0 4.03125 1.28125q1.390625 1.265625 1.390625 3.21875q0 1.953125 -1.734375 3.59375q-1.71875 1.625 -4.59375 1.625q-0.796875 0 -1.703125 -0.140625l0.1875 5.203125q0.046875 0.4375 0.453125 0.625q0.40625 0.171875 1.59375 0.40625l-0.078125 0.703125q-1.515625 -0.078125 -3.296875 -0.078125q-1.765625 0 -3.28125 0.078125l-0.0625 -0.703125q1.21875 -0.234375 1.640625 -0.421875q0.4375 -0.203125 0.484375 -0.609375q0.203125 -1.421875 0.203125 -5.140625q0 -6.015625 -0.15625 -7.5l-0.046875 -0.484375q-0.046875 -0.4375 -0.4375 -0.609375q-0.375 -0.1875 -1.53125 -0.421875l0.078125 -0.703125q1.515625 0.078125 3.21875 0.078125zm2.34375 8.703125q2.0625 0 3.234375 -0.984375q1.1875 -0.984375 1.1875 -2.984375q0 -2.0 -1.015625 -2.859375q-1.0 -0.875 -3.015625 -0.875q-0.890625 0 -1.140625 0.125q-0.234375 0.125 -0.328125 0.703125q-0.234375 1.234375 -0.234375 6.8125q0.6875 0.0625 1.3125 0.0625zm14.980209 -3.453125q0.1875 0 0.625 0.5625q0.453125 0.5625 0.59375 1.125l-0.359375 0.453125q-0.859375 -0.34375 -1.796875 -0.34375q-0.9375 0 -1.703125 0.78125q-0.765625 0.78125 -0.765625 2.515625q0.015625 4.21875 0.21875 4.921875q0.015625 0.1875 0.671875 0.34375q0.671875 0.15625 1.390625 0.203125l-0.078125 0.703125q-1.15625 -0.078125 -2.921875 -0.078125q-1.75 0 -2.90625 0.078125l0.078125 -0.703125q0.46875 -0.046875 1.0 -0.203125q0.53125 -0.15625 0.546875 -0.328125q0.203125 -0.828125 0.203125 -3.359375q0 -4.078125 -0.203125 -4.984375l-1.53125 -0.453125l-0.046875 -0.625q1.53125 0 3.171875 -0.4375l0.453125 0.21875q-0.046875 0.359375 -0.046875 1.96875q0.6875 -1.15625 1.75 -1.75q1.078125 -0.609375 1.65625 -0.609375zm7.1979675 1.328125q-0.984375 0 -1.703125 0.5q-0.71875 0.484375 -1.0625 1.21875q-0.640625 1.375 -0.640625 2.625q0 1.96875 0.78125 3.28125q0.796875 1.296875 2.5 1.296875q0.921875 0 1.609375 -0.421875q0.703125 -0.421875 1.0625 -1.09375q0.6875 -1.25 0.75 -2.484375q0 -4.921875 -3.296875 -4.921875zm0.125 -1.1875q2.734375 0 3.984375 1.40625q1.25 1.390625 1.25 3.875q0 2.484375 -1.4375 4.234375q-1.421875 1.75 -4.15625 1.75q-2.734375 0 -3.984375 -1.375q-1.25 -1.390625 -1.25 -3.859375q0 -2.46875 1.421875 -4.25q1.4375 -1.78125 4.171875 -1.78125zm17.180344 5.546875q0 3.09375 0.171875 4.03125l0.0625 0.3125q0.03125 0.171875 0.546875 0.328125q0.515625 0.15625 1.0 0.203125l-0.078125 0.703125q-1.15625 -0.078125 -2.640625 -0.078125q-1.484375 0 -2.640625 0.078125l0.078125 -0.703125q0.453125 -0.046875 0.96875 -0.203125q0.515625 -0.15625 0.546875 -0.328125q0.1875 -0.828125 0.1875 -4.34375l0 -2.328125q0 -0.9375 -0.5625 -1.296875q-0.546875 -0.359375 -1.3125 -0.359375q-0.765625 0 -1.203125 0.0625q-0.421875 0.0625 -0.765625 0.15625q-0.453125 0.125 -1.25 0.453125l0 3.3125q0 2.984375 0.1875 4.03125l0.078125 0.3125q0.03125 0.171875 0.546875 0.328125q0.515625 0.15625 0.984375 0.203125l-0.0625 0.703125q-1.15625 -0.078125 -2.640625 -0.078125q-1.484375 0 -2.640625 0.078125l0.0625 -0.703125q0.46875 -0.046875 0.984375 -0.203125q0.515625 -0.15625 0.53125 -0.328125q0.171875 -0.828125 0.171875 -3.359375q0 -4.078125 -0.1875 -4.984375l-1.546875 -0.453125l-0.046875 -0.625q1.546875 0 3.171875 -0.4375l0.453125 0.21875q-0.015625 0.59375 -0.015625 1.15625q2.65625 -1.40625 4.53125 -1.40625q1.875 0 2.234375 1.421875q2.515625 -1.421875 4.5625 -1.421875q1.203125 0 1.8125 0.484375q0.625 0.484375 0.625 1.796875l0 3.265625q0 3.09375 0.171875 4.03125l0.078125 0.3125q0.015625 0.171875 0.53125 0.328125q0.515625 0.15625 1.0 0.203125l-0.078125 0.703125q-1.140625 -0.078125 -2.640625 -0.078125q-1.484375 0 -2.625 0.078125l0.0625 -0.703125q0.453125 -0.046875 0.96875 -0.203125q0.515625 -0.15625 0.546875 -0.328125q0.1875 -0.828125 0.1875 -4.34375l0 -2.328125q0 -0.9375 -0.546875 -1.296875q-0.546875 -0.359375 -1.953125 -0.359375q-1.40625 0 -2.609375 0.671875l0 3.3125zm17.205688 -2.1875q0 -1.09375 -0.625 -1.625q-0.625 -0.546875 -1.390625 -0.546875q-1.125 0 -1.9375 0.890625q-0.8125 0.875 -1.078125 2.171875l4.96875 -0.1875q0.0625 -0.359375 0.0625 -0.703125zm-2.078125 7.90625q-2.546875 0 -3.84375 -1.453125q-1.296875 -1.453125 -1.296875 -3.859375q0 -2.421875 1.421875 -4.1875q1.4375 -1.765625 4.3125 -1.765625q1.46875 0 2.546875 1.046875q1.09375 1.03125 1.09375 3.0625l-0.8125 0.984375q-0.140625 -0.015625 -2.265625 -0.015625q-2.125 0 -4.265625 0.15625l0 0.21875q0 2.1875 0.90625 3.28125q0.921875 1.09375 2.5 1.09375q1.59375 0 3.34375 -0.765625l0.28125 0.71875q-1.84375 1.484375 -3.921875 1.484375zm9.672211 0q-2.5 0 -2.5 -2.40625q0.015625 -2.109375 0.015625 -3.875q0 -1.765625 -0.046875 -3.6875l-1.53125 0.03125l-0.078125 -0.265625l0.5625 -0.9375q0.328125 0.078125 1.0 0.09375l-0.09375 -2.203125l1.578125 -1.421875l0.46875 0.21875q-0.046875 1.78125 -0.046875 3.390625l3.515625 -0.03125l0.125 0.296875l-0.859375 0.953125q-0.828125 -0.09375 -2.78125 -0.125l0 3.21875q0 3.0 0.0625 4.296875q0.078125 1.078125 1.28125 1.078125q0.953125 0 2.109375 -0.546875l0.28125 0.796875q-1.703125 1.125 -3.0625 1.125zm8.879227 -0.140625q-1.15625 -0.078125 -2.65625 -0.078125q-1.484375 0 -2.625 0.078125l0.0625 -0.703125q0.453125 -0.046875 0.96875 -0.203125q0.515625 -0.15625 0.546875 -0.328125q0.171875 -1.5625 0.171875 -6.0q0 -7.21875 -0.140625 -8.4375l-0.0625 -0.421875l-1.53125 -0.453125l-0.046875 -0.625q1.53125 0 3.171875 -0.421875l0.453125 0.21875q-0.046875 2.796875 -0.046875 7.65625q2.65625 -1.40625 4.796875 -1.40625q1.203125 0 1.828125 0.484375q0.625 0.484375 0.625 1.796875l0 3.265625q0 3.09375 0.1875 4.03125l0.046875 0.3125q0.03125 0.171875 0.546875 0.328125q0.515625 0.15625 1.0 0.203125l-0.078125 0.703125q-1.15625 -0.078125 -2.640625 -0.078125q-1.484375 0 -2.640625 0.078125l0.078125 -0.703125q0.453125 -0.046875 0.96875 -0.203125q0.515625 -0.15625 0.53125 -0.328125q0.203125 -0.828125 0.203125 -4.34375l0 -2.328125q0 -0.9375 -0.5625 -1.296875q-0.546875 -0.359375 -1.3125 -0.359375q-0.765625 0 -1.234375 0.0625q-0.46875 0.0625 -0.859375 0.15625q-0.953125 0.265625 -1.25 0.390625l-0.234375 0.0625q0 7.125 0.265625 7.65625q0.015625 0.171875 0.53125 0.328125q0.515625 0.15625 1.0 0.203125l-0.0625 0.703125zm15.782593 -7.765625q0 -1.09375 -0.625 -1.625q-0.625 -0.546875 -1.390625 -0.546875q-1.125 0 -1.9375 0.890625q-0.8125 0.875 -1.078125 2.171875l4.96875 -0.1875q0.0625 -0.359375 0.0625 -0.703125zm-2.078125 7.90625q-2.546875 0 -3.84375 -1.453125q-1.296875 -1.453125 -1.296875 -3.859375q0 -2.421875 1.421875 -4.1875q1.4375 -1.765625 4.3125 -1.765625q1.46875 0 2.546875 1.046875q1.09375 1.03125 1.09375 3.0625l-0.8125 0.984375q-0.140625 -0.015625 -2.265625 -0.015625q-2.125 0 -4.265625 0.15625l0 0.21875q0 2.1875 0.90625 3.28125q0.921875 1.09375 2.5 1.09375q1.59375 0 3.34375 -0.765625l0.28125 0.71875q-1.84375 1.484375 -3.921875 1.484375zm9.469086 0q-2.4375 0 -2.4375 -2.5l0 -3.21875q0 -3.21875 -0.171875 -4.0l-1.421875 -0.453125l-0.046875 -0.625q1.421875 0 3.046875 -0.4375l0.453125 0.21875q-0.0625 4.296875 -0.0625 7.796875q0 1.609375 1.9375 1.609375q0.8125 0 1.75 -0.265625q0.9375 -0.28125 1.5 -0.625q0.09375 -1.296875 0.09375 -3.046875q0 -3.265625 -0.203125 -4.171875l-1.5 -0.453125l-0.046875 -0.625q1.53125 0 3.15625 -0.4375l0.453125 0.21875q-0.0625 1.796875 -0.0625 5.953125l0.0625 2.796875q0 0.421875 0.328125 0.65625q0.328125 0.21875 0.640625 0.28125q0.3125 0.046875 0.859375 0.078125l-0.0625 0.6875q-0.875 0.078125 -2.625 0.4375q-0.71875 -0.3125 -0.984375 -1.4375q-2.296875 1.5625 -4.65625 1.5625zm16.153091 -10.828125l0.34375 0.171875q0 1.5625 0.140625 2.375l-0.625 0.21875q-0.3125 -1.234375 -0.875 -1.703125q-0.5625 -0.484375 -1.4375 -0.484375q-0.859375 0 -1.359375 0.453125q-0.5 0.453125 -0.5 1.078125q0 1.078125 1.25 1.78125l2.4375 1.34375q1.59375 0.890625 1.59375 2.5625q0 1.234375 -0.984375 2.140625q-0.96875 0.890625 -2.765625 0.890625q-1.796875 0 -3.703125 -0.609375q0.296875 -1.671875 0.296875 -2.75l0.625 -0.21875q0.21875 0.859375 0.3125 1.171875q0.109375 0.3125 0.390625 0.78125q0.28125 0.453125 0.703125 0.59375q0.4375 0.140625 1.28125 0.140625q0.84375 0 1.390625 -0.46875q0.546875 -0.484375 0.546875 -1.15625q0 -1.015625 -1.125 -1.640625l-2.59375 -1.4375q-1.578125 -0.84375 -1.578125 -2.5625q0 -1.234375 0.9375 -2.171875q0.9375 -0.9375 2.609375 -0.9375q1.6875 0 2.6875 0.4375z" fill-rule="nonzero"/><path fill="#cacaca" d="m230.97528 261.05353l0 6.1875l3.375 0l0 -6.1875l-3.375 0zm-10.5 6.1875q0 -5.25 -0.09375 -7.6875l1.40625 0.9375l12.375 0l0.9375 -0.9375l1.3125 1.3125l-0.84375 0.65625l0 5.71875l0.9375 0l1.21875 -1.21875l1.6875 1.78125l-18.84375 0q-1.21875 0 -2.25 0.28125l-0.84375 -0.84375l3.0 0zm1.21875 -6.1875l0 6.1875l3.46875 0l0 -6.1875l-3.46875 0zm4.6875 0l0 6.1875l3.375 0l0 -6.1875l-3.375 0zm-4.96875 -10.6875q0 5.4375 0.09375 7.40625l-1.40625 0.65625q0.09375 -3.46875 0.09375 -5.390625q0 -1.921875 -0.09375 -4.359375l1.96875 0.9375l-0.65625 0.75zm4.40625 -1.3125q0 8.0625 0.09375 10.125l-1.40625 0.65625q0.09375 -3.09375 0.09375 -6.234375q0 -3.140625 -0.09375 -6.234375l2.0625 0.9375l-0.75 0.75zm5.90625 0.1875q-0.46875 1.5 -0.75 2.15625l4.40625 0l1.21875 -1.21875l1.6875 1.78125l-7.5 0q-1.78125 3.9375 -3.65625 6.0l-0.28125 -0.1875q1.59375 -2.90625 2.390625 -5.34375q0.796875 -2.4375 1.265625 -5.0625l2.15625 1.21875l-0.9375 0.65625zm0.375 3.9375q2.625 1.78125 3.375 2.953125q0.75 1.171875 0.09375 2.0625q-0.65625 0.890625 -1.21875 -0.609375q-0.5625 -1.5 -1.171875 -2.390625q-0.609375 -0.890625 -1.265625 -1.734375l0.1875 -0.28125z" fill-rule="nonzero"/><path fill="#cacaca" d="m253.19403 251.20978l-2.15625 0q0.09375 3.1875 -1.40625 3.1875q-0.5625 0 -0.5625 -0.5625q0 -0.375 0.28125 -0.65625q1.03125 -1.21875 0.9375 -3.46875q0.09375 -0.375 0.375 0l0.28125 0.9375l4.3125 0l0 -3.0l1.59375 0.28125q0.75 0.46875 -0.375 0.65625l0 2.0625l4.59375 0l0.65625 -0.65625l1.59375 1.3125q0.5625 0.65625 -0.65625 0.5625q-0.46875 -0.09375 -0.84375 0.375l-1.21875 1.5q-0.375 0.28125 -0.375 -0.09375l0.84375 -2.4375l-3.0 0l0 5.34375q0 0.375 0.375 0.375l3.1875 0q0.46875 0 0.65625 -0.75l0.46875 -1.875q0.1875 -0.1875 0.28125 0l0 2.0625q0 0.375 0.375 0.65625q0.375 0.28125 0 0.65625q-0.375 0.375 -1.03125 0.375l-4.40625 0q-1.125 0 -1.125 -1.125l0 -5.71875l-2.4375 0l0 0.84375q0 5.34375 -5.8125 8.34375q-0.46875 0 -0.1875 -0.375q4.78125 -3.09375 4.78125 -7.40625l0 -1.40625zm-7.21875 8.34375l0 7.21875q0 1.03125 -0.65625 1.59375q-0.375 0.375 -0.9375 0.375q-0.375 0 -0.375 -0.375q0 -0.46875 -0.5625 -0.65625l-1.21875 -0.28125q-0.375 -0.1875 0 -0.375l1.875 0q0.65625 0 0.65625 -0.65625l0 -6.375l-1.78125 0.9375q0.1875 1.5 -0.75 0.46875l-0.84375 -1.21875l3.375 -1.125l0 -5.71875l-3.1875 0l0 -0.5625l3.1875 0l0 -5.15625l1.59375 0.28125q0.75 0.46875 -0.375 0.65625l0 4.21875l0.46875 0l0.9375 -0.9375l1.3125 1.03125q0.28125 0.375 -0.1875 0.46875l-2.53125 0l0 5.34375l3.84375 -1.5q0.46875 0 0.1875 0.375l-4.03125 1.96875zm2.53125 7.78125l0 -0.5625l6.28125 0l0 -5.4375l-4.96875 0l0 -0.5625l9.75 0l1.21875 -1.21875l1.5 1.125q0.5625 0.46875 0 0.65625l-6.28125 0l0 5.4375l4.40625 0l1.21875 -1.21875l1.5 1.125q0.5625 0.46875 0 0.65625l-14.625 0zm31.21875 -6.9375q-0.5625 -1.59375 -2.15625 -3.09375q-0.28125 -0.375 0.1875 -0.28125q3.28125 1.40625 3.28125 3.375q0 0.84375 -0.65625 0.84375q-0.375 0 -0.65625 -0.84375zm-4.6875 -2.71875q2.625 -4.125 3.84375 -10.40625l1.78125 0.5625q1.3125 0.375 -0.375 0.84375l-1.59375 3.84375l6.09375 0l0.5625 -0.75l1.3125 0.9375q0.5625 0.46875 -0.375 0.65625l0 7.3125q0 4.5 -1.3125 6.09375q-0.75 0.9375 -2.15625 1.5q-1.3125 0.5625 -1.3125 -0.1875q0 -0.75 -0.46875 -0.84375l-1.6875 -0.46875q-0.46875 -0.28125 0.09375 -0.375l2.25 0.1875q0.9375 0.09375 1.875 -0.46875q1.5 -1.03125 1.5 -5.625l0 -7.40625l-6.65625 0q-1.40625 3.0 -3.0 4.78125q-0.46875 0.28125 -0.375 -0.1875zm-0.5625 8.15625q-1.21875 1.125 -1.21875 0.09375l0 -1.40625l-5.4375 0l0 2.25q-1.21875 1.125 -1.21875 0.09375l0 -15.09375l1.40625 0.75l1.3125 0l0.9375 -5.25l1.40625 0.375q1.6875 0.375 -0.28125 1.125l-1.5 3.75l3.09375 0l0.5625 -0.75l1.3125 0.9375q0.5625 0.46875 -0.375 0.65625l0 12.46875zm-1.21875 -12.75l-5.4375 0l0 4.875l5.4375 0l0 -4.875zm-5.4375 5.4375l0 5.4375l5.4375 0l0 -5.4375l-5.4375 0zm44.15622 1.78125q-1.03125 0.375 -1.6875 1.21875q-3.9375 -2.0625 -6.9375 -7.03125q-3.09375 4.6875 -7.96875 7.6875q-0.5625 0.1875 -0.28125 -0.375q5.15625 -3.75 7.40625 -8.625l1.5 0.46875q0.84375 0.28125 -0.1875 0.5625q3.0 4.3125 8.15625 6.09375zm-11.0625 -8.71875l0 2.71875q-1.21875 1.125 -1.21875 0.09375l0 -2.8125l-3.46875 0l0 -0.5625l3.46875 0l0 -3.1875l1.59375 0.28125q0.75 0.46875 -0.375 0.65625l0 2.25l4.3125 0l0 -3.28125l1.59375 0.28125q0.75 0.46875 -0.375 0.65625l0 2.34375l1.78125 0l1.40625 -1.40625l1.78125 1.3125q0.5625 0.46875 0 0.65625l-4.96875 0l0 2.34375q-1.21875 1.125 -1.21875 0.09375l0 -2.4375l-4.3125 0zm-6.84375 1.5l0.9375 0l1.03125 -1.03125l1.3125 0.9375q0.5625 0.46875 0 0.65625l-3.28125 0l0 3.9375l4.21875 -1.40625q0.84375 0 0.1875 0.46875l-4.40625 1.875l0 8.53125q0 1.03125 -0.65625 1.59375q-0.375 0.375 -0.9375 0.375q-0.375 0 -0.375 -0.375q0 -0.46875 -0.5625 -0.65625l-1.21875 -0.28125q-0.375 -0.1875 0 -0.375l1.875 0q0.65625 0 0.65625 -0.65625l0 -7.6875l-1.875 0.84375q-0.28125 1.875 -0.9375 0.46875l-0.84375 -1.3125l3.65625 -1.03125l0 -4.3125l-3.375 0l0 -0.5625l3.375 0l0 -5.53125l1.59375 0.28125q0.75 0.46875 -0.375 0.65625l0 4.59375zm5.53125 6.375l4.6875 0l1.03125 -1.03125l1.3125 0.9375q0.5625 0.46875 0 0.65625l-7.03125 0l0 -0.5625zm6.65625 3.0l0.5625 -0.75l1.3125 0.9375q0.5625 0.46875 -0.375 0.65625l0 4.78125q-1.21875 1.125 -1.21875 0.09375l0 -0.84375l-6.28125 0l0 1.21875q-1.21875 1.125 -1.21875 0.09375l0 -6.75l1.40625 0.5625l5.8125 0zm0.28125 0.5625l-6.28125 0l0 3.75l6.28125 0l0 -3.75zm7.03125 4.59375q-0.5625 0.1875 -0.28125 -0.1875q2.0625 -1.6875 3.9375 -4.875q-0.84375 -1.5 -1.78125 -4.21875l0.46875 -0.28125q0.75 2.0625 1.59375 3.75q0.84375 -1.78125 1.40625 -5.25l-2.8125 0l-0.5625 1.03125q-1.125 0.375 -1.125 -0.28125l3.84375 -7.59375l-4.21875 0l0 -0.5625l4.125 0l0.65625 -0.65625l1.21875 0.9375q0.46875 0.65625 -0.5625 0.5625l-3.09375 6.0l2.34375 0l0.65625 -0.65625l1.40625 1.125l5.15625 0l0 -2.625l-6.75 0l0 -0.5625l6.75 0l0 -2.53125l-4.6875 0l0 -0.5625l4.6875 0l0 -2.90625l1.59375 0.28125q0.75 0.46875 -0.375 0.65625l0 1.96875l3.09375 0l0.5625 -0.75l1.3125 0.9375q0.5625 0.46875 -0.375 0.65625l0 2.25l0.75 0l1.03125 -1.03125l1.3125 0.9375q0.5625 0.46875 0 0.65625l-3.09375 0l0 3.5625q-1.21875 1.125 -1.21875 0.09375l0 -0.46875l-3.375 0l0 2.34375l3.46875 0l1.21875 -1.21875l1.5 1.125q0.5625 0.46875 0 0.65625l-6.1875 0l0 2.25l4.78125 0l1.21875 -1.21875l1.5 1.125q0.5625 0.46875 0 0.65625l-7.5 0l0 3.75l7.5 0q-0.84375 0.5625 -0.9375 1.125l-7.96875 0q-2.53125 0 -4.5 -1.03125q-1.96875 -1.03125 -3.5625 -3.1875q-1.96875 2.8125 -4.125 4.21875zm7.96875 -2.0625q1.96875 0.9375 4.40625 0.9375l0 -3.75l-6.0 0l0 -0.5625l6.0 0l0 -2.25l-4.6875 0l0 -0.5625l4.6875 0l0 -2.34375l-5.4375 0l0 -0.375l-0.46875 0.09375q-0.5625 3.375 -1.875 5.90625q1.40625 1.96875 3.375 2.90625zm5.625 -14.8125l0 2.53125l3.375 0l0 -2.53125l-3.375 0zm0 5.71875l3.375 0l0 -2.625l-3.375 0l0 2.625z" fill-rule="nonzero"/><path fill="#cacaca" d="m58.478317 297.83478q1.296875 0 2.53125 0.671875q1.25 0.671875 1.9375 1.921875q0.6875 1.234375 0.6875 2.5625q0 2.15625 -1.515625 3.671875q-1.5 1.5 -3.640625 1.5q-2.140625 0 -3.65625 -1.5q-1.5 -1.515625 -1.5 -3.671875q0 -1.34375 0.6875 -2.578125q0.6875 -1.234375 1.921875 -1.90625q1.25 -0.671875 2.546875 -0.671875z" fill-rule="nonzero"/><path fill="#cacaca" d="m98.53691 296.27228q0.28125 -1.5 0.515625 -3.140625q0.234375 -1.640625 0.328125 -3.046875l1.96875 0.84375l-0.65625 0.65625q-0.65625 3.75 -0.84375 4.6875l9.375 0l1.3125 -1.3125l1.78125 1.875l-12.5625 0q-0.28125 1.78125 -0.75 3.46875l8.0625 0l0.65625 -1.03125l1.59375 1.40625l-0.84375 0.65625q-1.6875 3.09375 -3.84375 5.53125q3.09375 2.53125 8.0625 3.46875l0 0.28125q-1.40625 0.28125 -1.78125 1.3125q-4.40625 -1.59375 -7.03125 -4.125q-3.65625 3.09375 -9.28125 4.3125l-0.09375 -0.28125q5.8125 -1.96875 8.53125 -4.96875q-2.0625 -2.71875 -3.28125 -6.0l-0.84375 0q-1.03125 3.09375 -2.859375 5.859375q-1.828125 2.765625 -4.828125 4.734375l-0.1875 -0.28125q1.5 -1.3125 2.953125 -3.28125q1.453125 -1.96875 2.53125 -4.453125q1.078125 -2.484375 1.921875 -6.609375l-4.3125 0l-0.75 0.84375l-1.21875 -1.3125l0.75 -0.46875q1.3125 -3.0 1.59375 -4.59375l1.875 1.03125l-0.75 0.5625q-0.9375 2.34375 -1.40625 3.375l4.3125 0zm1.6875 4.59375q1.5 3.0 3.5625 5.15625q1.78125 -2.0625 3.28125 -5.15625l-6.84375 0zm3.9375 -10.3125q2.71875 1.125 3.703125 1.921875q0.984375 0.796875 0.515625 2.015625q-0.46875 1.21875 -1.265625 -0.1875q-0.796875 -1.40625 -3.140625 -3.46875l0.1875 -0.28125z" fill-rule="nonzero"/><path fill="#cacaca" d="m114.47441 306.11603q-0.46875 0 -0.1875 -0.375q5.25 -3.84375 8.15625 -10.3125l-7.59375 0l0 -0.5625l7.78125 0q0.9375 -2.0625 1.5 -4.40625l1.6875 0.75q0.84375 0.375 -0.65625 0.84375q-0.5625 1.5 -1.21875 2.8125l9.0 0l1.40625 -1.40625l1.6875 1.3125q0.5625 0.46875 0 0.65625l-12.375 0q-0.84375 1.875 -2.0625 3.65625l0.46875 0.65625l4.21875 0l0 -3.28125l1.59375 0.28125q0.75 0.46875 -0.375 0.65625l0 2.34375l4.78125 0l0.5625 -0.75l1.3125 0.9375q0.5625 0.46875 -0.375 0.65625l0 7.3125q0 1.03125 -0.65625 1.59375q-0.375 0.375 -0.9375 0.375q-0.375 0 -0.375 -0.375q0 -0.46875 -0.5625 -0.65625l-1.21875 -0.28125q-0.375 -0.1875 0 -0.375l1.875 0q0.65625 0 0.65625 -0.65625l0 -7.21875l-5.0625 0l0 10.6875q-1.21875 1.125 -1.21875 0.09375l0 -10.78125l-4.40625 0l0 9.46875q-1.21875 1.125 -1.21875 0.09375l0 -9.28125q-2.625 3.375 -6.1875 5.53125zm35.25 -12.75q-4.78125 0.5625 -9.5625 0.84375q-1.03125 -0.1875 0 -0.5625q9.1875 -0.9375 16.21875 -2.53125l1.3125 1.03125q0.375 0.5625 -0.5625 0.46875q-0.9375 -0.09375 -1.59375 0q-1.21875 0.1875 -3.84375 0.5625l-4.5 4.875q0.9375 1.03125 0.9375 1.78125q0 1.03125 -0.75 1.03125q-0.28125 0 -0.65625 -0.9375q-0.75 -1.96875 -2.90625 -3.28125q-0.46875 -0.28125 0.1875 -0.28125q1.59375 0.375 2.8125 1.40625l2.90625 -4.40625zm3.375 11.71875q-0.28125 -0.1875 0.1875 -0.28125q2.71875 0.9375 4.3125 2.53125q1.40625 1.40625 1.40625 2.4375q0 0.65625 -0.65625 0.65625q-0.375 0 -0.75 -0.65625q-1.6875 -3.0 -4.5 -4.6875zm5.15625 -3.46875q1.03125 1.03125 1.03125 1.96875q0 0.84375 -0.5625 0.84375q-0.46875 0 -0.65625 -0.5625q-0.375 -0.9375 -0.84375 -1.5l-6.9375 0.5625l0 8.4375q-1.21875 1.125 -1.21875 0.09375l0 -8.4375l-7.125 0.75q-0.375 1.21875 -0.65625 0.65625l-1.40625 -1.96875l8.15625 -0.09375l6.46875 -7.6875l1.3125 1.03125q1.125 0.65625 -0.75 0.5625l-6.28125 6.0l8.15625 -0.375q-0.84375 -1.125 -1.96875 -2.0625q-0.46875 -0.375 0.1875 -0.28125q1.875 0.84375 3.09375 2.0625zm-11.34375 4.40625q0.5625 0.75 -1.125 0.46875q-3.0 3.1875 -6.0 4.40625q-0.65625 0.1875 -0.1875 -0.375q3.0 -2.0625 5.625 -5.71875l1.6875 1.21875z" fill-rule="nonzero"/><path fill="#cacaca" d="m175.50566 290.45978l0.1875 -0.28125q2.34375 1.125 2.625 1.828125q0.28125 0.703125 -0.375 1.546875q-0.65625 0.84375 -0.984375 -0.46875q-0.328125 -1.3125 -1.453125 -2.625zm-3.75 9.84375q1.03125 -0.28125 2.484375 -2.15625q1.453125 -1.875 2.109375 -3.5625l-2.0625 0q-1.21875 0 -2.25 0.28125l-0.84375 -0.84375l10.125 0l1.3125 -1.3125l1.59375 1.875l-7.40625 0l1.40625 1.125q-0.9375 0.28125 -1.96875 1.3125q-1.03125 1.03125 -2.90625 3.28125l7.78125 -0.375q-1.03125 -1.21875 -2.34375 -2.4375l0.1875 -0.28125q1.59375 0.75 2.859375 1.5q1.265625 0.75 1.5 1.40625q0.234375 0.65625 -0.1875 1.453125q-0.421875 0.796875 -0.75 0.1875q-0.328125 -0.609375 -0.890625 -1.359375q-2.8125 0.28125 -5.296875 0.609375q-2.484375 0.328125 -3.609375 1.078125l-0.84375 -1.78125zm3.09375 0.75l1.40625 -0.28125l-0.09375 2.34375q-0.28125 4.59375 -1.96875 6.234375q-1.6875 1.640625 -5.15625 2.671875l-0.09375 -0.28125q2.625 -1.3125 3.84375 -2.53125q1.21875 -1.21875 1.640625 -3.046875q0.421875 -1.828125 0.421875 -5.109375zm3.65625 -0.46875l1.21875 -0.1875l0 2.8125l0 5.90625q-0.09375 1.21875 1.40625 1.125l0.75 0q0.9375 0 1.03125 -0.796875q0.09375 -0.796875 0.1875 -2.765625l0.46875 0q0 1.5 0.1875 2.390625q0.1875 0.890625 0.84375 0.984375q-0.46875 1.3125 -1.875 1.3125l-2.34375 0q-1.875 0.09375 -1.875 -1.6875l0 -9.09375zm-15.1875 7.3125q0.9375 -0.09375 2.953125 -0.515625q2.015625 -0.421875 5.578125 -1.265625l0.09375 0.375q-1.96875 0.65625 -4.40625 1.546875q-2.4375 0.890625 -3.28125 1.828125l-0.9375 -1.96875zm2.15625 -4.96875q1.03125 -0.09375 6.09375 -0.75l0.09375 0.375q-2.25 0.46875 -4.125 1.03125q-1.875 0.5625 -2.8125 1.3125l-1.125 -1.96875q0.84375 -0.1875 2.34375 -1.828125q1.5 -1.640625 2.625 -3.234375q-1.40625 0.28125 -2.4375 0.515625q-1.03125 0.234375 -1.96875 0.890625l-0.9375 -1.59375q1.03125 -0.28125 2.4375 -2.578125q1.40625 -2.296875 2.25 -4.921875l1.78125 1.21875q-0.75 0.46875 -1.6875 1.921875q-0.9375 1.453125 -3.1875 4.359375q2.4375 -0.1875 4.03125 -0.28125q0.75 -1.03125 1.5 -2.71875l1.6875 1.3125q-0.84375 0.375 -2.484375 2.34375q-1.640625 1.96875 -4.078125 4.59375z" fill-rule="nonzero"/><path fill="#cacaca" d="m201.00566 303.39728q-0.5625 -1.59375 -2.15625 -3.09375q-0.28125 -0.375 0.1875 -0.28125q3.28125 1.40625 3.28125 3.375q0 0.84375 -0.65625 0.84375q-0.375 0 -0.65625 -0.84375zm-4.6875 -2.71875q2.625 -4.125 3.84375 -10.40625l1.78125 0.5625q1.3125 0.375 -0.375 0.84375l-1.59375 3.84375l6.09375 0l0.5625 -0.75l1.3125 0.9375q0.5625 0.46875 -0.375 0.65625l0 7.3125q0 4.5 -1.3125 6.09375q-0.75 0.9375 -2.15625 1.5q-1.3125 0.5625 -1.3125 -0.1875q0 -0.75 -0.46875 -0.84375l-1.6875 -0.46875q-0.46875 -0.28125 0.09375 -0.375l2.25 0.1875q0.9375 0.09375 1.875 -0.46875q1.5 -1.03125 1.5 -5.625l0 -7.40625l-6.65625 0q-1.40625 3.0 -3.0 4.78125q-0.46875 0.28125 -0.375 -0.1875zm-0.5625 8.15625q-1.21875 1.125 -1.21875 0.09375l0 -1.40625l-5.4375 0l0 2.25q-1.21875 1.125 -1.21875 0.09375l0 -15.09375l1.40625 0.75l1.3125 0l0.9375 -5.25l1.40625 0.375q1.6875 0.375 -0.28125 1.125l-1.5 3.75l3.09375 0l0.5625 -0.75l1.3125 0.9375q0.5625 0.46875 -0.375 0.65625l0 12.46875zm-1.21875 -12.75l-5.4375 0l0 4.875l5.4375 0l0 -4.875zm-5.4375 5.4375l0 5.4375l5.4375 0l0 -5.4375l-5.4375 0z" fill-rule="nonzero"/><path fill="#cacaca" d="m219.66191 304.33478l0 2.90625l3.84375 0l0 -2.90625l-3.84375 0zm-5.0625 -4.78125q0 10.125 0.09375 12.09375l-1.40625 0.65625q0.09375 -4.3125 0.09375 -8.671875q0 -4.359375 -0.09375 -5.859375l2.0625 0.9375l-0.75 0.84375zm0.46875 -3.84375q2.15625 1.125 2.578125 1.78125q0.421875 0.65625 0.140625 1.21875q-0.28125 0.5625 -0.65625 0.75q-0.375 0.1875 -0.515625 -0.421875q-0.140625 -0.609375 -0.515625 -1.359375q-0.375 -0.75 -1.21875 -1.59375l0.1875 -0.375zm9.9375 13.96875q1.6875 0.1875 2.390625 0.234375q0.703125 0.046875 1.078125 -0.046875q0.375 -0.09375 0.375 -0.65625l0 -11.53125l-7.03125 0q-0.75 0 -1.78125 0.28125l-0.84375 -0.84375l9.5625 0l0.84375 -0.84375l1.3125 1.3125l-0.84375 0.5625l0 11.71875q0 0.65625 -0.28125 1.171875q-0.28125 0.515625 -1.5 0.984375q-0.375 -1.40625 -3.28125 -1.96875l0 -0.375zm-6.65625 -0.375q0.09375 -3.09375 0.09375 -5.8125q0 -2.71875 -0.09375 -3.9375l1.3125 0.84375l3.9375 0l0.5625 -0.9375l1.5 1.3125l-0.9375 0.75q0 5.53125 0.1875 6.65625l-1.40625 0.5625l0 -0.9375l-3.84375 0l0 0.9375l-1.3125 0.5625zm1.3125 -8.34375l0 2.8125l3.84375 0l0 -2.8125l-3.84375 0zm-2.625 -9.375l-0.75 0.28125l-0.9375 1.125l4.125 0l1.03125 -1.03125l1.5 1.59375l-5.0625 0q1.40625 0.65625 1.6875 1.21875q0.28125 0.5625 0.046875 1.03125q-0.234375 0.46875 -0.609375 0.5625q-0.375 0.09375 -0.515625 -0.515625q-0.140625 -0.609375 -0.375 -1.125q-0.234375 -0.515625 -0.796875 -1.171875l-1.40625 0q-0.65625 0.5625 -1.546875 1.546875q-0.890625 0.984375 -2.109375 1.921875l-0.1875 -0.28125q1.21875 -1.3125 2.390625 -3.09375q1.171875 -1.78125 1.734375 -3.46875l1.78125 1.40625zm8.71875 -0.09375l-0.84375 0.375l-0.84375 1.125l5.34375 0l1.03125 -1.03125l1.5 1.59375l-6.1875 0q1.6875 0.84375 1.875 1.265625q0.1875 0.421875 0.046875 0.75q-0.140625 0.328125 -0.46875 0.609375q-0.328125 0.28125 -0.515625 -0.140625q-0.1875 -0.421875 -0.375 -1.03125q-0.1875 -0.609375 -0.9375 -1.453125l-1.59375 0q-1.40625 1.5 -3.0 2.8125l-0.28125 -0.28125q1.40625 -1.59375 2.296875 -3.234375q0.890625 -1.640625 1.265625 -2.578125l1.6875 1.21875zm13.96875 4.03125l0 3.09375l5.0625 0l0 -3.09375l-5.0625 0zm6.375 0l0 3.09375l5.34375 0l0 -3.09375l-5.34375 0zm-6.375 3.65625l0 3.1875l5.0625 0l0 -3.1875l-5.0625 0zm6.375 0l0 3.1875l5.34375 0l0 -3.1875l-5.34375 0zm-5.53125 -8.71875l0.1875 -0.28125q1.3125 0.75 2.296875 1.546875q0.984375 0.796875 0.9375 1.453125q-0.046875 0.65625 -0.5625 1.171875q-0.515625 0.515625 -1.03125 -0.9375q-0.515625 -1.453125 -1.828125 -2.953125zm5.53125 15.9375q0 3.84375 0.09375 5.0625l-1.5 0.65625q0.09375 -3.28125 0.09375 -5.71875l-7.96875 0l-1.21875 0.1875l-0.75 -0.75l9.9375 0l0 -2.90625l-5.0625 0l0 1.125l-1.40625 0.5625q0.09375 -2.625 0.09375 -5.25q0 -2.625 -0.09375 -5.25l1.5 0.84375l7.125 0q0.65625 -1.03125 1.359375 -2.484375q0.703125 -1.453125 0.984375 -2.484375l1.875 1.40625q-0.75 0.28125 -1.640625 1.21875q-0.890625 0.9375 -2.015625 2.34375l3.75 0l0.75 -0.84375l1.5 1.125l-0.84375 0.65625q0 5.71875 0.09375 7.5l-1.3125 0.5625l0 -1.03125l-5.34375 0l0 2.90625l7.03125 0l1.5 -1.5l2.0624847 2.0625l-10.593735 0z" fill-rule="nonzero"/><path fill="#cacaca" d="m262.69315 299.27228q-0.46875 0 -0.75 -0.5625q-0.65625 -1.5 -2.34375 -2.15625q-0.375 -0.1875 0.09375 -0.28125q1.59375 0.09375 3.0 1.125q0.5625 0.5625 0.5625 1.21875q0 0.65625 -0.5625 0.65625zm-3.46875 10.40625l3.65625 -1.78125l0 -5.15625l-3.84375 0l0 -0.5625l3.65625 0l0.65625 -0.65625l1.21875 0.84375q0.5625 0.5625 -0.46875 0.75l0 4.6875q2.4375 1.875 8.15625 1.875l8.4375 0q-0.5625 0.1875 -1.03125 1.125l-7.3125 0q-6.09375 0 -8.8125 -2.8125l-2.53125 2.34375q0.09375 1.3125 -0.5625 0.5625l-1.21875 -1.21875zm4.96875 -15.1875q-0.46875 0 -0.9375 -0.75q-0.84375 -1.40625 -2.34375 -2.0625q-0.46875 -0.28125 0.09375 -0.28125q1.59375 0.1875 2.90625 1.03125q0.84375 0.5625 0.84375 1.3125q0 0.75 -0.5625 0.75zm7.6875 2.4375l0 -3.75q-3.46875 0.375 -5.34375 0.46875q-0.5625 -0.1875 0 -0.375q6.09375 -0.84375 10.21875 -2.4375l1.59375 1.03125q0.5625 0.65625 -1.03125 0.28125q-2.0625 0.46875 -4.21875 0.84375l0 3.9375l4.59375 0l1.21875 -1.21875l1.5 1.125q0.5625 0.46875 0 0.65625l-7.3125 0l0 3.84375l3.28125 0l0.5625 -0.75l1.3125 0.9375q0.5625 0.46875 -0.375 0.65625l0 5.90625q-1.21875 1.125 -1.21875 0.09375l0 -1.03125l-8.0625 0l0 1.125q-1.21875 1.125 -1.21875 0.09375l0 -7.96875l1.40625 0.9375l3.09375 0l0 -3.84375l-6.5625 0l0 -0.5625l6.5625 0zm-3.28125 4.96875l0 4.6875l8.0625 0l0 -4.6875l-8.0625 0zm20.25 -4.3125l-1.40625 0l0 2.0625q0 2.90625 -2.8125 4.3125l0 1.40625l7.125 0l0 -2.8125l-1.78125 0q-1.125 0 -1.125 -1.125l0 -3.84375zm2.90625 4.03125l0 -4.03125l-1.875 0l0 3.65625q0 0.375 0.375 0.375l1.5 0zm-5.34375 -4.03125l-1.78125 0l0 5.8125q1.59375 -0.75 1.78125 -3.75l0 -2.0625zm2.4375 -4.78125l-1.40625 0l0 4.21875l1.40625 0l0 -4.21875zm-6.0 -0.5625l8.34375 0l1.21875 -1.21875l1.5 1.125q0.5625 0.46875 0 0.65625l-4.03125 0l0 4.21875l1.59375 0l0.5625 -0.75l1.3125 0.9375q0.5625 0.46875 -0.375 0.65625l0 12.75q-1.21875 1.125 -1.21875 0.09375l0 -0.9375l-7.125 0l0 1.21875q-1.21875 1.125 -1.21875 0.09375l0 -15.0l1.40625 0.9375l1.59375 0l0 -4.21875l-3.5625 0l0 -0.5625zm1.78125 16.96875l7.125 0l0 -3.28125l-7.125 0l0 3.28125zm11.625 -0.1875q0 0.375 0.375 0.375l5.625 0q0.9375 0 1.03125 -0.65625l0.5625 -2.90625q0.1875 -0.1875 0.28125 0l0 2.90625q0 0.46875 0.375 0.65625q0.65625 0.28125 0 0.84375q-0.28125 0.28125 -1.6875 0.28125l-6.65625 0q-1.125 0 -1.125 -1.125l0 -10.3125l1.40625 0.84375l5.15625 0l0 -7.125l-6.28125 0l0 -0.5625l6.0 0l0.5625 -0.75l1.3125 0.9375q0.5625 0.46875 -0.375 0.65625l0 8.53125q-1.21875 1.125 -1.21875 0.09375l0 -1.21875l-5.34375 0l0 8.53125z" fill-rule="nonzero"/><path fill="#cacaca" d="m58.478317 340.83478q1.296875 0 2.53125 0.671875q1.25 0.671875 1.9375 1.921875q0.6875 1.234375 0.6875 2.5625q0 2.15625 -1.515625 3.671875q-1.5 1.5 -3.640625 1.5q-2.140625 0 -3.65625 -1.5q-1.5 -1.515625 -1.5 -3.671875q0 -1.34375 0.6875 -2.578125q0.6875 -1.234375 1.921875 -1.90625q1.25 -0.671875 2.546875 -0.671875z" fill-rule="nonzero"/><path fill="#cacaca" d="m93.84941 337.77228q-0.1875 1.59375 -0.5625 2.15625q-0.375 0.65625 -1.125 0.65625q-0.75 0 -0.75 -0.65625q0 -0.46875 0.5625 -0.84375q1.3125 -0.9375 1.59375 -2.90625q0.1875 -0.375 0.375 0q0 0.5625 0 1.03125l6.84375 0l0 -3.5625l1.59375 0.28125q0.75 0.46875 -0.375 0.65625l0 2.625l7.6875 0l0.5625 -0.65625l1.875 1.40625q0.375 0.5625 -0.375 0.46875q-0.9375 0.09375 -1.21875 0.28125l-1.59375 1.21875q-0.375 0.28125 -0.375 -0.1875l1.21875 -1.96875l-15.9375 0zm10.125 16.5q-1.125 0 -1.125 -1.125l0 -7.40625l-3.46875 0q-0.375 7.03125 -8.25 9.28125q-0.5625 0 -0.28125 -0.375q7.03125 -2.625 7.21875 -8.90625l-6.375 0l0 -0.5625l17.0625 0l1.40625 -1.40625l1.78125 1.3125q0.5625 0.46875 0 0.65625l-7.875 0l0 7.03125q0 0.375 0.375 0.375l5.90625 0q0.9375 0 1.03125 -0.65625l0.5625 -3.28125q0.1875 -0.1875 0.28125 0l0 3.28125q0 0.46875 0.375 0.65625q0.65625 0.28125 0 0.84375q-0.28125 0.28125 -1.6875 0.28125l-6.9375 0zm-9.1875 -13.03125l9.9375 0l1.40625 -1.40625l1.78125 1.3125q0.5625 0.46875 0 0.65625l-13.125 0l0 -0.5625zm23.34375 2.90625l0 1.875q0 4.6875 -3.1875 8.90625q-0.46875 0.28125 -0.375 -0.1875q2.34375 -4.3125 2.34375 -8.53125l0 -8.4375l1.40625 0.9375l8.25 0q-0.09375 -1.40625 -0.09375 -2.71875l0 -2.71875l1.59375 0.28125q0.75 0.28125 -0.375 1.03125l0 1.21875q0 1.3125 0.09375 2.90625l5.0625 0l1.40625 -1.40625l1.78125 1.3125q0.5625 0.46875 0 0.65625l-8.25 0q0.5625 5.34375 1.875 8.25q1.6875 -2.8125 2.8125 -6.0l1.6875 0.84375q0.9375 0.5625 -0.75 0.75q-1.40625 3.0 -3.1875 5.53125q1.96875 2.8125 4.21875 3.46875q0.5625 0.09375 0.75 -0.375l0.9375 -2.625q0.375 -0.375 0.375 0.09375l-0.65625 2.90625q0 0.65625 0.28125 0.84375q0.375 0.5625 0 0.9375q-0.28125 0.1875 -0.84375 0.09375q-3.1875 -0.5625 -5.90625 -4.21875q-2.71875 3.1875 -6.0 5.15625q-0.46875 0 -0.1875 -0.375q3.1875 -2.4375 5.625 -5.71875q-1.6875 -3.84375 -2.15625 -9.5625l-8.53125 0l0 4.3125l4.3125 0l0.75 -0.84375l1.40625 0.9375q1.03125 0.375 -0.5625 0.75q-0.09375 3.09375 -0.46875 5.8125q-0.1875 1.40625 -1.3125 1.96875q-1.03125 0.46875 -1.03125 -0.28125q0 -0.375 -0.65625 -0.65625l-1.78125 -0.5625q-0.1875 -0.1875 0.09375 -0.28125l2.4375 0.375q0.9375 0.09375 1.125 -0.9375q0.375 -2.4375 0.46875 -5.71875l-4.78125 0zm13.78125 -7.40625q-0.5625 -1.125 -2.15625 -1.96875q-0.375 -0.1875 0 -0.375q3.46875 0.5625 3.46875 2.34375q0 0.5625 -0.5625 0.5625q-0.46875 0 -0.75 -0.5625zm15.9375 -0.1875l9.84375 0l1.40625 -1.40625l1.78125 1.3125q0.5625 0.46875 0 0.65625l-4.875 0l0 15.09375q0 1.125 -0.65625 1.6875q-0.5625 0.46875 -1.125 0.5625q-0.5625 0.09375 -0.5625 -0.46875q0 -0.46875 -0.46875 -0.65625l-1.59375 -0.375q-0.46875 -0.1875 0 -0.375l2.34375 0q0.84375 0 0.84375 -0.84375l0 -14.625l-6.9375 0l0 -0.5625zm-3.28125 9.1875l0 6.9375q0 1.03125 -0.65625 1.59375q-0.375 0.375 -0.9375 0.375q-0.375 0 -0.375 -0.375q0 -0.46875 -0.5625 -0.65625l-1.21875 -0.28125q-0.375 -0.1875 0 -0.375l1.875 0q0.65625 0 0.65625 -0.65625l0 -6.0l-2.15625 1.03125q-0.1875 1.40625 -0.75 0.65625l-1.125 -1.5l4.03125 -1.40625l0 -5.53125l-3.75 0l0 -0.5625l3.75 0l0 -5.53125l1.59375 0.28125q0.75 0.46875 -0.375 0.65625l0 4.59375l1.6875 0l1.21875 -1.21875l1.5 1.125q0.5625 0.46875 0 0.65625l-4.40625 0l0 5.15625l4.78125 -1.78125q0.5625 0 0 0.46875l-4.78125 2.34375z" fill-rule="nonzero"/><path fill="#cacaca" d="m173.53691 334.30353q-0.65625 0.1875 -1.96875 2.625l8.34375 0l1.40625 -1.3125l1.78125 1.875l-11.625 0l-3.46875 6.1875l5.15625 0q0 -3.5625 -0.09375 -5.0625l2.25 0.9375l-0.75 0.75l0 3.375l4.3125 0l1.3125 -1.40625l1.78125 1.96875l-7.40625 0l0 4.59375l6.84375 0l1.40625 -1.40625l1.875 1.96875l-10.125 0q0 2.90625 0.09375 5.34375l-1.59375 0.46875q0.09375 -3.46875 0.09375 -5.8125l-7.6875 0q-0.75 0 -1.78125 0.28125l-0.84375 -0.84375l10.3125 0l0 -4.59375l-5.15625 0l-0.9375 0.9375l-1.40625 -1.40625q1.03125 -0.5625 2.0625 -2.296875q1.03125 -1.734375 2.0625 -3.984375l-2.71875 0q-0.75 0 -1.78125 0.28125l-0.84375 -0.84375l5.53125 0q1.3125 -3.0 1.5 -3.84375l2.0625 1.21875zm14.625 4.5q4.3125 5.90625 4.59375 7.359375q0.28125 1.453125 -0.5625 2.4375q-0.84375 0.984375 -1.171875 -1.359375q-0.328125 -2.34375 -3.140625 -8.25l0.28125 -0.1875zm6.28125 -1.6875q0 -1.5 -0.09375 -3.46875l2.25 1.125l-0.84375 0.75l0 17.25l3.84375 0l0 -15.5625q0 -1.3125 -0.09375 -3.5625l2.34375 1.125l-0.9375 0.65625l0 13.5q3.5625 -5.34375 4.875 -10.40625l2.25 1.59375l-1.03125 0.46875q-3.375 6.375 -6.09375 9.09375l0 3.09375l4.40625 0l1.5 -1.5l2.0625 2.0625l-19.21875 0q-1.21875 0 -2.25 0.28125l-0.84375 -0.84375l7.875 0l0 -15.65625zm23.625 -4.125l1.96875 1.125q-0.84375 0.375 -1.5 1.5l6.65625 0l0.84375 -0.9375l1.6875 1.40625l-1.03125 0.5625q-1.59375 2.8125 -4.03125 4.875q2.15625 1.5 4.96875 2.25q2.8125 0.75 4.96875 0.75l0 0.375q-1.78125 0.375 -1.96875 1.40625q-1.59375 -0.28125 -4.265625 -1.40625q-2.671875 -1.125 -4.546875 -2.71875q-2.34375 1.6875 -5.109375 2.90625q-2.765625 1.21875 -5.578125 1.96875l-0.28125 -0.375q3.1875 -1.03125 5.625 -2.296875q2.4375 -1.265625 4.59375 -2.953125q-1.78125 -1.78125 -3.46875 -4.40625q-0.75 1.3125 -1.921875 2.625q-1.171875 1.3125 -2.859375 2.53125l-0.28125 -0.1875q1.78125 -1.6875 3.375 -4.265625q1.59375 -2.578125 2.15625 -4.734375zm-0.1875 3.5625q2.0625 2.53125 3.9375 4.21875q2.15625 -1.96875 3.46875 -4.59375l-7.03125 0l-0.375 0.375zm9.84375 11.0625q-0.46875 4.78125 -1.125 5.953125q-0.65625 1.171875 -2.4375 1.546875q0 -0.9375 -2.71875 -2.15625l0.09375 -0.375q2.34375 0.5625 3.140625 0.5625q0.796875 0 1.171875 -1.78125q0.375 -1.78125 0.5625 -4.03125l-5.4375 0q-0.9375 3.75 -3.421875 5.390625q-2.484375 1.640625 -5.296875 2.484375l-0.28125 -0.375q2.8125 -1.03125 4.828125 -2.671875q2.015625 -1.640625 2.859375 -4.828125l-2.34375 0q-1.21875 0 -2.25 0.28125l-0.84375 -0.84375l5.53125 0q0.375 -1.96875 0.375 -3.1875l1.96875 1.03125l-0.65625 0.5625q-0.09375 0.65625 -0.375 1.59375l5.15625 0l0.65625 -0.84375l1.59375 1.125l-0.75 0.5625zm20.625 -7.59375q0 1.3125 0.1875 3.46875l4.40625 -0.46875l1.21875 -1.40625l1.8749847 1.59375l-7.4062347 0.75q0.28125 2.90625 0.9375 4.59375q2.0625 -1.875 3.28125 -3.9375l1.6875 1.6875l-0.84375 0.09375q-1.78125 1.6875 -3.5625 3.375q1.6875 2.34375 3.9375 3.28125l1.3125 -4.5l0.375 0.09375q-0.1875 2.15625 -0.234375 3.5625q-0.046875 1.40625 0.375 2.203125q0.42185974 0.796875 -0.703125 0.609375q-1.125 -0.1875 -2.765625 -1.171875q-1.640625 -0.984375 -3.328125 -3.140625q-1.6875 1.125 -3.421875 1.875q-1.734375 0.75 -4.359375 1.5l-0.09375 -0.375q4.03125 -1.5 7.21875 -4.125q-0.84375 -2.53125 -1.125 -5.4375l-3.84375 0.46875l-0.75 0.375l-1.03125 -0.75l5.53125 -0.5625q-0.09375 -1.3125 -0.1875 -3.5625l-2.71875 0.1875l-0.5625 0.375l-0.84375 -0.75l4.125 -0.28125q-0.09375 -3.28125 -0.1875 -6.5625l2.15625 1.03125l-0.75 0.65625q0 1.96875 0.09375 4.78125l4.03125 -0.375l1.21875 -1.40625l1.875 1.6875l-7.125 0.5625zm1.40625 -5.34375l0.09375 -0.28125q2.90625 0.75 3.28125 1.453125q0.375 0.703125 0 1.59375q-0.375 0.890625 -0.984375 -0.1875q-0.609375 -1.078125 -2.390625 -2.578125zm-10.3125 -1.21875l1.875 1.21875q-0.75 0.28125 -1.59375 1.921875q-0.84375 1.640625 -3.09375 4.734375l3.84375 -0.375q1.125 -1.875 1.78125 -3.75l1.6875 1.21875q-0.65625 0.375 -2.25 2.71875q-1.59375 2.34375 -4.125 5.625q1.3125 -0.1875 5.8125 -1.03125l0 0.375q-2.53125 0.65625 -3.9375 1.171875q-1.40625 0.515625 -2.8125 1.453125l-1.125 -1.96875q1.03125 -0.28125 2.390625 -2.015625q1.359375 -1.734375 2.390625 -3.421875q-1.03125 0.1875 -2.15625 0.515625q-1.125 0.328125 -2.0625 1.171875l-1.03125 -1.78125q1.03125 -0.1875 2.390625 -2.671875q1.359375 -2.484375 2.015625 -5.109375zm-4.5 17.90625q2.625 -0.375 4.21875 -0.65625q1.59375 -0.28125 5.15625 -1.03125l0.09375 0.375q-4.21875 1.21875 -6.140625 1.921875q-1.921875 0.703125 -2.390625 1.171875l-0.9375 -1.78125z" fill-rule="nonzero"/><path fill="#cacaca" d="m273.00565 346.39728q-0.5625 -1.59375 -2.15625 -3.09375q-0.28125 -0.375 0.1875 -0.28125q3.28125 1.40625 3.28125 3.375q0 0.84375 -0.65625 0.84375q-0.375 0 -0.65625 -0.84375zm-4.6875 -2.71875q2.625 -4.125 3.84375 -10.40625l1.78125 0.5625q1.3125 0.375 -0.375 0.84375l-1.59375 3.84375l6.09375 0l0.5625 -0.75l1.3125 0.9375q0.5625 0.46875 -0.375 0.65625l0 7.3125q0 4.5 -1.3125 6.09375q-0.75 0.9375 -2.15625 1.5q-1.3125 0.5625 -1.3125 -0.1875q0 -0.75 -0.46875 -0.84375l-1.6875 -0.46875q-0.46875 -0.28125 0.09375 -0.375l2.25 0.1875q0.9375 0.09375 1.875 -0.46875q1.5 -1.03125 1.5 -5.625l0 -7.40625l-6.65625 0q-1.40625 3.0 -3.0 4.78125q-0.46875 0.28125 -0.375 -0.1875zm-0.5625 8.15625q-1.21875 1.125 -1.21875 0.09375l0 -1.40625l-5.4375 0l0 2.25q-1.21875 1.125 -1.21875 0.09375l0 -15.09375l1.40625 0.75l1.3125 0l0.9375 -5.25l1.40625 0.375q1.6875 0.375 -0.28125 1.125l-1.5 3.75l3.09375 0l0.5625 -0.75l1.3125 0.9375q0.5625 0.46875 -0.375 0.65625l0 12.46875zm-1.21875 -12.75l-5.4375 0l0 4.875l5.4375 0l0 -4.875zm-5.4375 5.4375l0 5.4375l5.4375 0l0 -5.4375l-5.4375 0zm43.03125 4.3125q0 1.96875 -1.21875 3.0q-0.9375 0.65625 -1.5 0.65625q-0.65625 0 -0.65625 -0.65625q0 -0.375 -0.5625 -0.5625l-1.125 -0.375q-0.28125 -0.1875 0 -0.28125l0.9375 0.09375q0.9375 0.1875 1.6875 0.09375q0.5625 -0.09375 0.84375 -0.5625q0.28125 -0.75 0.28125 -1.875q0 -2.8125 -2.8125 -5.8125l1.78125 -6.09375l-3.84375 0l0 17.90625q-1.21875 1.125 -1.21875 0.09375l0 -19.21875l1.40625 0.65625l3.65625 0l0.46875 -0.65625l1.59375 1.125q0.5625 0.65625 -0.65625 0.5625l-2.625 5.625q3.5625 3.1875 3.5625 6.28125zm-12.5625 -1.59375l-5.25 0l0 4.21875l5.25 0l0 -4.21875zm-5.25 4.78125l0 2.0625q-1.21875 1.125 -1.21875 0.09375l0 -8.25l1.40625 0.75l4.875 0l0.5625 -0.65625l1.21875 0.84375q0.5625 0.46875 -0.375 0.65625l0 5.34375q-1.21875 1.125 -1.21875 0.09375l0 -0.9375l-5.25 0zm3.28125 -14.8125l3.0 0l1.21875 -1.21875l1.40625 1.125q0.5625 0.46875 0 0.65625l-12.09375 0l0 -0.5625l5.25 0l0 -3.75l1.59375 0.28125q0.75 0.46875 -0.375 0.65625l0 2.8125zm-4.5 1.125q2.25 1.6875 2.25 3.5625q0 1.03125 -0.65625 1.03125q-0.46875 0 -0.5625 -0.9375q-0.1875 -2.15625 -1.21875 -3.375q-0.28125 -0.375 0.1875 -0.28125zm-2.15625 5.25l7.125 0l1.59375 -5.15625l1.6875 0.46875q0.75 0.5625 -0.65625 0.75l-2.15625 3.9375l2.53125 0l1.21875 -1.21875l1.5 1.125q0.5625 0.46875 0 0.65625l-12.84375 0l0 -0.5625zm41.625 -2.625q-2.8125 2.34375 -4.125 3.28125l5.34375 0l1.21875 -1.21875l1.5 1.125q0.5625 0.46875 0 0.65625l-8.90625 0q-1.6875 1.21875 -3.9375 2.4375l7.3125 0l0.5625 -0.65625l1.21875 0.84375q0.65625 0.46875 -0.375 0.65625l0 6.1875q-1.21875 1.125 -1.21875 0.09375l0 -0.375l-8.53125 0l0 0.5625q-1.21875 1.125 -1.21875 0.09375l0 -6.28125q-2.8125 1.6875 -6.09375 2.53125q-0.65625 0 -0.09375 -0.375q3.09375 -1.03125 6.1875 -3.0l0 -1.125l1.21875 0.5625q2.0625 -1.21875 3.46875 -2.15625l-11.0625 0l0 -0.5625l8.34375 0l0 -2.25l-6.0 0l0 -0.5625l6.0 0l0 -2.25l1.03125 0.1875q1.59375 0.28125 0.1875 0.75l0 1.3125l2.625 0l1.125 -1.125l1.6875 1.3125q1.03125 -0.9375 1.96875 -1.96875l1.3125 0.84375q0.75 0.46875 -0.75 0.46875zm-7.96875 3.28125l2.25 0q0.84375 -0.5625 2.90625 -2.25l-5.15625 0l0 2.25zm-1.96875 3.5625l0 2.4375l8.53125 0l0 -2.4375l-8.53125 0zm0 3.0l0 2.625l8.53125 0l0 -2.625l-8.53125 0zm9.46875 -16.6875l0.5625 -0.65625l1.21875 0.84375q0.65625 0.46875 -0.375 0.65625l0 3.46875q-1.21875 1.125 -1.21875 0.09375l0 -0.375l-13.875 0l0 0.84375q-1.21875 1.125 -1.21875 0.09375l0 -5.71875l1.40625 0.75l13.5 0zm-3.75 0.5625l0 2.90625l3.9375 0l0 -2.90625l-3.9375 0zm-4.78125 0l0 2.90625l3.5625 0l0 -2.90625l-3.5625 0zm-5.15625 0l0 2.90625l3.9375 0l0 -2.90625l-3.9375 0z" fill-rule="nonzero"/><path fill="#cacaca" d="m337.13065 349.02228q0.09375 -1.78125 0.09375 -7.21875q0 -5.4375 -0.09375 -7.78125l1.40625 0.84375l4.59375 0l0.75 -0.75l1.21875 1.21875l-0.75 0.5625l0 8.0625q0 1.875 0.09375 3.75l-1.21875 0.5625l0 -12.84375l-4.78125 0l0 13.03125l-1.3125 0.5625zm3.0 -11.15625l1.96875 1.03125l-0.65625 0.65625q0.09375 6.375 -0.9375 9.703125q-1.03125 3.328125 -5.625 5.765625l-0.1875 -0.375q3.28125 -2.25 4.3125 -4.59375q1.03125 -2.34375 1.125 -5.484375q0.09375 -3.140625 0 -6.703125zm1.21875 11.34375q2.71875 1.875 3.28125 2.8125q0.5625 0.9375 -0.046875 1.78125q-0.609375 0.84375 -1.171875 -0.796875q-0.5625 -1.640625 -2.25 -3.515625l0.1875 -0.28125zm5.15625 0.46875q0.09375 -1.40625 0.09375 -3.28125l0 -6.375q0 -2.0625 -0.09375 -3.375l2.0625 1.03125l-0.75 0.75l0 7.96875q0 1.40625 0.09375 2.8125l-1.40625 0.46875zm3.375 2.53125l0 -14.625q0 -2.625 -0.09375 -4.03125l1.96875 0.9375l-0.65625 0.65625l0 17.34375q0 1.03125 -0.375 1.59375q-0.375 0.5625 -1.5 0.9375q-0.65625 -1.40625 -2.8125 -2.0625l0 -0.375q2.53125 0.375 3.0 0.328125q0.46875 -0.046875 0.46875 -0.703125zm-13.21875 -12.5625q-1.78125 7.40625 -2.109375 8.578125q-0.328125 1.171875 -0.28125 2.859375q0.046875 1.6875 0.09375 2.34375q0.046875 0.65625 -1.078125 0.28125q-1.125 -0.375 -0.5625 -2.296875q0.5625 -1.921875 0 -2.4375q-0.5625 -0.515625 -1.96875 -0.890625l0 -0.375q1.6875 0.1875 2.109375 0.140625q0.421875 -0.046875 0.9375 -0.84375q0.515625 -0.796875 2.484375 -7.453125l0.375 0.09375zm-5.53125 -1.03125q2.625 1.59375 2.765625 2.53125q0.140625 0.9375 -0.46875 1.40625q-0.609375 0.46875 -1.03125 -0.9375q-0.421875 -1.40625 -1.453125 -2.71875l0.1875 -0.28125zm1.59375 -4.96875q2.53125 1.40625 2.8125 2.203125q0.28125 0.796875 -0.328125 1.453125q-0.609375 0.65625 -1.03125 -0.65625q-0.421875 -1.3125 -1.640625 -2.71875l0.1875 -0.28125zm24.09375 1.125l0.28125 -0.1875q1.3125 0.9375 2.15625 1.828125q0.84375 0.890625 0.65625 1.640625q-0.1875 0.75 -0.796875 1.171875q-0.609375 0.421875 -0.84375 -0.9375q-0.234375 -1.359375 -1.453125 -3.515625zm2.90625 16.875l3.28125 -3.65625l0.28125 0.28125q-1.59375 2.4375 -2.34375 3.5625q-0.75 1.125 -1.40625 2.4375l-1.5 -1.59375q0.46875 -0.5625 0.375 -1.5l0 -8.15625l-1.125 0q-0.75 0 -1.78125 0.28125l-0.84375 -0.84375l3.65625 0l0.5625 -0.9375l1.6875 1.125l-0.84375 0.65625l0 8.34375zm15.46875 0.84375l0.75 -3.84375l0.375 0q-0.1875 2.15625 -0.1875 3.375q0 1.21875 0.375 2.4375q0.375 1.21875 -1.78125 -0.421875q-2.15625 -1.640625 -3.5625 -5.203125q-1.40625 -3.5625 -1.6875 -9.28125l-5.53125 0q-0.75 0 -1.78125 0.28125l-0.84375 -0.84375l8.0625 0q-0.1875 -2.90625 -0.1875 -5.625l2.25 1.21875l-0.84375 0.65625q0 2.15625 0.09375 3.75l3.1875 0l1.21875 -1.3125l1.6875 1.875l-6.0 0q0.28125 9.375 4.40625 12.9375zm-3.1875 -18.46875q1.59375 0.65625 2.390625 1.21875q0.796875 0.5625 0.703125 1.171875q-0.09375 0.609375 -0.515625 1.171875q-0.421875 0.5625 -0.9375 -0.703125q-0.515625 -1.265625 -1.828125 -2.578125l0.1875 -0.28125zm-5.4375 16.40625l3.5625 -1.03125l0.09375 0.375q-3.28125 1.3125 -6.5625 2.90625l-0.65625 0.75l-1.125 -1.6875q2.25 -0.5625 3.375 -0.9375l0 -6.75l-0.84375 0q-0.75 0 -1.78125 0.28125l-0.84375 -0.84375l5.34375 0l1.125 -1.125l1.40625 1.6875l-3.09375 0l0 6.375z" fill-rule="nonzero"/><path fill="#000000" fill-opacity="0.0" d="m17.976377 61.01837l475.59055 -1.4803123" fill-rule="evenodd"/><path stroke="#9e9e9e" stroke-width="1.0" stroke-linejoin="round" stroke-linecap="butt" d="m17.976377 61.01837l475.59055 -1.4803123" fill-rule="evenodd"/><path fill="#000000" fill-opacity="0.0" d="m32.72441 10.687664l431.40155 0l0 50.330708l-431.40155 0z" fill-rule="evenodd"/><path fill="#b7b7b7" d="m53.38066 30.560787q1.03125 -1.1875 1.859375 -2.609375l-3.796875 0l-0.21875 0.453125q0.890625 1.1875 2.15625 2.15625zm-6.75 4.375q3.78125 -1.265625 6.296875 -3.9375q-0.8125 -0.734375 -1.921875 -2.21875q-0.96875 1.84375 -3.046875 3.5625q-0.375 0.140625 -0.21875 -0.234375q2.453125 -2.59375 3.34375 -6.078125l1.1875 0.375q0.59375 0.359375 -0.296875 0.515625l-0.296875 0.59375l3.5625 0l0.515625 -0.515625l1.109375 0.734375q0.296875 0.296875 -0.515625 0.453125q-1.109375 1.703125 -2.234375 2.8125q2.078125 1.703125 6.09375 2.375q-0.96875 0.515625 -1.265625 1.109375q-2.75 -0.734375 -5.421875 -2.890625q-2.515625 2.53125 -6.75 3.640625q-0.515625 0 -0.140625 -0.296875zm-3.71875 -0.375l0 -0.296875l2.0 0l3.046875 -6.53125q0.453125 -0.375 0.375 0.15625l-2.59375 6.296875q-0.234375 0.59375 -0.234375 1.265625q0.15625 1.1875 0.296875 1.640625q0.234375 0.890625 0 1.484375q-0.21875 0.375 -0.59375 0.375q-0.4375 0 -0.59375 -0.53125q-0.140625 -0.515625 0 -1.40625q0.078125 -0.75 0.078125 -1.40625q0 -0.75 -0.671875 -0.890625l-1.109375 -0.15625zm2.828125 -6.53125q-0.453125 -0.96875 -1.5625 -1.625q-0.21875 -0.234375 0.140625 -0.234375q2.453125 0.671875 2.453125 1.78125q0 0.59375 -0.515625 0.59375q-0.296875 0 -0.515625 -0.515625zm-2.75 1.046875q2.15625 0.734375 2.15625 1.921875q0 0.59375 -0.453125 0.59375q-0.375 0 -0.515625 -0.4375q-0.21875 -0.96875 -1.265625 -1.859375q-0.21875 -0.21875 0.078125 -0.21875zm8.453125 5.5625l0 2.8125l4.234375 0l0 -2.8125l-4.234375 0zm5.5 -0.296875q0.4375 0.375 -0.296875 0.515625l0 3.5625q-0.96875 0.890625 -0.96875 0.078125l0 -0.59375l-4.234375 0l0 0.8125q-0.953125 0.890625 -0.953125 0.078125l0 -4.90625l1.109375 0.296875l3.859375 0l0.4375 -0.59375l1.046875 0.75zm-8.765625 -9.71875l0 -2.3125l1.265625 0.234375q0.59375 0.359375 -0.296875 0.515625l0 1.5625l3.859375 0l0 -2.3125l1.265625 0.234375q0.59375 0.359375 -0.296875 0.515625l0 1.5625l3.1875 0l1.109375 -1.125l1.421875 1.046875q0.4375 0.375 0 0.515625l-5.71875 0l0 1.40625q-0.96875 0.890625 -0.96875 0.078125l0 -1.484375l-3.859375 0l0 1.640625q-0.96875 0.890625 -0.96875 0.0625l0 -1.703125l-5.265625 0l0 -0.4375l5.265625 0zm19.078125 7.34375l-0.296875 -0.453125l2.375 -1.328125l0 -5.9375l1.34375 0.21875q0.8125 0.296875 -0.375 0.59375l0 4.609375l2.375 -1.34375l0 -5.5625l1.328125 0.21875q0.828125 0.296875 -0.359375 0.59375l0 4.234375l2.671875 -1.5625l0.359375 -0.8125l1.34375 0.59375q0.59375 0.4375 -0.515625 0.59375l0 5.71875q0 0.8125 -0.53125 1.25q-0.296875 0.296875 -0.734375 0.296875q-0.296875 0 -0.296875 -0.296875q0 -0.359375 -0.453125 -0.515625l-0.953125 -0.21875q-0.296875 -0.15625 0 -0.296875l1.484375 0q0.515625 0 0.515625 -0.515625l0 -5.28125l-2.890625 1.640625l0 6.828125q-0.96875 0.890625 -0.96875 0.078125l0 -6.390625l-2.375 1.34375l0 6.96875q0 0.296875 0.296875 0.296875l6.234375 0q0.734375 0 0.890625 -0.734375l0.515625 -2.828125q0.15625 -0.140625 0.21875 0l0 2.96875q0 0.375 0.296875 0.59375q0.453125 0.375 -0.0625 0.671875q-0.375 0.21875 -1.125 0.21875l-7.34375 0q-0.890625 0 -0.890625 -0.890625l0 -6.75l-2.078125 1.1875zm0.15625 -4.53125l1.1875 0.8125q0.4375 0.375 0 0.53125l-3.125 0l0 6.375l2.53125 -0.671875q0.65625 0 0.140625 0.296875l-5.046875 1.9375q-0.296875 1.265625 -0.671875 0.515625l-0.59375 -1.1875l2.671875 -0.59375l0 -6.671875l-2.4375 0l0 -0.453125l2.4375 0l0 -5.265625l1.265625 0.21875q0.59375 0.375 -0.296875 0.515625l0 4.53125l1.046875 0l0.890625 -0.890625z" fill-rule="nonzero"/><path fill="#b7b7b7" d="m85.41191 27.045162q1.8125 0.65625 2.28125 1.234375q0.484375 0.578125 0.046875 1.453125q-0.4375 0.875 -0.921875 -0.25q-0.46875 -1.125 -1.5625 -2.21875l0.15625 -0.21875zm4.734375 6.703125q-0.21875 0.65625 -0.4375 1.15625q3.578125 1.09375 4.84375 1.75q1.28125 0.65625 1.234375 1.9375q-0.03125 1.28125 -1.3125 -0.109375q-1.265625 -1.390625 -4.90625 -3.203125q-1.03125 1.8125 -3.140625 2.765625q-2.109375 0.953125 -5.46875 1.390625l0 -0.296875q3.0625 -0.578125 5.171875 -1.8125q2.125 -1.25 2.921875 -3.578125l-5.75 0q-0.953125 0 -1.75 0.21875l-0.65625 -0.65625l8.234375 0q0.28125 -1.390625 0.421875 -3.203125q0.15625 -1.828125 0.15625 -3.28125l1.828125 0.875l-0.59375 0.5q-0.28125 2.703125 -0.65625 5.109375l4.515625 0l1.09375 -1.09375l1.53125 1.53125l-7.28125 0zm-6.703125 -4.015625q2.03125 0.8125 2.5 1.4375q0.484375 0.609375 0.046875 1.453125q-0.4375 0.828125 -0.921875 -0.265625q-0.46875 -1.09375 -1.765625 -2.40625l0.140625 -0.21875zm4.296875 -7.359375l0.21875 -0.140625q1.171875 0.515625 1.9375 1.203125q0.765625 0.6875 0.0625 1.609375q-0.6875 0.90625 -0.953125 -0.21875q-0.25 -1.140625 -1.265625 -2.453125zm6.484375 5.828125l1.09375 -2.03125l-12.171875 0q0.15625 1.15625 -0.140625 1.8125q-0.296875 0.65625 -1.203125 0.59375q-0.90625 -0.078125 -0.078125 -1.09375q0.84375 -1.03125 1.0625 -2.625l0.296875 0l0.0625 0.875l12.03125 0l0.796875 -0.8125l1.390625 1.609375q-1.25 -0.078125 -2.921875 1.828125l-0.21875 -0.15625z" fill-rule="nonzero"/><path fill="#b7b7b7" d="m111.59941 23.357662q2.296875 0.21875 2.296875 1.40625q0 0.375 -0.375 0.453125q-0.296875 0 -0.734375 -0.671875q-0.671875 -0.59375 -1.34375 -0.96875q-0.21875 -0.21875 0.15625 -0.21875zm2.078125 14.765625q-1.046875 -0.734375 -1.78125 -1.703125q-2.3125 1.78125 -5.9375 2.671875q-0.375 0 -0.15625 -0.296875q3.640625 -1.34375 5.5625 -3.046875q-0.734375 -1.40625 -1.1875 -3.109375l-3.859375 0.4375l-0.0625 -0.4375l3.78125 -0.453125q-0.21875 -1.109375 -0.453125 -2.59375l-2.96875 0.296875l-0.0625 -0.453125l2.96875 -0.296875q-0.15625 -1.25 -0.234375 -2.59375l-3.1875 0.21875l-0.078125 -0.4375l3.265625 -0.21875q-0.0625 -2.234375 -0.0625 -3.796875l1.40625 0.15625q0.671875 0.296875 -0.453125 0.59375q0 1.109375 0.078125 2.96875l3.71875 -0.375l0.734375 -1.03125l1.484375 0.890625q0.21875 0.296875 -0.140625 0.359375l-5.796875 0.59375q0.078125 1.265625 0.21875 2.53125l3.265625 -0.375l0.75 -1.03125l1.484375 0.890625q0.21875 0.296875 -0.15625 0.359375l-5.265625 0.59375q0.21875 1.5625 0.453125 2.609375l3.5625 -0.453125l0.734375 -1.03125l1.484375 0.890625q0.21875 0.296875 -0.140625 0.359375l-5.5 0.671875q0.453125 1.640625 1.046875 2.53125q0.953125 -0.671875 2.296875 -2.53125l1.03125 1.046875q0.375 0.515625 -0.8125 0.359375q-1.40625 1.421875 -2.078125 1.859375q0.671875 0.890625 1.265625 1.265625q0.515625 0.375 0.96875 0.4375q0.4375 0.078125 0.65625 -0.4375l0.671875 -1.9375q0.375 -0.296875 0.375 0.15625l-0.453125 1.859375q-0.140625 0.8125 0.234375 1.484375q0.140625 0.375 -0.671875 0.375q-0.8125 0 -2.0 -0.828125zm-10.09375 -6.15625l1.1875 0l0.8125 -0.8125l1.03125 0.734375q0.453125 0.375 0 0.515625l-3.03125 0l0 4.015625l3.78125 -1.109375q0.375 0 0.140625 0.296875l-6.75 2.671875q-0.140625 0.8125 -0.515625 0.4375l-0.96875 -1.265625l1.046875 -0.21875l0 -6.234375l1.25 0.21875q0.59375 0.234375 -0.296875 0.53125l0 5.265625l1.34375 -0.375l0 -7.71875l-1.265625 0l0 0.59375q-0.96875 0.890625 -0.96875 0.078125l0 -6.390625l1.125 0.671875l2.671875 0l0.4375 -0.59375l1.046875 0.75q0.4375 0.359375 -0.296875 0.515625l0 4.671875q-0.96875 0.890625 -0.96875 0.078125l0 -0.375l-0.8125 0l0 3.046875zm-2.234375 -7.640625l0 4.15625l3.046875 0l0 -4.15625l-3.046875 0zm21.53125 4.453125q0.296875 0.296875 0.296875 0.734375q0 0.453125 -0.296875 0.75q-0.296875 0.296875 -0.75 0.296875q-0.4375 0 -0.734375 -0.296875q-0.296875 -0.296875 -0.296875 -0.75q0 -0.4375 0.296875 -0.734375q0.296875 -0.296875 0.734375 -0.296875q0.453125 0 0.75 0.296875zm0 6.96875q0.296875 0.296875 0.296875 0.75q0 0.4375 -0.296875 0.734375q-0.296875 0.296875 -0.75 0.296875q-0.4375 0 -0.734375 -0.296875q-0.296875 -0.296875 -0.296875 -0.734375q0 -0.453125 0.296875 -0.75q0.296875 -0.296875 0.734375 -0.296875q0.453125 0 0.75 0.296875zm15.5 -4.828125l-4.0 0q-0.21875 6.09375 -5.421875 8.25q-0.4375 0.078125 -0.21875 -0.21875q4.53125 -2.6875 4.671875 -8.03125l-4.96875 0l0 -0.4375l5.046875 0l0 -5.859375l-4.3125 0l0 -0.453125l12.03125 0l0.96875 -0.96875l1.25 0.890625q0.75 0.53125 0 0.53125l-4.078125 0l0 5.859375l2.890625 0l0.96875 -0.96875l1.265625 0.890625q0.671875 0.515625 0 0.515625l-5.125 0l0 7.953125q-0.96875 0.890625 -0.96875 0.078125l0 -8.03125zm-3.921875 -6.296875l0 5.859375l3.921875 0l0 -5.859375l-3.921875 0z" fill-rule="nonzero"/><path fill="#b7b7b7" d="m152.72441 27.107662q0.21875 -1.15625 0.40625 -2.421875q0.1875 -1.28125 0.25 -2.375l1.53125 0.65625l-0.5 0.5q-0.515625 2.921875 -0.65625 3.640625l7.28125 0l1.015625 -1.015625l1.390625 1.453125l-9.765625 0q-0.21875 1.390625 -0.578125 2.703125l6.265625 0l0.515625 -0.796875l1.234375 1.09375l-0.65625 0.5q-1.3125 2.40625 -2.984375 4.296875q2.40625 1.96875 6.265625 2.703125l0 0.21875q-1.09375 0.21875 -1.390625 1.015625q-3.421875 -1.234375 -5.46875 -3.203125q-2.84375 2.40625 -7.203125 3.359375l-0.078125 -0.21875q4.515625 -1.53125 6.625 -3.875q-1.59375 -2.109375 -2.546875 -4.65625l-0.65625 0q-0.796875 2.40625 -2.21875 4.5625q-1.421875 2.140625 -3.75 3.671875l-0.15625 -0.21875q1.171875 -1.015625 2.296875 -2.546875q1.140625 -1.53125 1.96875 -3.453125q0.84375 -1.9375 1.5 -5.15625l-3.359375 0l-0.578125 0.65625l-0.953125 -1.015625l0.59375 -0.359375q1.015625 -2.34375 1.234375 -3.578125l1.453125 0.796875l-0.578125 0.4375q-0.734375 1.828125 -1.09375 2.625l3.34375 0zm1.3125 3.578125q1.171875 2.328125 2.78125 4.0q1.375 -1.59375 2.546875 -4.0l-5.328125 0zm3.0625 -8.015625q2.125 0.875 2.875 1.5q0.765625 0.609375 0.40625 1.5625q-0.359375 0.9375 -0.984375 -0.15625q-0.609375 -1.09375 -2.4375 -2.6875l0.140625 -0.21875z" fill-rule="nonzero"/><path fill="#b7b7b7" d="m168.17754 37.310787q-0.453125 -0.75 -1.78125 -1.9375q-0.375 -0.296875 0.078125 -0.296875q1.78125 0.53125 3.328125 2.078125q0.671875 0.671875 0.671875 1.34375q0 0.453125 -0.296875 0.75q-0.21875 0.21875 -0.4375 0.21875q-0.375 0 -0.59375 -0.453125q-0.375 -0.65625 -0.96875 -1.703125zm12.9140625 -8.015625q-0.375 0 -0.59375 -0.453125q-0.515625 -1.1875 -1.859375 -1.703125q-0.296875 -0.140625 0.078125 -0.21875q1.265625 0.078125 2.375 0.890625q0.4375 0.4375 0.4375 0.96875q0 0.515625 -0.4375 0.515625zm-2.75 8.234375l2.890625 -1.40625l0 -4.078125l-3.03125 0l0 -0.453125l2.890625 0l0.515625 -0.515625l0.96875 0.671875q0.4375 0.4375 -0.375 0.59375l0 3.703125q1.9375 1.484375 6.453125 1.484375l6.6875 0q-0.453125 0.15625 -0.8125 0.890625l-5.796875 0q-4.828125 0 -6.96875 -2.21875l-2.015625 1.859375q0.078125 1.03125 -0.4375 0.4375l-0.96875 -0.96875zm3.9375 -12.09375q-0.375 0 -0.75 -0.59375q-0.65625 -1.109375 -1.84375 -1.640625q-0.375 -0.21875 0.0625 -0.21875q1.265625 0.15625 2.3125 0.8125q0.65625 0.453125 0.65625 1.046875q0 0.59375 -0.4375 0.59375zm8.53125 5.484375q3.484375 2.375 3.484375 4.75q0 0.671875 -0.4375 0.75q-0.453125 0.078125 -0.671875 -0.8125q-0.21875 -0.59375 -0.375 -1.125l-8.3125 1.046875q-0.296875 1.265625 -0.734375 0.21875l-0.671875 -1.109375l2.453125 -0.078125l1.625 -6.078125l-3.921875 0l0 -0.453125l8.75 0l1.109375 -1.109375l1.421875 1.03125q0.4375 0.375 0 0.53125l-6.234375 0l0.515625 0.296875q0.375 0.4375 -0.671875 0.4375l-2.15625 5.265625l6.6875 -0.359375q-0.890625 -1.9375 -2.0 -2.96875q-0.234375 -0.375 0.140625 -0.234375zm-6.375 -6.96875l6.296875 0l1.125 -1.109375l1.40625 1.03125q0.4375 0.375 0 0.515625l-8.828125 0l0 -0.4375z" fill-rule="nonzero"/><path fill="#b7b7b7" d="m199.07597 33.092037q2.390625 -0.4375 4.4375 -0.875l0.078125 0.296875q-1.6875 0.421875 -3.21875 1.078125q-1.515625 0.65625 -1.953125 1.171875l-1.03125 -1.453125q0.515625 -0.078125 1.421875 -1.015625q0.921875 -0.953125 2.15625 -3.0625q-0.65625 0.140625 -1.46875 0.359375q-0.796875 0.21875 -1.375 0.796875l-0.953125 -1.3125q0.734375 -0.140625 1.75 -2.5q1.03125 -2.375 1.390625 -3.90625l1.59375 0.875l-0.65625 0.28125q-1.015625 1.828125 -2.984375 5.25l2.921875 -0.28125q0.9375 -1.90625 1.3125 -3.140625l1.3125 1.015625l-0.515625 0.296875q-2.046875 3.640625 -4.21875 6.125zm-1.53125 3.78125q0.578125 -0.140625 1.953125 -0.578125q1.390625 -0.4375 4.234375 -1.390625l0.078125 0.296875q-1.96875 0.875 -3.390625 1.609375q-1.421875 0.71875 -1.859375 1.375l-1.015625 -1.3125zm8.015625 -6.546875l0 3.046875l3.0625 0l0 -3.046875l-3.0625 0zm0 3.484375l0 3.359375l3.0625 0l0 -3.359375l-3.0625 0zm2.546875 -11.0q2.109375 1.015625 2.21875 1.5625q0.109375 0.546875 -0.359375 1.140625q-0.46875 0.578125 -0.734375 -0.359375q-0.25 -0.953125 -1.265625 -2.1875l0.140625 -0.15625zm-3.578125 16.625q0.078125 -1.90625 0.078125 -11.15625q-0.578125 1.171875 -1.890625 2.984375l-0.21875 -0.140625q1.15625 -2.109375 1.953125 -4.4375q0.8125 -2.34375 1.171875 -4.375l1.6875 0.9375l-0.59375 0.359375q-0.359375 0.875 -1.15625 2.78125l5.828125 0l1.015625 -1.03125l1.234375 1.46875l-4.078125 0l0 3.0625l1.53125 0l1.015625 -1.03125l1.171875 1.46875l-3.71875 0l0 3.046875l1.453125 0l1.03125 -0.9375l1.234375 1.375l-3.71875 0l0 3.359375l2.1875 0l1.015625 -1.015625l1.25 1.453125l-8.453125 0l0 1.3125l-1.03125 0.515625zm4.09375 -12.609375l-3.0625 0l0 3.0625l3.0625 0l0 -3.0625z" fill-rule="nonzero"/><path fill="#b7b7b7" d="m218.37285 30.560787q-1.328125 2.734375 -2.96875 4.15625q-0.296875 0.21875 -0.296875 -0.15625q2.671875 -3.484375 3.265625 -7.5l-2.75 0l0 -0.4375l2.75 0l0 -4.3125l1.265625 0.234375q0.59375 0.359375 -0.296875 0.515625l0 3.5625l0.96875 0l0.890625 -0.890625l1.109375 0.8125q0.4375 0.375 0 0.515625l-2.96875 0l0 2.75q2.375 0.671875 2.375 1.859375q0 0.515625 -0.453125 0.515625q-0.296875 0 -0.515625 -0.515625q-0.515625 -0.96875 -1.40625 -1.5625l0 8.84375q-0.96875 0.890625 -0.96875 0.0625l0 -8.453125zm8.171875 4.453125q-0.75 3.640625 -5.9375 4.296875q-0.375 0 -0.15625 -0.296875q4.453125 -0.890625 5.203125 -4.0l-4.453125 0l0 -0.453125l4.515625 0q0.15625 -0.734375 0.296875 -1.859375l-2.140625 0l0 0.59375q-0.96875 0.890625 -0.96875 0.078125l0 -6.453125l1.109375 0.671875l5.265625 0l0.453125 -0.59375l1.03125 0.734375q0.453125 0.375 -0.296875 0.515625l0 4.90625q-0.953125 0.890625 -0.953125 0.078125l0 -0.53125l-2.609375 0q-0.140625 1.1875 -0.296875 1.859375l4.3125 0l0.96875 -0.96875l1.1875 0.890625q0.4375 0.375 0 0.53125l-5.796875 0q1.78125 2.8125 5.71875 3.34375q-0.8125 0.296875 -1.265625 0.890625q-3.640625 -1.1875 -4.96875 -4.234375l-0.21875 0zm1.1875 -9.875l-2.3125 0l0 1.40625q-0.953125 0.890625 -0.953125 0.078125l0 -1.484375l-2.96875 0l0 -0.453125l2.96875 0l0 -2.375l1.25 0.234375q0.59375 0.359375 -0.296875 0.515625l0 1.625l2.3125 0l0 -2.375l1.25 0.234375q0.59375 0.359375 -0.296875 0.515625l0 1.625l2.078125 0l0.96875 -0.953125l1.1875 0.890625q0.453125 0.359375 0 0.515625l-4.234375 0l0 1.328125q-0.953125 0.890625 -0.953125 0.078125l0 -1.40625zm-3.859375 4.75l5.640625 0l0 -1.859375l-5.640625 0l0 1.859375zm0 2.375l5.640625 0l0 -1.9375l-5.640625 0l0 1.9375zm23.0 -8.984375q2.078125 0.515625 2.078125 1.5625q0 0.4375 -0.4375 0.4375q-0.375 0 -0.53125 -0.4375q-0.4375 -0.75 -1.25 -1.34375q-0.234375 -0.21875 0.140625 -0.21875zm-1.921875 3.046875q0.359375 6.015625 3.484375 9.125q1.328125 1.34375 2.15625 1.34375q0.359375 0 0.4375 -0.296875l0.8125 -2.453125q0.296875 -0.453125 0.375 0.140625l-0.4375 2.828125q0 0.375 0.359375 0.671875q0.234375 0.140625 0.234375 0.375q0 0.359375 -0.59375 0.359375q-2.015625 0 -4.09375 -2.078125q-3.40625 -3.40625 -3.703125 -10.015625l-9.0625 0l0 -0.453125l9.0625 0q-0.078125 -2.734375 -0.078125 -3.625l1.34375 0.21875q0.890625 0.140625 -0.375 0.59375q0 0.4375 0.078125 2.8125l4.453125 0l1.109375 -1.109375l1.40625 1.046875q0.453125 0.359375 0 0.515625l-6.96875 0zm-5.203125 8.90625q2.15625 -0.453125 4.375 -1.046875q0.453125 0.15625 0.078125 0.375q-3.78125 1.265625 -7.640625 2.453125q-0.15625 0.96875 -0.59375 0.375l-0.96875 -1.34375q1.9375 -0.296875 3.78125 -0.671875l0 -4.890625l-3.78125 0l0 -0.453125l6.234375 0l0.96875 -0.953125l1.1875 0.890625q0.4375 0.359375 0 0.515625l-3.640625 0l0 4.75zm25.156235 -2.671875q-0.4375 -1.265625 -1.703125 -2.453125q-0.21875 -0.296875 0.15625 -0.21875q2.59375 1.109375 2.59375 2.671875q0 0.671875 -0.515625 0.671875q-0.296875 0 -0.53125 -0.671875zm-3.703125 -2.15625q2.078125 -3.265625 3.046875 -8.234375l1.40625 0.4375q1.03125 0.296875 -0.296875 0.671875l-1.265625 3.046875l4.828125 0l0.4375 -0.59375l1.046875 0.734375q0.4375 0.375 -0.296875 0.53125l0 5.78125q0 3.5625 -1.046875 4.828125q-0.59375 0.75 -1.703125 1.1875q-1.03125 0.453125 -1.03125 -0.140625q0 -0.59375 -0.375 -0.671875l-1.34375 -0.375q-0.359375 -0.21875 0.078125 -0.296875l1.78125 0.140625q0.75 0.078125 1.484375 -0.359375q1.1875 -0.828125 1.1875 -4.453125l0 -5.875l-5.265625 0q-1.109375 2.375 -2.375 3.796875q-0.375 0.21875 -0.296875 -0.15625zm-0.453125 6.453125q-0.953125 0.90625 -0.953125 0.078125l0 -1.109375l-4.3124847 0l0 1.78125q-0.96875 0.890625 -0.96875 0.078125l0 -11.953125l1.125 0.59375l1.0312347 0l0.75 -4.15625l1.109375 0.296875q1.328125 0.296875 -0.21875 0.890625l-1.1875 2.96875l2.4375 0l0.453125 -0.59375l1.03125 0.734375q0.453125 0.375 -0.296875 0.53125l0 9.859375zm-0.953125 -10.09375l-4.3124847 0l0 3.859375l4.3124847 0l0 -3.859375zm-4.3124847 4.3125l0 4.296875l4.3124847 0l0 -4.296875l-4.3124847 0zm26.718735 -3.421875q0.59375 4.234375 2.0 6.234375q1.640625 -2.296875 2.234375 -6.234375l-4.234375 0zm-3.1875 3.640625q2.75 -3.5625 4.15625 -8.984375l1.5625 0.671875q0.296875 0.515625 -0.59375 0.453125q-0.671875 2.078125 -1.640625 3.78125l5.203125 0l0.953125 -0.96875l1.1875 0.890625q0.453125 0.375 0 0.515625l-2.21875 0q-0.890625 4.234375 -2.828125 6.984375q2.15625 1.921875 5.125 3.125q-0.96875 0.296875 -1.265625 0.890625q-2.515625 -1.265625 -4.453125 -3.28125q-2.59375 2.75 -7.1875 3.9375q-0.59375 -0.0625 -0.078125 -0.359375q4.078125 -1.5 6.75 -4.234375q-1.703125 -2.96875 -1.859375 -6.53125q-1.1875 2.0 -2.671875 3.328125q-0.359375 0.15625 -0.140625 -0.21875zm-4.53125 4.375q0 0.296875 0.296875 0.296875l3.265625 0q0.8125 0 0.96875 -0.734375l0.4375 -2.15625q0.15625 -0.140625 0.234375 0l0 2.296875q0 0.375 0.296875 0.59375q0.4375 0.375 -0.078125 0.671875q-0.375 0.21875 -1.109375 0.21875l-4.390625 0q-0.890625 0 -0.890625 -0.890625l0 -7.71875l1.125 0.53125l3.484375 0l0 -4.09375l-4.90625 0l0 -0.4375l4.6875 0l0.515625 -0.671875l1.1875 0.8125q0.59375 0.453125 -0.515625 0.59375l0 4.984375q-0.96875 0.890625 -0.96875 0.0625l0 -0.8125l-3.640625 0l0 6.453125z" fill-rule="nonzero"/><path fill="#b7b7b7" d="m298.82596 25.295162l0 5.828125l2.625 0l0 -5.828125l-2.625 0zm-6.921875 -0.4375l7.9375 0q-0.140625 -1.09375 -1.3125 -2.40625l0.15625 -0.21875q1.3125 0.578125 2.0 1.171875q0.6875 0.578125 -0.25 1.453125l5.3125 0l1.171875 -1.171875l1.59375 1.609375l-6.046875 0l0 5.828125l1.25 0l0.71875 -0.796875l1.234375 1.15625l-0.796875 0.375q-1.53125 1.890625 -3.78125 3.859375q2.84375 2.03125 7.578125 2.40625l0 0.28125q-1.09375 0.15625 -1.46875 0.875q-4.21875 -0.9375 -6.765625 -2.984375q-3.359375 2.1875 -8.609375 3.0625l-0.0625 -0.296875q5.015625 -1.15625 8.015625 -3.421875q-1.609375 -1.671875 -2.84375 -4.078125l-1.3125 0l-0.796875 0.140625l-0.59375 -0.578125l3.578125 0l0 -5.828125l-3.5 0q-0.953125 0 -1.75 0.21875l-0.65625 -0.65625zm5.53125 6.703125q1.3125 2.109375 3.0 3.5625q1.453125 -1.3125 3.28125 -3.5625l-6.28125 0zm-1.75 -5.171875l1.3125 1.15625l-0.71875 0.296875q-2.109375 2.265625 -4.515625 4.078125l-0.21875 -0.21875q1.3125 -1.15625 2.4375 -2.65625q1.125 -1.5 1.703125 -2.65625zm7.8125 0.4375q3.859375 1.890625 4.359375 2.546875q0.515625 0.65625 0.140625 1.3125q-0.359375 0.65625 -1.203125 -0.5q-0.828125 -1.171875 -3.515625 -3.140625l0.21875 -0.21875z" fill-rule="nonzero"/><path fill="#b7b7b7" d="m311.9197 36.857662q-0.59375 -0.296875 -0.59375 -0.890625q0 -0.296875 0.21875 -0.59375q0.296875 -0.296875 0.8125 -0.296875q0.59375 0 0.890625 0.453125q0.375 0.515625 0.375 1.03125q0 1.046875 -0.59375 1.9375q-0.59375 0.890625 -1.703125 1.34375l-0.296875 -0.375q0.671875 -0.453125 1.109375 -0.96875q0.375 -0.4375 0.375 -0.96875q0 -0.375 -0.59375 -0.671875zm11.2109375 2.15625q-0.453125 0.078125 -0.15625 -0.21875q3.421875 -2.234375 4.828125 -4.609375q-1.046875 -0.65625 -2.234375 -1.109375l-0.359375 1.109375q-1.046875 0.671875 -0.890625 -0.0625l2.0 -7.203125l-3.125 0l0 -0.453125l3.203125 0l0.953125 -4.21875l1.1875 0.359375q0.828125 0.296875 -0.359375 0.59375l-0.828125 3.265625l2.609375 0l0.4375 -0.65625l1.265625 1.03125q0.375 0.375 -0.671875 0.453125q-0.59375 3.921875 -2.078125 6.59375q1.265625 0.75 1.9375 1.421875q0.4375 0.4375 0.4375 0.953125q0 0.453125 -0.375 0.453125q-0.296875 0 -0.8125 -0.59375q-0.671875 -0.75 -1.5625 -1.484375q-2.0 2.890625 -5.40625 4.375zm4.15625 -12.09375l-1.5625 5.71875q1.265625 0.359375 2.375 0.890625q1.40625 -2.671875 1.921875 -6.609375l-2.734375 0zm6.828125 9.203125l0 1.109375q-0.96875 0.890625 -0.96875 0.078125l0 -12.09375l1.109375 0.734375l3.640625 0l0.4375 -0.59375l1.046875 0.75q0.4375 0.359375 -0.296875 0.515625l0 10.171875q-0.96875 0.890625 -0.96875 0.0625l0 -0.734375l-4.0 0zm0 -9.71875l0 9.265625l4.0 0l0 -9.265625l-4.0 0zm7.9375 5.5625q-0.453125 0.21875 -0.21875 -0.21875q3.03125 -4.828125 4.21875 -9.4375l1.421875 0.59375q0.734375 0.296875 -0.53125 0.59375q-0.8125 2.015625 -1.78125 3.796875l0.53125 0.296875q0.515625 0.359375 0 0.515625l-0.375 0.078125l0 10.53125q-0.96875 0.890625 -0.96875 0.078125l0 -9.875q-1.109375 1.703125 -2.296875 3.046875zm5.34375 -7.046875l9.578125 0l1.109375 -1.125l1.40625 1.046875q0.453125 0.375 0 0.515625l-2.375 0l0 11.578125q0 0.890625 -0.515625 1.34375q-0.453125 0.375 -1.046875 0.4375q-0.4375 0.078125 -0.4375 -0.359375q0 -0.375 -0.375 -0.53125l-1.1875 -0.296875q-0.375 -0.140625 0 -0.296875l1.9375 0q0.65625 0 0.65625 -0.671875l0 -11.203125l-8.75 0l0 -0.4375zm4.53125 3.109375l0.4375 -0.59375l1.046875 0.75q0.4375 0.359375 -0.296875 0.515625l0 5.265625q-0.96875 0.890625 -0.96875 0.078125l0 -0.75l-2.453125 0l0 1.71875q-0.96875 0.890625 -0.96875 0.0625l0 -7.484375l1.125 0.4375l2.078125 0zm0.21875 0.453125l-2.453125 0l0 4.375l2.453125 0l0 -4.375z" fill-rule="nonzero"/><path fill="#b7b7b7" d="m367.36502 28.279537l0.15625 -0.21875q1.53125 1.015625 2.140625 1.71875q0.625 0.6875 0.578125 1.203125q-0.03125 0.5 -0.46875 0.9375q-0.4375 0.4375 -0.84375 -0.875q-0.390625 -1.3125 -1.5625 -2.765625zm5.546875 -1.671875q0 -3.203125 -0.078125 -4.296875l1.671875 0.796875l-0.578125 0.578125l0 2.921875l1.609375 0l0.9375 -0.953125l1.3125 1.390625l-3.859375 0l0 7.859375q0 0.8125 -0.328125 1.25q-0.328125 0.4375 -1.046875 0.71875q-0.4375 -1.15625 -2.484375 -1.671875l0 -0.296875q1.96875 0.21875 2.40625 0.21875q0.4375 0 0.4375 -0.578125l0 -7.5l-5.03125 0q-0.578125 0 -1.390625 0.21875l-0.65625 -0.65625l7.078125 0zm-10.5 -3.28125l0.15625 -0.21875q1.3125 0.65625 1.890625 1.203125q0.578125 0.546875 0.53125 1.09375q-0.03125 0.546875 -0.46875 0.90625q-0.421875 0.359375 -0.796875 -0.796875q-0.359375 -1.171875 -1.3125 -2.1875zm2.484375 12.234375q0.796875 0.734375 1.84375 1.25q1.0625 0.5 3.390625 0.65625q2.34375 0.140625 4.234375 0.03125q1.890625 -0.109375 3.640625 -0.25l0 0.28125q-1.453125 0.296875 -1.453125 1.171875q-3.28125 -0.078125 -5.4375 -0.1875q-2.140625 -0.109375 -3.390625 -0.515625q-1.234375 -0.390625 -2.109375 -1.1875q-0.859375 -0.8125 -1.1875 -0.8125q-0.328125 0 -1.0625 0.8125q-0.734375 0.796875 -1.3125 1.8125l-1.015625 -1.015625q1.3125 -0.953125 2.84375 -2.046875l0 -5.96875l-0.59375 0q-0.9375 0 -1.75 0.21875l-0.65625 -0.65625l2.78125 0l0.796875 -0.796875l1.015625 1.015625l-0.578125 0.515625l0 5.671875z" fill-rule="nonzero"/><path fill="#b7b7b7" d="m391.2869 35.748287q1.484375 -1.1875 2.375 -2.296875l-4.609375 0q1.1875 1.5625 2.234375 2.296875zm-4.90625 -2.296875q-1.03125 3.265625 -2.734375 4.96875q-0.453125 0.234375 -0.234375 -0.21875q2.375 -3.640625 2.375 -7.875l0 -6.0l1.125 0.65625l3.40625 0l0 -2.375l1.265625 0.234375q0.59375 0.359375 -0.296875 0.515625l0 1.625l3.109375 0l0.96875 -0.953125l1.1875 0.890625q0.453125 0.359375 0 0.515625l-9.796875 0l0 2.515625l1.9375 0l0 -2.078125l1.25 0.234375q0.59375 0.359375 -0.296875 0.515625l0 1.328125l2.53125 0l0 -2.078125l1.265625 0.234375q0.59375 0.359375 -0.296875 0.515625l0 1.328125l1.84375 0l0.828125 -0.8125l1.03125 0.75q0.453125 0.359375 0 0.515625l-3.703125 0l0 3.265625q-0.96875 0.890625 -0.96875 0.078125l0 -0.75l-2.53125 0l0 0.890625q-0.953125 0.890625 -0.953125 0.078125l0 -3.5625l-1.9375 0l0 1.484375q0 2.0 -0.296875 3.109375l7.34375 0l0.671875 -0.65625l1.046875 0.734375q0.734375 0.671875 -0.53125 0.515625q-1.328125 1.34375 -2.96875 2.609375q2.375 1.1875 5.046875 1.484375q-0.734375 0.59375 -1.109375 1.265625q-2.75 -0.828125 -4.59375 -2.234375q-2.90625 1.78125 -6.90625 2.671875q-0.515625 0 -0.15625 -0.296875q3.796875 -1.109375 6.390625 -2.890625q-1.109375 -1.046875 -2.234375 -2.75l-2.078125 0zm-3.703125 -0.8125q-0.296875 0.734375 -0.296875 2.140625q0 0.75 0.140625 1.71875q0.234375 1.1875 0.15625 1.921875q-0.15625 0.59375 -0.671875 0.59375q-0.375 0 -0.59375 -0.4375q-0.140625 -0.671875 -0.078125 -1.640625q0.078125 -1.265625 0.078125 -2.15625q0 -0.734375 -0.59375 -0.890625l-1.109375 -0.140625l0 -0.296875l1.625 0l3.71875 -9.359375q0.296875 -0.359375 0.296875 0.15625l-2.671875 8.390625zm-1.265625 -4.15625q-0.515625 -1.125 -1.40625 -1.78125q-0.296875 -0.296875 0.078125 -0.296875q2.375 0.734375 2.375 1.84375q0 0.75 -0.53125 0.671875q-0.359375 -0.078125 -0.515625 -0.4375zm1.5625 -4.015625q-0.59375 -1.03125 -1.5625 -1.625q-0.21875 -0.234375 0.078125 -0.234375q2.515625 0.59375 2.515625 1.78125q0 0.671875 -0.515625 0.671875q-0.296875 0 -0.515625 -0.59375zm9.203125 6.09375l0 -2.15625l-2.53125 0l0 2.15625l2.53125 0zm15.65625 6.671875q-0.296875 0.296875 -0.734375 0.296875q-0.453125 0 -0.75 -0.296875q-0.296875 -0.296875 -0.296875 -0.734375q0 -0.453125 0.296875 -0.75q0.296875 -0.296875 0.75 -0.296875q0.4375 0 0.734375 0.296875q0.296875 0.296875 0.296875 0.75q0 0.4375 -0.296875 0.734375zm-4.828125 -8.3125q-0.359375 -0.375 -0.359375 -1.265625q0 -1.484375 1.25 -2.4375q1.34375 -0.96875 3.265625 -0.96875q2.015625 0 3.34375 0.96875q1.40625 0.953125 1.40625 2.515625q0 1.265625 -0.8125 2.0q-0.8125 0.75 -2.0 1.265625q-0.96875 0.375 -1.34375 0.8125q-0.359375 0.375 -0.4375 1.1875l-0.078125 0.75l-0.515625 0l0 -1.109375q0 -0.828125 0.296875 -1.421875q0.296875 -0.515625 1.109375 -0.953125q1.109375 -0.671875 1.5625 -1.125q0.515625 -0.359375 0.515625 -1.625q0 -1.265625 -0.8125 -1.9375q-0.8125 -0.65625 -2.375 -0.65625q-1.78125 0 -2.75 0.734375q-0.96875 0.75 -0.96875 1.9375q0.15625 -0.15625 0.375 -0.234375q0.21875 -0.0625 0.515625 -0.0625q0.453125 0 0.671875 0.296875q0.296875 0.296875 0.296875 0.734375q0 0.453125 -0.296875 0.75q-0.21875 0.296875 -0.8125 0.296875q-0.59375 0 -1.046875 -0.453125z" fill-rule="nonzero"/></g></svg>