<svg version="1.1" viewBox="0.0 0.0 960.0 540.0" fill="none" stroke="none" stroke-linecap="square" stroke-miterlimit="10" xmlns:xlink="http://www.w3.org/1999/xlink" xmlns="http://www.w3.org/2000/svg"><clipPath id="g5cf35b70de_0_300.0"><path d="m0 0l960.0 0l0 540.0l-960.0 0l0 -540.0z" clip-rule="nonzero"/></clipPath><g clip-path="url(#g5cf35b70de_0_300.0)"><path fill="#37474f" d="m0 0l960.0 0l0 540.0l-960.0 0z" fill-rule="evenodd"/><path fill="#ffffff" d="m474.46158 305.3221l0 0c0 -3.0624084 2.4830627 -5.544983 5.5460815 -5.544983l0 0c1.4709167 0 2.8815918 0.584198 3.9216614 1.6240845c1.0401001 1.0398865 1.6244202 2.4502869 1.6244202 3.9208984l0 0c0 3.0624084 -2.4830627 5.5450134 -5.5460815 5.5450134l0 0c-3.0630188 0 -5.5460815 -2.482605 -5.5460815 -5.5450134z" fill-rule="evenodd"/><path fill="#ffffff" d="m492.201 305.3221l0 0c0 -3.0624084 2.4830627 -5.544983 5.5460815 -5.544983l0 0c1.4709167 0 2.8815918 0.584198 3.921692 1.6240845c1.0400696 1.0398865 1.6243896 2.4502869 1.6243896 3.9208984l0 0c0 3.0624084 -2.4830627 5.5450134 -5.5460815 5.5450134l0 0c-3.0630188 0 -5.5460815 -2.482605 -5.5460815 -5.5450134z" fill-rule="evenodd"/><path fill="#ffffff" d="m456.72217 305.3221l0 0c0 -3.0624084 2.4830627 -5.544983 5.5460815 -5.544983l0 0c1.4709167 0 2.8815918 0.584198 3.9216614 1.6240845c1.0401001 1.0398865 1.6244202 2.4502869 1.6244202 3.9208984l0 0c0 3.0624084 -2.4830627 5.5450134 -5.5460815 5.5450134l0 0c-3.0630188 0 -5.5460815 -2.482605 -5.5460815 -5.5450134z" fill-rule="evenodd"/><path fill="#000000" fill-opacity="0.0" d="m70.47324 104.020996l819.0551 0l0 181.63779l-819.0551 0z" fill-rule="evenodd"/><path fill="#ffffff" d="m446.2508 217.09879l9.5 0q-0.25 3.5 -0.25 9.25l0 35.5q0 3.25 -2.125 4.0q-2.125 0.75 -5.875 1.25q-0.75 -2.25 -2.25 -5.0q4.25 0 5.25 -0.5q1.0 -0.5 1.0 -2.25l0 -11.25l-1.5 0q-1.75 4.0 -5.0 8.625q-3.25 4.625 -8.5 9.125q-1.25 -1.5 -4.75 -3.0q5.25 -3.5 8.375 -7.125q3.125 -3.625 5.125 -7.625l-3.75 0q-4.25 0 -8.25 0.25l0 -4.25q2.25 0.25 4.25 0.25l0 -17.25q0 -6.0 -0.25 -10.0l4.25 0q1.75 -2.25 3.0 -8.0q1.5 1.0 4.75 2.0l-3.0 6.0zm21.5 8.5q0 -12.25 -0.25 -15.25l5.0 0q-0.5 3.0 -0.5 15.25q2.0 0 4.5 -0.25l0 4.25q-2.5 -0.25 -4.5 -0.25l0 33.0q0 3.75 -1.75 4.375q-1.75 0.625 -7.0 1.375q-0.5 -3.0 -2.0 -5.0q3.75 0 5.125 -0.25q1.375 -0.25 1.375 -2.0l0 -31.5q-6.75 0 -9.75 0.25l0 -4.25q3.0 0.25 9.75 0.25zm-38.0 3.5q-0.25 4.0 -0.25 9.25l0 15.0q1.5 -2.25 3.25 -4.5q1.0 2.0 2.5 3.75q-2.5 3.0 -4.875 5.875q-2.375 2.875 -3.375 4.875q-2.0 -2.0 -4.25 -3.5q2.5 -1.5 2.5 -3.5l0 -23.75q-2.25 0 -5.75 0.25l0 -4.0q2.75 0.25 6.5 0.25l3.75 0zm21.75 15.25l0 -5.75l-9.75 0l0 5.75l9.75 0zm-26.0 -33.5q2.5 2.75 7.25 9.75q-2.75 1.75 -3.75 2.75q-3.0 -5.5 -7.25 -10.25q2.0 -1.0 3.75 -2.25zm34.5 24.5q3.0 4.5 6.25 10.5q-2.75 1.5 -4.0 2.5q-2.0 -4.75 -5.75 -11.0l3.5 -2.0zm-8.5 -9.25l0 -5.25l-9.75 0l0 5.25l9.75 0zm0 8.75l0 -5.25l-9.75 0l0 5.25l9.75 0zm58.75 -17.75l9.5 0q-0.25 3.5 -0.25 9.25l0 35.5q0 3.25 -2.125 4.0q-2.125 0.75 -5.875 1.25q-0.75 -2.25 -2.25 -5.0q4.25 0 5.25 -0.5q1.0 -0.5 1.0 -2.25l0 -11.25l-1.5 0q-1.75 4.0 -5.0 8.625q-3.25 4.625 -8.5 9.125q-1.25 -1.5 -4.75 -3.0q5.25 -3.5 8.375 -7.125q3.125 -3.625 5.125 -7.625l-3.75 0q-4.25 0 -8.25 0.25l0 -4.25q2.25 0.25 4.25 0.25l0 -17.25q0 -6.0 -0.25 -10.0l4.25 0q1.75 -2.25 3.0 -8.0q1.5 1.0 4.75 2.0l-3.0 6.0zm21.5 8.5q0 -12.25 -0.25 -15.25l5.0 0q-0.5 3.0 -0.5 15.25q2.0 0 4.5 -0.25l0 4.25q-2.5 -0.25 -4.5 -0.25l0 33.0q0 3.75 -1.75 4.375q-1.75 0.625 -7.0 1.375q-0.5 -3.0 -2.0 -5.0q3.75 0 5.125 -0.25q1.375 -0.25 1.375 -2.0l0 -31.5q-6.75 0 -9.75 0.25l0 -4.25q3.0 0.25 9.75 0.25zm-38.0 3.5q-0.25 4.0 -0.25 9.25l0 15.0q1.5 -2.25 3.25 -4.5q1.0 2.0 2.5 3.75q-2.5 3.0 -4.875 5.875q-2.375 2.875 -3.375 4.875q-2.0 -2.0 -4.25 -3.5q2.5 -1.5 2.5 -3.5l0 -23.75q-2.25 0 -5.75 0.25l0 -4.0q2.75 0.25 6.5 0.25l3.75 0zm21.75 15.25l0 -5.75l-9.75 0l0 5.75l9.75 0zm-26.0 -33.5q2.5 2.75 7.25 9.75q-2.75 1.75 -3.75 2.75q-3.0 -5.5 -7.25 -10.25q2.0 -1.0 3.75 -2.25zm34.5 24.5q3.0 4.5 6.25 10.5q-2.75 1.5 -4.0 2.5q-2.0 -4.75 -5.75 -11.0l3.5 -2.0zm-8.5 -9.25l0 -5.25l-9.75 0l0 5.25l9.75 0zm0 8.75l0 -5.25l-9.75 0l0 5.25l9.75 0z" fill-rule="nonzero"/></g></svg>